%TF.GenerationSoftware,KiCad,Pcbnew,(6.0.1)*%
%TF.CreationDate,2022-10-02T00:08:38-05:00*%
%TF.ProjectId,PCBFiles_Node,50434246-696c-4657-935f-4e6f64652e6b,rev?*%
%TF.SameCoordinates,Original*%
%TF.FileFunction,Soldermask,Top*%
%TF.FilePolarity,Negative*%
%FSLAX46Y46*%
G04 Gerber Fmt 4.6, Leading zero omitted, Abs format (unit mm)*
G04 Created by KiCad (PCBNEW (6.0.1)) date 2022-10-02 00:08:38*
%MOMM*%
%LPD*%
G01*
G04 APERTURE LIST*
G04 Aperture macros list*
%AMRoundRect*
0 Rectangle with rounded corners*
0 $1 Rounding radius*
0 $2 $3 $4 $5 $6 $7 $8 $9 X,Y pos of 4 corners*
0 Add a 4 corners polygon primitive as box body*
4,1,4,$2,$3,$4,$5,$6,$7,$8,$9,$2,$3,0*
0 Add four circle primitives for the rounded corners*
1,1,$1+$1,$2,$3*
1,1,$1+$1,$4,$5*
1,1,$1+$1,$6,$7*
1,1,$1+$1,$8,$9*
0 Add four rect primitives between the rounded corners*
20,1,$1+$1,$2,$3,$4,$5,0*
20,1,$1+$1,$4,$5,$6,$7,0*
20,1,$1+$1,$6,$7,$8,$9,0*
20,1,$1+$1,$8,$9,$2,$3,0*%
G04 Aperture macros list end*
%ADD10R,3.000000X3.000000*%
%ADD11C,3.000000*%
%ADD12RoundRect,0.140000X0.140000X0.170000X-0.140000X0.170000X-0.140000X-0.170000X0.140000X-0.170000X0*%
%ADD13RoundRect,0.075000X-0.075000X0.700000X-0.075000X-0.700000X0.075000X-0.700000X0.075000X0.700000X0*%
%ADD14RoundRect,0.075000X-0.700000X0.075000X-0.700000X-0.075000X0.700000X-0.075000X0.700000X0.075000X0*%
%ADD15RoundRect,0.140000X0.170000X-0.140000X0.170000X0.140000X-0.170000X0.140000X-0.170000X-0.140000X0*%
%ADD16RoundRect,0.140000X-0.140000X-0.170000X0.140000X-0.170000X0.140000X0.170000X-0.140000X0.170000X0*%
%ADD17RoundRect,0.250000X0.650000X-0.325000X0.650000X0.325000X-0.650000X0.325000X-0.650000X-0.325000X0*%
%ADD18C,0.700000*%
%ADD19C,4.400000*%
%ADD20RoundRect,0.140000X-0.170000X0.140000X-0.170000X-0.140000X0.170000X-0.140000X0.170000X0.140000X0*%
%ADD21RoundRect,0.147500X-0.147500X-0.172500X0.147500X-0.172500X0.147500X0.172500X-0.147500X0.172500X0*%
%ADD22RoundRect,0.135000X-0.135000X-0.185000X0.135000X-0.185000X0.135000X0.185000X-0.135000X0.185000X0*%
%ADD23RoundRect,0.200000X-0.200000X-0.275000X0.200000X-0.275000X0.200000X0.275000X-0.200000X0.275000X0*%
%ADD24R,1.000000X1.800000*%
%ADD25R,0.900000X1.700000*%
%ADD26RoundRect,0.200000X0.200000X0.275000X-0.200000X0.275000X-0.200000X-0.275000X0.200000X-0.275000X0*%
%ADD27R,1.150000X0.600000*%
%ADD28R,1.700000X1.700000*%
%ADD29O,1.700000X1.700000*%
%ADD30R,3.000000X1.300000*%
%ADD31RoundRect,0.218750X-0.218750X-0.256250X0.218750X-0.256250X0.218750X0.256250X-0.218750X0.256250X0*%
%ADD32RoundRect,0.218750X0.218750X0.256250X-0.218750X0.256250X-0.218750X-0.256250X0.218750X-0.256250X0*%
%ADD33R,3.600000X1.270000*%
%ADD34R,4.200000X1.350000*%
G04 APERTURE END LIST*
D10*
%TO.C,J1*%
X105900000Y-82840000D03*
D11*
X105900000Y-77760000D03*
%TD*%
D12*
%TO.C,C13*%
X126430000Y-76555000D03*
X125470000Y-76555000D03*
%TD*%
D13*
%TO.C,U1*%
X130650000Y-81325000D03*
X130150000Y-81325000D03*
X129650000Y-81325000D03*
X129150000Y-81325000D03*
X128650000Y-81325000D03*
X128150000Y-81325000D03*
X127650000Y-81325000D03*
X127150000Y-81325000D03*
X126650000Y-81325000D03*
X126150000Y-81325000D03*
X125650000Y-81325000D03*
X125150000Y-81325000D03*
X124650000Y-81325000D03*
X124150000Y-81325000D03*
X123650000Y-81325000D03*
X123150000Y-81325000D03*
D14*
X121225000Y-83250000D03*
X121225000Y-83750000D03*
X121225000Y-84250000D03*
X121225000Y-84750000D03*
X121225000Y-85250000D03*
X121225000Y-85750000D03*
X121225000Y-86250000D03*
X121225000Y-86750000D03*
X121225000Y-87250000D03*
X121225000Y-87750000D03*
X121225000Y-88250000D03*
X121225000Y-88750000D03*
X121225000Y-89250000D03*
X121225000Y-89750000D03*
X121225000Y-90250000D03*
X121225000Y-90750000D03*
D13*
X123150000Y-92675000D03*
X123650000Y-92675000D03*
X124150000Y-92675000D03*
X124650000Y-92675000D03*
X125150000Y-92675000D03*
X125650000Y-92675000D03*
X126150000Y-92675000D03*
X126650000Y-92675000D03*
X127150000Y-92675000D03*
X127650000Y-92675000D03*
X128150000Y-92675000D03*
X128650000Y-92675000D03*
X129150000Y-92675000D03*
X129650000Y-92675000D03*
X130150000Y-92675000D03*
X130650000Y-92675000D03*
D14*
X132575000Y-90750000D03*
X132575000Y-90250000D03*
X132575000Y-89750000D03*
X132575000Y-89250000D03*
X132575000Y-88750000D03*
X132575000Y-88250000D03*
X132575000Y-87750000D03*
X132575000Y-87250000D03*
X132575000Y-86750000D03*
X132575000Y-86250000D03*
X132575000Y-85750000D03*
X132575000Y-85250000D03*
X132575000Y-84750000D03*
X132575000Y-84250000D03*
X132575000Y-83750000D03*
X132575000Y-83250000D03*
%TD*%
D15*
%TO.C,C10*%
X124200000Y-78180000D03*
X124200000Y-77220000D03*
%TD*%
D16*
%TO.C,C11*%
X124320000Y-79350000D03*
X125280000Y-79350000D03*
%TD*%
D17*
%TO.C,C1*%
X113000000Y-84575000D03*
X113000000Y-81625000D03*
%TD*%
D18*
%TO.C,H1*%
X166133274Y-87833274D03*
X167300000Y-90650000D03*
X168950000Y-89000000D03*
D19*
X167300000Y-89000000D03*
D18*
X167300000Y-87350000D03*
X168466726Y-87833274D03*
X166133274Y-90166726D03*
X168466726Y-90166726D03*
X165650000Y-89000000D03*
%TD*%
D20*
%TO.C,C8*%
X134600000Y-82770000D03*
X134600000Y-83730000D03*
%TD*%
D15*
%TO.C,C3*%
X133350000Y-80480000D03*
X133350000Y-79520000D03*
%TD*%
%TO.C,C6*%
X119200000Y-90980000D03*
X119200000Y-90020000D03*
%TD*%
D21*
%TO.C,L1*%
X121965000Y-78250000D03*
X122935000Y-78250000D03*
%TD*%
D17*
%TO.C,C2*%
X115700000Y-84575000D03*
X115700000Y-81625000D03*
%TD*%
D22*
%TO.C,R1*%
X135490000Y-85250000D03*
X136510000Y-85250000D03*
%TD*%
D23*
%TO.C,R2*%
X120225000Y-101950000D03*
X121875000Y-101950000D03*
%TD*%
D24*
%TO.C,Y1*%
X126550000Y-78300000D03*
X129050000Y-78300000D03*
%TD*%
D25*
%TO.C,RESET*%
X143600000Y-79400000D03*
X147000000Y-79400000D03*
%TD*%
D26*
%TO.C,R3*%
X118325000Y-101950000D03*
X116675000Y-101950000D03*
%TD*%
D16*
%TO.C,C4*%
X130770000Y-79350000D03*
X131730000Y-79350000D03*
%TD*%
D27*
%TO.C,U3*%
X113150000Y-88250000D03*
X113150000Y-89200000D03*
X113150000Y-90150000D03*
X115650000Y-90150000D03*
X115650000Y-88250000D03*
%TD*%
D28*
%TO.C,J4*%
X141800000Y-102775000D03*
D29*
X144340000Y-102775000D03*
X146880000Y-102775000D03*
X149420000Y-102775000D03*
X151960000Y-102775000D03*
X154500000Y-102775000D03*
X157040000Y-102775000D03*
%TD*%
D16*
%TO.C,C9*%
X144745000Y-77250000D03*
X145705000Y-77250000D03*
%TD*%
%TO.C,C12*%
X129170000Y-76555000D03*
X130130000Y-76555000D03*
%TD*%
D12*
%TO.C,C7*%
X131230000Y-94800000D03*
X130270000Y-94800000D03*
%TD*%
D30*
%TO.C,U2*%
X141487500Y-83000000D03*
X141487500Y-85000000D03*
X141487500Y-87000000D03*
X141487500Y-89000000D03*
X141487500Y-91000000D03*
X141487500Y-93000000D03*
X141487500Y-95000000D03*
X141487500Y-97000000D03*
X156487500Y-83000000D03*
X156487500Y-85000000D03*
X156487500Y-87000000D03*
X156487500Y-89000000D03*
X156487500Y-91000000D03*
X156487500Y-93000000D03*
X156487500Y-95000000D03*
X156487500Y-97000000D03*
%TD*%
D15*
%TO.C,C5*%
X119200000Y-84430000D03*
X119200000Y-83470000D03*
%TD*%
D18*
%TO.C,H2*%
X106850000Y-89000000D03*
X105200000Y-90650000D03*
D19*
X105200000Y-89000000D03*
D18*
X104033274Y-87833274D03*
X106366726Y-90166726D03*
X104033274Y-90166726D03*
X106366726Y-87833274D03*
X105200000Y-87350000D03*
X103550000Y-89000000D03*
%TD*%
D31*
%TO.C,D2*%
X120212500Y-99300000D03*
X121787500Y-99300000D03*
%TD*%
D32*
%TO.C,D3*%
X121737500Y-96750000D03*
X120162500Y-96750000D03*
%TD*%
D28*
%TO.C,J2*%
X127300000Y-102275000D03*
D29*
X129840000Y-102275000D03*
X132380000Y-102275000D03*
X134920000Y-102275000D03*
%TD*%
D33*
%TO.C,J7*%
X162537500Y-100400000D03*
D34*
X162337500Y-103225000D03*
X162337500Y-97575000D03*
%TD*%
D28*
%TO.C,J5*%
X109500000Y-102100000D03*
D29*
X109500000Y-99560000D03*
X109500000Y-97020000D03*
X109500000Y-94480000D03*
%TD*%
D28*
%TO.C,J3*%
X161800000Y-76300000D03*
D29*
X161800000Y-78840000D03*
X161800000Y-81380000D03*
X161800000Y-83920000D03*
X161800000Y-86460000D03*
X161800000Y-89000000D03*
X161800000Y-91540000D03*
X161800000Y-94080000D03*
%TD*%
M02*
