M48
; DRILL file {KiCad (6.0.1)} date Fri Oct 14 11:39:44 2022
; FORMAT={-:-/ absolute / inch / decimal}
; #@! TF.CreationDate,2022-10-14T11:39:44-05:00
; #@! TF.GenerationSoftware,Kicad,Pcbnew,(6.0.1)
; #@! TF.FileFunction,Plated,1,2,PTH
FMAT,2
INCH
; #@! TA.AperFunction,Plated,PTH,ViaDrill
T1C0.0118
; #@! TA.AperFunction,Plated,PTH,ComponentDrill
T2C0.0157
; #@! TA.AperFunction,Plated,PTH,ComponentDrill
T3C0.0394
; #@! TA.AperFunction,Plated,PTH,ComponentDrill
T4C0.0598
; #@! TA.AperFunction,Plated,PTH,ComponentDrill
T5C0.0866
%
G90
G05
T1
X1.9921Y-3.4291
X2.0433Y-3.4803
X2.0492Y-3.5472
X2.1024Y-3.5807
X2.2283Y-3.876
X2.2776Y-4.3799
X2.3799Y-3.7283
X2.4213Y-3.622
X2.4213Y-3.878
X2.565Y-3.685
X2.5728Y-4.3799
X2.5846Y-3.4075
X2.6161Y-3.628
X2.6339Y-3.378
X2.6614Y-3.4606
X2.6988Y-3.815
X2.7343Y-3.7185
X2.7795Y-3.6772
X2.8484Y-3.7421
X2.8622Y-4.1417
X2.8661Y-3.4567
X2.8858Y-3.3819
X2.9764Y-3.4173
X3.035Y-3.7709
X3.0591Y-3.6634
X3.0705Y-3.8236
X3.1024Y-3.6909
X3.1752Y-3.9488
X3.1811Y-4.0787
X3.189Y-3.8228
X3.1988Y-3.7343
X3.2362Y-3.4961
X3.3287Y-4.252
X3.3976Y-4.185
X3.4134Y-3.9449
X3.6319Y-3.9291
X3.9843Y-4.1142
X3.9961Y-4.3819
X4.002Y-4.1594
X4.0075Y-4.4161
X4.0091Y-4.1902
T2
X1.8051Y-3.8701
X1.8241Y-3.8241
X1.8241Y-3.916
X1.8701Y-3.8051
X1.8701Y-3.935
X1.916Y-3.8241
X1.916Y-3.916
X1.935Y-3.8701
X4.25Y-3.8701
X4.269Y-3.8241
X4.269Y-3.916
X4.315Y-3.8051
X4.315Y-3.935
X4.3609Y-3.8241
X4.3609Y-3.916
X4.3799Y-3.8701
T3
X2.0394Y-4.0858
X2.0394Y-4.1858
X2.0394Y-4.2858
X2.0394Y-4.3858
X2.7402Y-4.3927
X2.8402Y-4.3927
X2.9402Y-4.3927
X3.0402Y-4.3927
X3.311Y-4.4124
X3.411Y-4.4124
X3.511Y-4.4124
X3.611Y-4.4124
X3.711Y-4.4124
X3.811Y-4.4124
X3.911Y-4.4124
X4.0984Y-3.3701
X4.0984Y-3.4701
X4.0984Y-3.5701
X4.0984Y-3.6701
X4.0984Y-3.7701
X4.0984Y-3.8701
X4.0984Y-3.9701
X4.0984Y-4.0701
T4
X1.8976Y-3.4276
X1.8976Y-3.6276
T5
X1.8701Y-3.8701
X4.315Y-3.8701
T0
M30
