M48
; DRILL file {KiCad (6.0.1)} date Sun Oct  2 00:08:32 2022
; FORMAT={-:-/ absolute / inch / decimal}
; #@! TF.CreationDate,2022-10-02T00:08:32-05:00
; #@! TF.GenerationSoftware,Kicad,Pcbnew,(6.0.1)
; #@! TF.FileFunction,Plated,1,2,PTH
FMAT,2
INCH
; #@! TA.AperFunction,Plated,PTH,ViaDrill
T1C0.0118
; #@! TA.AperFunction,Plated,PTH,ViaDrill
T2C0.0157
; #@! TA.AperFunction,Plated,PTH,ComponentDrill
T3C0.0157
; #@! TA.AperFunction,Plated,PTH,ComponentDrill
T4C0.0394
; #@! TA.AperFunction,Plated,PTH,ComponentDrill
T5C0.0598
; #@! TA.AperFunction,Plated,PTH,ComponentDrill
T6C0.0866
%
G90
G05
T1
X4.6929Y-3.2559
X4.8563Y-3.0413
X4.9331Y-3.0945
X4.9402Y-3.0398
X5.124Y-3.0512
X5.1949Y-3.0827
X5.2579Y-3.0945
X5.3307Y-3.2972
X5.374Y-3.3248
T2
X4.5Y-3.5098
X4.5492Y-4.0138
X4.6516Y-3.3622
X4.6929Y-3.5118
X4.8366Y-3.3189
X4.8445Y-4.0138
X4.8878Y-3.2618
X4.9705Y-3.4488
X5.0059Y-3.3524
X5.0512Y-3.311
X5.1201Y-3.376
X5.1339Y-3.7756
X5.3051Y-3.4094
X5.3307Y-3.4469
X5.4469Y-3.5827
X5.4606Y-3.4567
X5.4705Y-3.3681
X5.5079Y-3.1299
X5.6004Y-3.8858
X5.6693Y-3.8189
X5.685Y-3.5787
X5.9035Y-3.563
T3
X4.0768Y-3.5039
X4.0958Y-3.458
X4.0958Y-3.5499
X4.1417Y-3.439
X4.1417Y-3.5689
X4.1877Y-3.458
X4.1877Y-3.5499
X4.2067Y-3.5039
X6.5217Y-3.5039
X6.5407Y-3.458
X6.5407Y-3.5499
X6.5866Y-3.439
X6.5866Y-3.5689
X6.6325Y-3.458
X6.6325Y-3.5499
X6.6516Y-3.5039
T4
X4.311Y-3.7197
X4.311Y-3.8197
X4.311Y-3.9197
X4.311Y-4.0197
X5.0118Y-4.0266
X5.1118Y-4.0266
X5.2118Y-4.0266
X5.3118Y-4.0266
X5.5827Y-4.0463
X5.6827Y-4.0463
X5.7827Y-4.0463
X5.8827Y-4.0463
X5.9827Y-4.0463
X6.0827Y-4.0463
X6.1827Y-4.0463
X6.3701Y-3.0039
X6.3701Y-3.1039
X6.3701Y-3.2039
X6.3701Y-3.3039
X6.3701Y-3.4039
X6.3701Y-3.5039
X6.3701Y-3.6039
X6.3701Y-3.7039
T5
X4.1693Y-3.0614
X4.1693Y-3.2614
T6
X4.1417Y-3.5039
X6.5866Y-3.5039
T0
M30
