%TF.GenerationSoftware,KiCad,Pcbnew,(6.0.1)*%
%TF.CreationDate,2022-10-14T11:39:46-05:00*%
%TF.ProjectId,PCBFiles_Node,50434246-696c-4657-935f-4e6f64652e6b,rev?*%
%TF.SameCoordinates,Original*%
%TF.FileFunction,Paste,Top*%
%TF.FilePolarity,Positive*%
%FSLAX46Y46*%
G04 Gerber Fmt 4.6, Leading zero omitted, Abs format (unit mm)*
G04 Created by KiCad (PCBNEW (6.0.1)) date 2022-10-14 11:39:46*
%MOMM*%
%LPD*%
G01*
G04 APERTURE LIST*
G04 Aperture macros list*
%AMRoundRect*
0 Rectangle with rounded corners*
0 $1 Rounding radius*
0 $2 $3 $4 $5 $6 $7 $8 $9 X,Y pos of 4 corners*
0 Add a 4 corners polygon primitive as box body*
4,1,4,$2,$3,$4,$5,$6,$7,$8,$9,$2,$3,0*
0 Add four circle primitives for the rounded corners*
1,1,$1+$1,$2,$3*
1,1,$1+$1,$4,$5*
1,1,$1+$1,$6,$7*
1,1,$1+$1,$8,$9*
0 Add four rect primitives between the rounded corners*
20,1,$1+$1,$2,$3,$4,$5,0*
20,1,$1+$1,$4,$5,$6,$7,0*
20,1,$1+$1,$6,$7,$8,$9,0*
20,1,$1+$1,$8,$9,$2,$3,0*%
G04 Aperture macros list end*
%ADD10RoundRect,0.140000X0.140000X0.170000X-0.140000X0.170000X-0.140000X-0.170000X0.140000X-0.170000X0*%
%ADD11R,0.450000X0.600000*%
%ADD12RoundRect,0.075000X-0.075000X0.700000X-0.075000X-0.700000X0.075000X-0.700000X0.075000X0.700000X0*%
%ADD13RoundRect,0.075000X-0.700000X0.075000X-0.700000X-0.075000X0.700000X-0.075000X0.700000X0.075000X0*%
%ADD14RoundRect,0.140000X0.170000X-0.140000X0.170000X0.140000X-0.170000X0.140000X-0.170000X-0.140000X0*%
%ADD15RoundRect,0.140000X-0.140000X-0.170000X0.140000X-0.170000X0.140000X0.170000X-0.140000X0.170000X0*%
%ADD16RoundRect,0.250000X0.650000X-0.325000X0.650000X0.325000X-0.650000X0.325000X-0.650000X-0.325000X0*%
%ADD17RoundRect,0.140000X-0.170000X0.140000X-0.170000X-0.140000X0.170000X-0.140000X0.170000X0.140000X0*%
%ADD18RoundRect,0.147500X-0.147500X-0.172500X0.147500X-0.172500X0.147500X0.172500X-0.147500X0.172500X0*%
%ADD19R,0.900000X1.700000*%
%ADD20RoundRect,0.135000X-0.135000X-0.185000X0.135000X-0.185000X0.135000X0.185000X-0.135000X0.185000X0*%
%ADD21RoundRect,0.200000X-0.200000X-0.275000X0.200000X-0.275000X0.200000X0.275000X-0.200000X0.275000X0*%
%ADD22R,1.000000X1.800000*%
%ADD23RoundRect,0.200000X0.200000X0.275000X-0.200000X0.275000X-0.200000X-0.275000X0.200000X-0.275000X0*%
%ADD24R,1.150000X0.600000*%
%ADD25R,3.000000X1.300000*%
%ADD26RoundRect,0.218750X-0.218750X-0.256250X0.218750X-0.256250X0.218750X0.256250X-0.218750X0.256250X0*%
%ADD27RoundRect,0.218750X0.218750X0.256250X-0.218750X0.256250X-0.218750X-0.256250X0.218750X-0.256250X0*%
%ADD28R,3.600000X1.270000*%
%ADD29R,4.200000X1.350000*%
G04 APERTURE END LIST*
D10*
%TO.C,C13*%
X68730000Y-85855000D03*
X67770000Y-85855000D03*
%TD*%
D11*
%TO.C,D1*%
X78500000Y-105000000D03*
X78500000Y-107100000D03*
%TD*%
D12*
%TO.C,U1*%
X72950000Y-90625000D03*
X72450000Y-90625000D03*
X71950000Y-90625000D03*
X71450000Y-90625000D03*
X70950000Y-90625000D03*
X70450000Y-90625000D03*
X69950000Y-90625000D03*
X69450000Y-90625000D03*
X68950000Y-90625000D03*
X68450000Y-90625000D03*
X67950000Y-90625000D03*
X67450000Y-90625000D03*
X66950000Y-90625000D03*
X66450000Y-90625000D03*
X65950000Y-90625000D03*
X65450000Y-90625000D03*
D13*
X63525000Y-92550000D03*
X63525000Y-93050000D03*
X63525000Y-93550000D03*
X63525000Y-94050000D03*
X63525000Y-94550000D03*
X63525000Y-95050000D03*
X63525000Y-95550000D03*
X63525000Y-96050000D03*
X63525000Y-96550000D03*
X63525000Y-97050000D03*
X63525000Y-97550000D03*
X63525000Y-98050000D03*
X63525000Y-98550000D03*
X63525000Y-99050000D03*
X63525000Y-99550000D03*
X63525000Y-100050000D03*
D12*
X65450000Y-101975000D03*
X65950000Y-101975000D03*
X66450000Y-101975000D03*
X66950000Y-101975000D03*
X67450000Y-101975000D03*
X67950000Y-101975000D03*
X68450000Y-101975000D03*
X68950000Y-101975000D03*
X69450000Y-101975000D03*
X69950000Y-101975000D03*
X70450000Y-101975000D03*
X70950000Y-101975000D03*
X71450000Y-101975000D03*
X71950000Y-101975000D03*
X72450000Y-101975000D03*
X72950000Y-101975000D03*
D13*
X74875000Y-100050000D03*
X74875000Y-99550000D03*
X74875000Y-99050000D03*
X74875000Y-98550000D03*
X74875000Y-98050000D03*
X74875000Y-97550000D03*
X74875000Y-97050000D03*
X74875000Y-96550000D03*
X74875000Y-96050000D03*
X74875000Y-95550000D03*
X74875000Y-95050000D03*
X74875000Y-94550000D03*
X74875000Y-94050000D03*
X74875000Y-93550000D03*
X74875000Y-93050000D03*
X74875000Y-92550000D03*
%TD*%
D14*
%TO.C,C10*%
X66500000Y-87480000D03*
X66500000Y-86520000D03*
%TD*%
D15*
%TO.C,C11*%
X66620000Y-88650000D03*
X67580000Y-88650000D03*
%TD*%
D16*
%TO.C,C1*%
X55300000Y-93875000D03*
X55300000Y-90925000D03*
%TD*%
D17*
%TO.C,C8*%
X76900000Y-92070000D03*
X76900000Y-93030000D03*
%TD*%
D14*
%TO.C,C3*%
X75400000Y-88680000D03*
X75400000Y-87720000D03*
%TD*%
%TO.C,C6*%
X61500000Y-100280000D03*
X61500000Y-99320000D03*
%TD*%
D18*
%TO.C,L1*%
X64265000Y-87550000D03*
X65235000Y-87550000D03*
%TD*%
D16*
%TO.C,C2*%
X58000000Y-93875000D03*
X58000000Y-90925000D03*
%TD*%
D19*
%TO.C,SW1*%
X85100000Y-88800000D03*
X88500000Y-88800000D03*
%TD*%
D20*
%TO.C,R1*%
X77790000Y-94550000D03*
X78810000Y-94550000D03*
%TD*%
D21*
%TO.C,R2*%
X62525000Y-111250000D03*
X64175000Y-111250000D03*
%TD*%
D22*
%TO.C,Y1*%
X68850000Y-87600000D03*
X71350000Y-87600000D03*
%TD*%
D23*
%TO.C,R3*%
X60625000Y-111250000D03*
X58975000Y-111250000D03*
%TD*%
D10*
%TO.C,C4*%
X73780000Y-88700000D03*
X72820000Y-88700000D03*
%TD*%
D24*
%TO.C,U3*%
X55450000Y-97550000D03*
X55450000Y-98500000D03*
X55450000Y-99450000D03*
X57950000Y-99450000D03*
X57950000Y-97550000D03*
%TD*%
D15*
%TO.C,C9*%
X86320000Y-86550000D03*
X87280000Y-86550000D03*
%TD*%
%TO.C,C12*%
X71470000Y-85855000D03*
X72430000Y-85855000D03*
%TD*%
D10*
%TO.C,C7*%
X73530000Y-104100000D03*
X72570000Y-104100000D03*
%TD*%
D25*
%TO.C,U2*%
X83787500Y-92300000D03*
X83787500Y-94300000D03*
X83787500Y-96300000D03*
X83787500Y-98300000D03*
X83787500Y-100300000D03*
X83787500Y-102300000D03*
X83787500Y-104300000D03*
X83787500Y-106300000D03*
X98787500Y-92300000D03*
X98787500Y-94300000D03*
X98787500Y-96300000D03*
X98787500Y-98300000D03*
X98787500Y-100300000D03*
X98787500Y-102300000D03*
X98787500Y-104300000D03*
X98787500Y-106300000D03*
%TD*%
D14*
%TO.C,C5*%
X61500000Y-93730000D03*
X61500000Y-92770000D03*
%TD*%
D26*
%TO.C,D2*%
X62512500Y-108600000D03*
X64087500Y-108600000D03*
%TD*%
D27*
%TO.C,D3*%
X64037500Y-106050000D03*
X62462500Y-106050000D03*
%TD*%
D28*
%TO.C,J7*%
X104837500Y-109700000D03*
D29*
X104637500Y-112525000D03*
X104637500Y-106875000D03*
%TD*%
M02*
