%TF.GenerationSoftware,KiCad,Pcbnew,(6.0.1)*%
%TF.CreationDate,2022-11-30T22:25:02-05:00*%
%TF.ProjectId,PCBFiles_Node,50434246-696c-4657-935f-4e6f64652e6b,rev?*%
%TF.SameCoordinates,Original*%
%TF.FileFunction,Copper,L1,Top*%
%TF.FilePolarity,Positive*%
%FSLAX46Y46*%
G04 Gerber Fmt 4.6, Leading zero omitted, Abs format (unit mm)*
G04 Created by KiCad (PCBNEW (6.0.1)) date 2022-11-30 22:25:02*
%MOMM*%
%LPD*%
G01*
G04 APERTURE LIST*
G04 Aperture macros list*
%AMRoundRect*
0 Rectangle with rounded corners*
0 $1 Rounding radius*
0 $2 $3 $4 $5 $6 $7 $8 $9 X,Y pos of 4 corners*
0 Add a 4 corners polygon primitive as box body*
4,1,4,$2,$3,$4,$5,$6,$7,$8,$9,$2,$3,0*
0 Add four circle primitives for the rounded corners*
1,1,$1+$1,$2,$3*
1,1,$1+$1,$4,$5*
1,1,$1+$1,$6,$7*
1,1,$1+$1,$8,$9*
0 Add four rect primitives between the rounded corners*
20,1,$1+$1,$2,$3,$4,$5,0*
20,1,$1+$1,$4,$5,$6,$7,0*
20,1,$1+$1,$6,$7,$8,$9,0*
20,1,$1+$1,$8,$9,$2,$3,0*%
G04 Aperture macros list end*
%TA.AperFunction,ComponentPad*%
%ADD10C,4.400000*%
%TD*%
%TA.AperFunction,SMDPad,CuDef*%
%ADD11R,3.000000X1.300000*%
%TD*%
%TA.AperFunction,ComponentPad*%
%ADD12R,3.000000X3.000000*%
%TD*%
%TA.AperFunction,ComponentPad*%
%ADD13C,3.000000*%
%TD*%
%TA.AperFunction,SMDPad,CuDef*%
%ADD14RoundRect,0.140000X0.140000X0.170000X-0.140000X0.170000X-0.140000X-0.170000X0.140000X-0.170000X0*%
%TD*%
%TA.AperFunction,SMDPad,CuDef*%
%ADD15R,0.450000X0.600000*%
%TD*%
%TA.AperFunction,SMDPad,CuDef*%
%ADD16RoundRect,0.075000X-0.075000X0.700000X-0.075000X-0.700000X0.075000X-0.700000X0.075000X0.700000X0*%
%TD*%
%TA.AperFunction,SMDPad,CuDef*%
%ADD17RoundRect,0.075000X-0.700000X0.075000X-0.700000X-0.075000X0.700000X-0.075000X0.700000X0.075000X0*%
%TD*%
%TA.AperFunction,SMDPad,CuDef*%
%ADD18RoundRect,0.140000X0.170000X-0.140000X0.170000X0.140000X-0.170000X0.140000X-0.170000X-0.140000X0*%
%TD*%
%TA.AperFunction,SMDPad,CuDef*%
%ADD19RoundRect,0.140000X-0.140000X-0.170000X0.140000X-0.170000X0.140000X0.170000X-0.140000X0.170000X0*%
%TD*%
%TA.AperFunction,SMDPad,CuDef*%
%ADD20RoundRect,0.250000X0.650000X-0.325000X0.650000X0.325000X-0.650000X0.325000X-0.650000X-0.325000X0*%
%TD*%
%TA.AperFunction,SMDPad,CuDef*%
%ADD21RoundRect,0.140000X-0.170000X0.140000X-0.170000X-0.140000X0.170000X-0.140000X0.170000X0.140000X0*%
%TD*%
%TA.AperFunction,SMDPad,CuDef*%
%ADD22RoundRect,0.147500X-0.147500X-0.172500X0.147500X-0.172500X0.147500X0.172500X-0.147500X0.172500X0*%
%TD*%
%TA.AperFunction,SMDPad,CuDef*%
%ADD23R,0.900000X1.700000*%
%TD*%
%TA.AperFunction,SMDPad,CuDef*%
%ADD24RoundRect,0.135000X-0.135000X-0.185000X0.135000X-0.185000X0.135000X0.185000X-0.135000X0.185000X0*%
%TD*%
%TA.AperFunction,SMDPad,CuDef*%
%ADD25RoundRect,0.200000X-0.200000X-0.275000X0.200000X-0.275000X0.200000X0.275000X-0.200000X0.275000X0*%
%TD*%
%TA.AperFunction,SMDPad,CuDef*%
%ADD26R,1.000000X1.800000*%
%TD*%
%TA.AperFunction,SMDPad,CuDef*%
%ADD27RoundRect,0.200000X0.200000X0.275000X-0.200000X0.275000X-0.200000X-0.275000X0.200000X-0.275000X0*%
%TD*%
%TA.AperFunction,SMDPad,CuDef*%
%ADD28R,1.150000X0.600000*%
%TD*%
%TA.AperFunction,ComponentPad*%
%ADD29R,1.700000X1.700000*%
%TD*%
%TA.AperFunction,ComponentPad*%
%ADD30O,1.700000X1.700000*%
%TD*%
%TA.AperFunction,SMDPad,CuDef*%
%ADD31RoundRect,0.218750X-0.218750X-0.256250X0.218750X-0.256250X0.218750X0.256250X-0.218750X0.256250X0*%
%TD*%
%TA.AperFunction,SMDPad,CuDef*%
%ADD32RoundRect,0.218750X0.218750X0.256250X-0.218750X0.256250X-0.218750X-0.256250X0.218750X-0.256250X0*%
%TD*%
%TA.AperFunction,SMDPad,CuDef*%
%ADD33R,3.600000X1.270000*%
%TD*%
%TA.AperFunction,SMDPad,CuDef*%
%ADD34R,4.200000X1.350000*%
%TD*%
%TA.AperFunction,ViaPad*%
%ADD35C,0.900000*%
%TD*%
%TA.AperFunction,ViaPad*%
%ADD36C,0.700000*%
%TD*%
%TA.AperFunction,Conductor*%
%ADD37C,0.250000*%
%TD*%
%TA.AperFunction,Conductor*%
%ADD38C,1.200000*%
%TD*%
%TA.AperFunction,Conductor*%
%ADD39C,0.500000*%
%TD*%
%TA.AperFunction,Conductor*%
%ADD40C,1.000000*%
%TD*%
%TA.AperFunction,Conductor*%
%ADD41C,0.900000*%
%TD*%
%TA.AperFunction,Conductor*%
%ADD42C,0.850000*%
%TD*%
%TA.AperFunction,Conductor*%
%ADD43C,0.600000*%
%TD*%
%TA.AperFunction,Conductor*%
%ADD44C,0.950000*%
%TD*%
%TA.AperFunction,Conductor*%
%ADD45C,0.700000*%
%TD*%
G04 APERTURE END LIST*
D10*
%TO.P,H2,1*%
%TO.N,N/C*%
X47500000Y-98300000D03*
%TD*%
%TO.P,H1,1*%
%TO.N,N/C*%
X109600000Y-98300000D03*
%TD*%
D11*
%TO.P,U2,1,GND*%
%TO.N,GND*%
X84850000Y-94960000D03*
%TO.P,U2,2,MISO*%
%TO.N,SPI3_MISO*%
X84850000Y-96960000D03*
%TO.P,U2,3,MOSI*%
%TO.N,SPI3_MOSI*%
X84850000Y-98960000D03*
%TO.P,U2,4,SCK*%
%TO.N,SPI3_SCK*%
X84850000Y-100960000D03*
%TO.P,U2,5,NSS*%
%TO.N,SPI3_NSS*%
X84850000Y-102960000D03*
%TO.P,U2,6,~{RESET}*%
%TO.N,RESET_RFM9X*%
X84850000Y-104960000D03*
%TO.P,U2,7,DIO5*%
%TO.N,unconnected-(U2-Pad7)*%
X84850000Y-106960000D03*
%TO.P,U2,8,GND*%
%TO.N,GND*%
X84850000Y-108960000D03*
%TO.P,U2,9,DIO2*%
%TO.N,unconnected-(U2-Pad9)*%
X99850000Y-94960000D03*
%TO.P,U2,10,DIO1*%
%TO.N,unconnected-(U2-Pad10)*%
X99850000Y-96960000D03*
%TO.P,U2,11,DIO0*%
%TO.N,unconnected-(U2-Pad11)*%
X99850000Y-98960000D03*
%TO.P,U2,12,VDD*%
%TO.N,+3V3*%
X99850000Y-100960000D03*
%TO.P,U2,13,DIO4*%
%TO.N,unconnected-(U2-Pad13)*%
X99850000Y-102960000D03*
%TO.P,U2,14,DIO3*%
%TO.N,unconnected-(U2-Pad14)*%
X99850000Y-104960000D03*
%TO.P,U2,15,GND*%
%TO.N,GND*%
X99850000Y-106960000D03*
%TO.P,U2,16,ANT*%
%TO.N,/ANT*%
X99850000Y-108960000D03*
%TD*%
D12*
%TO.P,J1,1,Pin_1*%
%TO.N,+5V*%
X48200000Y-92140000D03*
D13*
%TO.P,J1,2,Pin_2*%
%TO.N,GND*%
X48200000Y-87060000D03*
%TD*%
D14*
%TO.P,C13,1*%
%TO.N,LSE_OUT*%
X68730000Y-85855000D03*
%TO.P,C13,2*%
%TO.N,GND*%
X67770000Y-85855000D03*
%TD*%
D15*
%TO.P,D1,1,K*%
%TO.N,Net-(D1-Pad1)*%
X78500000Y-105000000D03*
%TO.P,D1,2,A*%
%TO.N,+3V3*%
X78500000Y-107100000D03*
%TD*%
D16*
%TO.P,U1,1,VBAT*%
%TO.N,+3V3*%
X72950000Y-90625000D03*
%TO.P,U1,2,PC13*%
%TO.N,unconnected-(U1-Pad2)*%
X72450000Y-90625000D03*
%TO.P,U1,3,PC14*%
%TO.N,LSE_IN*%
X71950000Y-90625000D03*
%TO.P,U1,4,PC15*%
%TO.N,LSE_OUT*%
X71450000Y-90625000D03*
%TO.P,U1,5,PH0*%
%TO.N,unconnected-(U1-Pad5)*%
X70950000Y-90625000D03*
%TO.P,U1,6,PH1*%
%TO.N,unconnected-(U1-Pad6)*%
X70450000Y-90625000D03*
%TO.P,U1,7,NRST*%
%TO.N,NRST*%
X69950000Y-90625000D03*
%TO.P,U1,8,PC0*%
%TO.N,LPUART1_RX*%
X69450000Y-90625000D03*
%TO.P,U1,9,PC1*%
%TO.N,LPUART1_TX*%
X68950000Y-90625000D03*
%TO.P,U1,10,PC2*%
%TO.N,unconnected-(U1-Pad10)*%
X68450000Y-90625000D03*
%TO.P,U1,11,PC3*%
%TO.N,unconnected-(U1-Pad11)*%
X67950000Y-90625000D03*
%TO.P,U1,12,VSSA*%
%TO.N,GND*%
X67450000Y-90625000D03*
%TO.P,U1,13,VDDA*%
%TO.N,+3.3VA*%
X66950000Y-90625000D03*
%TO.P,U1,14,PA0*%
%TO.N,V_REF_IN*%
X66450000Y-90625000D03*
%TO.P,U1,15,PA1*%
%TO.N,unconnected-(U1-Pad15)*%
X65950000Y-90625000D03*
%TO.P,U1,16,PA2*%
%TO.N,unconnected-(U1-Pad16)*%
X65450000Y-90625000D03*
D17*
%TO.P,U1,17,PA3*%
%TO.N,V_REF_OUT*%
X63525000Y-92550000D03*
%TO.P,U1,18,VSS*%
%TO.N,GND*%
X63525000Y-93050000D03*
%TO.P,U1,19,VDD*%
%TO.N,+3V3*%
X63525000Y-93550000D03*
%TO.P,U1,20,PA4*%
%TO.N,unconnected-(U1-Pad20)*%
X63525000Y-94050000D03*
%TO.P,U1,21,PA5*%
%TO.N,unconnected-(U1-Pad21)*%
X63525000Y-94550000D03*
%TO.P,U1,22,PA6*%
%TO.N,V_GAS*%
X63525000Y-95050000D03*
%TO.P,U1,23,PA7*%
%TO.N,V_REF_OUT*%
X63525000Y-95550000D03*
%TO.P,U1,24,PC4*%
%TO.N,unconnected-(U1-Pad24)*%
X63525000Y-96050000D03*
%TO.P,U1,25,PC5*%
%TO.N,unconnected-(U1-Pad25)*%
X63525000Y-96550000D03*
%TO.P,U1,26,PB0*%
%TO.N,unconnected-(U1-Pad26)*%
X63525000Y-97050000D03*
%TO.P,U1,27,PB1*%
%TO.N,unconnected-(U1-Pad27)*%
X63525000Y-97550000D03*
%TO.P,U1,28,PB2*%
%TO.N,unconnected-(U1-Pad28)*%
X63525000Y-98050000D03*
%TO.P,U1,29,PB10*%
%TO.N,unconnected-(U1-Pad29)*%
X63525000Y-98550000D03*
%TO.P,U1,30,PB11*%
%TO.N,unconnected-(U1-Pad30)*%
X63525000Y-99050000D03*
%TO.P,U1,31,VSS*%
%TO.N,GND*%
X63525000Y-99550000D03*
%TO.P,U1,32,VDD*%
%TO.N,+3V3*%
X63525000Y-100050000D03*
D16*
%TO.P,U1,33,PB12*%
%TO.N,unconnected-(U1-Pad33)*%
X65450000Y-101975000D03*
%TO.P,U1,34,PB13*%
%TO.N,unconnected-(U1-Pad34)*%
X65950000Y-101975000D03*
%TO.P,U1,35,PB14*%
%TO.N,unconnected-(U1-Pad35)*%
X66450000Y-101975000D03*
%TO.P,U1,36,PB15*%
%TO.N,unconnected-(U1-Pad36)*%
X66950000Y-101975000D03*
%TO.P,U1,37,PC6*%
%TO.N,RED_LED*%
X67450000Y-101975000D03*
%TO.P,U1,38,PC7*%
%TO.N,GREEN_LED*%
X67950000Y-101975000D03*
%TO.P,U1,39,PC8*%
%TO.N,unconnected-(U1-Pad39)*%
X68450000Y-101975000D03*
%TO.P,U1,40,PC9*%
%TO.N,unconnected-(U1-Pad40)*%
X68950000Y-101975000D03*
%TO.P,U1,41,PA8*%
%TO.N,unconnected-(U1-Pad41)*%
X69450000Y-101975000D03*
%TO.P,U1,42,PA9*%
%TO.N,unconnected-(U1-Pad42)*%
X69950000Y-101975000D03*
%TO.P,U1,43,PA10*%
%TO.N,unconnected-(U1-Pad43)*%
X70450000Y-101975000D03*
%TO.P,U1,44,PA11*%
%TO.N,unconnected-(U1-Pad44)*%
X70950000Y-101975000D03*
%TO.P,U1,45,PA12*%
%TO.N,unconnected-(U1-Pad45)*%
X71450000Y-101975000D03*
%TO.P,U1,46,PA13*%
%TO.N,SWDIO*%
X71950000Y-101975000D03*
%TO.P,U1,47,VSS*%
%TO.N,GND*%
X72450000Y-101975000D03*
%TO.P,U1,48,VDD*%
%TO.N,+3V3*%
X72950000Y-101975000D03*
D17*
%TO.P,U1,49,PA14*%
%TO.N,SWCLK*%
X74875000Y-100050000D03*
%TO.P,U1,50,PA15*%
%TO.N,RESET_RFM9X*%
X74875000Y-99550000D03*
%TO.P,U1,51,PC10*%
%TO.N,SPI3_SCK*%
X74875000Y-99050000D03*
%TO.P,U1,52,PC11*%
%TO.N,SPI3_MISO*%
X74875000Y-98550000D03*
%TO.P,U1,53,PC12*%
%TO.N,SPI3_MOSI*%
X74875000Y-98050000D03*
%TO.P,U1,54,PD2*%
%TO.N,SPI3_NSS*%
X74875000Y-97550000D03*
%TO.P,U1,55,PB3*%
%TO.N,unconnected-(U1-Pad55)*%
X74875000Y-97050000D03*
%TO.P,U1,56,PB4*%
%TO.N,unconnected-(U1-Pad56)*%
X74875000Y-96550000D03*
%TO.P,U1,57,PB5*%
%TO.N,unconnected-(U1-Pad57)*%
X74875000Y-96050000D03*
%TO.P,U1,58,PB6*%
%TO.N,I2C1_SCL*%
X74875000Y-95550000D03*
%TO.P,U1,59,PB7*%
%TO.N,I2C1_SDA*%
X74875000Y-95050000D03*
%TO.P,U1,60,PH3*%
%TO.N,BOOT0*%
X74875000Y-94550000D03*
%TO.P,U1,61,PB8*%
%TO.N,unconnected-(U1-Pad61)*%
X74875000Y-94050000D03*
%TO.P,U1,62,PB9*%
%TO.N,unconnected-(U1-Pad62)*%
X74875000Y-93550000D03*
%TO.P,U1,63,VSS*%
%TO.N,GND*%
X74875000Y-93050000D03*
%TO.P,U1,64,VDD*%
%TO.N,+3V3*%
X74875000Y-92550000D03*
%TD*%
D18*
%TO.P,C10,1*%
%TO.N,+3.3VA*%
X66500000Y-87480000D03*
%TO.P,C10,2*%
%TO.N,GND*%
X66500000Y-86520000D03*
%TD*%
D19*
%TO.P,C11,1*%
%TO.N,+3.3VA*%
X66620000Y-88650000D03*
%TO.P,C11,2*%
%TO.N,GND*%
X67580000Y-88650000D03*
%TD*%
D20*
%TO.P,C1,1*%
%TO.N,+5V*%
X55300000Y-93875000D03*
%TO.P,C1,2*%
%TO.N,GND*%
X55300000Y-90925000D03*
%TD*%
D21*
%TO.P,C8,1*%
%TO.N,+3V3*%
X76900000Y-92070000D03*
%TO.P,C8,2*%
%TO.N,GND*%
X76900000Y-93030000D03*
%TD*%
D18*
%TO.P,C3,1*%
%TO.N,+3V3*%
X75400000Y-88680000D03*
%TO.P,C3,2*%
%TO.N,GND*%
X75400000Y-87720000D03*
%TD*%
%TO.P,C6,1*%
%TO.N,+3V3*%
X61500000Y-100280000D03*
%TO.P,C6,2*%
%TO.N,GND*%
X61500000Y-99320000D03*
%TD*%
D22*
%TO.P,L1,1*%
%TO.N,+3V3*%
X64265000Y-87550000D03*
%TO.P,L1,2*%
%TO.N,+3.3VA*%
X65235000Y-87550000D03*
%TD*%
D20*
%TO.P,C2,1*%
%TO.N,+3V3*%
X58000000Y-93875000D03*
%TO.P,C2,2*%
%TO.N,GND*%
X58000000Y-90925000D03*
%TD*%
D23*
%TO.P,SW1,1,1*%
%TO.N,NRST*%
X85100000Y-88800000D03*
%TO.P,SW1,2,2*%
%TO.N,GND*%
X88500000Y-88800000D03*
%TD*%
D24*
%TO.P,R1,1*%
%TO.N,BOOT0*%
X77790000Y-94550000D03*
%TO.P,R1,2*%
%TO.N,GND*%
X78810000Y-94550000D03*
%TD*%
D25*
%TO.P,R2,1*%
%TO.N,Net-(D2-Pad1)*%
X62525000Y-111250000D03*
%TO.P,R2,2*%
%TO.N,GND*%
X64175000Y-111250000D03*
%TD*%
D26*
%TO.P,Y1,1,1*%
%TO.N,LSE_OUT*%
X68850000Y-87600000D03*
%TO.P,Y1,2,2*%
%TO.N,LSE_IN*%
X71350000Y-87600000D03*
%TD*%
D27*
%TO.P,R3,1*%
%TO.N,Net-(D3-Pad1)*%
X60625000Y-111250000D03*
%TO.P,R3,2*%
%TO.N,GND*%
X58975000Y-111250000D03*
%TD*%
D14*
%TO.P,C4,1*%
%TO.N,+3V3*%
X73780000Y-88700000D03*
%TO.P,C4,2*%
%TO.N,GND*%
X72820000Y-88700000D03*
%TD*%
D28*
%TO.P,U3,1,IN*%
%TO.N,+5V*%
X55450000Y-97550000D03*
%TO.P,U3,2,GND*%
%TO.N,GND*%
X55450000Y-98500000D03*
%TO.P,U3,3,EN*%
%TO.N,+5V*%
X55450000Y-99450000D03*
%TO.P,U3,4,NC*%
%TO.N,unconnected-(U3-Pad4)*%
X57950000Y-99450000D03*
%TO.P,U3,5,OUT*%
%TO.N,+3V3*%
X57950000Y-97550000D03*
%TD*%
D29*
%TO.P,J4,1,Pin_1*%
%TO.N,+3V3*%
X84100000Y-112075000D03*
D30*
%TO.P,J4,2,Pin_2*%
%TO.N,GND*%
X86640000Y-112075000D03*
%TO.P,J4,3,Pin_3*%
%TO.N,I2C1_SCL*%
X89180000Y-112075000D03*
%TO.P,J4,4,Pin_4*%
%TO.N,I2C1_SDA*%
X91720000Y-112075000D03*
%TO.P,J4,5,Pin_5*%
%TO.N,unconnected-(J4-Pad5)*%
X94260000Y-112075000D03*
%TO.P,J4,6,Pin_6*%
%TO.N,unconnected-(J4-Pad6)*%
X96800000Y-112075000D03*
%TO.P,J4,7,Pin_7*%
%TO.N,unconnected-(J4-Pad7)*%
X99340000Y-112075000D03*
%TD*%
D19*
%TO.P,C9,1*%
%TO.N,NRST*%
X86320000Y-86550000D03*
%TO.P,C9,2*%
%TO.N,GND*%
X87280000Y-86550000D03*
%TD*%
%TO.P,C12,1*%
%TO.N,LSE_IN*%
X71470000Y-85855000D03*
%TO.P,C12,2*%
%TO.N,GND*%
X72430000Y-85855000D03*
%TD*%
D14*
%TO.P,C7,1*%
%TO.N,+3V3*%
X73530000Y-104100000D03*
%TO.P,C7,2*%
%TO.N,GND*%
X72570000Y-104100000D03*
%TD*%
D18*
%TO.P,C5,1*%
%TO.N,+3V3*%
X61500000Y-93730000D03*
%TO.P,C5,2*%
%TO.N,GND*%
X61500000Y-92770000D03*
%TD*%
D31*
%TO.P,D2,1,K*%
%TO.N,Net-(D2-Pad1)*%
X62512500Y-108600000D03*
%TO.P,D2,2,A*%
%TO.N,GREEN_LED*%
X64087500Y-108600000D03*
%TD*%
D32*
%TO.P,D3,1,K*%
%TO.N,Net-(D3-Pad1)*%
X64037500Y-106050000D03*
%TO.P,D3,2,A*%
%TO.N,RED_LED*%
X62462500Y-106050000D03*
%TD*%
D29*
%TO.P,J2,1,Pin_1*%
%TO.N,SWDIO*%
X69600000Y-111575000D03*
D30*
%TO.P,J2,2,Pin_2*%
%TO.N,GND*%
X72140000Y-111575000D03*
%TO.P,J2,3,Pin_3*%
%TO.N,SWCLK*%
X74680000Y-111575000D03*
%TO.P,J2,4,Pin_4*%
%TO.N,+3V3*%
X77220000Y-111575000D03*
%TD*%
D33*
%TO.P,J7,1,In*%
%TO.N,/ANT*%
X104900000Y-108970000D03*
D34*
%TO.P,J7,2,Ext*%
%TO.N,GND*%
X104700000Y-111795000D03*
X104700000Y-106145000D03*
%TD*%
D29*
%TO.P,J5,1,Pin_1*%
%TO.N,GND*%
X51800000Y-111400000D03*
D30*
%TO.P,J5,2,Pin_2*%
%TO.N,LPUART1_TX*%
X51800000Y-108860000D03*
%TO.P,J5,3,Pin_3*%
%TO.N,LPUART1_RX*%
X51800000Y-106320000D03*
%TO.P,J5,4,Pin_4*%
%TO.N,+5V*%
X51800000Y-103780000D03*
%TD*%
D29*
%TO.P,J3,1,Pin_1*%
%TO.N,V_GAS*%
X104100000Y-85600000D03*
D30*
%TO.P,J3,2,Pin_2*%
%TO.N,V_REF_IN*%
X104100000Y-88140000D03*
%TO.P,J3,3,Pin_3*%
%TO.N,unconnected-(J3-Pad3)*%
X104100000Y-90680000D03*
%TO.P,J3,4,Pin_4*%
%TO.N,unconnected-(J3-Pad4)*%
X104100000Y-93220000D03*
%TO.P,J3,5,Pin_5*%
%TO.N,unconnected-(J3-Pad5)*%
X104100000Y-95760000D03*
%TO.P,J3,6,Pin_6*%
%TO.N,GND*%
X104100000Y-98300000D03*
%TO.P,J3,7,Pin_7*%
%TO.N,unconnected-(J3-Pad7)*%
X104100000Y-100840000D03*
%TO.P,J3,8,Pin_8*%
%TO.N,Net-(D1-Pad1)*%
X104100000Y-103380000D03*
%TD*%
D35*
%TO.N,GND*%
X82670000Y-95510000D03*
X82410000Y-108960000D03*
X89600000Y-88800000D03*
D36*
%TO.N,SWCLK*%
X76370000Y-100590000D03*
%TO.N,Net-(D1-Pad1)*%
X81150000Y-107170000D03*
%TO.N,I2C1_SCL*%
X89180000Y-108510000D03*
%TO.N,I2C1_SDA*%
X91730000Y-105880000D03*
%TO.N,V_REF_IN*%
X66450000Y-92150000D03*
%TO.N,GND*%
X78800000Y-93750000D03*
X77700000Y-93050000D03*
X72700000Y-105200000D03*
X75600000Y-86800000D03*
X72800000Y-87790000D03*
X73300000Y-85910000D03*
X67600000Y-87900000D03*
X65660000Y-86570000D03*
X66920000Y-85810000D03*
X65390000Y-111250000D03*
X57880000Y-111270000D03*
X61510000Y-98510000D03*
X56630000Y-98440000D03*
X65130000Y-93580000D03*
X61510000Y-91990000D03*
X50550000Y-87130000D03*
X51920000Y-88440000D03*
X52100000Y-90160000D03*
X53400000Y-90950000D03*
%TO.N,NRST*%
X82200000Y-88800000D03*
X70600000Y-93400000D03*
%TO.N,V_GAS*%
X60450000Y-94700000D03*
%TO.N,LPUART1_TX*%
X68550000Y-96900000D03*
%TO.N,LPUART1_RX*%
X69450000Y-94450000D03*
%TD*%
D37*
%TO.N,GND*%
X83220000Y-94960000D02*
X85350000Y-94960000D01*
X82670000Y-95510000D02*
X83220000Y-94960000D01*
D38*
%TO.N,/ANT*%
X99360000Y-108970000D02*
X104900000Y-108970000D01*
D37*
X99350000Y-108960000D02*
X99360000Y-108970000D01*
%TO.N,GND*%
X82410000Y-108960000D02*
X85350000Y-108960000D01*
X88500000Y-88800000D02*
X89600000Y-88800000D01*
%TO.N,SWCLK*%
X76370000Y-100590000D02*
X76370000Y-100200000D01*
X76370000Y-100200000D02*
X76220000Y-100050000D01*
X76220000Y-100050000D02*
X74875000Y-100050000D01*
%TO.N,Net-(D1-Pad1)*%
X80120000Y-107170000D02*
X81150000Y-107170000D01*
X78500000Y-105550000D02*
X78860000Y-105910000D01*
X78500000Y-105000000D02*
X78500000Y-105550000D01*
X78860000Y-105910000D02*
X80120000Y-107170000D01*
%TO.N,RESET_RFM9X*%
X81250000Y-104960000D02*
X85350000Y-104960000D01*
X80500000Y-101600000D02*
X80500000Y-104210000D01*
X74875000Y-99550000D02*
X78450000Y-99550000D01*
X78450000Y-99550000D02*
X80500000Y-101600000D01*
X80500000Y-104210000D02*
X81250000Y-104960000D01*
%TO.N,SPI3_SCK*%
X79610000Y-99050000D02*
X81520000Y-100960000D01*
X81520000Y-100960000D02*
X85350000Y-100960000D01*
X74875000Y-99050000D02*
X79610000Y-99050000D01*
%TO.N,SPI3_MISO*%
X74875000Y-98550000D02*
X80030000Y-98550000D01*
X80030000Y-98550000D02*
X81620000Y-96960000D01*
X81620000Y-96960000D02*
X85350000Y-96960000D01*
%TO.N,SPI3_MOSI*%
X87160000Y-94400000D02*
X87160000Y-98480000D01*
X86680000Y-98960000D02*
X85350000Y-98960000D01*
X86520000Y-93760000D02*
X87160000Y-94400000D01*
X87160000Y-98480000D02*
X86680000Y-98960000D01*
X83240000Y-93760000D02*
X86520000Y-93760000D01*
X78950000Y-98050000D02*
X83240000Y-93760000D01*
X74875000Y-98050000D02*
X78950000Y-98050000D01*
%TO.N,SPI3_NSS*%
X87410000Y-102960000D02*
X85350000Y-102960000D01*
X87860000Y-93930000D02*
X87860000Y-102510000D01*
X78700000Y-97550000D02*
X83030000Y-93220000D01*
X74875000Y-97550000D02*
X78700000Y-97550000D01*
X83030000Y-93220000D02*
X87150000Y-93220000D01*
X87150000Y-93220000D02*
X87860000Y-93930000D01*
X87860000Y-102510000D02*
X87410000Y-102960000D01*
%TO.N,I2C1_SCL*%
X88390000Y-92600000D02*
X88500000Y-92710000D01*
X88500000Y-92710000D02*
X89180000Y-93390000D01*
X79780000Y-95800000D02*
X82980000Y-92600000D01*
X89180000Y-93390000D02*
X89180000Y-108510000D01*
X76980000Y-95800000D02*
X79780000Y-95800000D01*
X82980000Y-92600000D02*
X88390000Y-92600000D01*
X76730000Y-95550000D02*
X76980000Y-95800000D01*
X74875000Y-95550000D02*
X76730000Y-95550000D01*
%TO.N,I2C1_SDA*%
X91730000Y-93060000D02*
X91730000Y-105880000D01*
X90940000Y-92270000D02*
X91730000Y-93060000D01*
X90800000Y-92130000D02*
X90940000Y-92270000D01*
X90470000Y-92130000D02*
X90800000Y-92130000D01*
X82810000Y-92130000D02*
X90470000Y-92130000D01*
X79590000Y-95350000D02*
X82810000Y-92130000D01*
X76940000Y-95050000D02*
X77240000Y-95350000D01*
X74875000Y-95050000D02*
X76940000Y-95050000D01*
X77240000Y-95350000D02*
X79590000Y-95350000D01*
D39*
%TO.N,+3V3*%
X95330000Y-104860000D02*
X95330000Y-101640000D01*
X95330000Y-101640000D02*
X96010000Y-100960000D01*
X89690000Y-110500000D02*
X95330000Y-104860000D01*
X84580000Y-110500000D02*
X89690000Y-110500000D01*
X84100000Y-110980000D02*
X84580000Y-110500000D01*
X96010000Y-100960000D02*
X99350000Y-100960000D01*
X84100000Y-112075000D02*
X84100000Y-110980000D01*
X82550000Y-112080000D02*
X82555000Y-112075000D01*
X82555000Y-112075000D02*
X84100000Y-112075000D01*
X82045000Y-111575000D02*
X82550000Y-112080000D01*
X77220000Y-111575000D02*
X82045000Y-111575000D01*
X77220000Y-110030000D02*
X77220000Y-111575000D01*
X78500000Y-108750000D02*
X77220000Y-110030000D01*
X78500000Y-107100000D02*
X78500000Y-108750000D01*
X74580000Y-107100000D02*
X78500000Y-107100000D01*
X73530000Y-106050000D02*
X74580000Y-107100000D01*
X73530000Y-104100000D02*
X73530000Y-106050000D01*
X73810000Y-101120000D02*
X73810000Y-103820000D01*
X71240000Y-98550000D02*
X73810000Y-101120000D01*
X71240000Y-94280000D02*
X71240000Y-98550000D01*
X73920000Y-91600000D02*
X71240000Y-94280000D01*
X73810000Y-103820000D02*
X73530000Y-104100000D01*
X75710000Y-91600000D02*
X73920000Y-91600000D01*
X76900000Y-90410000D02*
X75710000Y-91600000D01*
D40*
%TO.N,GND*%
X52595000Y-90695000D02*
X52825000Y-90925000D01*
D39*
%TO.N,+3V3*%
X60480000Y-100280000D02*
X61500000Y-100280000D01*
X59875000Y-93875000D02*
X60020000Y-93730000D01*
X76900000Y-88000000D02*
X76220000Y-88680000D01*
X75030000Y-84850000D02*
X72900000Y-84850000D01*
X75400000Y-88680000D02*
X73800000Y-88680000D01*
D37*
X63525000Y-100050000D02*
X62400000Y-100050000D01*
X72950000Y-103130000D02*
X73530000Y-103710000D01*
X74875000Y-92550000D02*
X75740000Y-92550000D01*
D39*
X59250000Y-97550000D02*
X59850000Y-98150000D01*
X59850000Y-99650000D02*
X60480000Y-100280000D01*
D37*
X62170000Y-100280000D02*
X61500000Y-100280000D01*
X75740000Y-92550000D02*
X76220000Y-92070000D01*
D39*
X58000000Y-93875000D02*
X59875000Y-93875000D01*
D37*
X62400000Y-100050000D02*
X62170000Y-100280000D01*
D39*
X76900000Y-88000000D02*
X76900000Y-86720000D01*
D37*
X72950000Y-90625000D02*
X73075000Y-90625000D01*
D39*
X76900000Y-86720000D02*
X75030000Y-84850000D01*
X60020000Y-93730000D02*
X61500000Y-93730000D01*
D37*
X73780000Y-89920000D02*
X73780000Y-88700000D01*
X62170000Y-93730000D02*
X61500000Y-93730000D01*
D39*
X72900000Y-84850000D02*
X65600000Y-84850000D01*
X76220000Y-88680000D02*
X75400000Y-88680000D01*
D37*
X63525000Y-93550000D02*
X62350000Y-93550000D01*
X76220000Y-92070000D02*
X76900000Y-92070000D01*
X73530000Y-103710000D02*
X73530000Y-104100000D01*
D39*
X64265000Y-87550000D02*
X62400000Y-87550000D01*
X62400000Y-87550000D02*
X60020000Y-89930000D01*
X73800000Y-88680000D02*
X73780000Y-88700000D01*
X64265000Y-86185000D02*
X64265000Y-87550000D01*
X60020000Y-89930000D02*
X60020000Y-93730000D01*
X59850000Y-98150000D02*
X59850000Y-99650000D01*
X65600000Y-84850000D02*
X64265000Y-86185000D01*
X57950000Y-97550000D02*
X59250000Y-97550000D01*
D37*
X72950000Y-101975000D02*
X72950000Y-103130000D01*
X73075000Y-90625000D02*
X73780000Y-89920000D01*
D39*
X76900000Y-92070000D02*
X76900000Y-90410000D01*
D37*
X62350000Y-93550000D02*
X62170000Y-93730000D01*
D39*
X76900000Y-90410000D02*
X76900000Y-88000000D01*
X58000000Y-93875000D02*
X58000000Y-97500000D01*
X58000000Y-97500000D02*
X57950000Y-97550000D01*
D37*
%TO.N,GND*%
X67450000Y-89400000D02*
X67580000Y-89270000D01*
X72570000Y-105070000D02*
X72700000Y-105200000D01*
X64600000Y-93050000D02*
X65150000Y-93600000D01*
X62350000Y-99550000D02*
X62120000Y-99320000D01*
X72430000Y-85855000D02*
X73255000Y-85855000D01*
X72450000Y-103265704D02*
X72570000Y-103385704D01*
X66955000Y-85855000D02*
X66900000Y-85800000D01*
X78810000Y-94550000D02*
X78810000Y-93760000D01*
X55450000Y-98500000D02*
X56550000Y-98500000D01*
D40*
X55300000Y-90925000D02*
X58000000Y-90925000D01*
X50660000Y-87060000D02*
X51950000Y-88350000D01*
D37*
X65680000Y-86520000D02*
X65650000Y-86550000D01*
X62400000Y-93050000D02*
X62120000Y-92770000D01*
X88500000Y-86900000D02*
X88500000Y-88800000D01*
X77680000Y-93030000D02*
X77700000Y-93050000D01*
X78810000Y-93760000D02*
X78800000Y-93750000D01*
D40*
X48200000Y-87060000D02*
X50660000Y-87060000D01*
D37*
X76880000Y-93050000D02*
X76900000Y-93030000D01*
X56550000Y-98500000D02*
X56600000Y-98450000D01*
X75400000Y-87720000D02*
X75400000Y-87000000D01*
X63525000Y-93050000D02*
X62400000Y-93050000D01*
X74875000Y-93050000D02*
X76880000Y-93050000D01*
D40*
X51950000Y-88350000D02*
X51950000Y-90050000D01*
D37*
X62120000Y-99320000D02*
X61500000Y-99320000D01*
X67580000Y-87920000D02*
X67600000Y-87900000D01*
X72820000Y-87820000D02*
X72800000Y-87800000D01*
X72570000Y-103385704D02*
X72570000Y-104100000D01*
X67580000Y-88650000D02*
X67580000Y-87920000D01*
X67450000Y-90625000D02*
X67450000Y-89400000D01*
D40*
X51950000Y-90050000D02*
X52595000Y-90695000D01*
D37*
X67580000Y-89270000D02*
X67580000Y-88650000D01*
X88150000Y-86550000D02*
X88500000Y-86900000D01*
X66500000Y-86520000D02*
X65680000Y-86520000D01*
X87280000Y-86550000D02*
X88150000Y-86550000D01*
X64175000Y-111250000D02*
X65350000Y-111250000D01*
X63525000Y-99550000D02*
X62350000Y-99550000D01*
X72570000Y-104100000D02*
X72570000Y-105070000D01*
X72820000Y-88700000D02*
X72820000Y-87820000D01*
X73255000Y-85855000D02*
X73300000Y-85900000D01*
X58975000Y-111250000D02*
X57850000Y-111250000D01*
D40*
X52825000Y-90925000D02*
X55300000Y-90925000D01*
D37*
X76900000Y-93030000D02*
X77680000Y-93030000D01*
X67770000Y-85855000D02*
X66955000Y-85855000D01*
X62120000Y-92770000D02*
X61500000Y-92770000D01*
X75400000Y-87000000D02*
X75600000Y-86800000D01*
X72450000Y-101975000D02*
X72450000Y-103265704D01*
X61500000Y-92770000D02*
X61500000Y-92000000D01*
X63525000Y-93050000D02*
X64600000Y-93050000D01*
X61500000Y-99320000D02*
X61500000Y-98500000D01*
%TO.N,NRST*%
X85450000Y-86550000D02*
X85100000Y-86900000D01*
X82200000Y-88800000D02*
X85100000Y-88800000D01*
X69950000Y-90625000D02*
X69950000Y-92750000D01*
X86320000Y-86550000D02*
X85450000Y-86550000D01*
X85100000Y-86900000D02*
X85100000Y-88800000D01*
X69950000Y-92750000D02*
X70600000Y-93400000D01*
%TO.N,+3.3VA*%
X66500000Y-88000000D02*
X66500000Y-87480000D01*
X65920000Y-87480000D02*
X65850000Y-87550000D01*
X66620000Y-88120000D02*
X66500000Y-88000000D01*
X66950000Y-90625000D02*
X66950000Y-89600000D01*
X65850000Y-87550000D02*
X65235000Y-87550000D01*
X66950000Y-89600000D02*
X66620000Y-89270000D01*
X66620000Y-88650000D02*
X66620000Y-88120000D01*
X66500000Y-87480000D02*
X65920000Y-87480000D01*
X66620000Y-89270000D02*
X66620000Y-88650000D01*
%TO.N,Net-(D2-Pad1)*%
X62512500Y-108600000D02*
X62512500Y-111237500D01*
X62512500Y-111237500D02*
X62525000Y-111250000D01*
%TO.N,V_REF_IN*%
X66450000Y-92150000D02*
X66450000Y-90625000D01*
%TO.N,GREEN_LED*%
X67950000Y-101975000D02*
X67950000Y-106050000D01*
X64800000Y-107300000D02*
X64087500Y-108012500D01*
X67950000Y-106050000D02*
X66700000Y-107300000D01*
X64087500Y-108012500D02*
X64087500Y-108600000D01*
X66700000Y-107300000D02*
X64800000Y-107300000D01*
%TO.N,V_REF_OUT*%
X65950000Y-93150000D02*
X65950000Y-95200000D01*
X65350000Y-92550000D02*
X65950000Y-93150000D01*
X65600000Y-95550000D02*
X63525000Y-95550000D01*
X65950000Y-95200000D02*
X65600000Y-95550000D01*
X63525000Y-92550000D02*
X65350000Y-92550000D01*
%TO.N,V_GAS*%
X60800000Y-95050000D02*
X63525000Y-95050000D01*
X60450000Y-94700000D02*
X60800000Y-95050000D01*
%TO.N,RED_LED*%
X62462500Y-104337500D02*
X62462500Y-106050000D01*
X67450000Y-103400000D02*
X66950000Y-103900000D01*
X62900000Y-103900000D02*
X62462500Y-104337500D01*
X67450000Y-101975000D02*
X67450000Y-103400000D01*
X66950000Y-103900000D02*
X62900000Y-103900000D01*
%TO.N,SWDIO*%
X69600000Y-107700000D02*
X69600000Y-111575000D01*
X71950000Y-105350000D02*
X69600000Y-107700000D01*
X71950000Y-101975000D02*
X71950000Y-105350000D01*
D40*
%TO.N,+5V*%
X50440000Y-92140000D02*
X52175000Y-93875000D01*
D41*
X51800000Y-100600000D02*
X52950000Y-99450000D01*
D42*
X55300000Y-95300000D02*
X55450000Y-95450000D01*
D43*
X52950000Y-97900000D02*
X53300000Y-97550000D01*
X52950000Y-99450000D02*
X55450000Y-99450000D01*
D44*
X55300000Y-93875000D02*
X55300000Y-95300000D01*
D45*
X52950000Y-99450000D02*
X52950000Y-97900000D01*
D43*
X53300000Y-97550000D02*
X55450000Y-97550000D01*
D45*
X55450000Y-95450000D02*
X55450000Y-97500489D01*
D40*
X48200000Y-92140000D02*
X50440000Y-92140000D01*
X51800000Y-103780000D02*
X51800000Y-100600000D01*
X52175000Y-93875000D02*
X55300000Y-93875000D01*
D37*
%TO.N,LSE_IN*%
X71950000Y-89350000D02*
X71350000Y-88750000D01*
X71350000Y-88750000D02*
X71350000Y-87600000D01*
X71950000Y-90625000D02*
X71950000Y-89350000D01*
X71350000Y-87600000D02*
X71350000Y-86450000D01*
X71470000Y-86330000D02*
X71470000Y-85855000D01*
X71350000Y-86450000D02*
X71470000Y-86330000D01*
%TO.N,LSE_OUT*%
X71450000Y-89784994D02*
X70815006Y-89150000D01*
X68850000Y-88850000D02*
X68850000Y-87600000D01*
X68850000Y-87600000D02*
X68850000Y-86450000D01*
X71450000Y-90625000D02*
X71450000Y-89784994D01*
X68850000Y-86450000D02*
X68730000Y-86330000D01*
X69150000Y-89150000D02*
X68850000Y-88850000D01*
X68730000Y-86330000D02*
X68730000Y-85855000D01*
X70815006Y-89150000D02*
X69150000Y-89150000D01*
%TO.N,Net-(D3-Pad1)*%
X61600000Y-107300000D02*
X60625000Y-108275000D01*
X63650000Y-107300000D02*
X61600000Y-107300000D01*
X64037500Y-106912500D02*
X63650000Y-107300000D01*
X64037500Y-106050000D02*
X64037500Y-106912500D01*
X60625000Y-108275000D02*
X60625000Y-111250000D01*
%TO.N,LPUART1_TX*%
X68950000Y-93350000D02*
X68950000Y-90625000D01*
X68550000Y-96900000D02*
X68550000Y-93750000D01*
X68550000Y-93750000D02*
X68950000Y-93350000D01*
%TO.N,LPUART1_RX*%
X69450000Y-94450000D02*
X69450000Y-90625000D01*
%TO.N,BOOT0*%
X74875000Y-94550000D02*
X77790000Y-94550000D01*
%TD*%
%TA.AperFunction,Conductor*%
%TO.N,GND*%
G36*
X64734317Y-84426925D02*
G01*
X64780813Y-84480578D01*
X64790920Y-84550852D01*
X64761431Y-84615434D01*
X64755297Y-84622022D01*
X63776089Y-85601230D01*
X63761677Y-85613616D01*
X63750082Y-85622149D01*
X63750077Y-85622154D01*
X63744182Y-85626492D01*
X63739443Y-85632070D01*
X63739440Y-85632073D01*
X63709965Y-85666768D01*
X63703035Y-85674284D01*
X63697340Y-85679979D01*
X63695060Y-85682861D01*
X63679719Y-85702251D01*
X63676928Y-85705655D01*
X63638667Y-85750691D01*
X63629667Y-85761285D01*
X63626339Y-85767801D01*
X63622972Y-85772850D01*
X63619805Y-85777979D01*
X63615266Y-85783716D01*
X63584345Y-85849875D01*
X63582442Y-85853769D01*
X63549231Y-85918808D01*
X63547492Y-85925916D01*
X63545393Y-85931559D01*
X63543476Y-85937322D01*
X63540378Y-85943950D01*
X63525836Y-86013866D01*
X63525514Y-86015412D01*
X63524544Y-86019696D01*
X63507192Y-86090610D01*
X63506500Y-86101764D01*
X63506464Y-86101762D01*
X63506225Y-86105755D01*
X63505851Y-86109947D01*
X63504360Y-86117115D01*
X63504558Y-86124432D01*
X63506454Y-86194521D01*
X63506500Y-86197928D01*
X63506500Y-86665500D01*
X63486498Y-86733621D01*
X63432842Y-86780114D01*
X63380500Y-86791500D01*
X62467069Y-86791500D01*
X62448121Y-86790067D01*
X62440780Y-86788950D01*
X62433883Y-86787901D01*
X62433881Y-86787901D01*
X62426651Y-86786801D01*
X62419359Y-86787394D01*
X62419356Y-86787394D01*
X62373982Y-86791085D01*
X62363767Y-86791500D01*
X62355707Y-86791500D01*
X62342417Y-86793049D01*
X62327493Y-86794789D01*
X62323118Y-86795222D01*
X62257661Y-86800546D01*
X62257658Y-86800547D01*
X62250363Y-86801140D01*
X62243399Y-86803396D01*
X62237440Y-86804587D01*
X62231585Y-86805971D01*
X62224319Y-86806818D01*
X62155673Y-86831735D01*
X62151545Y-86833152D01*
X62089064Y-86853393D01*
X62089062Y-86853394D01*
X62082101Y-86855649D01*
X62075846Y-86859445D01*
X62070372Y-86861951D01*
X62064942Y-86864670D01*
X62058063Y-86867167D01*
X62051943Y-86871180D01*
X62051942Y-86871180D01*
X62049863Y-86872543D01*
X61997016Y-86907191D01*
X61993327Y-86909518D01*
X61973135Y-86921771D01*
X61935693Y-86944491D01*
X61935688Y-86944495D01*
X61930892Y-86947405D01*
X61926685Y-86951121D01*
X61926682Y-86951123D01*
X61925978Y-86951745D01*
X61922516Y-86954803D01*
X61922493Y-86954777D01*
X61919503Y-86957426D01*
X61916264Y-86960134D01*
X61910148Y-86964144D01*
X61905121Y-86969451D01*
X61905117Y-86969454D01*
X61856872Y-87020383D01*
X61854494Y-87022825D01*
X59531089Y-89346230D01*
X59516677Y-89358616D01*
X59505082Y-89367149D01*
X59505077Y-89367154D01*
X59499182Y-89371492D01*
X59494443Y-89377070D01*
X59494440Y-89377073D01*
X59464965Y-89411768D01*
X59458035Y-89419284D01*
X59452340Y-89424979D01*
X59450060Y-89427861D01*
X59434719Y-89447251D01*
X59431928Y-89450655D01*
X59401332Y-89486669D01*
X59384667Y-89506285D01*
X59381339Y-89512801D01*
X59377972Y-89517850D01*
X59374805Y-89522979D01*
X59370266Y-89528716D01*
X59339345Y-89594875D01*
X59337442Y-89598769D01*
X59304231Y-89663808D01*
X59302492Y-89670916D01*
X59300393Y-89676559D01*
X59298476Y-89682322D01*
X59295378Y-89688950D01*
X59293888Y-89696112D01*
X59293888Y-89696113D01*
X59280514Y-89760412D01*
X59279544Y-89764696D01*
X59262192Y-89835610D01*
X59261844Y-89841212D01*
X59261844Y-89841215D01*
X59261692Y-89843672D01*
X59261500Y-89846764D01*
X59261464Y-89846762D01*
X59261225Y-89850754D01*
X59260851Y-89854948D01*
X59259360Y-89862115D01*
X59259558Y-89869432D01*
X59259417Y-89871011D01*
X59233438Y-89937084D01*
X59175862Y-89978623D01*
X59104968Y-89982440D01*
X59067800Y-89967070D01*
X58978757Y-89912184D01*
X58965576Y-89906037D01*
X58811290Y-89854862D01*
X58797914Y-89851995D01*
X58703562Y-89842328D01*
X58697145Y-89842000D01*
X58272115Y-89842000D01*
X58256876Y-89846475D01*
X58255671Y-89847865D01*
X58254000Y-89855548D01*
X58254000Y-91989884D01*
X58258475Y-92005123D01*
X58259865Y-92006328D01*
X58267548Y-92007999D01*
X58697095Y-92007999D01*
X58703614Y-92007662D01*
X58799206Y-91997743D01*
X58812600Y-91994851D01*
X58966784Y-91943412D01*
X58979962Y-91937239D01*
X59069197Y-91882018D01*
X59137649Y-91863180D01*
X59205418Y-91884341D01*
X59250990Y-91938782D01*
X59261500Y-91989162D01*
X59261500Y-92810199D01*
X59241498Y-92878320D01*
X59187842Y-92924813D01*
X59117568Y-92934917D01*
X59069384Y-92917459D01*
X59067829Y-92916500D01*
X58986714Y-92866500D01*
X58978968Y-92861725D01*
X58978966Y-92861724D01*
X58972738Y-92857885D01*
X58881241Y-92827537D01*
X58811389Y-92804368D01*
X58811387Y-92804368D01*
X58804861Y-92802203D01*
X58798025Y-92801503D01*
X58798022Y-92801502D01*
X58754969Y-92797091D01*
X58700400Y-92791500D01*
X57299600Y-92791500D01*
X57296354Y-92791837D01*
X57296350Y-92791837D01*
X57200692Y-92801762D01*
X57200688Y-92801763D01*
X57193834Y-92802474D01*
X57187298Y-92804655D01*
X57187296Y-92804655D01*
X57077824Y-92841178D01*
X57026054Y-92858450D01*
X56875652Y-92951522D01*
X56750695Y-93076697D01*
X56748094Y-93080916D01*
X56690970Y-93121417D01*
X56620047Y-93124649D01*
X56558635Y-93089024D01*
X56552078Y-93081470D01*
X56548478Y-93075652D01*
X56423303Y-92950695D01*
X56404350Y-92939012D01*
X56278968Y-92861725D01*
X56278966Y-92861724D01*
X56272738Y-92857885D01*
X56181241Y-92827537D01*
X56111389Y-92804368D01*
X56111387Y-92804368D01*
X56104861Y-92802203D01*
X56098025Y-92801503D01*
X56098022Y-92801502D01*
X56054969Y-92797091D01*
X56000400Y-92791500D01*
X54599600Y-92791500D01*
X54596354Y-92791837D01*
X54596350Y-92791837D01*
X54500692Y-92801762D01*
X54500688Y-92801763D01*
X54493834Y-92802474D01*
X54487298Y-92804655D01*
X54487296Y-92804655D01*
X54326054Y-92858450D01*
X54325565Y-92856984D01*
X54282818Y-92866500D01*
X52644924Y-92866500D01*
X52576803Y-92846498D01*
X52555829Y-92829595D01*
X51196855Y-91470621D01*
X51187753Y-91460478D01*
X51167897Y-91435782D01*
X51164032Y-91430975D01*
X51125578Y-91398708D01*
X51121931Y-91395528D01*
X51120119Y-91393885D01*
X51117925Y-91391691D01*
X51084651Y-91364358D01*
X51083853Y-91363696D01*
X51012526Y-91303846D01*
X51007856Y-91301278D01*
X51003739Y-91297897D01*
X51002243Y-91297095D01*
X53892001Y-91297095D01*
X53892338Y-91303614D01*
X53902257Y-91399206D01*
X53905149Y-91412600D01*
X53956588Y-91566784D01*
X53962761Y-91579962D01*
X54048063Y-91717807D01*
X54057099Y-91729208D01*
X54171829Y-91843739D01*
X54183240Y-91852751D01*
X54321243Y-91937816D01*
X54334424Y-91943963D01*
X54488710Y-91995138D01*
X54502086Y-91998005D01*
X54596438Y-92007672D01*
X54602854Y-92008000D01*
X55027885Y-92008000D01*
X55043124Y-92003525D01*
X55044329Y-92002135D01*
X55046000Y-91994452D01*
X55046000Y-91989884D01*
X55554000Y-91989884D01*
X55558475Y-92005123D01*
X55559865Y-92006328D01*
X55567548Y-92007999D01*
X55997095Y-92007999D01*
X56003614Y-92007662D01*
X56099206Y-91997743D01*
X56112600Y-91994851D01*
X56266784Y-91943412D01*
X56279962Y-91937239D01*
X56417807Y-91851937D01*
X56429208Y-91842901D01*
X56543740Y-91728170D01*
X56551114Y-91718833D01*
X56609031Y-91677771D01*
X56679954Y-91674539D01*
X56741365Y-91710165D01*
X56748743Y-91718665D01*
X56757097Y-91729206D01*
X56871829Y-91843739D01*
X56883240Y-91852751D01*
X57021243Y-91937816D01*
X57034424Y-91943963D01*
X57188710Y-91995138D01*
X57202086Y-91998005D01*
X57296438Y-92007672D01*
X57302854Y-92008000D01*
X57727885Y-92008000D01*
X57743124Y-92003525D01*
X57744329Y-92002135D01*
X57746000Y-91994452D01*
X57746000Y-91197115D01*
X57741525Y-91181876D01*
X57740135Y-91180671D01*
X57732452Y-91179000D01*
X55572115Y-91179000D01*
X55556876Y-91183475D01*
X55555671Y-91184865D01*
X55554000Y-91192548D01*
X55554000Y-91989884D01*
X55046000Y-91989884D01*
X55046000Y-91197115D01*
X55041525Y-91181876D01*
X55040135Y-91180671D01*
X55032452Y-91179000D01*
X53910116Y-91179000D01*
X53894877Y-91183475D01*
X53893672Y-91184865D01*
X53892001Y-91192548D01*
X53892001Y-91297095D01*
X51002243Y-91297095D01*
X50921914Y-91254023D01*
X50920755Y-91253394D01*
X50844619Y-91211538D01*
X50844611Y-91211535D01*
X50839213Y-91208567D01*
X50834131Y-91206955D01*
X50829437Y-91204438D01*
X50740469Y-91177238D01*
X50739441Y-91176918D01*
X50650694Y-91148765D01*
X50645398Y-91148171D01*
X50640302Y-91146613D01*
X50547743Y-91137210D01*
X50546607Y-91137089D01*
X50512992Y-91133319D01*
X50500270Y-91131892D01*
X50500266Y-91131892D01*
X50496773Y-91131500D01*
X50493246Y-91131500D01*
X50492261Y-91131445D01*
X50486581Y-91130998D01*
X50457175Y-91128011D01*
X50449663Y-91127248D01*
X50449661Y-91127248D01*
X50443538Y-91126626D01*
X50401259Y-91130623D01*
X50397891Y-91130941D01*
X50386033Y-91131500D01*
X50334500Y-91131500D01*
X50266379Y-91111498D01*
X50219886Y-91057842D01*
X50208500Y-91005500D01*
X50208500Y-90652885D01*
X53892000Y-90652885D01*
X53896475Y-90668124D01*
X53897865Y-90669329D01*
X53905548Y-90671000D01*
X55027885Y-90671000D01*
X55043124Y-90666525D01*
X55044329Y-90665135D01*
X55046000Y-90657452D01*
X55046000Y-90652885D01*
X55554000Y-90652885D01*
X55558475Y-90668124D01*
X55559865Y-90669329D01*
X55567548Y-90671000D01*
X57727885Y-90671000D01*
X57743124Y-90666525D01*
X57744329Y-90665135D01*
X57746000Y-90657452D01*
X57746000Y-89860116D01*
X57741525Y-89844877D01*
X57740135Y-89843672D01*
X57732452Y-89842001D01*
X57302905Y-89842001D01*
X57296386Y-89842338D01*
X57200794Y-89852257D01*
X57187400Y-89855149D01*
X57033216Y-89906588D01*
X57020038Y-89912761D01*
X56882193Y-89998063D01*
X56870792Y-90007099D01*
X56756260Y-90121830D01*
X56748886Y-90131167D01*
X56690969Y-90172229D01*
X56620046Y-90175461D01*
X56558635Y-90139835D01*
X56551257Y-90131335D01*
X56542903Y-90120794D01*
X56428171Y-90006261D01*
X56416760Y-89997249D01*
X56278757Y-89912184D01*
X56265576Y-89906037D01*
X56111290Y-89854862D01*
X56097914Y-89851995D01*
X56003562Y-89842328D01*
X55997145Y-89842000D01*
X55572115Y-89842000D01*
X55556876Y-89846475D01*
X55555671Y-89847865D01*
X55554000Y-89855548D01*
X55554000Y-90652885D01*
X55046000Y-90652885D01*
X55046000Y-89860116D01*
X55041525Y-89844877D01*
X55040135Y-89843672D01*
X55032452Y-89842001D01*
X54602905Y-89842001D01*
X54596386Y-89842338D01*
X54500794Y-89852257D01*
X54487400Y-89855149D01*
X54333216Y-89906588D01*
X54320038Y-89912761D01*
X54182193Y-89998063D01*
X54170792Y-90007099D01*
X54056261Y-90121829D01*
X54047249Y-90133240D01*
X53962184Y-90271243D01*
X53956037Y-90284424D01*
X53904862Y-90438710D01*
X53901995Y-90452086D01*
X53892328Y-90546438D01*
X53892000Y-90552855D01*
X53892000Y-90652885D01*
X50208500Y-90652885D01*
X50208500Y-90591866D01*
X50201745Y-90529684D01*
X50150615Y-90393295D01*
X50063261Y-90276739D01*
X49946705Y-90189385D01*
X49810316Y-90138255D01*
X49748134Y-90131500D01*
X46651866Y-90131500D01*
X46589684Y-90138255D01*
X46453295Y-90189385D01*
X46336739Y-90276739D01*
X46249385Y-90393295D01*
X46198255Y-90529684D01*
X46191500Y-90591866D01*
X46191500Y-93688134D01*
X46198255Y-93750316D01*
X46249385Y-93886705D01*
X46336739Y-94003261D01*
X46453295Y-94090615D01*
X46589684Y-94141745D01*
X46651866Y-94148500D01*
X49748134Y-94148500D01*
X49810316Y-94141745D01*
X49946705Y-94090615D01*
X50063261Y-94003261D01*
X50150615Y-93886705D01*
X50201745Y-93750316D01*
X50208500Y-93688134D01*
X50208500Y-93638925D01*
X50228502Y-93570804D01*
X50282158Y-93524311D01*
X50352432Y-93514207D01*
X50417012Y-93543701D01*
X50423595Y-93549830D01*
X51418149Y-94544384D01*
X51427251Y-94554527D01*
X51450968Y-94584025D01*
X51489450Y-94616315D01*
X51493062Y-94619467D01*
X51494888Y-94621123D01*
X51497075Y-94623310D01*
X51499458Y-94625267D01*
X51499463Y-94625272D01*
X51530268Y-94650576D01*
X51531252Y-94651393D01*
X51602474Y-94711154D01*
X51607147Y-94713723D01*
X51611262Y-94717103D01*
X51616691Y-94720014D01*
X51616694Y-94720016D01*
X51693180Y-94761028D01*
X51694338Y-94761657D01*
X51762821Y-94799305D01*
X51775787Y-94806433D01*
X51780865Y-94808044D01*
X51785563Y-94810563D01*
X51874498Y-94837753D01*
X51875702Y-94838128D01*
X51964306Y-94866235D01*
X51969597Y-94866828D01*
X51974698Y-94868388D01*
X52067311Y-94877795D01*
X52068431Y-94877915D01*
X52118227Y-94883500D01*
X52121756Y-94883500D01*
X52122739Y-94883555D01*
X52128426Y-94884003D01*
X52145669Y-94885754D01*
X52165336Y-94887752D01*
X52165339Y-94887752D01*
X52171463Y-94888374D01*
X52217112Y-94884059D01*
X52228969Y-94883500D01*
X54190500Y-94883500D01*
X54258621Y-94903502D01*
X54305114Y-94957158D01*
X54316500Y-95009500D01*
X54316500Y-95349934D01*
X54316823Y-95353113D01*
X54330165Y-95484463D01*
X54331619Y-95498780D01*
X54370040Y-95621380D01*
X54383160Y-95663244D01*
X54391369Y-95689440D01*
X54394463Y-95695022D01*
X54394464Y-95695024D01*
X54412585Y-95727715D01*
X54488235Y-95864191D01*
X54492391Y-95869040D01*
X54561168Y-95949284D01*
X54590312Y-96014023D01*
X54591500Y-96031281D01*
X54591500Y-96615500D01*
X54571498Y-96683621D01*
X54517842Y-96730114D01*
X54465500Y-96741500D01*
X53309214Y-96741500D01*
X53307894Y-96741493D01*
X53306819Y-96741482D01*
X53217779Y-96740549D01*
X53175403Y-96749711D01*
X53162837Y-96751769D01*
X53119745Y-96756603D01*
X53113094Y-96758919D01*
X53113090Y-96758920D01*
X53088070Y-96767633D01*
X53073257Y-96771796D01*
X53040490Y-96778881D01*
X53001187Y-96797208D01*
X52989411Y-96801990D01*
X52948448Y-96816255D01*
X52942473Y-96819989D01*
X52942470Y-96819990D01*
X52920005Y-96834027D01*
X52906488Y-96841366D01*
X52882486Y-96852559D01*
X52876098Y-96855538D01*
X52870533Y-96859855D01*
X52870531Y-96859856D01*
X52841847Y-96882106D01*
X52831388Y-96889402D01*
X52800596Y-96908642D01*
X52800593Y-96908644D01*
X52794624Y-96912374D01*
X52789629Y-96917334D01*
X52789628Y-96917335D01*
X52765821Y-96940976D01*
X52765196Y-96941561D01*
X52764530Y-96942078D01*
X52738540Y-96968068D01*
X52665918Y-97040185D01*
X52665260Y-97041222D01*
X52664157Y-97042451D01*
X52597828Y-97108780D01*
X52567497Y-97131142D01*
X52467102Y-97184075D01*
X52461889Y-97188480D01*
X52461885Y-97188483D01*
X52329847Y-97300064D01*
X52329843Y-97300068D01*
X52324633Y-97304471D01*
X52320486Y-97309895D01*
X52320485Y-97309896D01*
X52215484Y-97447231D01*
X52215481Y-97447235D01*
X52211340Y-97452652D01*
X52132510Y-97621704D01*
X52091820Y-97803740D01*
X52091500Y-97809463D01*
X52091500Y-98900786D01*
X52071498Y-98968907D01*
X52054595Y-98989881D01*
X51357917Y-99686559D01*
X51327198Y-99709125D01*
X51245110Y-99752040D01*
X51090975Y-99875968D01*
X50963846Y-100027474D01*
X50960879Y-100032872D01*
X50960875Y-100032877D01*
X50903815Y-100136670D01*
X50868567Y-100200787D01*
X50866706Y-100206654D01*
X50866705Y-100206656D01*
X50830900Y-100319528D01*
X50808765Y-100389306D01*
X50791500Y-100543227D01*
X50791500Y-102818381D01*
X50771498Y-102886502D01*
X50756594Y-102905432D01*
X50740629Y-102922138D01*
X50614743Y-103106680D01*
X50591218Y-103157361D01*
X50533583Y-103281526D01*
X50520688Y-103309305D01*
X50460989Y-103524570D01*
X50437251Y-103746695D01*
X50437548Y-103751848D01*
X50437548Y-103751851D01*
X50447817Y-103929949D01*
X50450110Y-103969715D01*
X50451247Y-103974761D01*
X50451248Y-103974767D01*
X50471119Y-104062939D01*
X50499222Y-104187639D01*
X50555006Y-104325020D01*
X50566749Y-104353938D01*
X50583266Y-104394616D01*
X50619224Y-104453295D01*
X50686640Y-104563307D01*
X50699987Y-104585088D01*
X50846250Y-104753938D01*
X51018126Y-104896632D01*
X51071609Y-104927885D01*
X51091445Y-104939476D01*
X51140169Y-104991114D01*
X51153240Y-105060897D01*
X51126509Y-105126669D01*
X51086055Y-105160027D01*
X51073607Y-105166507D01*
X51069474Y-105169610D01*
X51069471Y-105169612D01*
X50899100Y-105297530D01*
X50894965Y-105300635D01*
X50876605Y-105319848D01*
X50763165Y-105438556D01*
X50740629Y-105462138D01*
X50737715Y-105466410D01*
X50737714Y-105466411D01*
X50695602Y-105528145D01*
X50614743Y-105646680D01*
X50570391Y-105742229D01*
X50532202Y-105824501D01*
X50520688Y-105849305D01*
X50460989Y-106064570D01*
X50437251Y-106286695D01*
X50437548Y-106291848D01*
X50437548Y-106291851D01*
X50448945Y-106489507D01*
X50450110Y-106509715D01*
X50451247Y-106514761D01*
X50451248Y-106514767D01*
X50469444Y-106595506D01*
X50499222Y-106727639D01*
X50583266Y-106934616D01*
X50699987Y-107125088D01*
X50846250Y-107293938D01*
X51018126Y-107436632D01*
X51088595Y-107477811D01*
X51091445Y-107479476D01*
X51140169Y-107531114D01*
X51153240Y-107600897D01*
X51126509Y-107666669D01*
X51086055Y-107700027D01*
X51073607Y-107706507D01*
X51069474Y-107709610D01*
X51069471Y-107709612D01*
X50899100Y-107837530D01*
X50894965Y-107840635D01*
X50876605Y-107859848D01*
X50768225Y-107973261D01*
X50740629Y-108002138D01*
X50737715Y-108006410D01*
X50737714Y-108006411D01*
X50694906Y-108069166D01*
X50614743Y-108186680D01*
X50599003Y-108220590D01*
X50523323Y-108383629D01*
X50520688Y-108389305D01*
X50460989Y-108604570D01*
X50437251Y-108826695D01*
X50437548Y-108831848D01*
X50437548Y-108831851D01*
X50448177Y-109016192D01*
X50450110Y-109049715D01*
X50451247Y-109054761D01*
X50451248Y-109054767D01*
X50471119Y-109142939D01*
X50499222Y-109267639D01*
X50583266Y-109474616D01*
X50621844Y-109537569D01*
X50695726Y-109658134D01*
X50699987Y-109665088D01*
X50846250Y-109833938D01*
X50850225Y-109837238D01*
X50850231Y-109837244D01*
X50855425Y-109841556D01*
X50895059Y-109900460D01*
X50896555Y-109971441D01*
X50859439Y-110031962D01*
X50819168Y-110056480D01*
X50711946Y-110096676D01*
X50696351Y-110105214D01*
X50594276Y-110181715D01*
X50581715Y-110194276D01*
X50505214Y-110296351D01*
X50496676Y-110311946D01*
X50451522Y-110432394D01*
X50447895Y-110447649D01*
X50442369Y-110498514D01*
X50442000Y-110505328D01*
X50442000Y-111127885D01*
X50446475Y-111143124D01*
X50447865Y-111144329D01*
X50455548Y-111146000D01*
X53139884Y-111146000D01*
X53155123Y-111141525D01*
X53156328Y-111140135D01*
X53157999Y-111132452D01*
X53157999Y-110977885D01*
X58067000Y-110977885D01*
X58071475Y-110993124D01*
X58072865Y-110994329D01*
X58080548Y-110996000D01*
X58702885Y-110996000D01*
X58718124Y-110991525D01*
X58719329Y-110990135D01*
X58721000Y-110982452D01*
X58721000Y-110285116D01*
X58716525Y-110269877D01*
X58715135Y-110268672D01*
X58710706Y-110267709D01*
X58651685Y-110273132D01*
X58638649Y-110275743D01*
X58488757Y-110322715D01*
X58475012Y-110328921D01*
X58341426Y-110409824D01*
X58329557Y-110419131D01*
X58219131Y-110529557D01*
X58209824Y-110541426D01*
X58128921Y-110675012D01*
X58122715Y-110688757D01*
X58075744Y-110838644D01*
X58073131Y-110851694D01*
X58067266Y-110915521D01*
X58067000Y-110921309D01*
X58067000Y-110977885D01*
X53157999Y-110977885D01*
X53157999Y-110505331D01*
X53157629Y-110498510D01*
X53152105Y-110447648D01*
X53148479Y-110432396D01*
X53103324Y-110311946D01*
X53094786Y-110296351D01*
X53018285Y-110194276D01*
X53005724Y-110181715D01*
X52903649Y-110105214D01*
X52888054Y-110096676D01*
X52777813Y-110055348D01*
X52721049Y-110012706D01*
X52696349Y-109946145D01*
X52711557Y-109876796D01*
X52733104Y-109848115D01*
X52834430Y-109747144D01*
X52834440Y-109747132D01*
X52838096Y-109743489D01*
X52849511Y-109727604D01*
X52965435Y-109566277D01*
X52968453Y-109562077D01*
X52975781Y-109547251D01*
X53065136Y-109366453D01*
X53065137Y-109366451D01*
X53067430Y-109361811D01*
X53132370Y-109148069D01*
X53161529Y-108926590D01*
X53163156Y-108860000D01*
X53144852Y-108637361D01*
X53090431Y-108420702D01*
X53001354Y-108215840D01*
X52919673Y-108089580D01*
X52882822Y-108032617D01*
X52882820Y-108032614D01*
X52880014Y-108028277D01*
X52729670Y-107863051D01*
X52725619Y-107859852D01*
X52725615Y-107859848D01*
X52558414Y-107727800D01*
X52558410Y-107727798D01*
X52554359Y-107724598D01*
X52513053Y-107701796D01*
X52463084Y-107651364D01*
X52448312Y-107581921D01*
X52473428Y-107515516D01*
X52500780Y-107488909D01*
X52568683Y-107440474D01*
X52679860Y-107361173D01*
X52709509Y-107331628D01*
X52813953Y-107227548D01*
X52838096Y-107203489D01*
X52897594Y-107120689D01*
X52965435Y-107026277D01*
X52968453Y-107022077D01*
X53042049Y-106873167D01*
X53065136Y-106826453D01*
X53065137Y-106826451D01*
X53067430Y-106821811D01*
X53114617Y-106666500D01*
X53130865Y-106613023D01*
X53130865Y-106613021D01*
X53132370Y-106608069D01*
X53161529Y-106386590D01*
X53162311Y-106354572D01*
X53163074Y-106323365D01*
X53163074Y-106323361D01*
X53163156Y-106320000D01*
X53144852Y-106097361D01*
X53090431Y-105880702D01*
X53001354Y-105675840D01*
X52949089Y-105595051D01*
X52882822Y-105492617D01*
X52882820Y-105492614D01*
X52880014Y-105488277D01*
X52729670Y-105323051D01*
X52725619Y-105319852D01*
X52725615Y-105319848D01*
X52558414Y-105187800D01*
X52558410Y-105187798D01*
X52554359Y-105184598D01*
X52513053Y-105161796D01*
X52463084Y-105111364D01*
X52448312Y-105041921D01*
X52473428Y-104975516D01*
X52500780Y-104948909D01*
X52544603Y-104917650D01*
X52679860Y-104821173D01*
X52838096Y-104663489D01*
X52897594Y-104580689D01*
X52965435Y-104486277D01*
X52968453Y-104482077D01*
X52977589Y-104463593D01*
X53065136Y-104286453D01*
X53065137Y-104286451D01*
X53067430Y-104281811D01*
X53105097Y-104157836D01*
X53130865Y-104073023D01*
X53130865Y-104073021D01*
X53132370Y-104068069D01*
X53161529Y-103846590D01*
X53161840Y-103833848D01*
X53163074Y-103783365D01*
X53163074Y-103783361D01*
X53163156Y-103780000D01*
X53144852Y-103557361D01*
X53090431Y-103340702D01*
X53001354Y-103135840D01*
X52880014Y-102948277D01*
X52876532Y-102944450D01*
X52841306Y-102905737D01*
X52810254Y-102841891D01*
X52808500Y-102820938D01*
X52808500Y-100999214D01*
X52828502Y-100931093D01*
X52845405Y-100910119D01*
X53460119Y-100295405D01*
X53522431Y-100261379D01*
X53549214Y-100258500D01*
X56073134Y-100258500D01*
X56135316Y-100251745D01*
X56271705Y-100200615D01*
X56388261Y-100113261D01*
X56475615Y-99996705D01*
X56526745Y-99860316D01*
X56533500Y-99798134D01*
X56533500Y-99101866D01*
X56526745Y-99039684D01*
X56518810Y-99018517D01*
X56513627Y-98947711D01*
X56518810Y-98930058D01*
X56523478Y-98917605D01*
X56527105Y-98902351D01*
X56532631Y-98851486D01*
X56533000Y-98844672D01*
X56533000Y-98772115D01*
X56528525Y-98756876D01*
X56527135Y-98755671D01*
X56519452Y-98754000D01*
X56386553Y-98754000D01*
X56318432Y-98733998D01*
X56310988Y-98728826D01*
X56289284Y-98712560D01*
X56271705Y-98699385D01*
X56135316Y-98648255D01*
X56073134Y-98641500D01*
X53934500Y-98641500D01*
X53866379Y-98621498D01*
X53819886Y-98567842D01*
X53808500Y-98515500D01*
X53808500Y-98484500D01*
X53828502Y-98416379D01*
X53882158Y-98369886D01*
X53934500Y-98358500D01*
X55366036Y-98358500D01*
X55386615Y-98360192D01*
X55395058Y-98361590D01*
X55395061Y-98361590D01*
X55401795Y-98362705D01*
X55408611Y-98362348D01*
X55408615Y-98362348D01*
X55478723Y-98358673D01*
X55485318Y-98358500D01*
X56073134Y-98358500D01*
X56135316Y-98351745D01*
X56271705Y-98300615D01*
X56310988Y-98271174D01*
X56377494Y-98246326D01*
X56386553Y-98246000D01*
X56514884Y-98246000D01*
X56530123Y-98241525D01*
X56531328Y-98240135D01*
X56532999Y-98232452D01*
X56532999Y-98155331D01*
X56532629Y-98148510D01*
X56527105Y-98097648D01*
X56523479Y-98082397D01*
X56518810Y-98069942D01*
X56513627Y-97999135D01*
X56518808Y-97981488D01*
X56526745Y-97960316D01*
X56533500Y-97898134D01*
X56533500Y-97201866D01*
X56526745Y-97139684D01*
X56475615Y-97003295D01*
X56388261Y-96886739D01*
X56358933Y-96864759D01*
X56316420Y-96807900D01*
X56308500Y-96763934D01*
X56308500Y-95841749D01*
X56316869Y-95796594D01*
X56354294Y-95699101D01*
X56354295Y-95699098D01*
X56356659Y-95692939D01*
X56387356Y-95499125D01*
X56387006Y-95492434D01*
X56377432Y-95309759D01*
X56377431Y-95309756D01*
X56377086Y-95303164D01*
X56374711Y-95294297D01*
X56328006Y-95119995D01*
X56328006Y-95119994D01*
X56326298Y-95113621D01*
X56297233Y-95056578D01*
X56283500Y-94999375D01*
X56283500Y-94955840D01*
X56303502Y-94887719D01*
X56343197Y-94848696D01*
X56351481Y-94843570D01*
X56424348Y-94798478D01*
X56549305Y-94673303D01*
X56551906Y-94669084D01*
X56609030Y-94628583D01*
X56679953Y-94625351D01*
X56741365Y-94660976D01*
X56747922Y-94668530D01*
X56751522Y-94674348D01*
X56876697Y-94799305D01*
X56882927Y-94803145D01*
X56882928Y-94803146D01*
X57020090Y-94887694D01*
X57027262Y-94892115D01*
X57100781Y-94916500D01*
X57155167Y-94934539D01*
X57213527Y-94974969D01*
X57240764Y-95040534D01*
X57241500Y-95054132D01*
X57241500Y-96669618D01*
X57221498Y-96737739D01*
X57167842Y-96784232D01*
X57159731Y-96787599D01*
X57136707Y-96796231D01*
X57136704Y-96796232D01*
X57128295Y-96799385D01*
X57011739Y-96886739D01*
X56924385Y-97003295D01*
X56873255Y-97139684D01*
X56866500Y-97201866D01*
X56866500Y-97898134D01*
X56873255Y-97960316D01*
X56924385Y-98096705D01*
X57011739Y-98213261D01*
X57128295Y-98300615D01*
X57264684Y-98351745D01*
X57326866Y-98358500D01*
X58573134Y-98358500D01*
X58588544Y-98356826D01*
X58627466Y-98352598D01*
X58627468Y-98352598D01*
X58635316Y-98351745D01*
X58642709Y-98348973D01*
X58642711Y-98348973D01*
X58729284Y-98316518D01*
X58773513Y-98308500D01*
X58883629Y-98308500D01*
X58951750Y-98328502D01*
X58972724Y-98345405D01*
X59054595Y-98427276D01*
X59088621Y-98489588D01*
X59091500Y-98516371D01*
X59091500Y-98687587D01*
X59071498Y-98755708D01*
X59017842Y-98802201D01*
X58947568Y-98812305D01*
X58889110Y-98785607D01*
X58888261Y-98786739D01*
X58883070Y-98782848D01*
X58883068Y-98782847D01*
X58875970Y-98777527D01*
X58846807Y-98755671D01*
X58771705Y-98699385D01*
X58635316Y-98648255D01*
X58573134Y-98641500D01*
X57326866Y-98641500D01*
X57264684Y-98648255D01*
X57128295Y-98699385D01*
X57011739Y-98786739D01*
X56924385Y-98903295D01*
X56873255Y-99039684D01*
X56866500Y-99101866D01*
X56866500Y-99798134D01*
X56873255Y-99860316D01*
X56924385Y-99996705D01*
X57011739Y-100113261D01*
X57128295Y-100200615D01*
X57264684Y-100251745D01*
X57326866Y-100258500D01*
X58573134Y-100258500D01*
X58635316Y-100251745D01*
X58771705Y-100200615D01*
X58888261Y-100113261D01*
X58919407Y-100071703D01*
X58971737Y-100001880D01*
X59028597Y-99959365D01*
X59099415Y-99954339D01*
X59161708Y-99988399D01*
X59177932Y-100008356D01*
X59207187Y-100052977D01*
X59209523Y-100056680D01*
X59247405Y-100119107D01*
X59251121Y-100123315D01*
X59251122Y-100123316D01*
X59254803Y-100127484D01*
X59254776Y-100127508D01*
X59257429Y-100130500D01*
X59260132Y-100133733D01*
X59264144Y-100139852D01*
X59269456Y-100144884D01*
X59320383Y-100193128D01*
X59322825Y-100195506D01*
X59896230Y-100768911D01*
X59908616Y-100783323D01*
X59917149Y-100794918D01*
X59917154Y-100794923D01*
X59921492Y-100800818D01*
X59927070Y-100805557D01*
X59927073Y-100805560D01*
X59961768Y-100835035D01*
X59969284Y-100841965D01*
X59974980Y-100847661D01*
X59977841Y-100849924D01*
X59977846Y-100849929D01*
X59997266Y-100865293D01*
X60000667Y-100868082D01*
X60050148Y-100910119D01*
X60056285Y-100915333D01*
X60062805Y-100918662D01*
X60067852Y-100922028D01*
X60072976Y-100925193D01*
X60078717Y-100929735D01*
X60085348Y-100932834D01*
X60085351Y-100932836D01*
X60144830Y-100960634D01*
X60148782Y-100962565D01*
X60197822Y-100987606D01*
X60213808Y-100995769D01*
X60220914Y-100997508D01*
X60226564Y-100999609D01*
X60232321Y-101001524D01*
X60238950Y-101004622D01*
X60310435Y-101019491D01*
X60314701Y-101020457D01*
X60385610Y-101037808D01*
X60391212Y-101038156D01*
X60391215Y-101038156D01*
X60396764Y-101038500D01*
X60396762Y-101038535D01*
X60400734Y-101038775D01*
X60404955Y-101039152D01*
X60412115Y-101040641D01*
X60489542Y-101038546D01*
X60492950Y-101038500D01*
X61116514Y-101038500D01*
X61151667Y-101043503D01*
X61221569Y-101063812D01*
X61221574Y-101063813D01*
X61227746Y-101065606D01*
X61234151Y-101066110D01*
X61234156Y-101066111D01*
X61262060Y-101068307D01*
X61262068Y-101068307D01*
X61264516Y-101068500D01*
X61735484Y-101068500D01*
X61737932Y-101068307D01*
X61737940Y-101068307D01*
X61765844Y-101066111D01*
X61765849Y-101066110D01*
X61772254Y-101065606D01*
X61872531Y-101036473D01*
X61921984Y-101022106D01*
X61921986Y-101022105D01*
X61929597Y-101019894D01*
X62057388Y-100944319D01*
X62070629Y-100936488D01*
X62071454Y-100937883D01*
X62128944Y-100915310D01*
X62136128Y-100914878D01*
X62177986Y-100913562D01*
X62181945Y-100913500D01*
X62209856Y-100913500D01*
X62213791Y-100913003D01*
X62213856Y-100912995D01*
X62225693Y-100912062D01*
X62257951Y-100911048D01*
X62261970Y-100910922D01*
X62269889Y-100910673D01*
X62289343Y-100905021D01*
X62308700Y-100901013D01*
X62320930Y-100899468D01*
X62320931Y-100899468D01*
X62328797Y-100898474D01*
X62336168Y-100895555D01*
X62336170Y-100895555D01*
X62369912Y-100882196D01*
X62381142Y-100878351D01*
X62415983Y-100868229D01*
X62415984Y-100868229D01*
X62423593Y-100866018D01*
X62430412Y-100861985D01*
X62430417Y-100861983D01*
X62441028Y-100855707D01*
X62458776Y-100847012D01*
X62477617Y-100839552D01*
X62498905Y-100824086D01*
X62513387Y-100813564D01*
X62523307Y-100807048D01*
X62554535Y-100788580D01*
X62554538Y-100788578D01*
X62561362Y-100784542D01*
X62575686Y-100770218D01*
X62590713Y-100757383D01*
X62607107Y-100745472D01*
X62612162Y-100739361D01*
X62617941Y-100733935D01*
X62620124Y-100736259D01*
X62666716Y-100704776D01*
X62721435Y-100699900D01*
X62786756Y-100708500D01*
X64263244Y-100708500D01*
X64267330Y-100707962D01*
X64267331Y-100707962D01*
X64328567Y-100699900D01*
X64377324Y-100693481D01*
X64384951Y-100690322D01*
X64384954Y-100690321D01*
X64448296Y-100664084D01*
X64519268Y-100634686D01*
X64641157Y-100541157D01*
X64663677Y-100511809D01*
X64690843Y-100476405D01*
X64734686Y-100419267D01*
X64793481Y-100277324D01*
X64805833Y-100183500D01*
X64807962Y-100167331D01*
X64807962Y-100167330D01*
X64808500Y-100163244D01*
X64808500Y-99936756D01*
X64793481Y-99822676D01*
X64794766Y-99822507D01*
X64794765Y-99777427D01*
X64792994Y-99777194D01*
X64800792Y-99717960D01*
X64798581Y-99703778D01*
X64779216Y-99698217D01*
X64719263Y-99660189D01*
X64714033Y-99653816D01*
X64693229Y-99626704D01*
X64667628Y-99560484D01*
X64681892Y-99490935D01*
X64693229Y-99473295D01*
X64714103Y-99446092D01*
X64771442Y-99404225D01*
X64778567Y-99401901D01*
X64798813Y-99395956D01*
X64800842Y-99382417D01*
X64792994Y-99322806D01*
X64794765Y-99322573D01*
X64794766Y-99277493D01*
X64793481Y-99277324D01*
X64807962Y-99167331D01*
X64807962Y-99167330D01*
X64808500Y-99163244D01*
X64808500Y-98936756D01*
X64803971Y-98902351D01*
X64793481Y-98822676D01*
X64795026Y-98822473D01*
X64795026Y-98777527D01*
X64793481Y-98777324D01*
X64807962Y-98667331D01*
X64807962Y-98667330D01*
X64808500Y-98663244D01*
X64808500Y-98436756D01*
X64793481Y-98322676D01*
X64795026Y-98322473D01*
X64795026Y-98277527D01*
X64793481Y-98277324D01*
X64807962Y-98167331D01*
X64807962Y-98167330D01*
X64808500Y-98163244D01*
X64808500Y-97936756D01*
X64793481Y-97822676D01*
X64795026Y-97822473D01*
X64795026Y-97777527D01*
X64793481Y-97777324D01*
X64807962Y-97667331D01*
X64807962Y-97667330D01*
X64808500Y-97663244D01*
X64808500Y-97436756D01*
X64803882Y-97401675D01*
X64793481Y-97322676D01*
X64795026Y-97322473D01*
X64795026Y-97277527D01*
X64793481Y-97277324D01*
X64807962Y-97167331D01*
X64807962Y-97167330D01*
X64808500Y-97163244D01*
X64808500Y-96936756D01*
X64807510Y-96929232D01*
X64793481Y-96822676D01*
X64795026Y-96822473D01*
X64795026Y-96777527D01*
X64793481Y-96777324D01*
X64807962Y-96667331D01*
X64807962Y-96667330D01*
X64808500Y-96663244D01*
X64808500Y-96436756D01*
X64804982Y-96410034D01*
X64793912Y-96325946D01*
X64804852Y-96255797D01*
X64851980Y-96202699D01*
X64918834Y-96183500D01*
X65521233Y-96183500D01*
X65532416Y-96184027D01*
X65539909Y-96185702D01*
X65547835Y-96185453D01*
X65547836Y-96185453D01*
X65607986Y-96183562D01*
X65611945Y-96183500D01*
X65639856Y-96183500D01*
X65643791Y-96183003D01*
X65643856Y-96182995D01*
X65655693Y-96182062D01*
X65687951Y-96181048D01*
X65691970Y-96180922D01*
X65699889Y-96180673D01*
X65719343Y-96175021D01*
X65738700Y-96171013D01*
X65750930Y-96169468D01*
X65750931Y-96169468D01*
X65758797Y-96168474D01*
X65766168Y-96165555D01*
X65766170Y-96165555D01*
X65799912Y-96152196D01*
X65811142Y-96148351D01*
X65845983Y-96138229D01*
X65845984Y-96138229D01*
X65853593Y-96136018D01*
X65860412Y-96131985D01*
X65860417Y-96131983D01*
X65871028Y-96125707D01*
X65888776Y-96117012D01*
X65907617Y-96109552D01*
X65916878Y-96102824D01*
X65943387Y-96083564D01*
X65953307Y-96077048D01*
X65965415Y-96069887D01*
X65991362Y-96054542D01*
X65996969Y-96048936D01*
X66005685Y-96040220D01*
X66020719Y-96027379D01*
X66030695Y-96020131D01*
X66030696Y-96020130D01*
X66037107Y-96015472D01*
X66065288Y-95981407D01*
X66073278Y-95972626D01*
X66342258Y-95703647D01*
X66350537Y-95696113D01*
X66357018Y-95692000D01*
X66403645Y-95642347D01*
X66406399Y-95639506D01*
X66426135Y-95619770D01*
X66428615Y-95616573D01*
X66436320Y-95607551D01*
X66439155Y-95604532D01*
X66466586Y-95575321D01*
X66470405Y-95568375D01*
X66470407Y-95568372D01*
X66476348Y-95557566D01*
X66487199Y-95541047D01*
X66494758Y-95531301D01*
X66499614Y-95525041D01*
X66502759Y-95517772D01*
X66502762Y-95517768D01*
X66517174Y-95484463D01*
X66522391Y-95473813D01*
X66543695Y-95435060D01*
X66545860Y-95426630D01*
X66548733Y-95415438D01*
X66555137Y-95396734D01*
X66560033Y-95385420D01*
X66560033Y-95385419D01*
X66563181Y-95378145D01*
X66564420Y-95370322D01*
X66564423Y-95370312D01*
X66570099Y-95334476D01*
X66572505Y-95322856D01*
X66581528Y-95287711D01*
X66581528Y-95287710D01*
X66583500Y-95280030D01*
X66583500Y-95259776D01*
X66585051Y-95240065D01*
X66586980Y-95227886D01*
X66588220Y-95220057D01*
X66584059Y-95176038D01*
X66583500Y-95164181D01*
X66583500Y-93228767D01*
X66584027Y-93217584D01*
X66585702Y-93210091D01*
X66585402Y-93200527D01*
X66583562Y-93142014D01*
X66583500Y-93138055D01*
X66583500Y-93110144D01*
X66583330Y-93108801D01*
X66598885Y-93040125D01*
X66649515Y-92990354D01*
X66682756Y-92978206D01*
X66687023Y-92977299D01*
X66716752Y-92970980D01*
X66722783Y-92968295D01*
X66875585Y-92900263D01*
X66875587Y-92900262D01*
X66881615Y-92897578D01*
X66888457Y-92892607D01*
X67022269Y-92795387D01*
X67022271Y-92795385D01*
X67027613Y-92791504D01*
X67148367Y-92657393D01*
X67212287Y-92546680D01*
X67235295Y-92506830D01*
X67235296Y-92506829D01*
X67238599Y-92501107D01*
X67275259Y-92388277D01*
X67292325Y-92335754D01*
X67292325Y-92335753D01*
X67294365Y-92329475D01*
X67305150Y-92226870D01*
X67312539Y-92156565D01*
X67313229Y-92150000D01*
X67306691Y-92087800D01*
X67295055Y-91977087D01*
X67295054Y-91977084D01*
X67294365Y-91970525D01*
X67292508Y-91964810D01*
X67294641Y-91904085D01*
X67301784Y-91879214D01*
X67339813Y-91819261D01*
X67346184Y-91814033D01*
X67373296Y-91793229D01*
X67439516Y-91767628D01*
X67509065Y-91781892D01*
X67526705Y-91793229D01*
X67553908Y-91814103D01*
X67595775Y-91871442D01*
X67598099Y-91878567D01*
X67604044Y-91898813D01*
X67617583Y-91900842D01*
X67677194Y-91892994D01*
X67677427Y-91894765D01*
X67722507Y-91894766D01*
X67722676Y-91893481D01*
X67832669Y-91907962D01*
X67832670Y-91907962D01*
X67836756Y-91908500D01*
X68063244Y-91908500D01*
X68067330Y-91907962D01*
X68067331Y-91907962D01*
X68174054Y-91893912D01*
X68244203Y-91904852D01*
X68297301Y-91951980D01*
X68316500Y-92018834D01*
X68316500Y-93035405D01*
X68296498Y-93103526D01*
X68279595Y-93124500D01*
X68157747Y-93246348D01*
X68149461Y-93253888D01*
X68142982Y-93258000D01*
X68137557Y-93263777D01*
X68096357Y-93307651D01*
X68093602Y-93310493D01*
X68073865Y-93330230D01*
X68071385Y-93333427D01*
X68063682Y-93342447D01*
X68033414Y-93374679D01*
X68029595Y-93381625D01*
X68029593Y-93381628D01*
X68023652Y-93392434D01*
X68012801Y-93408953D01*
X68000386Y-93424959D01*
X67997241Y-93432228D01*
X67997238Y-93432232D01*
X67982826Y-93465537D01*
X67977609Y-93476187D01*
X67956305Y-93514940D01*
X67954334Y-93522615D01*
X67954334Y-93522616D01*
X67951267Y-93534562D01*
X67944863Y-93553266D01*
X67936819Y-93571855D01*
X67935580Y-93579678D01*
X67935577Y-93579688D01*
X67929901Y-93615524D01*
X67927495Y-93627144D01*
X67922181Y-93647844D01*
X67916500Y-93669970D01*
X67916500Y-93690224D01*
X67914949Y-93709934D01*
X67911780Y-93729943D01*
X67912526Y-93737835D01*
X67915941Y-93773961D01*
X67916500Y-93785819D01*
X67916500Y-96272198D01*
X67896498Y-96340319D01*
X67884137Y-96356508D01*
X67851633Y-96392607D01*
X67839755Y-96413181D01*
X67787974Y-96502868D01*
X67761401Y-96548893D01*
X67759359Y-96555178D01*
X67722176Y-96669618D01*
X67705635Y-96720525D01*
X67704945Y-96727088D01*
X67704945Y-96727089D01*
X67689227Y-96876632D01*
X67686771Y-96900000D01*
X67687461Y-96906565D01*
X67703703Y-97061089D01*
X67705635Y-97079475D01*
X67707675Y-97085753D01*
X67707675Y-97085754D01*
X67715157Y-97108780D01*
X67761401Y-97251107D01*
X67851633Y-97407393D01*
X67856051Y-97412300D01*
X67856052Y-97412301D01*
X67903284Y-97464757D01*
X67972387Y-97541504D01*
X67977729Y-97545385D01*
X67977731Y-97545387D01*
X68094748Y-97630405D01*
X68118385Y-97647578D01*
X68124413Y-97650262D01*
X68124415Y-97650263D01*
X68277217Y-97718295D01*
X68283248Y-97720980D01*
X68371508Y-97739740D01*
X68453311Y-97757128D01*
X68453315Y-97757128D01*
X68459768Y-97758500D01*
X68640232Y-97758500D01*
X68646685Y-97757128D01*
X68646689Y-97757128D01*
X68728492Y-97739740D01*
X68816752Y-97720980D01*
X68822783Y-97718295D01*
X68975585Y-97650263D01*
X68975587Y-97650262D01*
X68981615Y-97647578D01*
X69005252Y-97630405D01*
X69122269Y-97545387D01*
X69122271Y-97545385D01*
X69127613Y-97541504D01*
X69196716Y-97464757D01*
X69243948Y-97412301D01*
X69243949Y-97412300D01*
X69248367Y-97407393D01*
X69338599Y-97251107D01*
X69384843Y-97108780D01*
X69392325Y-97085754D01*
X69392325Y-97085753D01*
X69394365Y-97079475D01*
X69396298Y-97061089D01*
X69412539Y-96906565D01*
X69413229Y-96900000D01*
X69410773Y-96876632D01*
X69395055Y-96727089D01*
X69395055Y-96727088D01*
X69394365Y-96720525D01*
X69377825Y-96669618D01*
X69340641Y-96555178D01*
X69338599Y-96548893D01*
X69312027Y-96502868D01*
X69260245Y-96413181D01*
X69248367Y-96392607D01*
X69215864Y-96356509D01*
X69185147Y-96292501D01*
X69183500Y-96272198D01*
X69183500Y-95426630D01*
X69203502Y-95358509D01*
X69257158Y-95312016D01*
X69327432Y-95301912D01*
X69335696Y-95303383D01*
X69359768Y-95308500D01*
X69540232Y-95308500D01*
X69546685Y-95307128D01*
X69546689Y-95307128D01*
X69628492Y-95289740D01*
X69716752Y-95270980D01*
X69722783Y-95268295D01*
X69875585Y-95200263D01*
X69875587Y-95200262D01*
X69881615Y-95197578D01*
X69919401Y-95170125D01*
X70022269Y-95095387D01*
X70022271Y-95095385D01*
X70027613Y-95091504D01*
X70058834Y-95056830D01*
X70143948Y-94962301D01*
X70143949Y-94962300D01*
X70148367Y-94957393D01*
X70200997Y-94866235D01*
X70235297Y-94806827D01*
X70235299Y-94806824D01*
X70238599Y-94801107D01*
X70240501Y-94795253D01*
X70286372Y-94741284D01*
X70354300Y-94720634D01*
X70422608Y-94739986D01*
X70469610Y-94793196D01*
X70481500Y-94846628D01*
X70481500Y-98482930D01*
X70480067Y-98501880D01*
X70476801Y-98523349D01*
X70477394Y-98530641D01*
X70477394Y-98530644D01*
X70481085Y-98576018D01*
X70481500Y-98586233D01*
X70481500Y-98594293D01*
X70481925Y-98597937D01*
X70484789Y-98622507D01*
X70485222Y-98626882D01*
X70490160Y-98687587D01*
X70491140Y-98699637D01*
X70493396Y-98706601D01*
X70494587Y-98712560D01*
X70495971Y-98718415D01*
X70496818Y-98725681D01*
X70521735Y-98794327D01*
X70523152Y-98798455D01*
X70545649Y-98867899D01*
X70549445Y-98874154D01*
X70551951Y-98879628D01*
X70554670Y-98885058D01*
X70557167Y-98891937D01*
X70561180Y-98898057D01*
X70561180Y-98898058D01*
X70597186Y-98952976D01*
X70599523Y-98956680D01*
X70637405Y-99019107D01*
X70641121Y-99023315D01*
X70641122Y-99023316D01*
X70644803Y-99027484D01*
X70644776Y-99027508D01*
X70647429Y-99030500D01*
X70650132Y-99033733D01*
X70654144Y-99039852D01*
X70659456Y-99044884D01*
X70710383Y-99093128D01*
X70712825Y-99095506D01*
X72093724Y-100476405D01*
X72127750Y-100538717D01*
X72122685Y-100609532D01*
X72080138Y-100666368D01*
X72013618Y-100691179D01*
X72004629Y-100691500D01*
X71836756Y-100691500D01*
X71832670Y-100692038D01*
X71832669Y-100692038D01*
X71722676Y-100706519D01*
X71722473Y-100704974D01*
X71677527Y-100704974D01*
X71677324Y-100706519D01*
X71567331Y-100692038D01*
X71567330Y-100692038D01*
X71563244Y-100691500D01*
X71336756Y-100691500D01*
X71332670Y-100692038D01*
X71332669Y-100692038D01*
X71222676Y-100706519D01*
X71222473Y-100704974D01*
X71177527Y-100704974D01*
X71177324Y-100706519D01*
X71067331Y-100692038D01*
X71067330Y-100692038D01*
X71063244Y-100691500D01*
X70836756Y-100691500D01*
X70832670Y-100692038D01*
X70832669Y-100692038D01*
X70722676Y-100706519D01*
X70722473Y-100704974D01*
X70677527Y-100704974D01*
X70677324Y-100706519D01*
X70567331Y-100692038D01*
X70567330Y-100692038D01*
X70563244Y-100691500D01*
X70336756Y-100691500D01*
X70332670Y-100692038D01*
X70332669Y-100692038D01*
X70222676Y-100706519D01*
X70222473Y-100704974D01*
X70177527Y-100704974D01*
X70177324Y-100706519D01*
X70067331Y-100692038D01*
X70067330Y-100692038D01*
X70063244Y-100691500D01*
X69836756Y-100691500D01*
X69832670Y-100692038D01*
X69832669Y-100692038D01*
X69722676Y-100706519D01*
X69722473Y-100704974D01*
X69677527Y-100704974D01*
X69677324Y-100706519D01*
X69567331Y-100692038D01*
X69567330Y-100692038D01*
X69563244Y-100691500D01*
X69336756Y-100691500D01*
X69332670Y-100692038D01*
X69332669Y-100692038D01*
X69222676Y-100706519D01*
X69222473Y-100704974D01*
X69177527Y-100704974D01*
X69177324Y-100706519D01*
X69067331Y-100692038D01*
X69067330Y-100692038D01*
X69063244Y-100691500D01*
X68836756Y-100691500D01*
X68832670Y-100692038D01*
X68832669Y-100692038D01*
X68722676Y-100706519D01*
X68722473Y-100704974D01*
X68677527Y-100704974D01*
X68677324Y-100706519D01*
X68567331Y-100692038D01*
X68567330Y-100692038D01*
X68563244Y-100691500D01*
X68336756Y-100691500D01*
X68332670Y-100692038D01*
X68332669Y-100692038D01*
X68222676Y-100706519D01*
X68222473Y-100704974D01*
X68177527Y-100704974D01*
X68177324Y-100706519D01*
X68067331Y-100692038D01*
X68067330Y-100692038D01*
X68063244Y-100691500D01*
X67836756Y-100691500D01*
X67832670Y-100692038D01*
X67832669Y-100692038D01*
X67722676Y-100706519D01*
X67722473Y-100704974D01*
X67677527Y-100704974D01*
X67677324Y-100706519D01*
X67567331Y-100692038D01*
X67567330Y-100692038D01*
X67563244Y-100691500D01*
X67336756Y-100691500D01*
X67332670Y-100692038D01*
X67332669Y-100692038D01*
X67222676Y-100706519D01*
X67222473Y-100704974D01*
X67177527Y-100704974D01*
X67177324Y-100706519D01*
X67067331Y-100692038D01*
X67067330Y-100692038D01*
X67063244Y-100691500D01*
X66836756Y-100691500D01*
X66832670Y-100692038D01*
X66832669Y-100692038D01*
X66722676Y-100706519D01*
X66722473Y-100704974D01*
X66677527Y-100704974D01*
X66677324Y-100706519D01*
X66567331Y-100692038D01*
X66567330Y-100692038D01*
X66563244Y-100691500D01*
X66336756Y-100691500D01*
X66332670Y-100692038D01*
X66332669Y-100692038D01*
X66222676Y-100706519D01*
X66222473Y-100704974D01*
X66177527Y-100704974D01*
X66177324Y-100706519D01*
X66067331Y-100692038D01*
X66067330Y-100692038D01*
X66063244Y-100691500D01*
X65836756Y-100691500D01*
X65832670Y-100692038D01*
X65832669Y-100692038D01*
X65722676Y-100706519D01*
X65722473Y-100704974D01*
X65677527Y-100704974D01*
X65677324Y-100706519D01*
X65567331Y-100692038D01*
X65567330Y-100692038D01*
X65563244Y-100691500D01*
X65336756Y-100691500D01*
X65332670Y-100692038D01*
X65332669Y-100692038D01*
X65293847Y-100697149D01*
X65222676Y-100706519D01*
X65215049Y-100709678D01*
X65215046Y-100709679D01*
X65169604Y-100728502D01*
X65080732Y-100765314D01*
X64958843Y-100858843D01*
X64953817Y-100865393D01*
X64953816Y-100865394D01*
X64926485Y-100901013D01*
X64865314Y-100980733D01*
X64806519Y-101122676D01*
X64805441Y-101130865D01*
X64792673Y-101227850D01*
X64791500Y-101236756D01*
X64791500Y-102713244D01*
X64806519Y-102827324D01*
X64809678Y-102834951D01*
X64809679Y-102834954D01*
X64819591Y-102858883D01*
X64865314Y-102969268D01*
X64929074Y-103052361D01*
X64937848Y-103063796D01*
X64963449Y-103130016D01*
X64949184Y-103199565D01*
X64899583Y-103250361D01*
X64837886Y-103266500D01*
X62978763Y-103266500D01*
X62967579Y-103265973D01*
X62960091Y-103264299D01*
X62952168Y-103264548D01*
X62892033Y-103266438D01*
X62888075Y-103266500D01*
X62860144Y-103266500D01*
X62856229Y-103266995D01*
X62856225Y-103266995D01*
X62856167Y-103267003D01*
X62856138Y-103267006D01*
X62844296Y-103267939D01*
X62800110Y-103269327D01*
X62782744Y-103274372D01*
X62780658Y-103274978D01*
X62761306Y-103278986D01*
X62749068Y-103280532D01*
X62749066Y-103280533D01*
X62741203Y-103281526D01*
X62700086Y-103297806D01*
X62688885Y-103301641D01*
X62646406Y-103313982D01*
X62639587Y-103318015D01*
X62639582Y-103318017D01*
X62628971Y-103324293D01*
X62611221Y-103332990D01*
X62592383Y-103340448D01*
X62585967Y-103345109D01*
X62585966Y-103345110D01*
X62556625Y-103366428D01*
X62546701Y-103372947D01*
X62515460Y-103391422D01*
X62515455Y-103391426D01*
X62508637Y-103395458D01*
X62494313Y-103409782D01*
X62479281Y-103422621D01*
X62462893Y-103434528D01*
X62450170Y-103449908D01*
X62434712Y-103468593D01*
X62426722Y-103477373D01*
X62070247Y-103833848D01*
X62061961Y-103841388D01*
X62055482Y-103845500D01*
X62050057Y-103851277D01*
X62008857Y-103895151D01*
X62006102Y-103897993D01*
X61986365Y-103917730D01*
X61983885Y-103920927D01*
X61976182Y-103929947D01*
X61945914Y-103962179D01*
X61942095Y-103969125D01*
X61942093Y-103969128D01*
X61936152Y-103979934D01*
X61925301Y-103996453D01*
X61912886Y-104012459D01*
X61909741Y-104019728D01*
X61909738Y-104019732D01*
X61895326Y-104053037D01*
X61890109Y-104063687D01*
X61868805Y-104102440D01*
X61866834Y-104110115D01*
X61866834Y-104110116D01*
X61863767Y-104122062D01*
X61857363Y-104140766D01*
X61853407Y-104149909D01*
X61849319Y-104159355D01*
X61848080Y-104167178D01*
X61848077Y-104167188D01*
X61842401Y-104203024D01*
X61839995Y-104214644D01*
X61831973Y-104245892D01*
X61829000Y-104257470D01*
X61829000Y-104277724D01*
X61827449Y-104297434D01*
X61824280Y-104317443D01*
X61825026Y-104325335D01*
X61825535Y-104330716D01*
X61827361Y-104350031D01*
X61828441Y-104361461D01*
X61829000Y-104373319D01*
X61829000Y-105128353D01*
X61808998Y-105196474D01*
X61788320Y-105219306D01*
X61788945Y-105219929D01*
X61669136Y-105339947D01*
X61665296Y-105346177D01*
X61665295Y-105346178D01*
X61661554Y-105352247D01*
X61580151Y-105484308D01*
X61577846Y-105491256D01*
X61577846Y-105491257D01*
X61532155Y-105629011D01*
X61526762Y-105645269D01*
X61516500Y-105745428D01*
X61516500Y-106354572D01*
X61516837Y-106357818D01*
X61516837Y-106357822D01*
X61519822Y-106386590D01*
X61527022Y-106455982D01*
X61547167Y-106516362D01*
X61549751Y-106587311D01*
X61513568Y-106648395D01*
X61455930Y-106675389D01*
X61456744Y-106678561D01*
X61449065Y-106680533D01*
X61441203Y-106681526D01*
X61433834Y-106684443D01*
X61433832Y-106684444D01*
X61400097Y-106697800D01*
X61388869Y-106701645D01*
X61346407Y-106713982D01*
X61339585Y-106718016D01*
X61339579Y-106718019D01*
X61328968Y-106724294D01*
X61311218Y-106732990D01*
X61299756Y-106737528D01*
X61299751Y-106737531D01*
X61292383Y-106740448D01*
X61285968Y-106745109D01*
X61256625Y-106766427D01*
X61246707Y-106772943D01*
X61228019Y-106783995D01*
X61208637Y-106795458D01*
X61194313Y-106809782D01*
X61179281Y-106822621D01*
X61162893Y-106834528D01*
X61154265Y-106844958D01*
X61134712Y-106868593D01*
X61126722Y-106877373D01*
X60232747Y-107771348D01*
X60224461Y-107778888D01*
X60217982Y-107783000D01*
X60176619Y-107827048D01*
X60171357Y-107832651D01*
X60168602Y-107835493D01*
X60148865Y-107855230D01*
X60146385Y-107858427D01*
X60138682Y-107867447D01*
X60108414Y-107899679D01*
X60104595Y-107906625D01*
X60104593Y-107906628D01*
X60098652Y-107917434D01*
X60087801Y-107933953D01*
X60075386Y-107949959D01*
X60072241Y-107957228D01*
X60072238Y-107957232D01*
X60057826Y-107990537D01*
X60052609Y-108001187D01*
X60031305Y-108039940D01*
X60027154Y-108056109D01*
X60026267Y-108059562D01*
X60019863Y-108078266D01*
X60011819Y-108096855D01*
X60010580Y-108104678D01*
X60010577Y-108104688D01*
X60004901Y-108140524D01*
X60002495Y-108152144D01*
X59999149Y-108165178D01*
X59991500Y-108194970D01*
X59991500Y-108215224D01*
X59989949Y-108234934D01*
X59986780Y-108254943D01*
X59987526Y-108262835D01*
X59990941Y-108298961D01*
X59991500Y-108310819D01*
X59991500Y-110354290D01*
X59971498Y-110422411D01*
X59954595Y-110443385D01*
X59888741Y-110509239D01*
X59826429Y-110543265D01*
X59755614Y-110538200D01*
X59710551Y-110509239D01*
X59620443Y-110419131D01*
X59608574Y-110409824D01*
X59474988Y-110328921D01*
X59461243Y-110322715D01*
X59311356Y-110275744D01*
X59298306Y-110273131D01*
X59243414Y-110268087D01*
X59231876Y-110271475D01*
X59230671Y-110272865D01*
X59229000Y-110280548D01*
X59229000Y-112214884D01*
X59233475Y-112230123D01*
X59234865Y-112231328D01*
X59239294Y-112232291D01*
X59298315Y-112226868D01*
X59311351Y-112224257D01*
X59461243Y-112177285D01*
X59474988Y-112171079D01*
X59608574Y-112090176D01*
X59620443Y-112080869D01*
X59710551Y-111990761D01*
X59772863Y-111956735D01*
X59843678Y-111961800D01*
X59888741Y-111990761D01*
X59984619Y-112086639D01*
X60131301Y-112175472D01*
X60138548Y-112177743D01*
X60138550Y-112177744D01*
X60176434Y-112189616D01*
X60294938Y-112226753D01*
X60368365Y-112233500D01*
X60371263Y-112233500D01*
X60625665Y-112233499D01*
X60881634Y-112233499D01*
X60884492Y-112233236D01*
X60884501Y-112233236D01*
X60920004Y-112229974D01*
X60955062Y-112226753D01*
X60963030Y-112224256D01*
X61111450Y-112177744D01*
X61111452Y-112177743D01*
X61118699Y-112175472D01*
X61265381Y-112086639D01*
X61386639Y-111965381D01*
X61467224Y-111832318D01*
X61519621Y-111784411D01*
X61589601Y-111772438D01*
X61654945Y-111800199D01*
X61682776Y-111832318D01*
X61763361Y-111965381D01*
X61884619Y-112086639D01*
X62031301Y-112175472D01*
X62038548Y-112177743D01*
X62038550Y-112177744D01*
X62076434Y-112189616D01*
X62194938Y-112226753D01*
X62268365Y-112233500D01*
X62271263Y-112233500D01*
X62525665Y-112233499D01*
X62781634Y-112233499D01*
X62784492Y-112233236D01*
X62784501Y-112233236D01*
X62820004Y-112229974D01*
X62855062Y-112226753D01*
X62863030Y-112224256D01*
X63011450Y-112177744D01*
X63011452Y-112177743D01*
X63018699Y-112175472D01*
X63165381Y-112086639D01*
X63261259Y-111990761D01*
X63323571Y-111956735D01*
X63394386Y-111961800D01*
X63439449Y-111990761D01*
X63529557Y-112080869D01*
X63541426Y-112090176D01*
X63675012Y-112171079D01*
X63688757Y-112177285D01*
X63838644Y-112224256D01*
X63851694Y-112226869D01*
X63906586Y-112231913D01*
X63918124Y-112228525D01*
X63919329Y-112227135D01*
X63921000Y-112219452D01*
X63921000Y-112214884D01*
X64429000Y-112214884D01*
X64433475Y-112230123D01*
X64434865Y-112231328D01*
X64439294Y-112232291D01*
X64498315Y-112226868D01*
X64511351Y-112224257D01*
X64661243Y-112177285D01*
X64674988Y-112171079D01*
X64808574Y-112090176D01*
X64820443Y-112080869D01*
X64930869Y-111970443D01*
X64940176Y-111958574D01*
X65021079Y-111824988D01*
X65027285Y-111811243D01*
X65074256Y-111661356D01*
X65076869Y-111648306D01*
X65082734Y-111584479D01*
X65083000Y-111578691D01*
X65083000Y-111522115D01*
X65078525Y-111506876D01*
X65077135Y-111505671D01*
X65069452Y-111504000D01*
X64447115Y-111504000D01*
X64431876Y-111508475D01*
X64430671Y-111509865D01*
X64429000Y-111517548D01*
X64429000Y-112214884D01*
X63921000Y-112214884D01*
X63921000Y-110977885D01*
X64429000Y-110977885D01*
X64433475Y-110993124D01*
X64434865Y-110994329D01*
X64442548Y-110996000D01*
X65064884Y-110996000D01*
X65080123Y-110991525D01*
X65081328Y-110990135D01*
X65082999Y-110982452D01*
X65082999Y-110921295D01*
X65082736Y-110915546D01*
X65076868Y-110851685D01*
X65074257Y-110838649D01*
X65027285Y-110688757D01*
X65021079Y-110675012D01*
X64940176Y-110541426D01*
X64930869Y-110529557D01*
X64820443Y-110419131D01*
X64808574Y-110409824D01*
X64674988Y-110328921D01*
X64661243Y-110322715D01*
X64511356Y-110275744D01*
X64498306Y-110273131D01*
X64443414Y-110268087D01*
X64431876Y-110271475D01*
X64430671Y-110272865D01*
X64429000Y-110280548D01*
X64429000Y-110977885D01*
X63921000Y-110977885D01*
X63921000Y-110285116D01*
X63916525Y-110269877D01*
X63915135Y-110268672D01*
X63910706Y-110267709D01*
X63851685Y-110273132D01*
X63838649Y-110275743D01*
X63688757Y-110322715D01*
X63675012Y-110328921D01*
X63541426Y-110409824D01*
X63529557Y-110419131D01*
X63439449Y-110509239D01*
X63377137Y-110543265D01*
X63306322Y-110538200D01*
X63261259Y-110509239D01*
X63182905Y-110430885D01*
X63148879Y-110368573D01*
X63146000Y-110341790D01*
X63146000Y-109521647D01*
X63166002Y-109453526D01*
X63186679Y-109430695D01*
X63186054Y-109430072D01*
X63191224Y-109424893D01*
X63210887Y-109405195D01*
X63273168Y-109371116D01*
X63343988Y-109376118D01*
X63389078Y-109405040D01*
X63414947Y-109430864D01*
X63559308Y-109519849D01*
X63566256Y-109522154D01*
X63566257Y-109522154D01*
X63713738Y-109571072D01*
X63713740Y-109571072D01*
X63720269Y-109573238D01*
X63820428Y-109583500D01*
X64354572Y-109583500D01*
X64357818Y-109583163D01*
X64357822Y-109583163D01*
X64391603Y-109579658D01*
X64455982Y-109572978D01*
X64616849Y-109519308D01*
X64761055Y-109430071D01*
X64880864Y-109310053D01*
X64969849Y-109165692D01*
X64976184Y-109146593D01*
X65021072Y-109011262D01*
X65021072Y-109011260D01*
X65023238Y-109004731D01*
X65033500Y-108904572D01*
X65033500Y-108295428D01*
X65022978Y-108194018D01*
X64992320Y-108102126D01*
X64989736Y-108031176D01*
X65022749Y-107973155D01*
X65025499Y-107970405D01*
X65087811Y-107936379D01*
X65114594Y-107933500D01*
X66621233Y-107933500D01*
X66632416Y-107934027D01*
X66639909Y-107935702D01*
X66647835Y-107935453D01*
X66647836Y-107935453D01*
X66707986Y-107933562D01*
X66711945Y-107933500D01*
X66739856Y-107933500D01*
X66743791Y-107933003D01*
X66743856Y-107932995D01*
X66755693Y-107932062D01*
X66787951Y-107931048D01*
X66791970Y-107930922D01*
X66799889Y-107930673D01*
X66819343Y-107925021D01*
X66838700Y-107921013D01*
X66850930Y-107919468D01*
X66850931Y-107919468D01*
X66858797Y-107918474D01*
X66866168Y-107915555D01*
X66866170Y-107915555D01*
X66899912Y-107902196D01*
X66911142Y-107898351D01*
X66945983Y-107888229D01*
X66945984Y-107888229D01*
X66953593Y-107886018D01*
X66960412Y-107881985D01*
X66960417Y-107881983D01*
X66971028Y-107875707D01*
X66988776Y-107867012D01*
X67007617Y-107859552D01*
X67023109Y-107848297D01*
X67043387Y-107833564D01*
X67053307Y-107827048D01*
X67084535Y-107808580D01*
X67084538Y-107808578D01*
X67091362Y-107804542D01*
X67105683Y-107790221D01*
X67120717Y-107777380D01*
X67129019Y-107771348D01*
X67137107Y-107765472D01*
X67165298Y-107731395D01*
X67173288Y-107722616D01*
X68342253Y-106553652D01*
X68350539Y-106546112D01*
X68357018Y-106542000D01*
X68381094Y-106516362D01*
X68403643Y-106492349D01*
X68406398Y-106489507D01*
X68426135Y-106469770D01*
X68428615Y-106466573D01*
X68436320Y-106457551D01*
X68437124Y-106456695D01*
X68466586Y-106425321D01*
X68470405Y-106418375D01*
X68470407Y-106418372D01*
X68476348Y-106407566D01*
X68487199Y-106391047D01*
X68494758Y-106381301D01*
X68499614Y-106375041D01*
X68502759Y-106367772D01*
X68502762Y-106367768D01*
X68517174Y-106334463D01*
X68522391Y-106323813D01*
X68543695Y-106285060D01*
X68548733Y-106265437D01*
X68555137Y-106246734D01*
X68560033Y-106235420D01*
X68560033Y-106235419D01*
X68563181Y-106228145D01*
X68564420Y-106220322D01*
X68564423Y-106220312D01*
X68570099Y-106184476D01*
X68572505Y-106172856D01*
X68581528Y-106137711D01*
X68581528Y-106137710D01*
X68583500Y-106130030D01*
X68583500Y-106109776D01*
X68585051Y-106090065D01*
X68586980Y-106077886D01*
X68588220Y-106070057D01*
X68584059Y-106026038D01*
X68583500Y-106014181D01*
X68583500Y-103368834D01*
X68603502Y-103300713D01*
X68657158Y-103254220D01*
X68725946Y-103243912D01*
X68832669Y-103257962D01*
X68832670Y-103257962D01*
X68836756Y-103258500D01*
X69063244Y-103258500D01*
X69067330Y-103257962D01*
X69067331Y-103257962D01*
X69177324Y-103243481D01*
X69177527Y-103245026D01*
X69222473Y-103245026D01*
X69222676Y-103243481D01*
X69332669Y-103257962D01*
X69332670Y-103257962D01*
X69336756Y-103258500D01*
X69563244Y-103258500D01*
X69567330Y-103257962D01*
X69567331Y-103257962D01*
X69677324Y-103243481D01*
X69677527Y-103245026D01*
X69722473Y-103245026D01*
X69722676Y-103243481D01*
X69832669Y-103257962D01*
X69832670Y-103257962D01*
X69836756Y-103258500D01*
X70063244Y-103258500D01*
X70067330Y-103257962D01*
X70067331Y-103257962D01*
X70177324Y-103243481D01*
X70177527Y-103245026D01*
X70222473Y-103245026D01*
X70222676Y-103243481D01*
X70332669Y-103257962D01*
X70332670Y-103257962D01*
X70336756Y-103258500D01*
X70563244Y-103258500D01*
X70567330Y-103257962D01*
X70567331Y-103257962D01*
X70677324Y-103243481D01*
X70677527Y-103245026D01*
X70722473Y-103245026D01*
X70722676Y-103243481D01*
X70832669Y-103257962D01*
X70832670Y-103257962D01*
X70836756Y-103258500D01*
X71063244Y-103258500D01*
X71067330Y-103257962D01*
X71067331Y-103257962D01*
X71174054Y-103243912D01*
X71244203Y-103254852D01*
X71297301Y-103301980D01*
X71316500Y-103368834D01*
X71316500Y-105035406D01*
X71296498Y-105103527D01*
X71279595Y-105124501D01*
X69207747Y-107196348D01*
X69199461Y-107203888D01*
X69192982Y-107208000D01*
X69187557Y-107213777D01*
X69146357Y-107257651D01*
X69143602Y-107260493D01*
X69123865Y-107280230D01*
X69121385Y-107283427D01*
X69113682Y-107292447D01*
X69083414Y-107324679D01*
X69079595Y-107331625D01*
X69079593Y-107331628D01*
X69073652Y-107342434D01*
X69062801Y-107358953D01*
X69050386Y-107374959D01*
X69047241Y-107382228D01*
X69047238Y-107382232D01*
X69032826Y-107415537D01*
X69027609Y-107426187D01*
X69006305Y-107464940D01*
X69004334Y-107472615D01*
X69004334Y-107472616D01*
X69001267Y-107484562D01*
X68994863Y-107503266D01*
X68986819Y-107521855D01*
X68985580Y-107529678D01*
X68985577Y-107529688D01*
X68979901Y-107565524D01*
X68977495Y-107577144D01*
X68973733Y-107591797D01*
X68966500Y-107619970D01*
X68966500Y-107640224D01*
X68964949Y-107659934D01*
X68961780Y-107679943D01*
X68962526Y-107687835D01*
X68965941Y-107723961D01*
X68966500Y-107735819D01*
X68966500Y-110090500D01*
X68946498Y-110158621D01*
X68892842Y-110205114D01*
X68840500Y-110216500D01*
X68701866Y-110216500D01*
X68639684Y-110223255D01*
X68503295Y-110274385D01*
X68386739Y-110361739D01*
X68299385Y-110478295D01*
X68248255Y-110614684D01*
X68241500Y-110676866D01*
X68241500Y-112473134D01*
X68248255Y-112535316D01*
X68299385Y-112671705D01*
X68386739Y-112788261D01*
X68503295Y-112875615D01*
X68639684Y-112926745D01*
X68701866Y-112933500D01*
X70498134Y-112933500D01*
X70560316Y-112926745D01*
X70696705Y-112875615D01*
X70813261Y-112788261D01*
X70900615Y-112671705D01*
X70937861Y-112572352D01*
X70944798Y-112553848D01*
X70987440Y-112497084D01*
X71054001Y-112472384D01*
X71123350Y-112487592D01*
X71158017Y-112515580D01*
X71183218Y-112544673D01*
X71190580Y-112551883D01*
X71354434Y-112687916D01*
X71362881Y-112693831D01*
X71546756Y-112801279D01*
X71556042Y-112805729D01*
X71755001Y-112881703D01*
X71764899Y-112884579D01*
X71868250Y-112905606D01*
X71882299Y-112904410D01*
X71886000Y-112894065D01*
X71886000Y-110258102D01*
X71882082Y-110244758D01*
X71867806Y-110242771D01*
X71829324Y-110248660D01*
X71819288Y-110251051D01*
X71616868Y-110317212D01*
X71607359Y-110321209D01*
X71418463Y-110419542D01*
X71409738Y-110425036D01*
X71239433Y-110552905D01*
X71231726Y-110559748D01*
X71154478Y-110640584D01*
X71092954Y-110676014D01*
X71022042Y-110672557D01*
X70964255Y-110631311D01*
X70945402Y-110597763D01*
X70903767Y-110486703D01*
X70900615Y-110478295D01*
X70813261Y-110361739D01*
X70696705Y-110274385D01*
X70560316Y-110223255D01*
X70498134Y-110216500D01*
X70359500Y-110216500D01*
X70291379Y-110196498D01*
X70244886Y-110142842D01*
X70233500Y-110090500D01*
X70233500Y-108014594D01*
X70253502Y-107946473D01*
X70270405Y-107925499D01*
X72342253Y-105853652D01*
X72350539Y-105846112D01*
X72357018Y-105842000D01*
X72403644Y-105792348D01*
X72406398Y-105789507D01*
X72426135Y-105769770D01*
X72428615Y-105766573D01*
X72436320Y-105757551D01*
X72438311Y-105755431D01*
X72466586Y-105725321D01*
X72470405Y-105718375D01*
X72470407Y-105718372D01*
X72476348Y-105707566D01*
X72487199Y-105691047D01*
X72489019Y-105688700D01*
X72499614Y-105675041D01*
X72502759Y-105667772D01*
X72502762Y-105667768D01*
X72517174Y-105634463D01*
X72522397Y-105623802D01*
X72535086Y-105600721D01*
X72585431Y-105550662D01*
X72654848Y-105535769D01*
X72721297Y-105560770D01*
X72763681Y-105617727D01*
X72771500Y-105661422D01*
X72771500Y-105982930D01*
X72770067Y-106001880D01*
X72768196Y-106014181D01*
X72766801Y-106023349D01*
X72767394Y-106030641D01*
X72767394Y-106030644D01*
X72771085Y-106076018D01*
X72771500Y-106086233D01*
X72771500Y-106094293D01*
X72771925Y-106097937D01*
X72774789Y-106122507D01*
X72775222Y-106126882D01*
X72779907Y-106184476D01*
X72781140Y-106199637D01*
X72783396Y-106206601D01*
X72784587Y-106212560D01*
X72785971Y-106218415D01*
X72786818Y-106225681D01*
X72811735Y-106294327D01*
X72813152Y-106298455D01*
X72832105Y-106356958D01*
X72835649Y-106367899D01*
X72839445Y-106374154D01*
X72841951Y-106379628D01*
X72844670Y-106385058D01*
X72847167Y-106391937D01*
X72851180Y-106398057D01*
X72851180Y-106398058D01*
X72887186Y-106452976D01*
X72889523Y-106456680D01*
X72927405Y-106519107D01*
X72931121Y-106523315D01*
X72931122Y-106523316D01*
X72934803Y-106527484D01*
X72934776Y-106527508D01*
X72937429Y-106530500D01*
X72940132Y-106533733D01*
X72944144Y-106539852D01*
X72994242Y-106587311D01*
X73000383Y-106593128D01*
X73002825Y-106595506D01*
X73996230Y-107588911D01*
X74008616Y-107603323D01*
X74017149Y-107614918D01*
X74017154Y-107614923D01*
X74021492Y-107620818D01*
X74027070Y-107625557D01*
X74027073Y-107625560D01*
X74061768Y-107655035D01*
X74069284Y-107661965D01*
X74074979Y-107667660D01*
X74077861Y-107669940D01*
X74097251Y-107685281D01*
X74100655Y-107688072D01*
X74150703Y-107730591D01*
X74156285Y-107735333D01*
X74162801Y-107738661D01*
X74167850Y-107742028D01*
X74172979Y-107745195D01*
X74178716Y-107749734D01*
X74244875Y-107780655D01*
X74248769Y-107782558D01*
X74313808Y-107815769D01*
X74320916Y-107817508D01*
X74326559Y-107819607D01*
X74332322Y-107821524D01*
X74338950Y-107824622D01*
X74346112Y-107826112D01*
X74346113Y-107826112D01*
X74350613Y-107827048D01*
X74393792Y-107836029D01*
X74410412Y-107839486D01*
X74414696Y-107840456D01*
X74485610Y-107857808D01*
X74491212Y-107858156D01*
X74491215Y-107858156D01*
X74496764Y-107858500D01*
X74496762Y-107858536D01*
X74500755Y-107858775D01*
X74504947Y-107859149D01*
X74512115Y-107860640D01*
X74589520Y-107858546D01*
X74592928Y-107858500D01*
X77615500Y-107858500D01*
X77683621Y-107878502D01*
X77730114Y-107932158D01*
X77741500Y-107984500D01*
X77741500Y-108383629D01*
X77721498Y-108451750D01*
X77704595Y-108472724D01*
X76731089Y-109446230D01*
X76716677Y-109458616D01*
X76705082Y-109467149D01*
X76705077Y-109467154D01*
X76699182Y-109471492D01*
X76694443Y-109477070D01*
X76694440Y-109477073D01*
X76664965Y-109511768D01*
X76658035Y-109519284D01*
X76652340Y-109524979D01*
X76650060Y-109527861D01*
X76634719Y-109547251D01*
X76631928Y-109550655D01*
X76604303Y-109583172D01*
X76584667Y-109606285D01*
X76581339Y-109612801D01*
X76577972Y-109617850D01*
X76574805Y-109622979D01*
X76570266Y-109628716D01*
X76539345Y-109694875D01*
X76537442Y-109698769D01*
X76504231Y-109763808D01*
X76502492Y-109770916D01*
X76500393Y-109776559D01*
X76498476Y-109782322D01*
X76495378Y-109788950D01*
X76493888Y-109796112D01*
X76493888Y-109796113D01*
X76480514Y-109860412D01*
X76479544Y-109864696D01*
X76462192Y-109935610D01*
X76461500Y-109946764D01*
X76461464Y-109946762D01*
X76461225Y-109950755D01*
X76460851Y-109954947D01*
X76459360Y-109962115D01*
X76459558Y-109969432D01*
X76461454Y-110039521D01*
X76461500Y-110042928D01*
X76461500Y-110382655D01*
X76441498Y-110450776D01*
X76411153Y-110483415D01*
X76319100Y-110552530D01*
X76314965Y-110555635D01*
X76311393Y-110559373D01*
X76177197Y-110699801D01*
X76160629Y-110717138D01*
X76053201Y-110874621D01*
X75998293Y-110919621D01*
X75927768Y-110927792D01*
X75864021Y-110896538D01*
X75843324Y-110872054D01*
X75762822Y-110747617D01*
X75762818Y-110747612D01*
X75760014Y-110743277D01*
X75609670Y-110578051D01*
X75605619Y-110574852D01*
X75605615Y-110574848D01*
X75438414Y-110442800D01*
X75438410Y-110442798D01*
X75434359Y-110439598D01*
X75425869Y-110434911D01*
X75355798Y-110396230D01*
X75238789Y-110331638D01*
X75233920Y-110329914D01*
X75233916Y-110329912D01*
X75033087Y-110258795D01*
X75033083Y-110258794D01*
X75028212Y-110257069D01*
X75023119Y-110256162D01*
X75023116Y-110256161D01*
X74813373Y-110218800D01*
X74813367Y-110218799D01*
X74808284Y-110217894D01*
X74734452Y-110216992D01*
X74590081Y-110215228D01*
X74590079Y-110215228D01*
X74584911Y-110215165D01*
X74364091Y-110248955D01*
X74151756Y-110318357D01*
X74106742Y-110341790D01*
X73961979Y-110417149D01*
X73953607Y-110421507D01*
X73949474Y-110424610D01*
X73949471Y-110424612D01*
X73779100Y-110552530D01*
X73774965Y-110555635D01*
X73771393Y-110559373D01*
X73637197Y-110699801D01*
X73620629Y-110717138D01*
X73617720Y-110721403D01*
X73617714Y-110721411D01*
X73592113Y-110758941D01*
X73513204Y-110874618D01*
X73512898Y-110875066D01*
X73457987Y-110920069D01*
X73387462Y-110928240D01*
X73323715Y-110896986D01*
X73303018Y-110872502D01*
X73222426Y-110747926D01*
X73216136Y-110739757D01*
X73072806Y-110582240D01*
X73065273Y-110575215D01*
X72898139Y-110443222D01*
X72889552Y-110437517D01*
X72703117Y-110334599D01*
X72693705Y-110330369D01*
X72492959Y-110259280D01*
X72482988Y-110256646D01*
X72411837Y-110243972D01*
X72398540Y-110245432D01*
X72394000Y-110259989D01*
X72394000Y-112893517D01*
X72398064Y-112907359D01*
X72411478Y-112909393D01*
X72418184Y-112908534D01*
X72428262Y-112906392D01*
X72632255Y-112845191D01*
X72641842Y-112841433D01*
X72833095Y-112747739D01*
X72841945Y-112742464D01*
X73015328Y-112618792D01*
X73023200Y-112612139D01*
X73174052Y-112461812D01*
X73180730Y-112453965D01*
X73308022Y-112276819D01*
X73309279Y-112277722D01*
X73356373Y-112234362D01*
X73426311Y-112222145D01*
X73491751Y-112249678D01*
X73519579Y-112281511D01*
X73579987Y-112380088D01*
X73726250Y-112548938D01*
X73898126Y-112691632D01*
X74091000Y-112804338D01*
X74095825Y-112806180D01*
X74095826Y-112806181D01*
X74125989Y-112817699D01*
X74299692Y-112884030D01*
X74304760Y-112885061D01*
X74304763Y-112885062D01*
X74399862Y-112904410D01*
X74518597Y-112928567D01*
X74523772Y-112928757D01*
X74523774Y-112928757D01*
X74736673Y-112936564D01*
X74736677Y-112936564D01*
X74741837Y-112936753D01*
X74746957Y-112936097D01*
X74746959Y-112936097D01*
X74958288Y-112909025D01*
X74958289Y-112909025D01*
X74963416Y-112908368D01*
X74968366Y-112906883D01*
X75172429Y-112845661D01*
X75172434Y-112845659D01*
X75177384Y-112844174D01*
X75377994Y-112745896D01*
X75559860Y-112616173D01*
X75573745Y-112602337D01*
X75679366Y-112497084D01*
X75718096Y-112458489D01*
X75741274Y-112426234D01*
X75848453Y-112277077D01*
X75849776Y-112278028D01*
X75896645Y-112234857D01*
X75966580Y-112222625D01*
X76032026Y-112250144D01*
X76059875Y-112281994D01*
X76119987Y-112380088D01*
X76266250Y-112548938D01*
X76438126Y-112691632D01*
X76631000Y-112804338D01*
X76635825Y-112806180D01*
X76635826Y-112806181D01*
X76665989Y-112817699D01*
X76839692Y-112884030D01*
X76844760Y-112885061D01*
X76844763Y-112885062D01*
X76939862Y-112904410D01*
X77058597Y-112928567D01*
X77063772Y-112928757D01*
X77063774Y-112928757D01*
X77276673Y-112936564D01*
X77276677Y-112936564D01*
X77281837Y-112936753D01*
X77286957Y-112936097D01*
X77286959Y-112936097D01*
X77498288Y-112909025D01*
X77498289Y-112909025D01*
X77503416Y-112908368D01*
X77508366Y-112906883D01*
X77712429Y-112845661D01*
X77712434Y-112845659D01*
X77717384Y-112844174D01*
X77917994Y-112745896D01*
X78099860Y-112616173D01*
X78113745Y-112602337D01*
X78219366Y-112497084D01*
X78258096Y-112458489D01*
X78281274Y-112426234D01*
X78310203Y-112385974D01*
X78366198Y-112342326D01*
X78412526Y-112333500D01*
X81678629Y-112333500D01*
X81746750Y-112353502D01*
X81767724Y-112370405D01*
X81993969Y-112596650D01*
X81999315Y-112602337D01*
X82040000Y-112648404D01*
X82092677Y-112685632D01*
X82098132Y-112689713D01*
X82148716Y-112729734D01*
X82157321Y-112733756D01*
X82176682Y-112745001D01*
X82184440Y-112750484D01*
X82244311Y-112774613D01*
X82250499Y-112777304D01*
X82308950Y-112804622D01*
X82316117Y-112806113D01*
X82318250Y-112806557D01*
X82339675Y-112813046D01*
X82341699Y-112813862D01*
X82341701Y-112813863D01*
X82348489Y-112816598D01*
X82355725Y-112817699D01*
X82355726Y-112817699D01*
X82378302Y-112821133D01*
X82412259Y-112826299D01*
X82418965Y-112827506D01*
X82474945Y-112839151D01*
X82474957Y-112839152D01*
X82482115Y-112840641D01*
X82491605Y-112840384D01*
X82513967Y-112841772D01*
X82514777Y-112841895D01*
X82523349Y-112843199D01*
X82530641Y-112842606D01*
X82530644Y-112842606D01*
X82587624Y-112837971D01*
X82594430Y-112837602D01*
X82597476Y-112837520D01*
X82612091Y-112837124D01*
X82680728Y-112855276D01*
X82728656Y-112907654D01*
X82741500Y-112963078D01*
X82741500Y-112973134D01*
X82748255Y-113035316D01*
X82774004Y-113103999D01*
X82781153Y-113123070D01*
X82786336Y-113193877D01*
X82752415Y-113256246D01*
X82690160Y-113290375D01*
X82663178Y-113293300D01*
X45246753Y-113295317D01*
X45227069Y-113293771D01*
X45213035Y-113291552D01*
X45213030Y-113291552D01*
X45204164Y-113290150D01*
X45195259Y-113291293D01*
X45195255Y-113291293D01*
X45193118Y-113291567D01*
X45164471Y-113291959D01*
X45036084Y-113279046D01*
X45011939Y-113274199D01*
X44868231Y-113230374D01*
X44845493Y-113220925D01*
X44713047Y-113149980D01*
X44692587Y-113136291D01*
X44576473Y-113040941D01*
X44559059Y-113023527D01*
X44463709Y-112907413D01*
X44450020Y-112886953D01*
X44379075Y-112754507D01*
X44369626Y-112731769D01*
X44325801Y-112588061D01*
X44320954Y-112563916D01*
X44308720Y-112442281D01*
X44309135Y-112426234D01*
X44308431Y-112426227D01*
X44308519Y-112417247D01*
X44309879Y-112408376D01*
X44307698Y-112391995D01*
X44305788Y-112377657D01*
X44304685Y-112361009D01*
X44304693Y-112294669D01*
X50442001Y-112294669D01*
X50442371Y-112301490D01*
X50447895Y-112352352D01*
X50451521Y-112367604D01*
X50496676Y-112488054D01*
X50505214Y-112503649D01*
X50581715Y-112605724D01*
X50594276Y-112618285D01*
X50696351Y-112694786D01*
X50711946Y-112703324D01*
X50832394Y-112748478D01*
X50847649Y-112752105D01*
X50898514Y-112757631D01*
X50905328Y-112758000D01*
X51527885Y-112758000D01*
X51543124Y-112753525D01*
X51544329Y-112752135D01*
X51546000Y-112744452D01*
X51546000Y-112739884D01*
X52054000Y-112739884D01*
X52058475Y-112755123D01*
X52059865Y-112756328D01*
X52067548Y-112757999D01*
X52694669Y-112757999D01*
X52701490Y-112757629D01*
X52752352Y-112752105D01*
X52767604Y-112748479D01*
X52888054Y-112703324D01*
X52903649Y-112694786D01*
X53005724Y-112618285D01*
X53018285Y-112605724D01*
X53094786Y-112503649D01*
X53103324Y-112488054D01*
X53148478Y-112367606D01*
X53152105Y-112352351D01*
X53157631Y-112301486D01*
X53158000Y-112294672D01*
X53158000Y-111672115D01*
X53153525Y-111656876D01*
X53152135Y-111655671D01*
X53144452Y-111654000D01*
X52072115Y-111654000D01*
X52056876Y-111658475D01*
X52055671Y-111659865D01*
X52054000Y-111667548D01*
X52054000Y-112739884D01*
X51546000Y-112739884D01*
X51546000Y-111672115D01*
X51541525Y-111656876D01*
X51540135Y-111655671D01*
X51532452Y-111654000D01*
X50460116Y-111654000D01*
X50444877Y-111658475D01*
X50443672Y-111659865D01*
X50442001Y-111667548D01*
X50442001Y-112294669D01*
X44304693Y-112294669D01*
X44304772Y-111655062D01*
X44304781Y-111578705D01*
X58067001Y-111578705D01*
X58067264Y-111584454D01*
X58073132Y-111648315D01*
X58075743Y-111661351D01*
X58122715Y-111811243D01*
X58128921Y-111824988D01*
X58209824Y-111958574D01*
X58219131Y-111970443D01*
X58329557Y-112080869D01*
X58341426Y-112090176D01*
X58475012Y-112171079D01*
X58488757Y-112177285D01*
X58638644Y-112224256D01*
X58651694Y-112226869D01*
X58706586Y-112231913D01*
X58718124Y-112228525D01*
X58719329Y-112227135D01*
X58721000Y-112219452D01*
X58721000Y-111522115D01*
X58716525Y-111506876D01*
X58715135Y-111505671D01*
X58707452Y-111504000D01*
X58085116Y-111504000D01*
X58069877Y-111508475D01*
X58068672Y-111509865D01*
X58067001Y-111517548D01*
X58067001Y-111578705D01*
X44304781Y-111578705D01*
X44305065Y-109257578D01*
X44306411Y-98271585D01*
X44786698Y-98271585D01*
X44791234Y-98362705D01*
X44802695Y-98592910D01*
X44802936Y-98597759D01*
X44803577Y-98601490D01*
X44803578Y-98601498D01*
X44856881Y-98911703D01*
X44858241Y-98919619D01*
X44859329Y-98923258D01*
X44859330Y-98923261D01*
X44931101Y-99163244D01*
X44951814Y-99232504D01*
X44953327Y-99235975D01*
X44953329Y-99235981D01*
X45035919Y-99425472D01*
X45082297Y-99531881D01*
X45084220Y-99535152D01*
X45084222Y-99535156D01*
X45126584Y-99607215D01*
X45247802Y-99813414D01*
X45250103Y-99816429D01*
X45443631Y-100070012D01*
X45443636Y-100070017D01*
X45445931Y-100073025D01*
X45507931Y-100136670D01*
X45656905Y-100289595D01*
X45673814Y-100306953D01*
X45790206Y-100400702D01*
X45925196Y-100509431D01*
X45925201Y-100509435D01*
X45928149Y-100511809D01*
X46205253Y-100684627D01*
X46501112Y-100822903D01*
X46553266Y-100840000D01*
X46801642Y-100921422D01*
X46811440Y-100924634D01*
X47131742Y-100988346D01*
X47135514Y-100988633D01*
X47135522Y-100988634D01*
X47453602Y-101012829D01*
X47453607Y-101012829D01*
X47457379Y-101013116D01*
X47783633Y-100998586D01*
X47800558Y-100995769D01*
X48102037Y-100945590D01*
X48102042Y-100945589D01*
X48105778Y-100944967D01*
X48419149Y-100853034D01*
X48422616Y-100851544D01*
X48422620Y-100851543D01*
X48715721Y-100725616D01*
X48715723Y-100725615D01*
X48719205Y-100724119D01*
X49001601Y-100560091D01*
X49247710Y-100374297D01*
X49259221Y-100365607D01*
X49259222Y-100365606D01*
X49262245Y-100363324D01*
X49420728Y-100210546D01*
X49494632Y-100139303D01*
X49494635Y-100139300D01*
X49497363Y-100136670D01*
X49581864Y-100032877D01*
X49701155Y-99886351D01*
X49701158Y-99886347D01*
X49703549Y-99883410D01*
X49729014Y-99843051D01*
X49875788Y-99610428D01*
X49875790Y-99610425D01*
X49877815Y-99607215D01*
X49884806Y-99592460D01*
X50012620Y-99322676D01*
X50017638Y-99312084D01*
X50029167Y-99277527D01*
X50119790Y-99005897D01*
X50119792Y-99005891D01*
X50120992Y-99002293D01*
X50186381Y-98682329D01*
X50187424Y-98669516D01*
X50212407Y-98362348D01*
X50212856Y-98356826D01*
X50213451Y-98300000D01*
X50213164Y-98295229D01*
X50194026Y-97977793D01*
X50194026Y-97977789D01*
X50193798Y-97974015D01*
X50192648Y-97967715D01*
X50135805Y-97656473D01*
X50135804Y-97656469D01*
X50135125Y-97652751D01*
X50128187Y-97630405D01*
X50039404Y-97344477D01*
X50038282Y-97340863D01*
X49904670Y-97042869D01*
X49736226Y-96763084D01*
X49733899Y-96760100D01*
X49733894Y-96760093D01*
X49537726Y-96508558D01*
X49537724Y-96508556D01*
X49535390Y-96505563D01*
X49305070Y-96274034D01*
X49048603Y-96071852D01*
X48769705Y-95901945D01*
X48766261Y-95900379D01*
X48766257Y-95900377D01*
X48594915Y-95822473D01*
X48472414Y-95766775D01*
X48161037Y-95668300D01*
X47917879Y-95622574D01*
X47843809Y-95608645D01*
X47843807Y-95608645D01*
X47840086Y-95607945D01*
X47514208Y-95586586D01*
X47510428Y-95586794D01*
X47510427Y-95586794D01*
X47412897Y-95592162D01*
X47188124Y-95604532D01*
X47184397Y-95605193D01*
X47184393Y-95605193D01*
X47027340Y-95633027D01*
X46866557Y-95661522D01*
X46862941Y-95662624D01*
X46862933Y-95662626D01*
X46557789Y-95755627D01*
X46554167Y-95756731D01*
X46255477Y-95888781D01*
X46146144Y-95953827D01*
X45978074Y-96053817D01*
X45978068Y-96053821D01*
X45974814Y-96055757D01*
X45890689Y-96120659D01*
X45784351Y-96202699D01*
X45716244Y-96255243D01*
X45646096Y-96324298D01*
X45506136Y-96462077D01*
X45483513Y-96484347D01*
X45481149Y-96487314D01*
X45481146Y-96487317D01*
X45287670Y-96730114D01*
X45279991Y-96739751D01*
X45108626Y-97017757D01*
X44971902Y-97314336D01*
X44970741Y-97317940D01*
X44970741Y-97317941D01*
X44962196Y-97344477D01*
X44871797Y-97625192D01*
X44871079Y-97628903D01*
X44871078Y-97628907D01*
X44810482Y-97942105D01*
X44810481Y-97942114D01*
X44809763Y-97945824D01*
X44809496Y-97949600D01*
X44809495Y-97949605D01*
X44787386Y-98261866D01*
X44786698Y-98271585D01*
X44306411Y-98271585D01*
X44307590Y-88649654D01*
X46975618Y-88649654D01*
X46982673Y-88659627D01*
X47013679Y-88685551D01*
X47020598Y-88690579D01*
X47245272Y-88831515D01*
X47252807Y-88835556D01*
X47494520Y-88944694D01*
X47502551Y-88947680D01*
X47756832Y-89023002D01*
X47765184Y-89024869D01*
X48027340Y-89064984D01*
X48035874Y-89065700D01*
X48301045Y-89069867D01*
X48309596Y-89069418D01*
X48572883Y-89037557D01*
X48581284Y-89035955D01*
X48837824Y-88968653D01*
X48845926Y-88965926D01*
X49090949Y-88864434D01*
X49098617Y-88860628D01*
X49327598Y-88726822D01*
X49334679Y-88722009D01*
X49414655Y-88659301D01*
X49423125Y-88647442D01*
X49416608Y-88635818D01*
X48212812Y-87432022D01*
X48198868Y-87424408D01*
X48197035Y-87424539D01*
X48190420Y-87428790D01*
X46982910Y-88636300D01*
X46975618Y-88649654D01*
X44307590Y-88649654D01*
X44307787Y-87043204D01*
X46187665Y-87043204D01*
X46202932Y-87307969D01*
X46204005Y-87316470D01*
X46255065Y-87576722D01*
X46257276Y-87584974D01*
X46343184Y-87835894D01*
X46346499Y-87843779D01*
X46465664Y-88080713D01*
X46470020Y-88088079D01*
X46599347Y-88276250D01*
X46609601Y-88284594D01*
X46623342Y-88277448D01*
X47827978Y-87072812D01*
X47834356Y-87061132D01*
X48564408Y-87061132D01*
X48564539Y-87062965D01*
X48568790Y-87069580D01*
X49775730Y-88276520D01*
X49787939Y-88283187D01*
X49799439Y-88274497D01*
X49896831Y-88141913D01*
X49901418Y-88134685D01*
X50027962Y-87901621D01*
X50031530Y-87893827D01*
X50125271Y-87645750D01*
X50127748Y-87637544D01*
X50186954Y-87379038D01*
X50188294Y-87370577D01*
X50212031Y-87104616D01*
X50212277Y-87099677D01*
X50212666Y-87062485D01*
X50212523Y-87057519D01*
X50194362Y-86791123D01*
X50193201Y-86782649D01*
X50139419Y-86522944D01*
X50137120Y-86514709D01*
X50048588Y-86264705D01*
X50045191Y-86256854D01*
X49923550Y-86021178D01*
X49919122Y-86013866D01*
X49800031Y-85844417D01*
X49789509Y-85836037D01*
X49776121Y-85843089D01*
X48572022Y-87047188D01*
X48564408Y-87061132D01*
X47834356Y-87061132D01*
X47835592Y-87058868D01*
X47835461Y-87057035D01*
X47831210Y-87050420D01*
X46623814Y-85843024D01*
X46611804Y-85836466D01*
X46600064Y-85845434D01*
X46491935Y-85995911D01*
X46487418Y-86003196D01*
X46363325Y-86237567D01*
X46359839Y-86245395D01*
X46268700Y-86494446D01*
X46266311Y-86502670D01*
X46209812Y-86761795D01*
X46208563Y-86770250D01*
X46187754Y-87034653D01*
X46187665Y-87043204D01*
X44307787Y-87043204D01*
X44307979Y-85472500D01*
X46976584Y-85472500D01*
X46982980Y-85483770D01*
X48187188Y-86687978D01*
X48201132Y-86695592D01*
X48202965Y-86695461D01*
X48209580Y-86691210D01*
X49416604Y-85484186D01*
X49423795Y-85471017D01*
X49416473Y-85460780D01*
X49369233Y-85422115D01*
X49362261Y-85417160D01*
X49136122Y-85278582D01*
X49128552Y-85274624D01*
X48885704Y-85168022D01*
X48877644Y-85165120D01*
X48622592Y-85092467D01*
X48614214Y-85090685D01*
X48351656Y-85053318D01*
X48343111Y-85052691D01*
X48077908Y-85051302D01*
X48069374Y-85051839D01*
X47806433Y-85086456D01*
X47798035Y-85088149D01*
X47542238Y-85158127D01*
X47534143Y-85160946D01*
X47290199Y-85264997D01*
X47282577Y-85268881D01*
X47055013Y-85405075D01*
X47047981Y-85409962D01*
X46985053Y-85460377D01*
X46976584Y-85472500D01*
X44307979Y-85472500D01*
X44307994Y-85350107D01*
X44309540Y-85330446D01*
X44311768Y-85316355D01*
X44311768Y-85316351D01*
X44313170Y-85307484D01*
X44312027Y-85298579D01*
X44312027Y-85298574D01*
X44311753Y-85296438D01*
X44311361Y-85267791D01*
X44324274Y-85139404D01*
X44329121Y-85115259D01*
X44372946Y-84971551D01*
X44382396Y-84948811D01*
X44453340Y-84816367D01*
X44467029Y-84795907D01*
X44562379Y-84679793D01*
X44579793Y-84662379D01*
X44695907Y-84567029D01*
X44716367Y-84553340D01*
X44848813Y-84482395D01*
X44871551Y-84472946D01*
X45015259Y-84429121D01*
X45039404Y-84424274D01*
X45161039Y-84412040D01*
X45177086Y-84412455D01*
X45177093Y-84411751D01*
X45186073Y-84411839D01*
X45194944Y-84413199D01*
X45225726Y-84409100D01*
X45242346Y-84407998D01*
X64666195Y-84406927D01*
X64734317Y-84426925D01*
G37*
%TD.AperFunction*%
%TA.AperFunction,Conductor*%
G36*
X102722614Y-84424830D02*
G01*
X102769110Y-84478483D01*
X102779217Y-84548757D01*
X102772482Y-84575060D01*
X102748255Y-84639684D01*
X102741500Y-84701866D01*
X102741500Y-86498134D01*
X102748255Y-86560316D01*
X102799385Y-86696705D01*
X102886739Y-86813261D01*
X103003295Y-86900615D01*
X103011704Y-86903767D01*
X103011705Y-86903768D01*
X103120451Y-86944535D01*
X103177216Y-86987176D01*
X103201916Y-87053738D01*
X103186709Y-87123087D01*
X103167316Y-87149568D01*
X103084634Y-87236090D01*
X103040629Y-87282138D01*
X103037715Y-87286410D01*
X103037714Y-87286411D01*
X102981717Y-87368500D01*
X102914743Y-87466680D01*
X102820688Y-87669305D01*
X102760989Y-87884570D01*
X102737251Y-88106695D01*
X102737548Y-88111848D01*
X102737548Y-88111851D01*
X102743011Y-88206590D01*
X102750110Y-88329715D01*
X102751247Y-88334761D01*
X102751248Y-88334767D01*
X102772275Y-88428069D01*
X102799222Y-88547639D01*
X102860673Y-88698976D01*
X102880054Y-88746705D01*
X102883266Y-88754616D01*
X102885965Y-88759020D01*
X102994102Y-88935484D01*
X102999987Y-88945088D01*
X103146250Y-89113938D01*
X103318126Y-89256632D01*
X103328507Y-89262698D01*
X103391445Y-89299476D01*
X103440169Y-89351114D01*
X103453240Y-89420897D01*
X103426509Y-89486669D01*
X103386055Y-89520027D01*
X103373607Y-89526507D01*
X103369474Y-89529610D01*
X103369471Y-89529612D01*
X103199420Y-89657290D01*
X103194965Y-89660635D01*
X103161061Y-89696113D01*
X103099708Y-89760316D01*
X103040629Y-89822138D01*
X103037715Y-89826410D01*
X103037714Y-89826411D01*
X102998306Y-89884181D01*
X102914743Y-90006680D01*
X102873846Y-90094786D01*
X102827880Y-90193812D01*
X102820688Y-90209305D01*
X102760989Y-90424570D01*
X102737251Y-90646695D01*
X102737548Y-90651848D01*
X102737548Y-90651851D01*
X102743011Y-90746590D01*
X102750110Y-90869715D01*
X102751247Y-90874761D01*
X102751248Y-90874767D01*
X102771119Y-90962939D01*
X102799222Y-91087639D01*
X102883266Y-91294616D01*
X102888780Y-91303614D01*
X102991122Y-91470621D01*
X102999987Y-91485088D01*
X103146250Y-91653938D01*
X103318126Y-91796632D01*
X103382341Y-91834156D01*
X103391445Y-91839476D01*
X103440169Y-91891114D01*
X103453240Y-91960897D01*
X103426509Y-92026669D01*
X103386055Y-92060027D01*
X103373607Y-92066507D01*
X103369474Y-92069610D01*
X103369471Y-92069612D01*
X103221472Y-92180733D01*
X103194965Y-92200635D01*
X103191393Y-92204373D01*
X103071843Y-92329475D01*
X103040629Y-92362138D01*
X103037715Y-92366410D01*
X103037714Y-92366411D01*
X102989728Y-92436756D01*
X102914743Y-92546680D01*
X102820688Y-92749305D01*
X102760989Y-92964570D01*
X102737251Y-93186695D01*
X102737548Y-93191848D01*
X102737548Y-93191851D01*
X102748513Y-93382014D01*
X102750110Y-93409715D01*
X102751247Y-93414761D01*
X102751248Y-93414767D01*
X102762690Y-93465537D01*
X102799222Y-93627639D01*
X102883266Y-93834616D01*
X102919590Y-93893891D01*
X102982212Y-93996081D01*
X102999987Y-94025088D01*
X103146250Y-94193938D01*
X103318126Y-94336632D01*
X103364105Y-94363500D01*
X103391445Y-94379476D01*
X103440169Y-94431114D01*
X103453240Y-94500897D01*
X103426509Y-94566669D01*
X103386055Y-94600027D01*
X103373607Y-94606507D01*
X103369474Y-94609610D01*
X103369471Y-94609612D01*
X103199100Y-94737530D01*
X103194965Y-94740635D01*
X103144641Y-94793296D01*
X103054377Y-94887752D01*
X103040629Y-94902138D01*
X103037715Y-94906410D01*
X103037714Y-94906411D01*
X103006837Y-94951675D01*
X102914743Y-95086680D01*
X102899279Y-95119995D01*
X102823808Y-95282584D01*
X102820688Y-95289305D01*
X102760989Y-95504570D01*
X102737251Y-95726695D01*
X102737548Y-95731848D01*
X102737548Y-95731851D01*
X102747225Y-95899675D01*
X102750110Y-95949715D01*
X102751247Y-95954761D01*
X102751248Y-95954767D01*
X102768492Y-96031281D01*
X102799222Y-96167639D01*
X102844281Y-96278607D01*
X102880242Y-96367168D01*
X102883266Y-96374616D01*
X102921345Y-96436756D01*
X102990063Y-96548893D01*
X102999987Y-96565088D01*
X103146250Y-96733938D01*
X103318126Y-96876632D01*
X103371758Y-96907972D01*
X103391955Y-96919774D01*
X103440679Y-96971412D01*
X103453750Y-97041195D01*
X103427019Y-97106967D01*
X103386562Y-97140327D01*
X103378457Y-97144546D01*
X103369738Y-97150036D01*
X103199433Y-97277905D01*
X103191726Y-97284748D01*
X103044590Y-97438717D01*
X103038104Y-97446727D01*
X102918098Y-97622649D01*
X102913000Y-97631623D01*
X102823338Y-97824783D01*
X102819775Y-97834470D01*
X102764389Y-98034183D01*
X102765912Y-98042607D01*
X102778292Y-98046000D01*
X105418344Y-98046000D01*
X105431875Y-98042027D01*
X105433180Y-98032947D01*
X105391214Y-97865875D01*
X105387894Y-97856124D01*
X105302972Y-97660814D01*
X105298105Y-97651739D01*
X105182426Y-97472926D01*
X105176136Y-97464757D01*
X105032806Y-97307240D01*
X105025273Y-97300215D01*
X104858139Y-97168222D01*
X104849556Y-97162520D01*
X104812602Y-97142120D01*
X104762631Y-97091687D01*
X104747859Y-97022245D01*
X104772975Y-96955839D01*
X104800327Y-96929232D01*
X104867444Y-96881358D01*
X104979860Y-96801173D01*
X104984820Y-96796231D01*
X105067091Y-96714246D01*
X105138096Y-96643489D01*
X105185563Y-96577432D01*
X105265435Y-96466277D01*
X105268453Y-96462077D01*
X105280245Y-96438219D01*
X105365136Y-96266453D01*
X105365137Y-96266451D01*
X105367430Y-96261811D01*
X105421586Y-96083564D01*
X105430865Y-96053023D01*
X105430865Y-96053021D01*
X105432370Y-96048069D01*
X105461529Y-95826590D01*
X105462262Y-95796594D01*
X105463074Y-95763365D01*
X105463074Y-95763361D01*
X105463156Y-95760000D01*
X105444852Y-95537361D01*
X105390431Y-95320702D01*
X105301354Y-95115840D01*
X105232560Y-95009500D01*
X105182822Y-94932617D01*
X105182820Y-94932614D01*
X105180014Y-94928277D01*
X105029670Y-94763051D01*
X105025619Y-94759852D01*
X105025615Y-94759848D01*
X104858414Y-94627800D01*
X104858410Y-94627798D01*
X104854359Y-94624598D01*
X104813053Y-94601796D01*
X104763084Y-94551364D01*
X104748312Y-94481921D01*
X104773428Y-94415516D01*
X104800780Y-94388909D01*
X104844603Y-94357650D01*
X104979860Y-94261173D01*
X104983700Y-94257347D01*
X105061209Y-94180107D01*
X105138096Y-94103489D01*
X105160937Y-94071703D01*
X105265435Y-93926277D01*
X105268453Y-93922077D01*
X105271210Y-93916500D01*
X105365136Y-93726453D01*
X105365137Y-93726451D01*
X105367430Y-93721811D01*
X105421544Y-93543701D01*
X105430865Y-93513023D01*
X105430865Y-93513021D01*
X105432370Y-93508069D01*
X105461529Y-93286590D01*
X105462081Y-93263998D01*
X105463074Y-93223365D01*
X105463074Y-93223361D01*
X105463156Y-93220000D01*
X105444852Y-92997361D01*
X105390431Y-92780702D01*
X105301354Y-92575840D01*
X105224864Y-92457605D01*
X105182822Y-92392617D01*
X105182820Y-92392614D01*
X105180014Y-92388277D01*
X105029670Y-92223051D01*
X105025619Y-92219852D01*
X105025615Y-92219848D01*
X104858414Y-92087800D01*
X104858410Y-92087798D01*
X104854359Y-92084598D01*
X104813053Y-92061796D01*
X104763084Y-92011364D01*
X104748312Y-91941921D01*
X104773428Y-91875516D01*
X104800780Y-91848909D01*
X104849674Y-91814033D01*
X104979860Y-91721173D01*
X105138096Y-91563489D01*
X105149215Y-91548016D01*
X105265435Y-91386277D01*
X105268453Y-91382077D01*
X105305161Y-91307805D01*
X105365136Y-91186453D01*
X105365137Y-91186451D01*
X105367430Y-91181811D01*
X105432370Y-90968069D01*
X105461529Y-90746590D01*
X105463156Y-90680000D01*
X105444852Y-90457361D01*
X105390431Y-90240702D01*
X105301354Y-90035840D01*
X105217381Y-89906037D01*
X105182822Y-89852617D01*
X105182820Y-89852614D01*
X105180014Y-89848277D01*
X105029670Y-89683051D01*
X105025619Y-89679852D01*
X105025615Y-89679848D01*
X104858414Y-89547800D01*
X104858410Y-89547798D01*
X104854359Y-89544598D01*
X104813053Y-89521796D01*
X104763084Y-89471364D01*
X104748312Y-89401921D01*
X104773428Y-89335516D01*
X104800780Y-89308909D01*
X104865565Y-89262698D01*
X104979860Y-89181173D01*
X105003499Y-89157617D01*
X105101593Y-89059865D01*
X105138096Y-89023489D01*
X105156280Y-88998184D01*
X105265435Y-88846277D01*
X105268453Y-88842077D01*
X105275411Y-88828000D01*
X105365136Y-88646453D01*
X105365137Y-88646451D01*
X105367430Y-88641811D01*
X105402043Y-88527885D01*
X105430865Y-88433023D01*
X105430865Y-88433021D01*
X105432370Y-88428069D01*
X105461529Y-88206590D01*
X105462093Y-88183500D01*
X105463074Y-88143365D01*
X105463074Y-88143361D01*
X105463156Y-88140000D01*
X105444852Y-87917361D01*
X105390431Y-87700702D01*
X105301354Y-87495840D01*
X105255143Y-87424408D01*
X105182822Y-87312617D01*
X105182820Y-87312614D01*
X105180014Y-87308277D01*
X105165682Y-87292526D01*
X105032798Y-87146488D01*
X105001746Y-87082642D01*
X105010141Y-87012143D01*
X105055317Y-86957375D01*
X105081761Y-86943706D01*
X105188297Y-86903767D01*
X105196705Y-86900615D01*
X105313261Y-86813261D01*
X105400615Y-86696705D01*
X105451745Y-86560316D01*
X105458500Y-86498134D01*
X105458500Y-84701866D01*
X105451745Y-84639684D01*
X105448973Y-84632288D01*
X105448971Y-84632282D01*
X105433326Y-84590550D01*
X105428143Y-84519743D01*
X105462064Y-84457374D01*
X105524320Y-84423245D01*
X105588061Y-84425801D01*
X105659916Y-84447714D01*
X105731769Y-84469626D01*
X105754507Y-84479075D01*
X105886953Y-84550020D01*
X105907413Y-84563709D01*
X106023527Y-84659059D01*
X106040941Y-84676473D01*
X106136291Y-84792587D01*
X106149980Y-84813047D01*
X106220924Y-84945491D01*
X106230374Y-84968231D01*
X106274199Y-85111939D01*
X106279046Y-85136084D01*
X106291280Y-85257719D01*
X106290865Y-85273766D01*
X106291569Y-85273773D01*
X106291481Y-85282753D01*
X106290121Y-85291624D01*
X106291306Y-85300522D01*
X106291306Y-85300523D01*
X106294202Y-85322267D01*
X106295305Y-85338946D01*
X106292028Y-94544384D01*
X106292019Y-94568910D01*
X106290273Y-94589765D01*
X106286929Y-94609645D01*
X106286776Y-94622184D01*
X106287466Y-94627000D01*
X106287466Y-94627007D01*
X106288356Y-94633222D01*
X106289279Y-94641713D01*
X106294908Y-94717236D01*
X106304325Y-94843570D01*
X106353465Y-95060065D01*
X106434156Y-95266882D01*
X106436487Y-95270945D01*
X106436488Y-95270948D01*
X106479187Y-95345387D01*
X106544615Y-95459452D01*
X106672794Y-95621380D01*
X106699391Y-95687206D01*
X106700000Y-95699583D01*
X106700000Y-100903648D01*
X106679998Y-100971769D01*
X106665985Y-100989757D01*
X106618537Y-101040443D01*
X106614765Y-101044472D01*
X106595739Y-101072067D01*
X106493090Y-101220949D01*
X106488751Y-101227242D01*
X106449829Y-101306834D01*
X106398229Y-101412352D01*
X106391225Y-101426674D01*
X106389815Y-101431138D01*
X106389813Y-101431142D01*
X106348523Y-101561826D01*
X106324342Y-101638361D01*
X106319335Y-101669942D01*
X106295524Y-101820131D01*
X106293176Y-101831514D01*
X106289726Y-101845053D01*
X106288536Y-101857536D01*
X106288825Y-101862394D01*
X106291778Y-101912042D01*
X106292000Y-101919523D01*
X106292000Y-104836000D01*
X106271998Y-104904121D01*
X106218342Y-104950614D01*
X106166000Y-104962000D01*
X104972115Y-104962000D01*
X104956876Y-104966475D01*
X104955671Y-104967865D01*
X104954000Y-104975548D01*
X104954000Y-107309884D01*
X104958475Y-107325123D01*
X104959865Y-107326328D01*
X104967548Y-107327999D01*
X106166000Y-107327999D01*
X106234121Y-107348001D01*
X106280614Y-107401657D01*
X106292000Y-107453999D01*
X106292000Y-107700500D01*
X106271998Y-107768621D01*
X106218342Y-107815114D01*
X106166000Y-107826500D01*
X103051866Y-107826500D01*
X102989684Y-107833255D01*
X102978281Y-107837530D01*
X102935729Y-107853482D01*
X102891499Y-107861500D01*
X101976114Y-107861500D01*
X101907993Y-107841498D01*
X101861500Y-107787842D01*
X101851784Y-107720265D01*
X101851252Y-107720207D01*
X101851477Y-107718133D01*
X101851396Y-107717568D01*
X101851728Y-107715825D01*
X101857631Y-107661486D01*
X101858000Y-107654672D01*
X101858000Y-107232115D01*
X101853525Y-107216876D01*
X101852135Y-107215671D01*
X101844452Y-107214000D01*
X97860116Y-107214000D01*
X97844877Y-107218475D01*
X97843672Y-107219865D01*
X97842001Y-107227548D01*
X97842001Y-107654669D01*
X97842371Y-107661490D01*
X97847895Y-107712352D01*
X97851521Y-107727604D01*
X97896676Y-107848054D01*
X97905214Y-107863649D01*
X97920480Y-107884018D01*
X97945328Y-107950525D01*
X97930275Y-108019907D01*
X97920480Y-108035148D01*
X97899385Y-108063295D01*
X97848255Y-108199684D01*
X97841500Y-108261866D01*
X97841500Y-109658134D01*
X97848255Y-109720316D01*
X97899385Y-109856705D01*
X97986739Y-109973261D01*
X98103295Y-110060615D01*
X98239684Y-110111745D01*
X98301866Y-110118500D01*
X101398134Y-110118500D01*
X101402737Y-110118000D01*
X101452466Y-110112598D01*
X101452468Y-110112598D01*
X101460316Y-110111745D01*
X101467709Y-110108973D01*
X101467711Y-110108973D01*
X101527609Y-110086518D01*
X101571838Y-110078500D01*
X102891499Y-110078500D01*
X102935729Y-110086518D01*
X102989684Y-110106745D01*
X103051866Y-110113500D01*
X106166000Y-110113500D01*
X106234121Y-110133502D01*
X106280614Y-110187158D01*
X106292000Y-110239500D01*
X106292000Y-110486000D01*
X106271998Y-110554121D01*
X106218342Y-110600614D01*
X106166000Y-110612000D01*
X104972115Y-110612000D01*
X104956876Y-110616475D01*
X104955671Y-110617865D01*
X104954000Y-110625548D01*
X104954000Y-112959884D01*
X104958475Y-112975123D01*
X104959865Y-112976328D01*
X104967548Y-112977999D01*
X106166000Y-112977999D01*
X106234121Y-112998001D01*
X106280614Y-113051657D01*
X106292000Y-113103999D01*
X106292000Y-113166035D01*
X106271998Y-113234156D01*
X106218342Y-113280649D01*
X106166008Y-113292035D01*
X103086562Y-113292201D01*
X100348020Y-113292348D01*
X100279898Y-113272350D01*
X100233402Y-113218696D01*
X100223295Y-113148423D01*
X100252784Y-113083841D01*
X100259073Y-113077097D01*
X100359991Y-112976531D01*
X100378096Y-112958489D01*
X100396318Y-112933131D01*
X100505435Y-112781277D01*
X100508453Y-112777077D01*
X100517882Y-112758000D01*
X100605136Y-112581453D01*
X100605137Y-112581451D01*
X100607430Y-112576811D01*
X100626310Y-112514669D01*
X102092001Y-112514669D01*
X102092371Y-112521490D01*
X102097895Y-112572352D01*
X102101521Y-112587604D01*
X102146676Y-112708054D01*
X102155214Y-112723649D01*
X102231715Y-112825724D01*
X102244276Y-112838285D01*
X102346351Y-112914786D01*
X102361946Y-112923324D01*
X102482394Y-112968478D01*
X102497649Y-112972105D01*
X102548514Y-112977631D01*
X102555328Y-112978000D01*
X104427885Y-112978000D01*
X104443124Y-112973525D01*
X104444329Y-112972135D01*
X104446000Y-112964452D01*
X104446000Y-112067115D01*
X104441525Y-112051876D01*
X104440135Y-112050671D01*
X104432452Y-112049000D01*
X102110116Y-112049000D01*
X102094877Y-112053475D01*
X102093672Y-112054865D01*
X102092001Y-112062548D01*
X102092001Y-112514669D01*
X100626310Y-112514669D01*
X100644754Y-112453965D01*
X100670865Y-112368023D01*
X100670865Y-112368021D01*
X100672370Y-112363069D01*
X100701529Y-112141590D01*
X100701611Y-112138240D01*
X100703074Y-112078365D01*
X100703074Y-112078361D01*
X100703156Y-112075000D01*
X100684852Y-111852361D01*
X100630431Y-111635702D01*
X100581377Y-111522885D01*
X102092000Y-111522885D01*
X102096475Y-111538124D01*
X102097865Y-111539329D01*
X102105548Y-111541000D01*
X104427885Y-111541000D01*
X104443124Y-111536525D01*
X104444329Y-111535135D01*
X104446000Y-111527452D01*
X104446000Y-110630116D01*
X104441525Y-110614877D01*
X104440135Y-110613672D01*
X104432452Y-110612001D01*
X102555331Y-110612001D01*
X102548510Y-110612371D01*
X102497648Y-110617895D01*
X102482396Y-110621521D01*
X102361946Y-110666676D01*
X102346351Y-110675214D01*
X102244276Y-110751715D01*
X102231715Y-110764276D01*
X102155214Y-110866351D01*
X102146676Y-110881946D01*
X102101522Y-111002394D01*
X102097895Y-111017649D01*
X102092369Y-111068514D01*
X102092000Y-111075328D01*
X102092000Y-111522885D01*
X100581377Y-111522885D01*
X100541354Y-111430840D01*
X100469370Y-111319570D01*
X100422822Y-111247617D01*
X100422820Y-111247614D01*
X100420014Y-111243277D01*
X100269670Y-111078051D01*
X100265619Y-111074852D01*
X100265615Y-111074848D01*
X100098414Y-110942800D01*
X100098410Y-110942798D01*
X100094359Y-110939598D01*
X100072973Y-110927792D01*
X100017167Y-110896986D01*
X99898789Y-110831638D01*
X99893920Y-110829914D01*
X99893916Y-110829912D01*
X99693087Y-110758795D01*
X99693083Y-110758794D01*
X99688212Y-110757069D01*
X99683119Y-110756162D01*
X99683116Y-110756161D01*
X99473373Y-110718800D01*
X99473367Y-110718799D01*
X99468284Y-110717894D01*
X99394452Y-110716992D01*
X99250081Y-110715228D01*
X99250079Y-110715228D01*
X99244911Y-110715165D01*
X99024091Y-110748955D01*
X98811756Y-110818357D01*
X98753107Y-110848888D01*
X98719561Y-110866351D01*
X98613607Y-110921507D01*
X98609474Y-110924610D01*
X98609471Y-110924612D01*
X98439100Y-111052530D01*
X98434965Y-111055635D01*
X98431393Y-111059373D01*
X98352887Y-111141525D01*
X98280629Y-111217138D01*
X98173201Y-111374621D01*
X98118293Y-111419621D01*
X98047768Y-111427792D01*
X97984021Y-111396538D01*
X97963324Y-111372054D01*
X97882822Y-111247617D01*
X97882820Y-111247614D01*
X97880014Y-111243277D01*
X97729670Y-111078051D01*
X97725619Y-111074852D01*
X97725615Y-111074848D01*
X97558414Y-110942800D01*
X97558410Y-110942798D01*
X97554359Y-110939598D01*
X97532973Y-110927792D01*
X97477167Y-110896986D01*
X97358789Y-110831638D01*
X97353920Y-110829914D01*
X97353916Y-110829912D01*
X97153087Y-110758795D01*
X97153083Y-110758794D01*
X97148212Y-110757069D01*
X97143119Y-110756162D01*
X97143116Y-110756161D01*
X96933373Y-110718800D01*
X96933367Y-110718799D01*
X96928284Y-110717894D01*
X96854452Y-110716992D01*
X96710081Y-110715228D01*
X96710079Y-110715228D01*
X96704911Y-110715165D01*
X96484091Y-110748955D01*
X96271756Y-110818357D01*
X96213107Y-110848888D01*
X96179561Y-110866351D01*
X96073607Y-110921507D01*
X96069474Y-110924610D01*
X96069471Y-110924612D01*
X95899100Y-111052530D01*
X95894965Y-111055635D01*
X95891393Y-111059373D01*
X95812887Y-111141525D01*
X95740629Y-111217138D01*
X95633201Y-111374621D01*
X95578293Y-111419621D01*
X95507768Y-111427792D01*
X95444021Y-111396538D01*
X95423324Y-111372054D01*
X95342822Y-111247617D01*
X95342820Y-111247614D01*
X95340014Y-111243277D01*
X95189670Y-111078051D01*
X95185619Y-111074852D01*
X95185615Y-111074848D01*
X95018414Y-110942800D01*
X95018410Y-110942798D01*
X95014359Y-110939598D01*
X94992973Y-110927792D01*
X94937167Y-110896986D01*
X94818789Y-110831638D01*
X94813920Y-110829914D01*
X94813916Y-110829912D01*
X94613087Y-110758795D01*
X94613083Y-110758794D01*
X94608212Y-110757069D01*
X94603119Y-110756162D01*
X94603116Y-110756161D01*
X94393373Y-110718800D01*
X94393367Y-110718799D01*
X94388284Y-110717894D01*
X94314452Y-110716992D01*
X94170081Y-110715228D01*
X94170079Y-110715228D01*
X94164911Y-110715165D01*
X93944091Y-110748955D01*
X93731756Y-110818357D01*
X93673107Y-110848888D01*
X93639561Y-110866351D01*
X93533607Y-110921507D01*
X93529474Y-110924610D01*
X93529471Y-110924612D01*
X93359100Y-111052530D01*
X93354965Y-111055635D01*
X93351393Y-111059373D01*
X93272887Y-111141525D01*
X93200629Y-111217138D01*
X93093201Y-111374621D01*
X93038293Y-111419621D01*
X92967768Y-111427792D01*
X92904021Y-111396538D01*
X92883324Y-111372054D01*
X92802822Y-111247617D01*
X92802820Y-111247614D01*
X92800014Y-111243277D01*
X92649670Y-111078051D01*
X92645619Y-111074852D01*
X92645615Y-111074848D01*
X92478414Y-110942800D01*
X92478410Y-110942798D01*
X92474359Y-110939598D01*
X92452973Y-110927792D01*
X92397167Y-110896986D01*
X92278789Y-110831638D01*
X92273920Y-110829914D01*
X92273916Y-110829912D01*
X92073087Y-110758795D01*
X92073083Y-110758794D01*
X92068212Y-110757069D01*
X92063119Y-110756162D01*
X92063116Y-110756161D01*
X91853373Y-110718800D01*
X91853367Y-110718799D01*
X91848284Y-110717894D01*
X91774452Y-110716992D01*
X91630081Y-110715228D01*
X91630079Y-110715228D01*
X91624911Y-110715165D01*
X91404091Y-110748955D01*
X91191756Y-110818357D01*
X91133107Y-110848888D01*
X91099561Y-110866351D01*
X90993607Y-110921507D01*
X90989474Y-110924610D01*
X90989471Y-110924612D01*
X90819100Y-111052530D01*
X90814965Y-111055635D01*
X90811393Y-111059373D01*
X90732887Y-111141525D01*
X90660629Y-111217138D01*
X90553201Y-111374621D01*
X90498293Y-111419621D01*
X90427768Y-111427792D01*
X90364021Y-111396538D01*
X90343324Y-111372054D01*
X90262822Y-111247617D01*
X90262820Y-111247614D01*
X90260014Y-111243277D01*
X90256538Y-111239457D01*
X90256533Y-111239450D01*
X90226410Y-111206346D01*
X90195358Y-111142500D01*
X90203752Y-111072002D01*
X90228130Y-111034893D01*
X90233128Y-111029617D01*
X90235506Y-111027175D01*
X95818911Y-105443770D01*
X95833323Y-105431384D01*
X95844918Y-105422851D01*
X95844923Y-105422846D01*
X95850818Y-105418508D01*
X95855557Y-105412930D01*
X95855560Y-105412927D01*
X95885035Y-105378232D01*
X95891965Y-105370716D01*
X95897660Y-105365021D01*
X95912568Y-105346178D01*
X95915281Y-105342749D01*
X95918072Y-105339345D01*
X95960591Y-105289297D01*
X95960592Y-105289295D01*
X95965333Y-105283715D01*
X95968661Y-105277199D01*
X95972020Y-105272162D01*
X95975194Y-105267023D01*
X95979734Y-105261284D01*
X96010646Y-105195142D01*
X96012569Y-105191209D01*
X96023768Y-105169277D01*
X96045769Y-105126192D01*
X96047510Y-105119076D01*
X96049604Y-105113446D01*
X96051523Y-105107679D01*
X96054621Y-105101050D01*
X96057420Y-105087596D01*
X96069482Y-105029604D01*
X96070453Y-105025315D01*
X96072567Y-105016676D01*
X96087808Y-104954390D01*
X96088500Y-104943236D01*
X96088536Y-104943238D01*
X96088775Y-104939248D01*
X96089150Y-104935050D01*
X96090640Y-104927885D01*
X96088546Y-104850496D01*
X96088500Y-104847088D01*
X96088500Y-102006371D01*
X96108502Y-101938250D01*
X96125405Y-101917276D01*
X96287276Y-101755405D01*
X96349588Y-101721379D01*
X96376371Y-101718500D01*
X97760246Y-101718500D01*
X97828367Y-101738502D01*
X97874860Y-101792158D01*
X97878228Y-101800270D01*
X97883352Y-101813938D01*
X97899385Y-101856705D01*
X97904771Y-101863891D01*
X97920168Y-101884436D01*
X97945015Y-101950943D01*
X97929961Y-102020325D01*
X97920168Y-102035564D01*
X97899385Y-102063295D01*
X97848255Y-102199684D01*
X97841500Y-102261866D01*
X97841500Y-103658134D01*
X97848255Y-103720316D01*
X97899385Y-103856705D01*
X97904771Y-103863891D01*
X97920168Y-103884436D01*
X97945015Y-103950943D01*
X97929961Y-104020325D01*
X97920168Y-104035564D01*
X97899385Y-104063295D01*
X97848255Y-104199684D01*
X97841500Y-104261866D01*
X97841500Y-105658134D01*
X97848255Y-105720316D01*
X97899385Y-105856705D01*
X97913811Y-105875954D01*
X97920480Y-105884852D01*
X97945328Y-105951358D01*
X97930275Y-106020741D01*
X97920480Y-106035982D01*
X97905214Y-106056351D01*
X97896676Y-106071946D01*
X97851522Y-106192394D01*
X97847895Y-106207649D01*
X97842369Y-106258514D01*
X97842000Y-106265328D01*
X97842000Y-106687885D01*
X97846475Y-106703124D01*
X97847865Y-106704329D01*
X97855548Y-106706000D01*
X101839884Y-106706000D01*
X101855123Y-106701525D01*
X101870777Y-106683460D01*
X101930503Y-106645077D01*
X102001499Y-106645077D01*
X102061226Y-106683461D01*
X102090719Y-106748042D01*
X102092001Y-106765973D01*
X102092001Y-106864669D01*
X102092371Y-106871490D01*
X102097895Y-106922352D01*
X102101521Y-106937604D01*
X102146676Y-107058054D01*
X102155214Y-107073649D01*
X102231715Y-107175724D01*
X102244276Y-107188285D01*
X102346351Y-107264786D01*
X102361946Y-107273324D01*
X102482394Y-107318478D01*
X102497649Y-107322105D01*
X102548514Y-107327631D01*
X102555328Y-107328000D01*
X104427885Y-107328000D01*
X104443124Y-107323525D01*
X104444329Y-107322135D01*
X104446000Y-107314452D01*
X104446000Y-106417115D01*
X104441525Y-106401876D01*
X104440135Y-106400671D01*
X104432452Y-106399000D01*
X102110116Y-106399000D01*
X102094877Y-106403475D01*
X102079223Y-106421540D01*
X102019497Y-106459923D01*
X101948501Y-106459923D01*
X101888774Y-106421539D01*
X101859281Y-106356958D01*
X101857999Y-106339027D01*
X101857999Y-106265331D01*
X101857629Y-106258510D01*
X101852105Y-106207648D01*
X101848479Y-106192396D01*
X101803324Y-106071946D01*
X101794786Y-106056351D01*
X101779520Y-106035982D01*
X101754672Y-105969475D01*
X101769725Y-105900093D01*
X101779520Y-105884852D01*
X101786189Y-105875954D01*
X101800615Y-105856705D01*
X101848018Y-105730258D01*
X101890660Y-105673494D01*
X101957221Y-105648794D01*
X102026570Y-105664001D01*
X102076688Y-105714287D01*
X102092000Y-105774488D01*
X102092000Y-105872885D01*
X102096475Y-105888124D01*
X102097865Y-105889329D01*
X102105548Y-105891000D01*
X104427885Y-105891000D01*
X104443124Y-105886525D01*
X104444329Y-105885135D01*
X104446000Y-105877452D01*
X104446000Y-104980116D01*
X104441525Y-104964877D01*
X104440135Y-104963672D01*
X104432452Y-104962001D01*
X104410464Y-104962001D01*
X104342343Y-104941999D01*
X104295850Y-104888343D01*
X104285746Y-104818069D01*
X104315240Y-104753489D01*
X104374966Y-104715105D01*
X104380216Y-104713778D01*
X104383416Y-104713368D01*
X104537511Y-104667137D01*
X104592429Y-104650661D01*
X104592434Y-104650659D01*
X104597384Y-104649174D01*
X104797994Y-104550896D01*
X104979860Y-104421173D01*
X104991161Y-104409912D01*
X105083953Y-104317443D01*
X105138096Y-104263489D01*
X105144361Y-104254771D01*
X105265435Y-104086277D01*
X105268453Y-104082077D01*
X105277537Y-104063698D01*
X105365136Y-103886453D01*
X105365137Y-103886451D01*
X105367430Y-103881811D01*
X105418883Y-103712460D01*
X105430865Y-103673023D01*
X105430865Y-103673021D01*
X105432370Y-103668069D01*
X105461529Y-103446590D01*
X105461612Y-103443207D01*
X105463074Y-103383365D01*
X105463074Y-103383361D01*
X105463156Y-103380000D01*
X105444852Y-103157361D01*
X105390431Y-102940702D01*
X105301354Y-102735840D01*
X105180014Y-102548277D01*
X105029670Y-102383051D01*
X105025619Y-102379852D01*
X105025615Y-102379848D01*
X104858414Y-102247800D01*
X104858410Y-102247798D01*
X104854359Y-102244598D01*
X104813053Y-102221796D01*
X104763084Y-102171364D01*
X104748312Y-102101921D01*
X104773428Y-102035516D01*
X104800780Y-102008909D01*
X104869348Y-101960000D01*
X104979860Y-101881173D01*
X104997203Y-101863891D01*
X105134435Y-101727137D01*
X105138096Y-101723489D01*
X105187514Y-101654717D01*
X105265435Y-101546277D01*
X105268453Y-101542077D01*
X105278141Y-101522476D01*
X105365136Y-101346453D01*
X105365137Y-101346451D01*
X105367430Y-101341811D01*
X105423504Y-101157251D01*
X105430865Y-101133023D01*
X105430865Y-101133021D01*
X105432370Y-101128069D01*
X105461529Y-100906590D01*
X105462125Y-100882196D01*
X105463074Y-100843365D01*
X105463074Y-100843361D01*
X105463156Y-100840000D01*
X105444852Y-100617361D01*
X105390431Y-100400702D01*
X105301354Y-100195840D01*
X105223657Y-100075739D01*
X105182822Y-100012617D01*
X105182820Y-100012614D01*
X105180014Y-100008277D01*
X105029670Y-99843051D01*
X105025619Y-99839852D01*
X105025615Y-99839848D01*
X104858414Y-99707800D01*
X104858410Y-99707798D01*
X104854359Y-99704598D01*
X104812569Y-99681529D01*
X104762598Y-99631097D01*
X104747826Y-99561654D01*
X104772942Y-99495248D01*
X104800294Y-99468641D01*
X104975328Y-99343792D01*
X104983200Y-99337139D01*
X105134052Y-99186812D01*
X105140730Y-99178965D01*
X105265003Y-99006020D01*
X105270313Y-98997183D01*
X105364670Y-98806267D01*
X105368469Y-98796672D01*
X105430377Y-98592910D01*
X105432555Y-98582837D01*
X105433986Y-98571962D01*
X105431775Y-98557778D01*
X105418617Y-98554000D01*
X102783225Y-98554000D01*
X102769694Y-98557973D01*
X102768257Y-98567966D01*
X102798565Y-98702446D01*
X102801645Y-98712275D01*
X102881770Y-98909603D01*
X102886413Y-98918794D01*
X102997694Y-99100388D01*
X103003777Y-99108699D01*
X103143213Y-99269667D01*
X103150580Y-99276883D01*
X103314434Y-99412916D01*
X103322881Y-99418831D01*
X103391969Y-99459203D01*
X103440693Y-99510842D01*
X103453764Y-99580625D01*
X103427033Y-99646396D01*
X103386584Y-99679752D01*
X103373607Y-99686507D01*
X103369474Y-99689610D01*
X103369471Y-99689612D01*
X103199100Y-99817530D01*
X103194965Y-99820635D01*
X103173544Y-99843051D01*
X103053130Y-99969057D01*
X103040629Y-99982138D01*
X103037715Y-99986410D01*
X103037714Y-99986411D01*
X103012927Y-100022747D01*
X102914743Y-100166680D01*
X102892190Y-100215267D01*
X102826212Y-100357405D01*
X102820688Y-100369305D01*
X102760989Y-100584570D01*
X102737251Y-100806695D01*
X102737548Y-100811848D01*
X102737548Y-100811851D01*
X102745259Y-100945590D01*
X102750110Y-101029715D01*
X102751247Y-101034761D01*
X102751248Y-101034767D01*
X102764073Y-101091675D01*
X102799222Y-101247639D01*
X102837461Y-101341811D01*
X102880783Y-101448500D01*
X102883266Y-101454616D01*
X102885965Y-101459020D01*
X102995865Y-101638361D01*
X102999987Y-101645088D01*
X103146250Y-101813938D01*
X103273428Y-101919523D01*
X103311274Y-101950943D01*
X103318126Y-101956632D01*
X103339389Y-101969057D01*
X103391445Y-101999476D01*
X103440169Y-102051114D01*
X103453240Y-102120897D01*
X103426509Y-102186669D01*
X103386055Y-102220027D01*
X103373607Y-102226507D01*
X103369474Y-102229610D01*
X103369471Y-102229612D01*
X103199100Y-102357530D01*
X103194965Y-102360635D01*
X103040629Y-102522138D01*
X102914743Y-102706680D01*
X102899003Y-102740590D01*
X102824787Y-102900475D01*
X102820688Y-102909305D01*
X102760989Y-103124570D01*
X102737251Y-103346695D01*
X102737548Y-103351848D01*
X102737548Y-103351851D01*
X102745518Y-103490073D01*
X102750110Y-103569715D01*
X102751247Y-103574761D01*
X102751248Y-103574767D01*
X102770802Y-103661531D01*
X102799222Y-103787639D01*
X102883266Y-103994616D01*
X102908359Y-104035564D01*
X102981658Y-104155177D01*
X102999987Y-104185088D01*
X103146250Y-104353938D01*
X103318126Y-104496632D01*
X103511000Y-104609338D01*
X103515825Y-104611180D01*
X103515826Y-104611181D01*
X103566986Y-104630717D01*
X103719692Y-104689030D01*
X103724760Y-104690061D01*
X103724763Y-104690062D01*
X103835202Y-104712531D01*
X103897967Y-104745712D01*
X103932829Y-104807560D01*
X103928720Y-104878438D01*
X103886943Y-104935842D01*
X103820764Y-104961547D01*
X103810081Y-104962001D01*
X102555331Y-104962001D01*
X102548510Y-104962371D01*
X102497648Y-104967895D01*
X102482396Y-104971521D01*
X102361946Y-105016676D01*
X102346351Y-105025214D01*
X102244276Y-105101715D01*
X102231715Y-105114276D01*
X102155214Y-105216351D01*
X102146676Y-105231946D01*
X102102482Y-105349833D01*
X102059840Y-105406597D01*
X101993279Y-105431297D01*
X101923930Y-105416090D01*
X101873812Y-105365804D01*
X101858500Y-105305603D01*
X101858500Y-104261866D01*
X101851745Y-104199684D01*
X101800615Y-104063295D01*
X101779832Y-104035564D01*
X101754985Y-103969057D01*
X101770039Y-103899675D01*
X101779832Y-103884436D01*
X101795229Y-103863891D01*
X101800615Y-103856705D01*
X101851745Y-103720316D01*
X101858500Y-103658134D01*
X101858500Y-102261866D01*
X101851745Y-102199684D01*
X101800615Y-102063295D01*
X101779832Y-102035564D01*
X101754985Y-101969057D01*
X101770039Y-101899675D01*
X101779832Y-101884436D01*
X101795229Y-101863891D01*
X101800615Y-101856705D01*
X101851745Y-101720316D01*
X101858500Y-101658134D01*
X101858500Y-100261866D01*
X101851745Y-100199684D01*
X101800615Y-100063295D01*
X101779832Y-100035564D01*
X101754985Y-99969057D01*
X101770039Y-99899675D01*
X101779832Y-99884436D01*
X101795229Y-99863891D01*
X101800615Y-99856705D01*
X101851745Y-99720316D01*
X101858500Y-99658134D01*
X101858500Y-98261866D01*
X101851745Y-98199684D01*
X101800615Y-98063295D01*
X101779832Y-98035564D01*
X101754985Y-97969057D01*
X101770039Y-97899675D01*
X101779832Y-97884436D01*
X101795229Y-97863891D01*
X101800615Y-97856705D01*
X101851745Y-97720316D01*
X101858500Y-97658134D01*
X101858500Y-96261866D01*
X101851745Y-96199684D01*
X101800615Y-96063295D01*
X101779832Y-96035564D01*
X101754985Y-95969057D01*
X101770039Y-95899675D01*
X101779832Y-95884436D01*
X101791370Y-95869040D01*
X101800615Y-95856705D01*
X101851745Y-95720316D01*
X101858500Y-95658134D01*
X101858500Y-94261866D01*
X101851745Y-94199684D01*
X101800615Y-94063295D01*
X101713261Y-93946739D01*
X101596705Y-93859385D01*
X101460316Y-93808255D01*
X101398134Y-93801500D01*
X98301866Y-93801500D01*
X98239684Y-93808255D01*
X98103295Y-93859385D01*
X97986739Y-93946739D01*
X97899385Y-94063295D01*
X97848255Y-94199684D01*
X97841500Y-94261866D01*
X97841500Y-95658134D01*
X97848255Y-95720316D01*
X97899385Y-95856705D01*
X97908630Y-95869040D01*
X97920168Y-95884436D01*
X97945015Y-95950943D01*
X97929961Y-96020325D01*
X97920168Y-96035564D01*
X97899385Y-96063295D01*
X97848255Y-96199684D01*
X97841500Y-96261866D01*
X97841500Y-97658134D01*
X97848255Y-97720316D01*
X97899385Y-97856705D01*
X97904771Y-97863891D01*
X97920168Y-97884436D01*
X97945015Y-97950943D01*
X97929961Y-98020325D01*
X97920168Y-98035564D01*
X97899385Y-98063295D01*
X97848255Y-98199684D01*
X97841500Y-98261866D01*
X97841500Y-99658134D01*
X97848255Y-99720316D01*
X97899385Y-99856705D01*
X97904771Y-99863891D01*
X97920168Y-99884436D01*
X97945015Y-99950943D01*
X97929961Y-100020325D01*
X97920168Y-100035564D01*
X97899385Y-100063295D01*
X97896233Y-100071703D01*
X97878228Y-100119730D01*
X97835586Y-100176495D01*
X97769024Y-100201194D01*
X97760246Y-100201500D01*
X96077069Y-100201500D01*
X96058121Y-100200067D01*
X96050780Y-100198950D01*
X96043883Y-100197901D01*
X96043881Y-100197901D01*
X96036651Y-100196801D01*
X96029359Y-100197394D01*
X96029356Y-100197394D01*
X95983982Y-100201085D01*
X95973767Y-100201500D01*
X95965707Y-100201500D01*
X95952417Y-100203049D01*
X95937493Y-100204789D01*
X95933118Y-100205222D01*
X95867661Y-100210546D01*
X95867658Y-100210547D01*
X95860363Y-100211140D01*
X95853399Y-100213396D01*
X95847440Y-100214587D01*
X95841585Y-100215971D01*
X95834319Y-100216818D01*
X95765673Y-100241735D01*
X95761545Y-100243152D01*
X95699064Y-100263393D01*
X95699062Y-100263394D01*
X95692101Y-100265649D01*
X95685846Y-100269445D01*
X95680372Y-100271951D01*
X95674942Y-100274670D01*
X95668063Y-100277167D01*
X95607016Y-100317191D01*
X95603327Y-100319518D01*
X95591822Y-100326500D01*
X95545693Y-100354491D01*
X95545688Y-100354495D01*
X95540892Y-100357405D01*
X95536685Y-100361121D01*
X95536682Y-100361123D01*
X95532545Y-100364777D01*
X95532516Y-100364803D01*
X95532493Y-100364777D01*
X95529503Y-100367426D01*
X95526264Y-100370134D01*
X95520148Y-100374144D01*
X95515121Y-100379451D01*
X95515117Y-100379454D01*
X95466872Y-100430383D01*
X95464494Y-100432825D01*
X94841089Y-101056230D01*
X94826677Y-101068616D01*
X94815082Y-101077149D01*
X94815077Y-101077154D01*
X94809182Y-101081492D01*
X94804443Y-101087070D01*
X94804440Y-101087073D01*
X94774965Y-101121768D01*
X94768035Y-101129284D01*
X94762340Y-101134979D01*
X94760060Y-101137861D01*
X94744719Y-101157251D01*
X94741928Y-101160655D01*
X94719487Y-101187070D01*
X94694667Y-101216285D01*
X94691339Y-101222801D01*
X94687972Y-101227850D01*
X94684805Y-101232979D01*
X94680266Y-101238716D01*
X94649345Y-101304875D01*
X94647442Y-101308769D01*
X94614231Y-101373808D01*
X94612492Y-101380916D01*
X94610393Y-101386559D01*
X94608476Y-101392322D01*
X94605378Y-101398950D01*
X94592884Y-101459020D01*
X94590514Y-101470412D01*
X94589544Y-101474696D01*
X94572192Y-101545610D01*
X94571500Y-101556764D01*
X94571464Y-101556762D01*
X94571225Y-101560755D01*
X94570851Y-101564947D01*
X94569360Y-101572115D01*
X94570033Y-101596980D01*
X94571454Y-101649521D01*
X94571500Y-101652928D01*
X94571500Y-104493629D01*
X94551498Y-104561750D01*
X94534595Y-104582724D01*
X92693175Y-106424144D01*
X92630863Y-106458170D01*
X92560048Y-106453105D01*
X92503212Y-106410558D01*
X92478401Y-106344038D01*
X92494961Y-106272049D01*
X92515295Y-106236830D01*
X92515296Y-106236829D01*
X92518599Y-106231107D01*
X92570927Y-106070057D01*
X92572325Y-106065754D01*
X92572325Y-106065753D01*
X92574365Y-106059475D01*
X92584821Y-105960000D01*
X92592539Y-105886565D01*
X92593229Y-105880000D01*
X92576009Y-105716170D01*
X92575055Y-105707089D01*
X92575055Y-105707088D01*
X92574365Y-105700525D01*
X92571286Y-105691047D01*
X92528294Y-105558732D01*
X92518599Y-105528893D01*
X92500301Y-105497199D01*
X92431670Y-105378328D01*
X92428367Y-105372607D01*
X92417940Y-105361026D01*
X92398418Y-105339345D01*
X92395864Y-105336509D01*
X92365147Y-105272501D01*
X92363500Y-105252198D01*
X92363500Y-93138768D01*
X92364027Y-93127585D01*
X92365702Y-93120092D01*
X92364459Y-93080525D01*
X92363562Y-93052002D01*
X92363500Y-93048044D01*
X92363500Y-93020144D01*
X92362996Y-93016153D01*
X92362063Y-93004311D01*
X92361628Y-92990448D01*
X92360674Y-92960111D01*
X92358462Y-92952497D01*
X92358461Y-92952492D01*
X92355023Y-92940659D01*
X92351012Y-92921295D01*
X92350565Y-92917752D01*
X92348474Y-92901203D01*
X92345557Y-92893836D01*
X92345556Y-92893831D01*
X92332198Y-92860092D01*
X92328354Y-92848865D01*
X92322157Y-92827537D01*
X92316018Y-92806407D01*
X92305707Y-92788972D01*
X92297012Y-92771224D01*
X92289552Y-92752383D01*
X92270739Y-92726488D01*
X92263564Y-92716613D01*
X92257048Y-92706693D01*
X92238580Y-92675465D01*
X92238578Y-92675462D01*
X92234542Y-92668638D01*
X92220221Y-92654317D01*
X92207380Y-92639283D01*
X92200131Y-92629306D01*
X92195472Y-92622893D01*
X92189367Y-92617842D01*
X92189362Y-92617837D01*
X92161396Y-92594701D01*
X92152618Y-92586713D01*
X91359770Y-91793865D01*
X91359767Y-91793863D01*
X91303653Y-91737749D01*
X91296113Y-91729463D01*
X91292000Y-91722982D01*
X91270906Y-91703173D01*
X91242348Y-91676356D01*
X91239506Y-91673601D01*
X91219770Y-91653865D01*
X91216573Y-91651385D01*
X91207551Y-91643680D01*
X91203397Y-91639779D01*
X91175321Y-91613414D01*
X91168375Y-91609595D01*
X91168372Y-91609593D01*
X91157566Y-91603652D01*
X91141047Y-91592801D01*
X91140583Y-91592441D01*
X91125041Y-91580386D01*
X91117772Y-91577241D01*
X91117768Y-91577238D01*
X91084463Y-91562826D01*
X91073813Y-91557609D01*
X91035060Y-91536305D01*
X91015437Y-91531267D01*
X90996734Y-91524863D01*
X90985420Y-91519967D01*
X90985419Y-91519967D01*
X90978145Y-91516819D01*
X90970322Y-91515580D01*
X90970312Y-91515577D01*
X90934476Y-91509901D01*
X90922856Y-91507495D01*
X90887711Y-91498472D01*
X90887710Y-91498472D01*
X90880030Y-91496500D01*
X90859776Y-91496500D01*
X90840065Y-91494949D01*
X90827886Y-91493020D01*
X90820057Y-91491780D01*
X90790786Y-91494547D01*
X90776039Y-91495941D01*
X90764181Y-91496500D01*
X82888768Y-91496500D01*
X82877585Y-91495973D01*
X82870092Y-91494298D01*
X82862166Y-91494547D01*
X82862165Y-91494547D01*
X82802002Y-91496438D01*
X82798044Y-91496500D01*
X82770144Y-91496500D01*
X82766154Y-91497004D01*
X82754320Y-91497936D01*
X82710111Y-91499326D01*
X82702495Y-91501539D01*
X82702493Y-91501539D01*
X82690652Y-91504979D01*
X82671293Y-91508988D01*
X82669983Y-91509154D01*
X82651203Y-91511526D01*
X82643837Y-91514442D01*
X82643831Y-91514444D01*
X82610098Y-91527800D01*
X82598868Y-91531645D01*
X82582828Y-91536305D01*
X82556407Y-91543981D01*
X82549584Y-91548016D01*
X82538966Y-91554295D01*
X82521213Y-91562992D01*
X82519958Y-91563489D01*
X82502383Y-91570448D01*
X82489288Y-91579962D01*
X82466612Y-91596437D01*
X82456695Y-91602951D01*
X82418638Y-91625458D01*
X82404317Y-91639779D01*
X82389284Y-91652619D01*
X82372893Y-91664528D01*
X82361735Y-91678016D01*
X82344702Y-91698605D01*
X82336712Y-91707384D01*
X79779762Y-94264333D01*
X79717450Y-94298359D01*
X79646634Y-94293294D01*
X79589799Y-94250747D01*
X79569670Y-94210392D01*
X79542018Y-94115215D01*
X79535770Y-94100778D01*
X79461146Y-93974595D01*
X79451499Y-93962159D01*
X79347841Y-93858501D01*
X79335405Y-93848854D01*
X79209222Y-93774230D01*
X79194783Y-93767981D01*
X79081395Y-93735039D01*
X79067295Y-93735079D01*
X79064000Y-93742349D01*
X79064000Y-94590500D01*
X79043998Y-94658621D01*
X78990342Y-94705114D01*
X78938000Y-94716500D01*
X78694500Y-94716500D01*
X78626379Y-94696498D01*
X78579886Y-94642842D01*
X78568500Y-94590500D01*
X78568499Y-94302484D01*
X78568499Y-94300012D01*
X78565629Y-94263534D01*
X78561003Y-94247610D01*
X78556000Y-94212458D01*
X78556000Y-93748100D01*
X78552027Y-93734569D01*
X78544129Y-93733434D01*
X78425217Y-93767981D01*
X78410780Y-93774229D01*
X78364630Y-93801522D01*
X78295813Y-93818982D01*
X78236354Y-93801523D01*
X78182596Y-93769731D01*
X78174985Y-93767520D01*
X78174983Y-93767519D01*
X78032644Y-93726166D01*
X78032645Y-93726166D01*
X78026466Y-93724371D01*
X78020059Y-93723867D01*
X78020055Y-93723866D01*
X77992444Y-93721693D01*
X77992438Y-93721693D01*
X77989989Y-93721500D01*
X77982395Y-93721500D01*
X77717583Y-93721501D01*
X77649464Y-93701499D01*
X77602971Y-93647844D01*
X77592866Y-93577570D01*
X77609130Y-93531363D01*
X77665394Y-93436224D01*
X77671643Y-93421784D01*
X77706619Y-93301395D01*
X77706579Y-93287295D01*
X77699309Y-93284000D01*
X76211652Y-93284000D01*
X76143531Y-93263998D01*
X76095247Y-93206228D01*
X76092885Y-93200527D01*
X76085290Y-93129938D01*
X76117064Y-93066448D01*
X76127761Y-93056672D01*
X76131362Y-93054542D01*
X76145683Y-93040221D01*
X76160717Y-93027380D01*
X76177107Y-93015472D01*
X76205298Y-92981395D01*
X76213288Y-92972616D01*
X76344726Y-92841178D01*
X76407038Y-92807152D01*
X76469436Y-92813224D01*
X76470403Y-92809894D01*
X76627746Y-92855606D01*
X76634151Y-92856110D01*
X76634156Y-92856111D01*
X76662060Y-92858307D01*
X76662068Y-92858307D01*
X76664516Y-92858500D01*
X77135484Y-92858500D01*
X77137932Y-92858307D01*
X77137940Y-92858307D01*
X77165844Y-92856111D01*
X77165849Y-92856110D01*
X77172254Y-92855606D01*
X77310301Y-92815500D01*
X77321984Y-92812106D01*
X77321986Y-92812105D01*
X77329597Y-92809894D01*
X77343348Y-92801762D01*
X77357240Y-92793546D01*
X77421379Y-92776000D01*
X77693558Y-92776000D01*
X77707089Y-92772027D01*
X77708224Y-92764129D01*
X77671643Y-92638216D01*
X77665395Y-92623778D01*
X77659984Y-92614628D01*
X77642526Y-92545812D01*
X77659985Y-92486353D01*
X77665857Y-92476423D01*
X77669894Y-92469597D01*
X77715606Y-92312254D01*
X77718500Y-92275484D01*
X77718500Y-91864516D01*
X77717428Y-91850896D01*
X77716111Y-91834156D01*
X77716110Y-91834151D01*
X77715606Y-91827746D01*
X77685515Y-91724171D01*
X77672106Y-91678016D01*
X77672105Y-91678014D01*
X77669894Y-91670403D01*
X77668270Y-91667657D01*
X77658500Y-91620482D01*
X77658500Y-90497941D01*
X77658999Y-90486740D01*
X77659150Y-90485050D01*
X77660640Y-90477885D01*
X77658546Y-90400479D01*
X77658500Y-90397072D01*
X77658500Y-88800000D01*
X81336771Y-88800000D01*
X81337461Y-88806565D01*
X81354498Y-88968653D01*
X81355635Y-88979475D01*
X81411401Y-89151107D01*
X81414704Y-89156829D01*
X81414705Y-89156830D01*
X81434550Y-89191203D01*
X81501633Y-89307393D01*
X81506051Y-89312300D01*
X81506052Y-89312301D01*
X81603832Y-89420897D01*
X81622387Y-89441504D01*
X81627729Y-89445385D01*
X81627731Y-89445387D01*
X81763043Y-89543697D01*
X81768385Y-89547578D01*
X81774413Y-89550262D01*
X81774415Y-89550263D01*
X81927217Y-89618295D01*
X81933248Y-89620980D01*
X82015030Y-89638363D01*
X82103311Y-89657128D01*
X82103315Y-89657128D01*
X82109768Y-89658500D01*
X82290232Y-89658500D01*
X82296685Y-89657128D01*
X82296689Y-89657128D01*
X82384970Y-89638363D01*
X82466752Y-89620980D01*
X82472783Y-89618295D01*
X82625585Y-89550263D01*
X82625587Y-89550262D01*
X82631615Y-89547578D01*
X82639150Y-89542104D01*
X82743744Y-89466111D01*
X82755509Y-89457564D01*
X82822375Y-89433706D01*
X82829569Y-89433500D01*
X84015500Y-89433500D01*
X84083621Y-89453502D01*
X84130114Y-89507158D01*
X84141500Y-89559500D01*
X84141500Y-89698134D01*
X84148255Y-89760316D01*
X84199385Y-89896705D01*
X84286739Y-90013261D01*
X84403295Y-90100615D01*
X84539684Y-90151745D01*
X84601866Y-90158500D01*
X85598134Y-90158500D01*
X85660316Y-90151745D01*
X85796705Y-90100615D01*
X85913261Y-90013261D01*
X86000615Y-89896705D01*
X86051745Y-89760316D01*
X86058500Y-89698134D01*
X86058500Y-89694669D01*
X87542001Y-89694669D01*
X87542371Y-89701490D01*
X87547895Y-89752352D01*
X87551521Y-89767604D01*
X87596676Y-89888054D01*
X87605214Y-89903649D01*
X87681715Y-90005724D01*
X87694276Y-90018285D01*
X87796351Y-90094786D01*
X87811946Y-90103324D01*
X87932394Y-90148478D01*
X87947649Y-90152105D01*
X87998514Y-90157631D01*
X88005328Y-90158000D01*
X88227885Y-90158000D01*
X88243124Y-90153525D01*
X88244329Y-90152135D01*
X88246000Y-90144452D01*
X88246000Y-90139884D01*
X88754000Y-90139884D01*
X88758475Y-90155123D01*
X88759865Y-90156328D01*
X88767548Y-90157999D01*
X88994669Y-90157999D01*
X89001490Y-90157629D01*
X89052352Y-90152105D01*
X89067604Y-90148479D01*
X89188054Y-90103324D01*
X89203649Y-90094786D01*
X89305724Y-90018285D01*
X89318285Y-90005724D01*
X89394786Y-89903649D01*
X89403324Y-89888054D01*
X89448478Y-89767606D01*
X89452105Y-89752351D01*
X89457631Y-89701486D01*
X89458000Y-89694672D01*
X89458000Y-89072115D01*
X89453525Y-89056876D01*
X89452135Y-89055671D01*
X89444452Y-89054000D01*
X88772115Y-89054000D01*
X88756876Y-89058475D01*
X88755671Y-89059865D01*
X88754000Y-89067548D01*
X88754000Y-90139884D01*
X88246000Y-90139884D01*
X88246000Y-89072115D01*
X88241525Y-89056876D01*
X88240135Y-89055671D01*
X88232452Y-89054000D01*
X87560116Y-89054000D01*
X87544877Y-89058475D01*
X87543672Y-89059865D01*
X87542001Y-89067548D01*
X87542001Y-89694669D01*
X86058500Y-89694669D01*
X86058500Y-87901866D01*
X86051745Y-87839684D01*
X86000615Y-87703295D01*
X85913261Y-87586739D01*
X85880728Y-87562357D01*
X85838213Y-87505498D01*
X85833187Y-87434680D01*
X85867247Y-87372386D01*
X85929578Y-87338396D01*
X85991445Y-87340534D01*
X86071566Y-87363811D01*
X86071570Y-87363812D01*
X86077746Y-87365606D01*
X86084151Y-87366110D01*
X86084156Y-87366111D01*
X86112060Y-87368307D01*
X86112068Y-87368307D01*
X86114516Y-87368500D01*
X86525484Y-87368500D01*
X86527932Y-87368307D01*
X86527940Y-87368307D01*
X86555844Y-87366111D01*
X86555849Y-87366110D01*
X86562254Y-87365606D01*
X86661005Y-87336916D01*
X86711984Y-87322106D01*
X86711986Y-87322105D01*
X86719597Y-87319894D01*
X86731902Y-87312617D01*
X86736353Y-87309985D01*
X86805170Y-87292526D01*
X86864628Y-87309984D01*
X86873778Y-87315395D01*
X86888216Y-87321643D01*
X87008605Y-87356619D01*
X87022705Y-87356579D01*
X87026000Y-87349309D01*
X87026000Y-87343558D01*
X87534000Y-87343558D01*
X87537973Y-87357089D01*
X87545871Y-87358224D01*
X87611050Y-87339288D01*
X87682047Y-87339491D01*
X87741663Y-87378045D01*
X87770971Y-87442710D01*
X87760667Y-87512955D01*
X87721768Y-87561112D01*
X87694272Y-87581719D01*
X87681715Y-87594276D01*
X87605214Y-87696351D01*
X87596676Y-87711946D01*
X87551522Y-87832394D01*
X87547895Y-87847649D01*
X87542369Y-87898514D01*
X87542000Y-87905328D01*
X87542000Y-88527885D01*
X87546475Y-88543124D01*
X87547865Y-88544329D01*
X87555548Y-88546000D01*
X88227885Y-88546000D01*
X88243124Y-88541525D01*
X88244329Y-88540135D01*
X88246000Y-88532452D01*
X88246000Y-88527885D01*
X88754000Y-88527885D01*
X88758475Y-88543124D01*
X88759865Y-88544329D01*
X88767548Y-88546000D01*
X89439884Y-88546000D01*
X89455123Y-88541525D01*
X89456328Y-88540135D01*
X89457999Y-88532452D01*
X89457999Y-87905331D01*
X89457629Y-87898510D01*
X89452105Y-87847648D01*
X89448479Y-87832396D01*
X89403324Y-87711946D01*
X89394786Y-87696351D01*
X89318285Y-87594276D01*
X89305724Y-87581715D01*
X89203649Y-87505214D01*
X89188054Y-87496676D01*
X89067606Y-87451522D01*
X89052351Y-87447895D01*
X89001486Y-87442369D01*
X88994672Y-87442000D01*
X88772115Y-87442000D01*
X88756876Y-87446475D01*
X88755671Y-87447865D01*
X88754000Y-87455548D01*
X88754000Y-88527885D01*
X88246000Y-88527885D01*
X88246000Y-87460116D01*
X88241525Y-87444877D01*
X88240135Y-87443672D01*
X88232452Y-87442001D01*
X88005331Y-87442001D01*
X87998510Y-87442371D01*
X87947653Y-87447894D01*
X87934309Y-87451067D01*
X87863409Y-87447365D01*
X87805765Y-87405919D01*
X87779680Y-87339888D01*
X87793435Y-87270236D01*
X87821208Y-87236978D01*
X87820320Y-87236090D01*
X87930484Y-87125926D01*
X87940124Y-87113499D01*
X88015396Y-86986220D01*
X88021643Y-86971784D01*
X88063312Y-86828359D01*
X88064768Y-86820391D01*
X88061948Y-86806969D01*
X88050487Y-86804000D01*
X87552115Y-86804000D01*
X87536876Y-86808475D01*
X87535671Y-86809865D01*
X87534000Y-86817548D01*
X87534000Y-87343558D01*
X87026000Y-87343558D01*
X87026000Y-87071379D01*
X87043546Y-87007240D01*
X87055859Y-86986420D01*
X87055859Y-86986419D01*
X87059894Y-86979597D01*
X87064384Y-86964144D01*
X87091392Y-86871180D01*
X87105606Y-86822254D01*
X87106391Y-86812289D01*
X87108307Y-86787940D01*
X87108307Y-86787932D01*
X87108500Y-86785484D01*
X87108500Y-86314516D01*
X87107043Y-86296000D01*
X87106111Y-86284156D01*
X87106110Y-86284151D01*
X87105617Y-86277885D01*
X87534000Y-86277885D01*
X87538475Y-86293124D01*
X87539865Y-86294329D01*
X87547548Y-86296000D01*
X88048424Y-86296000D01*
X88063219Y-86291656D01*
X88065063Y-86281225D01*
X88063312Y-86271641D01*
X88021643Y-86128216D01*
X88015396Y-86113780D01*
X87940124Y-85986501D01*
X87930484Y-85974074D01*
X87825926Y-85869516D01*
X87813499Y-85859876D01*
X87686220Y-85784604D01*
X87671784Y-85778357D01*
X87551395Y-85743381D01*
X87537295Y-85743421D01*
X87534000Y-85750691D01*
X87534000Y-86277885D01*
X87105617Y-86277885D01*
X87105606Y-86277746D01*
X87059894Y-86120403D01*
X87043546Y-86092760D01*
X87026000Y-86028621D01*
X87026000Y-85756442D01*
X87022027Y-85742911D01*
X87014129Y-85741776D01*
X86888216Y-85778357D01*
X86873778Y-85784605D01*
X86864628Y-85790016D01*
X86795812Y-85807474D01*
X86736353Y-85790015D01*
X86726423Y-85784143D01*
X86726424Y-85784143D01*
X86719597Y-85780106D01*
X86711986Y-85777895D01*
X86711984Y-85777894D01*
X86638144Y-85756442D01*
X86562254Y-85734394D01*
X86555849Y-85733890D01*
X86555844Y-85733889D01*
X86527940Y-85731693D01*
X86527932Y-85731693D01*
X86525484Y-85731500D01*
X86114516Y-85731500D01*
X86112068Y-85731693D01*
X86112060Y-85731693D01*
X86084156Y-85733889D01*
X86084151Y-85733890D01*
X86077746Y-85734394D01*
X86001856Y-85756442D01*
X85928016Y-85777894D01*
X85928014Y-85777895D01*
X85920403Y-85780106D01*
X85913581Y-85784141D01*
X85913580Y-85784141D01*
X85874126Y-85807474D01*
X85779371Y-85863512D01*
X85763288Y-85879595D01*
X85700976Y-85913621D01*
X85674193Y-85916500D01*
X85528768Y-85916500D01*
X85517585Y-85915973D01*
X85510092Y-85914298D01*
X85502166Y-85914547D01*
X85502165Y-85914547D01*
X85442002Y-85916438D01*
X85438044Y-85916500D01*
X85410144Y-85916500D01*
X85406154Y-85917004D01*
X85394320Y-85917936D01*
X85350111Y-85919326D01*
X85342497Y-85921538D01*
X85342492Y-85921539D01*
X85330659Y-85924977D01*
X85311296Y-85928988D01*
X85291203Y-85931526D01*
X85283836Y-85934443D01*
X85283831Y-85934444D01*
X85250092Y-85947802D01*
X85238865Y-85951646D01*
X85196407Y-85963982D01*
X85189581Y-85968019D01*
X85178972Y-85974293D01*
X85161224Y-85982988D01*
X85142383Y-85990448D01*
X85135967Y-85995110D01*
X85135966Y-85995110D01*
X85106613Y-86016436D01*
X85096692Y-86022952D01*
X85058638Y-86045458D01*
X85053031Y-86051064D01*
X85044315Y-86059780D01*
X85029282Y-86072620D01*
X85012893Y-86084528D01*
X85007841Y-86090635D01*
X84984712Y-86118593D01*
X84976722Y-86127374D01*
X84707742Y-86396353D01*
X84699463Y-86403887D01*
X84692982Y-86408000D01*
X84646356Y-86457652D01*
X84643601Y-86460494D01*
X84623865Y-86480230D01*
X84621385Y-86483427D01*
X84613682Y-86492447D01*
X84583414Y-86524679D01*
X84579595Y-86531625D01*
X84579593Y-86531628D01*
X84573652Y-86542434D01*
X84562801Y-86558953D01*
X84550386Y-86574959D01*
X84547241Y-86582228D01*
X84547238Y-86582232D01*
X84532826Y-86615537D01*
X84527609Y-86626187D01*
X84506305Y-86664940D01*
X84501469Y-86683777D01*
X84501267Y-86684562D01*
X84494863Y-86703266D01*
X84486819Y-86721855D01*
X84485580Y-86729678D01*
X84485577Y-86729688D01*
X84479901Y-86765524D01*
X84477495Y-86777144D01*
X84470275Y-86805267D01*
X84466500Y-86819970D01*
X84466500Y-86840224D01*
X84464949Y-86859934D01*
X84461780Y-86879943D01*
X84462526Y-86887835D01*
X84465941Y-86923961D01*
X84466500Y-86935819D01*
X84466500Y-87391567D01*
X84446498Y-87459688D01*
X84404322Y-87499000D01*
X84403295Y-87499385D01*
X84286739Y-87586739D01*
X84199385Y-87703295D01*
X84148255Y-87839684D01*
X84141500Y-87901866D01*
X84141500Y-88040500D01*
X84121498Y-88108621D01*
X84067842Y-88155114D01*
X84015500Y-88166500D01*
X82829569Y-88166500D01*
X82761448Y-88146498D01*
X82755508Y-88142436D01*
X82754789Y-88141913D01*
X82631615Y-88052422D01*
X82625587Y-88049738D01*
X82625585Y-88049737D01*
X82472783Y-87981705D01*
X82472781Y-87981705D01*
X82466752Y-87979020D01*
X82365385Y-87957474D01*
X82296689Y-87942872D01*
X82296685Y-87942872D01*
X82290232Y-87941500D01*
X82109768Y-87941500D01*
X82103315Y-87942872D01*
X82103311Y-87942872D01*
X82034615Y-87957474D01*
X81933248Y-87979020D01*
X81927219Y-87981704D01*
X81927217Y-87981705D01*
X81774416Y-88049737D01*
X81774414Y-88049738D01*
X81768386Y-88052422D01*
X81763045Y-88056302D01*
X81763044Y-88056303D01*
X81627731Y-88154613D01*
X81627729Y-88154615D01*
X81622387Y-88158496D01*
X81617966Y-88163406D01*
X81617965Y-88163407D01*
X81521626Y-88270403D01*
X81501633Y-88292607D01*
X81482759Y-88325298D01*
X81420564Y-88433023D01*
X81411401Y-88448893D01*
X81355635Y-88620525D01*
X81336771Y-88800000D01*
X77658500Y-88800000D01*
X77658500Y-88087941D01*
X77658999Y-88076740D01*
X77659150Y-88075050D01*
X77660640Y-88067885D01*
X77658546Y-87990479D01*
X77658500Y-87987072D01*
X77658500Y-86787063D01*
X77659933Y-86768114D01*
X77660894Y-86761795D01*
X77663198Y-86746651D01*
X77662139Y-86733621D01*
X77658915Y-86693991D01*
X77658500Y-86683777D01*
X77658500Y-86675707D01*
X77658078Y-86672087D01*
X77658077Y-86672069D01*
X77655208Y-86647461D01*
X77654775Y-86643086D01*
X77649454Y-86577661D01*
X77649453Y-86577658D01*
X77648860Y-86570363D01*
X77646604Y-86563399D01*
X77645413Y-86557440D01*
X77644029Y-86551585D01*
X77643182Y-86544319D01*
X77618265Y-86475673D01*
X77616848Y-86471545D01*
X77596607Y-86409064D01*
X77596606Y-86409062D01*
X77594351Y-86402101D01*
X77590555Y-86395846D01*
X77588049Y-86390372D01*
X77585330Y-86384942D01*
X77582833Y-86378063D01*
X77542809Y-86317016D01*
X77540472Y-86313312D01*
X77539713Y-86312060D01*
X77518975Y-86277885D01*
X77505509Y-86255693D01*
X77505505Y-86255688D01*
X77502595Y-86250892D01*
X77495197Y-86242516D01*
X77495223Y-86242493D01*
X77492574Y-86239503D01*
X77489866Y-86236264D01*
X77485856Y-86230148D01*
X77480549Y-86225121D01*
X77480546Y-86225117D01*
X77429617Y-86176872D01*
X77427175Y-86174494D01*
X75874079Y-84621398D01*
X75840053Y-84559086D01*
X75845118Y-84488271D01*
X75887665Y-84431435D01*
X75954185Y-84406624D01*
X75963160Y-84406303D01*
X102654492Y-84404832D01*
X102722614Y-84424830D01*
G37*
%TD.AperFunction*%
%TA.AperFunction,Conductor*%
G36*
X78203527Y-100203502D02*
G01*
X78224501Y-100220405D01*
X79829595Y-101825500D01*
X79863621Y-101887812D01*
X79866500Y-101914595D01*
X79866500Y-104131233D01*
X79865973Y-104142416D01*
X79864298Y-104149909D01*
X79864547Y-104157835D01*
X79864547Y-104157836D01*
X79866438Y-104217986D01*
X79866500Y-104221945D01*
X79866500Y-104249856D01*
X79866997Y-104253790D01*
X79866997Y-104253791D01*
X79867005Y-104253856D01*
X79867938Y-104265693D01*
X79869327Y-104309889D01*
X79874153Y-104326500D01*
X79874978Y-104329339D01*
X79878987Y-104348700D01*
X79881526Y-104368797D01*
X79884445Y-104376168D01*
X79884445Y-104376170D01*
X79897804Y-104409912D01*
X79901649Y-104421142D01*
X79909548Y-104448331D01*
X79913982Y-104463593D01*
X79918015Y-104470412D01*
X79918017Y-104470417D01*
X79924293Y-104481028D01*
X79932988Y-104498776D01*
X79940448Y-104517617D01*
X79945110Y-104524033D01*
X79945110Y-104524034D01*
X79966436Y-104553387D01*
X79972952Y-104563307D01*
X79988552Y-104589684D01*
X79995458Y-104601362D01*
X80009779Y-104615683D01*
X80022619Y-104630716D01*
X80034528Y-104647107D01*
X80058740Y-104667137D01*
X80068605Y-104675298D01*
X80077384Y-104683288D01*
X80746343Y-105352247D01*
X80753887Y-105360537D01*
X80758000Y-105367018D01*
X80763777Y-105372443D01*
X80807667Y-105413658D01*
X80810509Y-105416413D01*
X80830230Y-105436134D01*
X80833425Y-105438612D01*
X80842447Y-105446318D01*
X80874679Y-105476586D01*
X80881628Y-105480406D01*
X80892432Y-105486346D01*
X80908956Y-105497199D01*
X80924959Y-105509613D01*
X80965543Y-105527176D01*
X80976173Y-105532383D01*
X81014940Y-105553695D01*
X81022617Y-105555666D01*
X81022622Y-105555668D01*
X81034558Y-105558732D01*
X81053266Y-105565137D01*
X81071855Y-105573181D01*
X81079683Y-105574421D01*
X81079690Y-105574423D01*
X81115524Y-105580099D01*
X81127144Y-105582505D01*
X81162289Y-105591528D01*
X81169970Y-105593500D01*
X81190224Y-105593500D01*
X81209934Y-105595051D01*
X81229943Y-105598220D01*
X81237835Y-105597474D01*
X81273961Y-105594059D01*
X81285819Y-105593500D01*
X82721425Y-105593500D01*
X82789546Y-105613502D01*
X82836039Y-105667158D01*
X82846688Y-105705892D01*
X82848255Y-105720316D01*
X82899385Y-105856705D01*
X82913811Y-105875954D01*
X82920168Y-105884436D01*
X82945015Y-105950943D01*
X82929961Y-106020325D01*
X82920168Y-106035564D01*
X82899385Y-106063295D01*
X82848255Y-106199684D01*
X82841500Y-106261866D01*
X82841500Y-107658134D01*
X82848255Y-107720316D01*
X82899385Y-107856705D01*
X82909843Y-107870659D01*
X82920480Y-107884852D01*
X82945328Y-107951358D01*
X82930275Y-108020741D01*
X82920480Y-108035982D01*
X82905214Y-108056351D01*
X82896676Y-108071946D01*
X82851522Y-108192394D01*
X82847895Y-108207649D01*
X82842369Y-108258514D01*
X82842000Y-108265328D01*
X82842000Y-108687885D01*
X82846475Y-108703124D01*
X82847865Y-108704329D01*
X82855548Y-108706000D01*
X86839884Y-108706000D01*
X86855123Y-108701525D01*
X86856328Y-108700135D01*
X86857999Y-108692452D01*
X86857999Y-108265331D01*
X86857629Y-108258510D01*
X86852105Y-108207648D01*
X86848479Y-108192396D01*
X86803324Y-108071946D01*
X86794786Y-108056351D01*
X86779520Y-108035982D01*
X86754672Y-107969475D01*
X86769725Y-107900093D01*
X86779520Y-107884852D01*
X86790157Y-107870659D01*
X86800615Y-107856705D01*
X86851745Y-107720316D01*
X86858500Y-107658134D01*
X86858500Y-106261866D01*
X86851745Y-106199684D01*
X86800615Y-106063295D01*
X86779832Y-106035564D01*
X86754985Y-105969057D01*
X86770039Y-105899675D01*
X86779832Y-105884436D01*
X86786189Y-105875954D01*
X86800615Y-105856705D01*
X86851745Y-105720316D01*
X86858500Y-105658134D01*
X86858500Y-104261866D01*
X86851745Y-104199684D01*
X86800615Y-104063295D01*
X86779832Y-104035564D01*
X86754985Y-103969057D01*
X86770039Y-103899675D01*
X86779832Y-103884436D01*
X86795229Y-103863891D01*
X86800615Y-103856705D01*
X86851745Y-103720316D01*
X86853312Y-103705892D01*
X86880554Y-103640330D01*
X86938917Y-103599904D01*
X86978575Y-103593500D01*
X87331233Y-103593500D01*
X87342416Y-103594027D01*
X87349909Y-103595702D01*
X87357835Y-103595453D01*
X87357836Y-103595453D01*
X87417986Y-103593562D01*
X87421945Y-103593500D01*
X87449856Y-103593500D01*
X87453791Y-103593003D01*
X87453856Y-103592995D01*
X87465693Y-103592062D01*
X87497951Y-103591048D01*
X87501970Y-103590922D01*
X87509889Y-103590673D01*
X87529343Y-103585021D01*
X87548700Y-103581013D01*
X87560930Y-103579468D01*
X87560931Y-103579468D01*
X87568797Y-103578474D01*
X87576168Y-103575555D01*
X87576170Y-103575555D01*
X87609912Y-103562196D01*
X87621142Y-103558351D01*
X87655983Y-103548229D01*
X87655984Y-103548229D01*
X87663593Y-103546018D01*
X87670412Y-103541985D01*
X87670417Y-103541983D01*
X87681028Y-103535707D01*
X87698776Y-103527012D01*
X87717617Y-103519552D01*
X87753387Y-103493564D01*
X87763307Y-103487048D01*
X87794535Y-103468580D01*
X87794538Y-103468578D01*
X87801362Y-103464542D01*
X87815683Y-103450221D01*
X87830717Y-103437380D01*
X87834643Y-103434528D01*
X87847107Y-103425472D01*
X87875288Y-103391407D01*
X87883278Y-103382626D01*
X88252259Y-103013646D01*
X88260537Y-103006113D01*
X88267018Y-103002000D01*
X88313630Y-102952362D01*
X88316386Y-102949519D01*
X88331408Y-102934498D01*
X88393721Y-102900475D01*
X88464536Y-102905542D01*
X88521371Y-102948090D01*
X88546179Y-103014611D01*
X88546500Y-103023596D01*
X88546500Y-107882198D01*
X88526498Y-107950319D01*
X88514137Y-107966508D01*
X88481633Y-108002607D01*
X88478330Y-108008328D01*
X88395298Y-108152144D01*
X88391401Y-108158893D01*
X88389359Y-108165178D01*
X88347039Y-108295428D01*
X88335635Y-108330525D01*
X88316771Y-108510000D01*
X88335635Y-108689475D01*
X88337675Y-108695753D01*
X88337675Y-108695754D01*
X88339550Y-108701525D01*
X88391401Y-108861107D01*
X88394704Y-108866829D01*
X88394705Y-108866830D01*
X88418372Y-108907822D01*
X88481633Y-109017393D01*
X88486051Y-109022300D01*
X88486052Y-109022301D01*
X88540855Y-109083166D01*
X88602387Y-109151504D01*
X88607729Y-109155385D01*
X88607731Y-109155387D01*
X88711828Y-109231018D01*
X88748385Y-109257578D01*
X88754413Y-109260262D01*
X88754415Y-109260263D01*
X88904367Y-109327026D01*
X88913248Y-109330980D01*
X89001508Y-109349740D01*
X89083311Y-109367128D01*
X89083315Y-109367128D01*
X89089768Y-109368500D01*
X89270232Y-109368500D01*
X89276685Y-109367128D01*
X89276689Y-109367128D01*
X89440299Y-109332352D01*
X89440302Y-109332351D01*
X89446752Y-109330980D01*
X89452025Y-109328632D01*
X89522687Y-109326614D01*
X89583485Y-109363276D01*
X89614810Y-109426988D01*
X89606717Y-109497522D01*
X89579750Y-109537569D01*
X89412724Y-109704595D01*
X89350412Y-109738621D01*
X89323629Y-109741500D01*
X86984000Y-109741500D01*
X86915879Y-109721498D01*
X86869386Y-109667842D01*
X86858000Y-109615500D01*
X86858000Y-109232115D01*
X86853525Y-109216876D01*
X86852135Y-109215671D01*
X86844452Y-109214000D01*
X82860116Y-109214000D01*
X82844877Y-109218475D01*
X82843672Y-109219865D01*
X82842001Y-109227548D01*
X82842001Y-109654669D01*
X82842371Y-109661490D01*
X82847895Y-109712352D01*
X82851521Y-109727604D01*
X82896676Y-109848054D01*
X82905214Y-109863649D01*
X82981715Y-109965724D01*
X82994276Y-109978285D01*
X83096351Y-110054786D01*
X83111946Y-110063324D01*
X83232394Y-110108478D01*
X83247649Y-110112105D01*
X83298514Y-110117631D01*
X83305328Y-110118000D01*
X83585129Y-110118000D01*
X83653250Y-110138002D01*
X83699743Y-110191658D01*
X83709847Y-110261932D01*
X83680353Y-110326512D01*
X83674224Y-110333095D01*
X83611089Y-110396230D01*
X83596677Y-110408616D01*
X83585082Y-110417149D01*
X83585077Y-110417154D01*
X83579182Y-110421492D01*
X83574443Y-110427070D01*
X83574440Y-110427073D01*
X83544965Y-110461768D01*
X83538035Y-110469284D01*
X83532340Y-110474979D01*
X83530060Y-110477861D01*
X83514719Y-110497251D01*
X83511928Y-110500655D01*
X83475728Y-110543265D01*
X83464667Y-110556285D01*
X83461339Y-110562801D01*
X83457972Y-110567850D01*
X83454805Y-110572979D01*
X83450266Y-110578716D01*
X83429784Y-110622540D01*
X83419825Y-110643849D01*
X83372862Y-110697093D01*
X83305677Y-110716500D01*
X83201866Y-110716500D01*
X83139684Y-110723255D01*
X83003295Y-110774385D01*
X82886739Y-110861739D01*
X82799385Y-110978295D01*
X82793425Y-110994193D01*
X82750785Y-111050957D01*
X82684224Y-111075658D01*
X82614875Y-111060452D01*
X82593869Y-111045993D01*
X82563220Y-111019955D01*
X82555716Y-111013035D01*
X82550021Y-111007340D01*
X82543769Y-111002394D01*
X82527749Y-110989719D01*
X82524345Y-110986928D01*
X82474297Y-110944409D01*
X82474295Y-110944408D01*
X82468715Y-110939667D01*
X82462199Y-110936339D01*
X82457150Y-110932972D01*
X82452021Y-110929805D01*
X82446284Y-110925266D01*
X82380125Y-110894345D01*
X82376225Y-110892439D01*
X82355676Y-110881946D01*
X82311192Y-110859231D01*
X82304084Y-110857492D01*
X82298441Y-110855393D01*
X82292678Y-110853476D01*
X82286050Y-110850378D01*
X82214583Y-110835513D01*
X82210299Y-110834543D01*
X82198427Y-110831638D01*
X82139390Y-110817192D01*
X82133788Y-110816844D01*
X82133785Y-110816844D01*
X82128236Y-110816500D01*
X82128238Y-110816464D01*
X82124245Y-110816225D01*
X82120053Y-110815851D01*
X82112885Y-110814360D01*
X82046675Y-110816151D01*
X82035479Y-110816454D01*
X82032072Y-110816500D01*
X78415939Y-110816500D01*
X78347818Y-110796498D01*
X78310147Y-110758941D01*
X78305473Y-110751715D01*
X78300014Y-110743277D01*
X78149670Y-110578051D01*
X78145619Y-110574852D01*
X78145614Y-110574847D01*
X78034537Y-110487122D01*
X77993475Y-110429205D01*
X77990244Y-110358282D01*
X78023535Y-110299146D01*
X78988911Y-109333770D01*
X79003323Y-109321384D01*
X79014918Y-109312851D01*
X79014923Y-109312846D01*
X79020818Y-109308508D01*
X79025557Y-109302930D01*
X79025560Y-109302927D01*
X79055035Y-109268232D01*
X79061965Y-109260716D01*
X79067660Y-109255021D01*
X79085281Y-109232749D01*
X79088072Y-109229345D01*
X79130591Y-109179297D01*
X79130592Y-109179295D01*
X79135333Y-109173715D01*
X79138661Y-109167199D01*
X79142028Y-109162150D01*
X79145195Y-109157021D01*
X79149734Y-109151284D01*
X79180655Y-109085125D01*
X79182561Y-109081225D01*
X79201290Y-109044547D01*
X79215769Y-109016192D01*
X79217508Y-109009084D01*
X79219607Y-109003441D01*
X79221524Y-108997678D01*
X79224622Y-108991050D01*
X79239487Y-108919583D01*
X79240457Y-108915299D01*
X79256473Y-108849845D01*
X79257808Y-108844390D01*
X79258333Y-108835936D01*
X79258500Y-108833236D01*
X79258536Y-108833238D01*
X79258775Y-108829245D01*
X79259149Y-108825053D01*
X79260640Y-108817885D01*
X79258546Y-108740479D01*
X79258500Y-108737072D01*
X79258500Y-107508595D01*
X79278502Y-107440474D01*
X79332158Y-107393981D01*
X79402432Y-107383877D01*
X79467012Y-107413371D01*
X79473595Y-107419500D01*
X79616348Y-107562253D01*
X79623888Y-107570539D01*
X79628000Y-107577018D01*
X79633777Y-107582443D01*
X79677651Y-107623643D01*
X79680493Y-107626398D01*
X79700230Y-107646135D01*
X79703427Y-107648615D01*
X79712447Y-107656318D01*
X79744679Y-107686586D01*
X79751625Y-107690405D01*
X79751628Y-107690407D01*
X79762434Y-107696348D01*
X79778953Y-107707199D01*
X79794959Y-107719614D01*
X79802228Y-107722759D01*
X79802232Y-107722762D01*
X79835537Y-107737174D01*
X79846187Y-107742391D01*
X79884940Y-107763695D01*
X79904126Y-107768621D01*
X79904562Y-107768733D01*
X79923266Y-107775137D01*
X79928942Y-107777593D01*
X79941855Y-107783181D01*
X79949678Y-107784420D01*
X79949688Y-107784423D01*
X79985524Y-107790099D01*
X79997144Y-107792505D01*
X80022174Y-107798931D01*
X80039970Y-107803500D01*
X80060224Y-107803500D01*
X80079934Y-107805051D01*
X80099943Y-107808220D01*
X80107835Y-107807474D01*
X80143961Y-107804059D01*
X80155819Y-107803500D01*
X80520431Y-107803500D01*
X80588552Y-107823502D01*
X80594486Y-107827560D01*
X80642534Y-107862469D01*
X80703314Y-107906628D01*
X80718385Y-107917578D01*
X80724413Y-107920262D01*
X80724415Y-107920263D01*
X80877217Y-107988295D01*
X80883248Y-107990980D01*
X80955846Y-108006411D01*
X81053311Y-108027128D01*
X81053315Y-108027128D01*
X81059768Y-108028500D01*
X81240232Y-108028500D01*
X81246685Y-108027128D01*
X81246689Y-108027128D01*
X81344154Y-108006411D01*
X81416752Y-107990980D01*
X81422783Y-107988295D01*
X81575585Y-107920263D01*
X81575587Y-107920262D01*
X81581615Y-107917578D01*
X81586957Y-107913697D01*
X81722269Y-107815387D01*
X81722271Y-107815385D01*
X81727613Y-107811504D01*
X81734820Y-107803500D01*
X81843948Y-107682301D01*
X81843949Y-107682300D01*
X81848367Y-107677393D01*
X81922300Y-107549338D01*
X81935295Y-107526830D01*
X81935296Y-107526829D01*
X81938599Y-107521107D01*
X81967120Y-107433327D01*
X81992325Y-107355754D01*
X81992325Y-107355753D01*
X81994365Y-107349475D01*
X82013229Y-107170000D01*
X81994365Y-106990525D01*
X81972215Y-106922352D01*
X81940641Y-106825178D01*
X81938599Y-106818893D01*
X81928306Y-106801064D01*
X81889003Y-106732990D01*
X81848367Y-106662607D01*
X81835571Y-106648395D01*
X81732035Y-106533407D01*
X81732034Y-106533406D01*
X81727613Y-106528496D01*
X81720484Y-106523316D01*
X81586957Y-106426303D01*
X81586956Y-106426302D01*
X81581615Y-106422422D01*
X81575587Y-106419738D01*
X81575585Y-106419737D01*
X81422783Y-106351705D01*
X81422781Y-106351705D01*
X81416752Y-106349020D01*
X81322616Y-106329011D01*
X81246689Y-106312872D01*
X81246685Y-106312872D01*
X81240232Y-106311500D01*
X81059768Y-106311500D01*
X81053315Y-106312872D01*
X81053311Y-106312872D01*
X80977384Y-106329011D01*
X80883248Y-106349020D01*
X80877219Y-106351704D01*
X80877217Y-106351705D01*
X80724416Y-106419737D01*
X80724414Y-106419738D01*
X80718386Y-106422422D01*
X80713045Y-106426302D01*
X80713044Y-106426303D01*
X80594492Y-106512436D01*
X80520431Y-106536500D01*
X80434594Y-106536500D01*
X80366473Y-106516498D01*
X80345499Y-106499595D01*
X79828835Y-105982930D01*
X79279770Y-105433865D01*
X79279766Y-105433862D01*
X79270405Y-105424501D01*
X79236379Y-105362189D01*
X79233500Y-105335406D01*
X79233500Y-104651866D01*
X79226745Y-104589684D01*
X79175615Y-104453295D01*
X79088261Y-104336739D01*
X78971705Y-104249385D01*
X78835316Y-104198255D01*
X78773134Y-104191500D01*
X78226866Y-104191500D01*
X78164684Y-104198255D01*
X78028295Y-104249385D01*
X77911739Y-104336739D01*
X77824385Y-104453295D01*
X77773255Y-104589684D01*
X77766500Y-104651866D01*
X77766500Y-105348134D01*
X77773255Y-105410316D01*
X77824385Y-105546705D01*
X77829770Y-105553890D01*
X77829771Y-105553892D01*
X77844047Y-105572940D01*
X77865631Y-105634484D01*
X77867837Y-105634135D01*
X77869078Y-105641969D01*
X77869327Y-105649889D01*
X77874978Y-105669339D01*
X77878987Y-105688700D01*
X77880274Y-105698883D01*
X77881526Y-105708797D01*
X77884445Y-105716168D01*
X77884445Y-105716170D01*
X77897804Y-105749912D01*
X77901649Y-105761142D01*
X77910715Y-105792349D01*
X77913982Y-105803593D01*
X77918015Y-105810412D01*
X77918017Y-105810417D01*
X77924293Y-105821028D01*
X77932988Y-105838776D01*
X77940448Y-105857617D01*
X77945110Y-105864033D01*
X77945110Y-105864034D01*
X77966436Y-105893387D01*
X77972952Y-105903307D01*
X77995458Y-105941362D01*
X78001064Y-105946969D01*
X78009780Y-105955685D01*
X78022620Y-105970718D01*
X78034528Y-105987107D01*
X78040635Y-105992159D01*
X78068593Y-106015288D01*
X78077373Y-106023278D01*
X78162799Y-106108704D01*
X78196825Y-106171016D01*
X78191760Y-106241831D01*
X78149213Y-106298667D01*
X78117935Y-106315780D01*
X78070715Y-106333482D01*
X78026487Y-106341500D01*
X74946371Y-106341500D01*
X74878250Y-106321498D01*
X74857276Y-106304595D01*
X74325405Y-105772724D01*
X74291379Y-105710412D01*
X74288500Y-105683629D01*
X74288500Y-104483486D01*
X74293504Y-104448331D01*
X74298242Y-104432024D01*
X74331046Y-104378702D01*
X74330818Y-104378508D01*
X74332077Y-104377026D01*
X74345301Y-104361461D01*
X74365035Y-104338232D01*
X74371965Y-104330716D01*
X74377661Y-104325020D01*
X74379924Y-104322159D01*
X74379929Y-104322154D01*
X74395293Y-104302734D01*
X74398082Y-104299333D01*
X74416440Y-104277724D01*
X74445333Y-104243715D01*
X74448659Y-104237202D01*
X74452020Y-104232163D01*
X74455196Y-104227021D01*
X74459734Y-104221284D01*
X74490655Y-104155125D01*
X74492561Y-104151225D01*
X74493233Y-104149909D01*
X74525769Y-104086192D01*
X74527508Y-104079083D01*
X74529604Y-104073449D01*
X74531523Y-104067679D01*
X74534622Y-104061050D01*
X74539924Y-104035564D01*
X74549490Y-103989571D01*
X74550461Y-103985282D01*
X74567808Y-103914390D01*
X74568500Y-103903236D01*
X74568535Y-103903238D01*
X74568775Y-103899266D01*
X74569152Y-103895045D01*
X74570641Y-103887885D01*
X74568546Y-103810458D01*
X74568500Y-103807050D01*
X74568500Y-101187070D01*
X74569933Y-101168120D01*
X74572099Y-101153885D01*
X74572099Y-101153881D01*
X74573199Y-101146651D01*
X74572039Y-101132383D01*
X74568915Y-101093982D01*
X74568500Y-101083767D01*
X74568500Y-101075707D01*
X74567674Y-101068616D01*
X74565211Y-101047497D01*
X74564778Y-101043121D01*
X74564560Y-101040443D01*
X74558860Y-100970364D01*
X74556605Y-100963403D01*
X74555418Y-100957463D01*
X74554029Y-100951588D01*
X74553182Y-100944319D01*
X74550367Y-100936564D01*
X74528925Y-100877491D01*
X74524484Y-100806633D01*
X74559057Y-100744623D01*
X74621667Y-100711148D01*
X74647364Y-100708500D01*
X75414279Y-100708500D01*
X75482400Y-100728502D01*
X75528893Y-100782158D01*
X75534110Y-100795560D01*
X75547460Y-100836646D01*
X75578714Y-100932836D01*
X75581401Y-100941107D01*
X75584704Y-100946829D01*
X75584705Y-100946830D01*
X75608684Y-100988363D01*
X75671633Y-101097393D01*
X75676051Y-101102300D01*
X75676052Y-101102301D01*
X75787965Y-101226593D01*
X75792387Y-101231504D01*
X75797729Y-101235385D01*
X75797731Y-101235387D01*
X75898741Y-101308775D01*
X75938385Y-101337578D01*
X75944413Y-101340262D01*
X75944415Y-101340263D01*
X76097217Y-101408295D01*
X76103248Y-101410980D01*
X76191508Y-101429740D01*
X76273311Y-101447128D01*
X76273315Y-101447128D01*
X76279768Y-101448500D01*
X76460232Y-101448500D01*
X76466685Y-101447128D01*
X76466689Y-101447128D01*
X76548492Y-101429740D01*
X76636752Y-101410980D01*
X76642783Y-101408295D01*
X76795585Y-101340263D01*
X76795587Y-101340262D01*
X76801615Y-101337578D01*
X76841259Y-101308775D01*
X76942269Y-101235387D01*
X76942271Y-101235385D01*
X76947613Y-101231504D01*
X76952035Y-101226593D01*
X77063948Y-101102301D01*
X77063949Y-101102300D01*
X77068367Y-101097393D01*
X77131316Y-100988363D01*
X77155295Y-100946830D01*
X77155296Y-100946829D01*
X77158599Y-100941107D01*
X77197005Y-100822903D01*
X77212325Y-100775754D01*
X77212325Y-100775753D01*
X77214365Y-100769475D01*
X77215135Y-100762154D01*
X77232539Y-100596565D01*
X77233229Y-100590000D01*
X77222396Y-100486929D01*
X77215055Y-100417089D01*
X77215055Y-100417088D01*
X77214365Y-100410525D01*
X77194191Y-100348435D01*
X77192163Y-100277469D01*
X77228826Y-100216671D01*
X77292538Y-100185345D01*
X77314024Y-100183500D01*
X78135406Y-100183500D01*
X78203527Y-100203502D01*
G37*
%TD.AperFunction*%
%TA.AperFunction,Conductor*%
G36*
X59534451Y-94653502D02*
G01*
X59580944Y-94707158D01*
X59591640Y-94746329D01*
X59602342Y-94848146D01*
X59605635Y-94879475D01*
X59607675Y-94885753D01*
X59607675Y-94885754D01*
X59636663Y-94974969D01*
X59661401Y-95051107D01*
X59664704Y-95056829D01*
X59664705Y-95056830D01*
X59679469Y-95082401D01*
X59751633Y-95207393D01*
X59756051Y-95212300D01*
X59756052Y-95212301D01*
X59841434Y-95307127D01*
X59872387Y-95341504D01*
X59877729Y-95345385D01*
X59877731Y-95345387D01*
X60001155Y-95435060D01*
X60018385Y-95447578D01*
X60024413Y-95450262D01*
X60024415Y-95450263D01*
X60177217Y-95518295D01*
X60183248Y-95520980D01*
X60260316Y-95537361D01*
X60353311Y-95557128D01*
X60353315Y-95557128D01*
X60359768Y-95558500D01*
X60377618Y-95558500D01*
X60438327Y-95574090D01*
X60442439Y-95576351D01*
X60458953Y-95587199D01*
X60474959Y-95599614D01*
X60482228Y-95602759D01*
X60482232Y-95602762D01*
X60515537Y-95617174D01*
X60526187Y-95622391D01*
X60564940Y-95643695D01*
X60572615Y-95645666D01*
X60572616Y-95645666D01*
X60584562Y-95648733D01*
X60603267Y-95655137D01*
X60621855Y-95663181D01*
X60629678Y-95664420D01*
X60629688Y-95664423D01*
X60665524Y-95670099D01*
X60677144Y-95672505D01*
X60712289Y-95681528D01*
X60719970Y-95683500D01*
X60740224Y-95683500D01*
X60759934Y-95685051D01*
X60779943Y-95688220D01*
X60787835Y-95687474D01*
X60823961Y-95684059D01*
X60835819Y-95683500D01*
X62131166Y-95683500D01*
X62199287Y-95703502D01*
X62245780Y-95757158D01*
X62256088Y-95825946D01*
X62246382Y-95899675D01*
X62241500Y-95936756D01*
X62241500Y-96163244D01*
X62242038Y-96167330D01*
X62242038Y-96167331D01*
X62256519Y-96277324D01*
X62254974Y-96277527D01*
X62254974Y-96322473D01*
X62256519Y-96322676D01*
X62247959Y-96387699D01*
X62241500Y-96436756D01*
X62241500Y-96663244D01*
X62242038Y-96667330D01*
X62242038Y-96667331D01*
X62256519Y-96777324D01*
X62254974Y-96777527D01*
X62254974Y-96822473D01*
X62256519Y-96822676D01*
X62242491Y-96929232D01*
X62241500Y-96936756D01*
X62241500Y-97163244D01*
X62242038Y-97167330D01*
X62242038Y-97167331D01*
X62256519Y-97277324D01*
X62254974Y-97277527D01*
X62254974Y-97322473D01*
X62256519Y-97322676D01*
X62246119Y-97401675D01*
X62241500Y-97436756D01*
X62241500Y-97663244D01*
X62242038Y-97667330D01*
X62242038Y-97667331D01*
X62256519Y-97777324D01*
X62254974Y-97777527D01*
X62254974Y-97822473D01*
X62256519Y-97822676D01*
X62241500Y-97936756D01*
X62241500Y-98163244D01*
X62242038Y-98167330D01*
X62242038Y-98167331D01*
X62256519Y-98277324D01*
X62254974Y-98277527D01*
X62254974Y-98322473D01*
X62256519Y-98322676D01*
X62241500Y-98436756D01*
X62241500Y-98544244D01*
X62221498Y-98612365D01*
X62167842Y-98658858D01*
X62097568Y-98668962D01*
X62051361Y-98652698D01*
X61936220Y-98584604D01*
X61921784Y-98578357D01*
X61778359Y-98536688D01*
X61770391Y-98535232D01*
X61756969Y-98538052D01*
X61754000Y-98549513D01*
X61754000Y-99365500D01*
X61733998Y-99433621D01*
X61680342Y-99480114D01*
X61628000Y-99491500D01*
X61372000Y-99491500D01*
X61303879Y-99471498D01*
X61257386Y-99417842D01*
X61246000Y-99365500D01*
X61246000Y-98551576D01*
X61241656Y-98536781D01*
X61231225Y-98534937D01*
X61221641Y-98536688D01*
X61078216Y-98578357D01*
X61063780Y-98584604D01*
X60936501Y-98659876D01*
X60924074Y-98669516D01*
X60823595Y-98769995D01*
X60761283Y-98804021D01*
X60690468Y-98798956D01*
X60633632Y-98756409D01*
X60608821Y-98689889D01*
X60608500Y-98680900D01*
X60608500Y-98217069D01*
X60609933Y-98198118D01*
X60612099Y-98183883D01*
X60612099Y-98183881D01*
X60613199Y-98176651D01*
X60612109Y-98163244D01*
X60608915Y-98123982D01*
X60608500Y-98113767D01*
X60608500Y-98105707D01*
X60606470Y-98088297D01*
X60605211Y-98077493D01*
X60604778Y-98073118D01*
X60599454Y-98007661D01*
X60599453Y-98007658D01*
X60598860Y-98000363D01*
X60596604Y-97993399D01*
X60595413Y-97987440D01*
X60594029Y-97981585D01*
X60593182Y-97974319D01*
X60568265Y-97905673D01*
X60566848Y-97901545D01*
X60546607Y-97839064D01*
X60546606Y-97839062D01*
X60544351Y-97832101D01*
X60540555Y-97825846D01*
X60538049Y-97820372D01*
X60535330Y-97814942D01*
X60532833Y-97808063D01*
X60512813Y-97777527D01*
X60492814Y-97747024D01*
X60490467Y-97743305D01*
X60481007Y-97727715D01*
X60452595Y-97680893D01*
X60445197Y-97672516D01*
X60445224Y-97672492D01*
X60442571Y-97669500D01*
X60439868Y-97666267D01*
X60435856Y-97660148D01*
X60379617Y-97606872D01*
X60377175Y-97604494D01*
X59833770Y-97061089D01*
X59821384Y-97046677D01*
X59812851Y-97035082D01*
X59812846Y-97035077D01*
X59808508Y-97029182D01*
X59802930Y-97024443D01*
X59802927Y-97024440D01*
X59768232Y-96994965D01*
X59760716Y-96988035D01*
X59755021Y-96982340D01*
X59748880Y-96977482D01*
X59732749Y-96964719D01*
X59729345Y-96961928D01*
X59679297Y-96919409D01*
X59679295Y-96919408D01*
X59673715Y-96914667D01*
X59667199Y-96911339D01*
X59662150Y-96907972D01*
X59657021Y-96904805D01*
X59651284Y-96900266D01*
X59585125Y-96869345D01*
X59581225Y-96867439D01*
X59516192Y-96834231D01*
X59509084Y-96832492D01*
X59503441Y-96830393D01*
X59497678Y-96828476D01*
X59491050Y-96825378D01*
X59419583Y-96810513D01*
X59415299Y-96809543D01*
X59344390Y-96792192D01*
X59338788Y-96791844D01*
X59338785Y-96791844D01*
X59333236Y-96791500D01*
X59333238Y-96791464D01*
X59329245Y-96791225D01*
X59325053Y-96790851D01*
X59317885Y-96789360D01*
X59251675Y-96791151D01*
X59240479Y-96791454D01*
X59237072Y-96791500D01*
X58884500Y-96791500D01*
X58816379Y-96771498D01*
X58769886Y-96717842D01*
X58758500Y-96665500D01*
X58758500Y-95054219D01*
X58778502Y-94986098D01*
X58832158Y-94939605D01*
X58844618Y-94934697D01*
X58973946Y-94891550D01*
X59124348Y-94798478D01*
X59249305Y-94673303D01*
X59250945Y-94674941D01*
X59299744Y-94640344D01*
X59340706Y-94633500D01*
X59466330Y-94633500D01*
X59534451Y-94653502D01*
G37*
%TD.AperFunction*%
%TA.AperFunction,Conductor*%
G36*
X82760033Y-95240037D02*
G01*
X82816869Y-95282584D01*
X82841680Y-95349104D01*
X82842001Y-95358093D01*
X82842001Y-95654669D01*
X82842371Y-95661490D01*
X82847895Y-95712352D01*
X82851521Y-95727604D01*
X82896676Y-95848054D01*
X82905214Y-95863649D01*
X82920480Y-95884018D01*
X82945328Y-95950525D01*
X82930275Y-96019907D01*
X82920480Y-96035148D01*
X82899385Y-96063295D01*
X82848255Y-96199684D01*
X82847402Y-96207540D01*
X82846688Y-96214108D01*
X82819446Y-96279670D01*
X82761083Y-96320096D01*
X82721425Y-96326500D01*
X81873594Y-96326500D01*
X81805473Y-96306498D01*
X81758980Y-96252842D01*
X81748876Y-96182568D01*
X81778370Y-96117988D01*
X81784499Y-96111405D01*
X82626906Y-95268998D01*
X82689218Y-95234972D01*
X82760033Y-95240037D01*
G37*
%TD.AperFunction*%
%TA.AperFunction,Conductor*%
G36*
X65103527Y-93203502D02*
G01*
X65124501Y-93220405D01*
X65279595Y-93375499D01*
X65313621Y-93437811D01*
X65316500Y-93464594D01*
X65316500Y-94790500D01*
X65296498Y-94858621D01*
X65242842Y-94905114D01*
X65190500Y-94916500D01*
X64918834Y-94916500D01*
X64850713Y-94896498D01*
X64804220Y-94842842D01*
X64793912Y-94774054D01*
X64807962Y-94667331D01*
X64807962Y-94667330D01*
X64808500Y-94663244D01*
X64808500Y-94436756D01*
X64793481Y-94322676D01*
X64795026Y-94322473D01*
X64795026Y-94277527D01*
X64793481Y-94277324D01*
X64807962Y-94167331D01*
X64807962Y-94167330D01*
X64808500Y-94163244D01*
X64808500Y-93936756D01*
X64806568Y-93922077D01*
X64793481Y-93822676D01*
X64795026Y-93822473D01*
X64795026Y-93777527D01*
X64793481Y-93777324D01*
X64807962Y-93667331D01*
X64807962Y-93667330D01*
X64808500Y-93663244D01*
X64808500Y-93436756D01*
X64801242Y-93381628D01*
X64793912Y-93325946D01*
X64804852Y-93255797D01*
X64851980Y-93202699D01*
X64918834Y-93183500D01*
X65035406Y-93183500D01*
X65103527Y-93203502D01*
G37*
%TD.AperFunction*%
%TA.AperFunction,Conductor*%
G36*
X64814139Y-88322968D02*
G01*
X64824900Y-88329332D01*
X64832511Y-88331543D01*
X64832513Y-88331544D01*
X64843607Y-88334767D01*
X64984063Y-88375573D01*
X64990468Y-88376077D01*
X64990473Y-88376078D01*
X65018797Y-88378307D01*
X65018805Y-88378307D01*
X65021253Y-88378500D01*
X65234870Y-88378500D01*
X65448746Y-88378499D01*
X65485937Y-88375573D01*
X65626393Y-88334767D01*
X65637487Y-88331544D01*
X65637489Y-88331543D01*
X65645100Y-88329332D01*
X65651922Y-88325297D01*
X65655461Y-88323766D01*
X65725923Y-88315070D01*
X65789901Y-88345849D01*
X65827082Y-88406331D01*
X65831500Y-88439404D01*
X65831500Y-88885484D01*
X65834394Y-88922254D01*
X65847082Y-88965926D01*
X65876069Y-89065700D01*
X65880106Y-89079597D01*
X65884141Y-89086420D01*
X65884142Y-89086422D01*
X65923587Y-89153119D01*
X65941047Y-89221935D01*
X65918531Y-89289267D01*
X65863187Y-89333736D01*
X65831581Y-89342181D01*
X65771045Y-89350151D01*
X65722677Y-89356519D01*
X65722474Y-89354974D01*
X65677527Y-89354974D01*
X65677324Y-89356519D01*
X65567331Y-89342038D01*
X65567330Y-89342038D01*
X65563244Y-89341500D01*
X65336756Y-89341500D01*
X65332670Y-89342038D01*
X65332669Y-89342038D01*
X65331583Y-89342181D01*
X65222676Y-89356519D01*
X65215049Y-89359678D01*
X65215046Y-89359679D01*
X65179647Y-89374342D01*
X65080732Y-89415314D01*
X64958843Y-89508843D01*
X64953817Y-89515393D01*
X64953816Y-89515394D01*
X64950261Y-89520027D01*
X64865314Y-89630733D01*
X64806519Y-89772676D01*
X64805441Y-89780865D01*
X64795995Y-89852617D01*
X64791500Y-89886756D01*
X64791500Y-91363244D01*
X64806519Y-91477324D01*
X64809678Y-91484951D01*
X64809679Y-91484954D01*
X64822364Y-91515577D01*
X64865314Y-91619268D01*
X64910205Y-91677771D01*
X64937848Y-91713796D01*
X64963449Y-91780016D01*
X64949184Y-91849565D01*
X64899583Y-91900361D01*
X64837886Y-91916500D01*
X64426485Y-91916500D01*
X64393440Y-91909930D01*
X64392934Y-91911817D01*
X64384949Y-91909678D01*
X64377324Y-91906519D01*
X64369140Y-91905442D01*
X64369138Y-91905441D01*
X64267331Y-91892038D01*
X64267330Y-91892038D01*
X64263244Y-91891500D01*
X62786756Y-91891500D01*
X62782670Y-91892038D01*
X62782669Y-91892038D01*
X62743847Y-91897149D01*
X62672676Y-91906519D01*
X62665049Y-91909678D01*
X62665046Y-91909679D01*
X62622308Y-91927382D01*
X62530732Y-91965314D01*
X62408843Y-92058843D01*
X62403817Y-92065393D01*
X62403813Y-92065397D01*
X62325421Y-92167561D01*
X62268083Y-92209429D01*
X62197212Y-92213651D01*
X62136363Y-92179953D01*
X62075926Y-92119516D01*
X62063499Y-92109876D01*
X61936220Y-92034604D01*
X61921784Y-92028357D01*
X61778359Y-91986688D01*
X61770391Y-91985232D01*
X61756969Y-91988052D01*
X61754000Y-91999513D01*
X61754000Y-92815500D01*
X61733998Y-92883621D01*
X61680342Y-92930114D01*
X61628000Y-92941500D01*
X61372000Y-92941500D01*
X61303879Y-92921498D01*
X61257386Y-92867842D01*
X61246000Y-92815500D01*
X61246000Y-92001576D01*
X61241656Y-91986781D01*
X61231225Y-91984937D01*
X61221641Y-91986688D01*
X61078216Y-92028357D01*
X61063780Y-92034604D01*
X60968639Y-92090870D01*
X60899823Y-92108329D01*
X60832491Y-92085812D01*
X60788022Y-92030468D01*
X60778500Y-91982416D01*
X60778500Y-90296371D01*
X60798502Y-90228250D01*
X60815405Y-90207276D01*
X62677276Y-88345405D01*
X62739588Y-88311379D01*
X62766371Y-88308500D01*
X63785205Y-88308500D01*
X63840196Y-88323544D01*
X63840800Y-88322148D01*
X63848078Y-88325297D01*
X63854900Y-88329332D01*
X63862511Y-88331543D01*
X63862513Y-88331544D01*
X63873607Y-88334767D01*
X64014063Y-88375573D01*
X64020468Y-88376077D01*
X64020473Y-88376078D01*
X64048797Y-88378307D01*
X64048805Y-88378307D01*
X64051253Y-88378500D01*
X64264870Y-88378500D01*
X64478746Y-88378499D01*
X64515937Y-88375573D01*
X64656393Y-88334767D01*
X64667487Y-88331544D01*
X64667489Y-88331543D01*
X64675100Y-88329332D01*
X64685860Y-88322968D01*
X64754674Y-88305508D01*
X64814139Y-88322968D01*
G37*
%TD.AperFunction*%
%TA.AperFunction,Conductor*%
G36*
X67776121Y-88416002D02*
G01*
X67822614Y-88469658D01*
X67834000Y-88522000D01*
X67834000Y-89231364D01*
X67813998Y-89299485D01*
X67760342Y-89345978D01*
X67738553Y-89352235D01*
X67738840Y-89353304D01*
X67730864Y-89355441D01*
X67722676Y-89356519D01*
X67715049Y-89359678D01*
X67715046Y-89359679D01*
X67679647Y-89374342D01*
X67609057Y-89381931D01*
X67545570Y-89350151D01*
X67514278Y-89304320D01*
X67509552Y-89292383D01*
X67483571Y-89256623D01*
X67477053Y-89246701D01*
X67458578Y-89215460D01*
X67458574Y-89215455D01*
X67454542Y-89208637D01*
X67440218Y-89194313D01*
X67427376Y-89179278D01*
X67415472Y-89162893D01*
X67409363Y-89157839D01*
X67403937Y-89152061D01*
X67406366Y-89149780D01*
X67375175Y-89103567D01*
X67374244Y-89030203D01*
X67380463Y-89008797D01*
X67405606Y-88922254D01*
X67408500Y-88885484D01*
X67408500Y-88522000D01*
X67428502Y-88453879D01*
X67482158Y-88407386D01*
X67534500Y-88396000D01*
X67708000Y-88396000D01*
X67776121Y-88416002D01*
G37*
%TD.AperFunction*%
%TA.AperFunction,Conductor*%
G36*
X74731750Y-85628502D02*
G01*
X74752724Y-85645405D01*
X75846735Y-86739416D01*
X75880761Y-86801728D01*
X75875696Y-86872543D01*
X75833149Y-86929379D01*
X75766629Y-86954190D01*
X75722487Y-86949508D01*
X75678359Y-86936688D01*
X75670391Y-86935232D01*
X75656969Y-86938052D01*
X75654000Y-86949513D01*
X75654000Y-87765500D01*
X75633998Y-87833621D01*
X75580342Y-87880114D01*
X75528000Y-87891500D01*
X75164516Y-87891500D01*
X75162068Y-87891693D01*
X75162060Y-87891693D01*
X75134156Y-87893889D01*
X75134151Y-87893890D01*
X75127746Y-87894394D01*
X75121574Y-87896187D01*
X75121569Y-87896188D01*
X75051667Y-87916497D01*
X75016514Y-87921500D01*
X74167907Y-87921500D01*
X74132754Y-87916497D01*
X74022254Y-87884394D01*
X74015849Y-87883890D01*
X74015844Y-87883889D01*
X73987940Y-87881693D01*
X73987932Y-87881693D01*
X73985484Y-87881500D01*
X73574516Y-87881500D01*
X73572068Y-87881693D01*
X73572060Y-87881693D01*
X73544156Y-87883889D01*
X73544151Y-87883890D01*
X73537746Y-87884394D01*
X73465680Y-87905331D01*
X73388016Y-87927894D01*
X73388014Y-87927895D01*
X73380403Y-87930106D01*
X73373576Y-87934143D01*
X73373577Y-87934143D01*
X73363647Y-87940015D01*
X73294830Y-87957474D01*
X73235372Y-87940016D01*
X73226222Y-87934605D01*
X73211784Y-87928357D01*
X73091395Y-87893381D01*
X73077295Y-87893421D01*
X73074000Y-87900691D01*
X73074000Y-88178621D01*
X73056454Y-88242760D01*
X73040106Y-88270403D01*
X72994394Y-88427746D01*
X72993890Y-88434151D01*
X72993889Y-88434156D01*
X72992337Y-88453879D01*
X72991500Y-88464516D01*
X72991500Y-88828000D01*
X72971498Y-88896121D01*
X72917842Y-88942614D01*
X72865500Y-88954000D01*
X72692000Y-88954000D01*
X72623879Y-88933998D01*
X72577386Y-88880342D01*
X72566000Y-88828000D01*
X72566000Y-87906442D01*
X72562027Y-87892911D01*
X72554129Y-87891776D01*
X72519653Y-87901792D01*
X72448656Y-87901589D01*
X72389040Y-87863035D01*
X72359732Y-87798370D01*
X72358500Y-87780795D01*
X72358500Y-87626000D01*
X72378502Y-87557879D01*
X72432158Y-87511386D01*
X72484500Y-87500000D01*
X73800000Y-87500000D01*
X73800000Y-87448605D01*
X74593381Y-87448605D01*
X74593421Y-87462705D01*
X74600691Y-87466000D01*
X75127885Y-87466000D01*
X75143124Y-87461525D01*
X75144329Y-87460135D01*
X75146000Y-87452452D01*
X75146000Y-86951576D01*
X75141656Y-86936781D01*
X75131225Y-86934937D01*
X75121641Y-86936688D01*
X74978216Y-86978357D01*
X74963780Y-86984604D01*
X74836501Y-87059876D01*
X74824074Y-87069516D01*
X74719516Y-87174074D01*
X74709876Y-87186501D01*
X74634604Y-87313780D01*
X74628357Y-87328216D01*
X74593381Y-87448605D01*
X73800000Y-87448605D01*
X73800000Y-85734500D01*
X73820002Y-85666379D01*
X73873658Y-85619886D01*
X73926000Y-85608500D01*
X74663629Y-85608500D01*
X74731750Y-85628502D01*
G37*
%TD.AperFunction*%
%TA.AperFunction,Conductor*%
G36*
X65651209Y-85975638D02*
G01*
X65708045Y-86018185D01*
X65732856Y-86084705D01*
X65728174Y-86128847D01*
X65693381Y-86248605D01*
X65693421Y-86262705D01*
X65700691Y-86266000D01*
X66628000Y-86266000D01*
X66696121Y-86286002D01*
X66742614Y-86339658D01*
X66754000Y-86392000D01*
X66754000Y-86565500D01*
X66733998Y-86633621D01*
X66680342Y-86680114D01*
X66628000Y-86691500D01*
X66264516Y-86691500D01*
X66262068Y-86691693D01*
X66262060Y-86691693D01*
X66234156Y-86693889D01*
X66234151Y-86693890D01*
X66227746Y-86694394D01*
X66133224Y-86721855D01*
X66078016Y-86737894D01*
X66078014Y-86737895D01*
X66070403Y-86740106D01*
X66063581Y-86744141D01*
X66063580Y-86744141D01*
X66042760Y-86756454D01*
X65978621Y-86774000D01*
X65688327Y-86774000D01*
X65688327Y-86770984D01*
X65645718Y-86770984D01*
X65645502Y-86770906D01*
X65645100Y-86770668D01*
X65643806Y-86770292D01*
X65643803Y-86770291D01*
X65587336Y-86753886D01*
X65485937Y-86724427D01*
X65479532Y-86723923D01*
X65479527Y-86723922D01*
X65451203Y-86721693D01*
X65451195Y-86721693D01*
X65448747Y-86721500D01*
X65440574Y-86721500D01*
X65149499Y-86721501D01*
X65081380Y-86701499D01*
X65034887Y-86647844D01*
X65023500Y-86595501D01*
X65023500Y-86551371D01*
X65043502Y-86483250D01*
X65060405Y-86462276D01*
X65518082Y-86004599D01*
X65580394Y-85970573D01*
X65651209Y-85975638D01*
G37*
%TD.AperFunction*%
%TD*%
M02*
