%TF.GenerationSoftware,KiCad,Pcbnew,(6.0.1)*%
%TF.CreationDate,2022-11-30T22:25:02-05:00*%
%TF.ProjectId,PCBFiles_Node,50434246-696c-4657-935f-4e6f64652e6b,rev?*%
%TF.SameCoordinates,Original*%
%TF.FileFunction,Legend,Bot*%
%TF.FilePolarity,Positive*%
%FSLAX46Y46*%
G04 Gerber Fmt 4.6, Leading zero omitted, Abs format (unit mm)*
G04 Created by KiCad (PCBNEW (6.0.1)) date 2022-11-30 22:25:02*
%MOMM*%
%LPD*%
G01*
G04 APERTURE LIST*
%ADD10C,0.125000*%
%ADD11C,0.150000*%
%ADD12C,0.120000*%
G04 APERTURE END LIST*
D10*
X91457142Y-110528571D02*
X91428571Y-110442857D01*
X91428571Y-110300000D01*
X91457142Y-110242857D01*
X91485714Y-110214285D01*
X91542857Y-110185714D01*
X91600000Y-110185714D01*
X91657142Y-110214285D01*
X91685714Y-110242857D01*
X91714285Y-110300000D01*
X91742857Y-110414285D01*
X91771428Y-110471428D01*
X91800000Y-110500000D01*
X91857142Y-110528571D01*
X91914285Y-110528571D01*
X91971428Y-110500000D01*
X92000000Y-110471428D01*
X92028571Y-110414285D01*
X92028571Y-110271428D01*
X92000000Y-110185714D01*
X91428571Y-109928571D02*
X92028571Y-109928571D01*
X92028571Y-109785714D01*
X92000000Y-109700000D01*
X91942857Y-109642857D01*
X91885714Y-109614285D01*
X91771428Y-109585714D01*
X91685714Y-109585714D01*
X91571428Y-109614285D01*
X91514285Y-109642857D01*
X91457142Y-109700000D01*
X91428571Y-109785714D01*
X91428571Y-109928571D01*
X91600000Y-109357142D02*
X91600000Y-109071428D01*
X91428571Y-109414285D02*
X92028571Y-109214285D01*
X91428571Y-109014285D01*
D11*
X55061904Y-108352380D02*
X54490476Y-108352380D01*
X54776190Y-109352380D02*
X54776190Y-108352380D01*
X54252380Y-108352380D02*
X53585714Y-109352380D01*
X53585714Y-108352380D02*
X54252380Y-109352380D01*
X86611904Y-105722380D02*
X86611904Y-104722380D01*
X86135714Y-105055714D02*
X86135714Y-105722380D01*
X86135714Y-105150952D02*
X86088095Y-105103333D01*
X85992857Y-105055714D01*
X85850000Y-105055714D01*
X85754761Y-105103333D01*
X85707142Y-105198571D01*
X85707142Y-105722380D01*
X84802380Y-105055714D02*
X84802380Y-105865238D01*
X84850000Y-105960476D01*
X84897619Y-106008095D01*
X84992857Y-106055714D01*
X85135714Y-106055714D01*
X85230952Y-106008095D01*
X84802380Y-105674761D02*
X84897619Y-105722380D01*
X85088095Y-105722380D01*
X85183333Y-105674761D01*
X85230952Y-105627142D01*
X85278571Y-105531904D01*
X85278571Y-105246190D01*
X85230952Y-105150952D01*
X85183333Y-105103333D01*
X85088095Y-105055714D01*
X84897619Y-105055714D01*
X84802380Y-105103333D01*
X83945238Y-105674761D02*
X84040476Y-105722380D01*
X84230952Y-105722380D01*
X84326190Y-105674761D01*
X84373809Y-105579523D01*
X84373809Y-105198571D01*
X84326190Y-105103333D01*
X84230952Y-105055714D01*
X84040476Y-105055714D01*
X83945238Y-105103333D01*
X83897619Y-105198571D01*
X83897619Y-105293809D01*
X84373809Y-105389047D01*
X83469047Y-105055714D02*
X83469047Y-105722380D01*
X83469047Y-105150952D02*
X83421428Y-105103333D01*
X83326190Y-105055714D01*
X83183333Y-105055714D01*
X83088095Y-105103333D01*
X83040476Y-105198571D01*
X83040476Y-105722380D01*
X82564285Y-105722380D02*
X82564285Y-105055714D01*
X82564285Y-104722380D02*
X82611904Y-104770000D01*
X82564285Y-104817619D01*
X82516666Y-104770000D01*
X82564285Y-104722380D01*
X82564285Y-104817619D01*
X81707142Y-105674761D02*
X81802380Y-105722380D01*
X81992857Y-105722380D01*
X82088095Y-105674761D01*
X82135714Y-105579523D01*
X82135714Y-105198571D01*
X82088095Y-105103333D01*
X81992857Y-105055714D01*
X81802380Y-105055714D01*
X81707142Y-105103333D01*
X81659523Y-105198571D01*
X81659523Y-105293809D01*
X82135714Y-105389047D01*
X81230952Y-105722380D02*
X81230952Y-105055714D01*
X81230952Y-105246190D02*
X81183333Y-105150952D01*
X81135714Y-105103333D01*
X81040476Y-105055714D01*
X80945238Y-105055714D01*
X80611904Y-105722380D02*
X80611904Y-105055714D01*
X80516666Y-104674761D02*
X80659523Y-104817619D01*
X79707142Y-105722380D02*
X79707142Y-105198571D01*
X79754761Y-105103333D01*
X79850000Y-105055714D01*
X80040476Y-105055714D01*
X80135714Y-105103333D01*
X79707142Y-105674761D02*
X79802380Y-105722380D01*
X80040476Y-105722380D01*
X80135714Y-105674761D01*
X80183333Y-105579523D01*
X80183333Y-105484285D01*
X80135714Y-105389047D01*
X80040476Y-105341428D01*
X79802380Y-105341428D01*
X79707142Y-105293809D01*
X78469047Y-105198571D02*
X78135714Y-105198571D01*
X77992857Y-105722380D02*
X78469047Y-105722380D01*
X78469047Y-104722380D01*
X77992857Y-104722380D01*
X77421428Y-105722380D02*
X77516666Y-105674761D01*
X77564285Y-105579523D01*
X77564285Y-104722380D01*
X76659523Y-105674761D02*
X76754761Y-105722380D01*
X76945238Y-105722380D01*
X77040476Y-105674761D01*
X77088095Y-105579523D01*
X77088095Y-105198571D01*
X77040476Y-105103333D01*
X76945238Y-105055714D01*
X76754761Y-105055714D01*
X76659523Y-105103333D01*
X76611904Y-105198571D01*
X76611904Y-105293809D01*
X77088095Y-105389047D01*
X75754761Y-105674761D02*
X75850000Y-105722380D01*
X76040476Y-105722380D01*
X76135714Y-105674761D01*
X76183333Y-105627142D01*
X76230952Y-105531904D01*
X76230952Y-105246190D01*
X76183333Y-105150952D01*
X76135714Y-105103333D01*
X76040476Y-105055714D01*
X75850000Y-105055714D01*
X75754761Y-105103333D01*
X75469047Y-105055714D02*
X75088095Y-105055714D01*
X75326190Y-104722380D02*
X75326190Y-105579523D01*
X75278571Y-105674761D01*
X75183333Y-105722380D01*
X75088095Y-105722380D01*
X74754761Y-105722380D02*
X74754761Y-105055714D01*
X74754761Y-105246190D02*
X74707142Y-105150952D01*
X74659523Y-105103333D01*
X74564285Y-105055714D01*
X74469047Y-105055714D01*
X73992857Y-105722380D02*
X74088095Y-105674761D01*
X74135714Y-105627142D01*
X74183333Y-105531904D01*
X74183333Y-105246190D01*
X74135714Y-105150952D01*
X74088095Y-105103333D01*
X73992857Y-105055714D01*
X73850000Y-105055714D01*
X73754761Y-105103333D01*
X73707142Y-105150952D01*
X73659523Y-105246190D01*
X73659523Y-105531904D01*
X73707142Y-105627142D01*
X73754761Y-105674761D01*
X73850000Y-105722380D01*
X73992857Y-105722380D01*
X73802380Y-104674761D02*
X73945238Y-104817619D01*
X73230952Y-105055714D02*
X73230952Y-105722380D01*
X73230952Y-105150952D02*
X73183333Y-105103333D01*
X73088095Y-105055714D01*
X72945238Y-105055714D01*
X72850000Y-105103333D01*
X72802380Y-105198571D01*
X72802380Y-105722380D01*
X72326190Y-105722380D02*
X72326190Y-105055714D01*
X72326190Y-104722380D02*
X72373809Y-104770000D01*
X72326190Y-104817619D01*
X72278571Y-104770000D01*
X72326190Y-104722380D01*
X72326190Y-104817619D01*
X71421428Y-105674761D02*
X71516666Y-105722380D01*
X71707142Y-105722380D01*
X71802380Y-105674761D01*
X71850000Y-105627142D01*
X71897619Y-105531904D01*
X71897619Y-105246190D01*
X71850000Y-105150952D01*
X71802380Y-105103333D01*
X71707142Y-105055714D01*
X71516666Y-105055714D01*
X71421428Y-105103333D01*
X70564285Y-105722380D02*
X70564285Y-105198571D01*
X70611904Y-105103333D01*
X70707142Y-105055714D01*
X70897619Y-105055714D01*
X70992857Y-105103333D01*
X70564285Y-105674761D02*
X70659523Y-105722380D01*
X70897619Y-105722380D01*
X70992857Y-105674761D01*
X71040476Y-105579523D01*
X71040476Y-105484285D01*
X70992857Y-105389047D01*
X70897619Y-105341428D01*
X70659523Y-105341428D01*
X70564285Y-105293809D01*
X69326190Y-104722380D02*
X69326190Y-105531904D01*
X69278571Y-105627142D01*
X69230952Y-105674761D01*
X69135714Y-105722380D01*
X68945238Y-105722380D01*
X68850000Y-105674761D01*
X68802380Y-105627142D01*
X68754761Y-105531904D01*
X68754761Y-104722380D01*
X68421428Y-104722380D02*
X67850000Y-104722380D01*
X68135714Y-105722380D02*
X68135714Y-104722380D01*
X67516666Y-105198571D02*
X67183333Y-105198571D01*
X67040476Y-105722380D02*
X67516666Y-105722380D01*
X67516666Y-104722380D01*
X67040476Y-104722380D01*
X66040476Y-105627142D02*
X66088095Y-105674761D01*
X66230952Y-105722380D01*
X66326190Y-105722380D01*
X66469047Y-105674761D01*
X66564285Y-105579523D01*
X66611904Y-105484285D01*
X66659523Y-105293809D01*
X66659523Y-105150952D01*
X66611904Y-104960476D01*
X66564285Y-104865238D01*
X66469047Y-104770000D01*
X66326190Y-104722380D01*
X66230952Y-104722380D01*
X66088095Y-104770000D01*
X66040476Y-104817619D01*
X54516666Y-106802380D02*
X54850000Y-106326190D01*
X55088095Y-106802380D02*
X55088095Y-105802380D01*
X54707142Y-105802380D01*
X54611904Y-105850000D01*
X54564285Y-105897619D01*
X54516666Y-105992857D01*
X54516666Y-106135714D01*
X54564285Y-106230952D01*
X54611904Y-106278571D01*
X54707142Y-106326190D01*
X55088095Y-106326190D01*
X54183333Y-105802380D02*
X53516666Y-106802380D01*
X53516666Y-105802380D02*
X54183333Y-106802380D01*
X55311904Y-111050000D02*
X55407142Y-111002380D01*
X55550000Y-111002380D01*
X55692857Y-111050000D01*
X55788095Y-111145238D01*
X55835714Y-111240476D01*
X55883333Y-111430952D01*
X55883333Y-111573809D01*
X55835714Y-111764285D01*
X55788095Y-111859523D01*
X55692857Y-111954761D01*
X55550000Y-112002380D01*
X55454761Y-112002380D01*
X55311904Y-111954761D01*
X55264285Y-111907142D01*
X55264285Y-111573809D01*
X55454761Y-111573809D01*
X54835714Y-112002380D02*
X54835714Y-111002380D01*
X54264285Y-112002380D01*
X54264285Y-111002380D01*
X53788095Y-112002380D02*
X53788095Y-111002380D01*
X53550000Y-111002380D01*
X53407142Y-111050000D01*
X53311904Y-111145238D01*
X53264285Y-111240476D01*
X53216666Y-111430952D01*
X53216666Y-111573809D01*
X53264285Y-111764285D01*
X53311904Y-111859523D01*
X53407142Y-111954761D01*
X53550000Y-112002380D01*
X53788095Y-112002380D01*
X55935714Y-103921428D02*
X55173809Y-103921428D01*
X55554761Y-104302380D02*
X55554761Y-103540476D01*
X54221428Y-103302380D02*
X54697619Y-103302380D01*
X54745238Y-103778571D01*
X54697619Y-103730952D01*
X54602380Y-103683333D01*
X54364285Y-103683333D01*
X54269047Y-103730952D01*
X54221428Y-103778571D01*
X54173809Y-103873809D01*
X54173809Y-104111904D01*
X54221428Y-104207142D01*
X54269047Y-104254761D01*
X54364285Y-104302380D01*
X54602380Y-104302380D01*
X54697619Y-104254761D01*
X54745238Y-104207142D01*
X53888095Y-103302380D02*
X53554761Y-104302380D01*
X53221428Y-103302380D01*
D10*
X84117142Y-111147142D02*
X84117142Y-110690000D01*
X83888571Y-110918571D02*
X84345714Y-110918571D01*
X84488571Y-110461428D02*
X84488571Y-110090000D01*
X84260000Y-110290000D01*
X84260000Y-110204285D01*
X84231428Y-110147142D01*
X84202857Y-110118571D01*
X84145714Y-110090000D01*
X84002857Y-110090000D01*
X83945714Y-110118571D01*
X83917142Y-110147142D01*
X83888571Y-110204285D01*
X83888571Y-110375714D01*
X83917142Y-110432857D01*
X83945714Y-110461428D01*
X84488571Y-109918571D02*
X83888571Y-109718571D01*
X84488571Y-109518571D01*
X84488571Y-109375714D02*
X84488571Y-109004285D01*
X84260000Y-109204285D01*
X84260000Y-109118571D01*
X84231428Y-109061428D01*
X84202857Y-109032857D01*
X84145714Y-109004285D01*
X84002857Y-109004285D01*
X83945714Y-109032857D01*
X83917142Y-109061428D01*
X83888571Y-109118571D01*
X83888571Y-109290000D01*
X83917142Y-109347142D01*
X83945714Y-109375714D01*
X86920000Y-110237142D02*
X86948571Y-110294285D01*
X86948571Y-110380000D01*
X86920000Y-110465714D01*
X86862857Y-110522857D01*
X86805714Y-110551428D01*
X86691428Y-110580000D01*
X86605714Y-110580000D01*
X86491428Y-110551428D01*
X86434285Y-110522857D01*
X86377142Y-110465714D01*
X86348571Y-110380000D01*
X86348571Y-110322857D01*
X86377142Y-110237142D01*
X86405714Y-110208571D01*
X86605714Y-110208571D01*
X86605714Y-110322857D01*
X86348571Y-109951428D02*
X86948571Y-109951428D01*
X86348571Y-109608571D01*
X86948571Y-109608571D01*
X86348571Y-109322857D02*
X86948571Y-109322857D01*
X86948571Y-109180000D01*
X86920000Y-109094285D01*
X86862857Y-109037142D01*
X86805714Y-109008571D01*
X86691428Y-108980000D01*
X86605714Y-108980000D01*
X86491428Y-109008571D01*
X86434285Y-109037142D01*
X86377142Y-109094285D01*
X86348571Y-109180000D01*
X86348571Y-109322857D01*
X88957142Y-110514285D02*
X88928571Y-110428571D01*
X88928571Y-110285714D01*
X88957142Y-110228571D01*
X88985714Y-110200000D01*
X89042857Y-110171428D01*
X89100000Y-110171428D01*
X89157142Y-110200000D01*
X89185714Y-110228571D01*
X89214285Y-110285714D01*
X89242857Y-110400000D01*
X89271428Y-110457142D01*
X89300000Y-110485714D01*
X89357142Y-110514285D01*
X89414285Y-110514285D01*
X89471428Y-110485714D01*
X89500000Y-110457142D01*
X89528571Y-110400000D01*
X89528571Y-110257142D01*
X89500000Y-110171428D01*
X88985714Y-109571428D02*
X88957142Y-109600000D01*
X88928571Y-109685714D01*
X88928571Y-109742857D01*
X88957142Y-109828571D01*
X89014285Y-109885714D01*
X89071428Y-109914285D01*
X89185714Y-109942857D01*
X89271428Y-109942857D01*
X89385714Y-109914285D01*
X89442857Y-109885714D01*
X89500000Y-109828571D01*
X89528571Y-109742857D01*
X89528571Y-109685714D01*
X89500000Y-109600000D01*
X89471428Y-109571428D01*
X88928571Y-109028571D02*
X88928571Y-109314285D01*
X89528571Y-109314285D01*
D11*
%TO.C,J5*%
X45477380Y-107366666D02*
X46191666Y-107366666D01*
X46334523Y-107319047D01*
X46429761Y-107223809D01*
X46477380Y-107080952D01*
X46477380Y-106985714D01*
X45477380Y-108319047D02*
X45477380Y-107842857D01*
X45953571Y-107795238D01*
X45905952Y-107842857D01*
X45858333Y-107938095D01*
X45858333Y-108176190D01*
X45905952Y-108271428D01*
X45953571Y-108319047D01*
X46048809Y-108366666D01*
X46286904Y-108366666D01*
X46382142Y-108319047D01*
X46429761Y-108271428D01*
X46477380Y-108176190D01*
X46477380Y-107938095D01*
X46429761Y-107842857D01*
X46382142Y-107795238D01*
%TO.C,J3*%
X100782380Y-94316666D02*
X101496666Y-94316666D01*
X101639523Y-94269047D01*
X101734761Y-94173809D01*
X101782380Y-94030952D01*
X101782380Y-93935714D01*
X100782380Y-94697619D02*
X100782380Y-95316666D01*
X101163333Y-94983333D01*
X101163333Y-95126190D01*
X101210952Y-95221428D01*
X101258571Y-95269047D01*
X101353809Y-95316666D01*
X101591904Y-95316666D01*
X101687142Y-95269047D01*
X101734761Y-95221428D01*
X101782380Y-95126190D01*
X101782380Y-94840476D01*
X101734761Y-94745238D01*
X101687142Y-94697619D01*
%TO.C,G\u002A\u002A\u002A*%
G36*
X79884274Y-100073641D02*
G01*
X79857622Y-100124977D01*
X79798837Y-100138903D01*
X79589646Y-100157109D01*
X79263340Y-100171815D01*
X78851293Y-100182858D01*
X78384883Y-100190076D01*
X77895483Y-100193307D01*
X77414470Y-100192386D01*
X76973220Y-100187152D01*
X76603108Y-100177442D01*
X76335511Y-100163093D01*
X76201802Y-100143941D01*
X76146777Y-100105756D01*
X76086114Y-99953511D01*
X76067877Y-99667074D01*
X76067877Y-99241597D01*
X76914544Y-98396704D01*
X77065859Y-98244991D01*
X77364926Y-97936565D01*
X77565718Y-97709765D01*
X77686510Y-97540431D01*
X77745582Y-97404402D01*
X77761211Y-97277516D01*
X77772706Y-97166933D01*
X77848889Y-96890657D01*
X77972877Y-96605130D01*
X77993881Y-96564881D01*
X78150513Y-96158456D01*
X78160641Y-95835063D01*
X78023746Y-95592086D01*
X77739309Y-95426911D01*
X77710851Y-95418693D01*
X77478077Y-95429021D01*
X77224128Y-95529527D01*
X77029970Y-95690162D01*
X76929862Y-95915056D01*
X76959849Y-96179375D01*
X77124002Y-96512333D01*
X77220609Y-96677899D01*
X77321163Y-96910656D01*
X77344415Y-97123409D01*
X77280657Y-97342817D01*
X77120181Y-97595541D01*
X76853277Y-97908243D01*
X76470236Y-98307584D01*
X76301299Y-98479521D01*
X76012441Y-98778367D01*
X75816411Y-98996121D01*
X75695019Y-99159501D01*
X75630076Y-99295226D01*
X75603392Y-99430013D01*
X75596777Y-99590582D01*
X75592263Y-99713312D01*
X75566858Y-99952521D01*
X75528088Y-100093606D01*
X75488177Y-100113762D01*
X75305010Y-100144052D01*
X75007113Y-100167952D01*
X74629098Y-100185088D01*
X74205578Y-100195087D01*
X73771163Y-100197577D01*
X73360466Y-100192183D01*
X73008098Y-100178534D01*
X72748672Y-100156256D01*
X72616800Y-100124977D01*
X72600590Y-100103219D01*
X72576925Y-100010214D01*
X72558146Y-99835963D01*
X72554763Y-99772000D01*
X72935211Y-99772000D01*
X74035877Y-99772000D01*
X74466517Y-99770789D01*
X74779761Y-99764223D01*
X74976372Y-99748078D01*
X75083365Y-99718132D01*
X75127752Y-99670163D01*
X75136544Y-99599947D01*
X75146077Y-99479689D01*
X75238651Y-99190774D01*
X75438635Y-98856568D01*
X75756973Y-98460534D01*
X76204608Y-97986137D01*
X77011860Y-97173940D01*
X76741187Y-96657571D01*
X76709081Y-96595011D01*
X76547724Y-96189230D01*
X76520019Y-95857028D01*
X76629019Y-95567847D01*
X76877780Y-95291134D01*
X77102142Y-95138516D01*
X77471173Y-95026299D01*
X77844529Y-95047876D01*
X78180703Y-95198408D01*
X78438189Y-95473056D01*
X78583294Y-95849264D01*
X78573223Y-96262462D01*
X78398419Y-96681667D01*
X78342925Y-96778574D01*
X78232370Y-97024968D01*
X78187187Y-97213553D01*
X78171346Y-97371487D01*
X78079404Y-97641163D01*
X77892758Y-97942106D01*
X77596739Y-98296266D01*
X77176676Y-98725595D01*
X77146899Y-98754704D01*
X76858252Y-99049026D01*
X76622950Y-99310282D01*
X76464521Y-99511032D01*
X76406496Y-99623833D01*
X76413828Y-99666732D01*
X76455740Y-99707728D01*
X76554950Y-99736518D01*
X76733863Y-99755220D01*
X77014885Y-99765955D01*
X77420421Y-99770842D01*
X77972877Y-99772000D01*
X79539211Y-99772000D01*
X79539211Y-93083333D01*
X78607877Y-93083333D01*
X78418862Y-93083569D01*
X78073468Y-93087859D01*
X77855850Y-93101772D01*
X77736696Y-93130721D01*
X77686697Y-93180120D01*
X77676544Y-93255386D01*
X77673422Y-93322986D01*
X77596149Y-93614296D01*
X77407642Y-93951786D01*
X77097793Y-94351037D01*
X76656493Y-94827631D01*
X76616427Y-94868585D01*
X76336166Y-95160906D01*
X76108071Y-95408780D01*
X75954683Y-95587131D01*
X75898544Y-95670878D01*
X75910945Y-95711375D01*
X75994692Y-95866483D01*
X76131377Y-96077210D01*
X76132618Y-96079002D01*
X76324543Y-96476947D01*
X76366480Y-96870661D01*
X76266572Y-97230698D01*
X76032960Y-97527614D01*
X75673788Y-97731964D01*
X75303568Y-97805966D01*
X74960831Y-97734786D01*
X74622663Y-97505390D01*
X74467708Y-97334370D01*
X74317381Y-96986189D01*
X74324883Y-96584616D01*
X74490861Y-96136353D01*
X74574913Y-95959382D01*
X74674414Y-95690221D01*
X74713211Y-95493687D01*
X74715950Y-95427965D01*
X74798136Y-95130832D01*
X75005163Y-94808678D01*
X75351234Y-94438000D01*
X75482275Y-94308577D01*
X75743664Y-94031433D01*
X75993541Y-93745651D01*
X76205150Y-93483624D01*
X76351736Y-93277742D01*
X76406544Y-93160397D01*
X76404590Y-93156538D01*
X76299836Y-93132842D01*
X76051638Y-93112677D01*
X75682445Y-93097039D01*
X75214708Y-93086926D01*
X74670877Y-93083333D01*
X72935211Y-93083333D01*
X72935211Y-99772000D01*
X72554763Y-99772000D01*
X72543967Y-99567884D01*
X72534105Y-99193398D01*
X72528275Y-98699924D01*
X72526192Y-98074882D01*
X72527573Y-97305692D01*
X72532133Y-96379773D01*
X72554211Y-92702333D01*
X74736485Y-92679733D01*
X74858936Y-92678497D01*
X75513069Y-92673535D01*
X76019099Y-92673593D01*
X76395228Y-92679466D01*
X76659656Y-92691948D01*
X76830586Y-92711834D01*
X76926218Y-92739918D01*
X76964754Y-92776995D01*
X76972549Y-92806700D01*
X76938877Y-93012666D01*
X76797680Y-93306638D01*
X76563051Y-93666496D01*
X76249086Y-94070118D01*
X75869880Y-94495384D01*
X75860824Y-94504923D01*
X75553961Y-94835081D01*
X75346520Y-95080176D01*
X75216828Y-95272162D01*
X75143211Y-95442996D01*
X75103998Y-95624633D01*
X75089417Y-95705743D01*
X74999797Y-96011131D01*
X74880893Y-96259633D01*
X74745741Y-96565483D01*
X74730035Y-96877792D01*
X74830701Y-97144926D01*
X75033874Y-97331301D01*
X75325691Y-97401333D01*
X75477912Y-97374810D01*
X75722172Y-97235844D01*
X75908836Y-97022741D01*
X75983211Y-96786631D01*
X75979395Y-96743849D01*
X75906941Y-96530540D01*
X75771544Y-96300667D01*
X75642028Y-96077960D01*
X75559877Y-95680146D01*
X75562445Y-95592659D01*
X75587488Y-95454296D01*
X75655394Y-95312001D01*
X75785653Y-95137098D01*
X75997755Y-94900910D01*
X76311193Y-94574762D01*
X76670434Y-94200202D01*
X76926698Y-93914647D01*
X77095708Y-93693521D01*
X77194992Y-93510393D01*
X77242082Y-93338830D01*
X77254507Y-93152399D01*
X77259822Y-92974204D01*
X77290043Y-92840827D01*
X77369206Y-92751948D01*
X77521379Y-92699438D01*
X77770632Y-92675166D01*
X78141035Y-92671002D01*
X78656659Y-92678819D01*
X79920211Y-92702333D01*
X79942289Y-96379773D01*
X79945324Y-96940792D01*
X79948060Y-97773564D01*
X79947451Y-98456961D01*
X79943212Y-99003564D01*
X79935060Y-99425954D01*
X79922709Y-99736709D01*
X79919903Y-99772000D01*
X79905875Y-99948412D01*
X79884274Y-100073641D01*
G37*
G36*
X83792703Y-99471865D02*
G01*
X83773695Y-99743950D01*
X83711022Y-99932629D01*
X83579554Y-100055004D01*
X83354159Y-100128178D01*
X83009706Y-100169254D01*
X82521064Y-100195333D01*
X82142774Y-100212282D01*
X81844983Y-100231443D01*
X81661642Y-100257424D01*
X81563583Y-100297531D01*
X81521638Y-100359066D01*
X81506639Y-100449333D01*
X81492676Y-100564413D01*
X81379107Y-101031430D01*
X81179296Y-101363409D01*
X80879989Y-101576121D01*
X80467932Y-101685338D01*
X80402845Y-101693992D01*
X80232044Y-101724607D01*
X80115521Y-101780727D01*
X80039539Y-101890995D01*
X79990362Y-102084052D01*
X79954253Y-102388543D01*
X79917476Y-102833111D01*
X79891024Y-103117364D01*
X79830645Y-103507737D01*
X79744572Y-103770408D01*
X79622435Y-103931893D01*
X79453867Y-104018707D01*
X79322533Y-104040849D01*
X79048281Y-104052511D01*
X78734877Y-104040042D01*
X78700134Y-104037113D01*
X78397128Y-103997268D01*
X78185731Y-103921425D01*
X78049659Y-103782977D01*
X77972628Y-103555320D01*
X77938351Y-103211847D01*
X77930544Y-102725953D01*
X77930544Y-101804000D01*
X77083877Y-101804000D01*
X77083877Y-102739182D01*
X77083652Y-102908295D01*
X77078671Y-103268837D01*
X77062063Y-103509970D01*
X77027186Y-103668220D01*
X76967398Y-103780115D01*
X76876059Y-103882182D01*
X76786497Y-103962821D01*
X76637736Y-104043478D01*
X76430736Y-104080870D01*
X76110211Y-104090000D01*
X75890356Y-104086677D01*
X75648415Y-104061314D01*
X75484846Y-103998150D01*
X75344362Y-103882182D01*
X75306832Y-103843636D01*
X75227818Y-103742209D01*
X75177924Y-103617577D01*
X75150508Y-103433214D01*
X75138928Y-103152591D01*
X75136544Y-102739182D01*
X75136544Y-101804000D01*
X74304449Y-101804000D01*
X74275997Y-102784655D01*
X74268534Y-103021411D01*
X74243944Y-103429264D01*
X74190534Y-103705263D01*
X74086904Y-103875139D01*
X73911652Y-103964623D01*
X73643376Y-103999444D01*
X73260674Y-104005333D01*
X73056115Y-104003427D01*
X72789139Y-103981110D01*
X72604559Y-103913393D01*
X72485070Y-103775501D01*
X72413368Y-103542655D01*
X72372148Y-103190081D01*
X72344106Y-102693000D01*
X72330168Y-102406781D01*
X72310055Y-102095440D01*
X72283915Y-101903177D01*
X72243669Y-101799850D01*
X72181238Y-101755315D01*
X72088544Y-101739428D01*
X71878312Y-101711484D01*
X71480615Y-101601005D01*
X71206328Y-101408372D01*
X71027651Y-101108349D01*
X70916784Y-100675698D01*
X70856730Y-100322333D01*
X69874353Y-100277817D01*
X69600441Y-100262441D01*
X69197172Y-100225869D01*
X68909907Y-100179914D01*
X68765305Y-100128173D01*
X68712896Y-100065197D01*
X68628672Y-99835405D01*
X68585108Y-99520150D01*
X68581242Y-99169622D01*
X68616114Y-98834014D01*
X68637067Y-98756000D01*
X68947797Y-98756000D01*
X68973004Y-99285167D01*
X68998211Y-99814333D01*
X70097914Y-99856667D01*
X70455381Y-99871380D01*
X70795227Y-99890735D01*
X71014206Y-99914929D01*
X71139782Y-99949141D01*
X71199419Y-99998550D01*
X71220581Y-100068333D01*
X71226390Y-100110117D01*
X71292120Y-100490820D01*
X71370675Y-100824020D01*
X71451188Y-101069492D01*
X71522793Y-101187015D01*
X71638092Y-101228390D01*
X71874613Y-101285070D01*
X72173211Y-101341133D01*
X72723544Y-101432015D01*
X72765877Y-102485841D01*
X72808211Y-103539667D01*
X73334818Y-103564807D01*
X73861426Y-103589947D01*
X73885152Y-102506473D01*
X73908877Y-101423000D01*
X75517544Y-101423000D01*
X75564848Y-103674618D01*
X76091529Y-103649475D01*
X76618211Y-103624333D01*
X76660544Y-102523667D01*
X76702877Y-101423000D01*
X78311544Y-101423000D01*
X78353877Y-102523667D01*
X78396211Y-103624333D01*
X78884068Y-103649756D01*
X79101934Y-103655131D01*
X79319332Y-103631248D01*
X79404931Y-103565089D01*
X79419906Y-103488297D01*
X79452386Y-103265635D01*
X79493617Y-102944655D01*
X79538179Y-102566000D01*
X79569415Y-102289277D01*
X79608495Y-101943970D01*
X79638056Y-101683853D01*
X79653386Y-101550468D01*
X79683635Y-101496911D01*
X79861997Y-101408014D01*
X80204150Y-101328074D01*
X80463962Y-101269467D01*
X80721957Y-101183896D01*
X80872456Y-101099707D01*
X80950078Y-100959083D01*
X81032690Y-100702846D01*
X81099316Y-100390768D01*
X81193671Y-99814333D01*
X82292608Y-99772000D01*
X83391544Y-99729667D01*
X83418602Y-99399071D01*
X83434503Y-99190346D01*
X83434193Y-98972719D01*
X83385778Y-98826525D01*
X83265022Y-98736590D01*
X83047694Y-98687743D01*
X82709557Y-98664809D01*
X82226379Y-98652617D01*
X81105544Y-98629000D01*
X81080821Y-97922294D01*
X81078001Y-97562188D01*
X81102307Y-97256251D01*
X81154688Y-97096794D01*
X81174073Y-97078279D01*
X81287781Y-97030666D01*
X81498118Y-96999745D01*
X81829235Y-96983021D01*
X82305285Y-96978000D01*
X83357291Y-96978000D01*
X83332084Y-96448833D01*
X83306877Y-95919667D01*
X82206211Y-95877333D01*
X81105544Y-95835000D01*
X81105544Y-94226333D01*
X82206211Y-94184000D01*
X83306877Y-94141667D01*
X83332016Y-93615110D01*
X83341437Y-93394181D01*
X83330024Y-93225534D01*
X83272388Y-93113362D01*
X83143933Y-93045059D01*
X82920063Y-93008015D01*
X82576180Y-92989622D01*
X82087688Y-92977272D01*
X81207165Y-92956333D01*
X81063274Y-92430042D01*
X81046649Y-92369966D01*
X80935350Y-92023412D01*
X80821608Y-91804005D01*
X80680783Y-91676408D01*
X80488238Y-91605283D01*
X80471878Y-91601321D01*
X80221396Y-91538827D01*
X79943963Y-91467408D01*
X79629048Y-91384865D01*
X79581544Y-89315667D01*
X78480877Y-89315667D01*
X78438544Y-90416333D01*
X78396211Y-91517000D01*
X76787544Y-91517000D01*
X76745211Y-90416333D01*
X76702877Y-89315667D01*
X75686877Y-89315667D01*
X75644544Y-90416333D01*
X75602211Y-91517000D01*
X73993544Y-91517000D01*
X73942139Y-90416333D01*
X73938359Y-90336069D01*
X73918532Y-89935774D01*
X73900759Y-89609178D01*
X73886855Y-89388102D01*
X73878639Y-89304370D01*
X73818608Y-89278166D01*
X73624925Y-89250561D01*
X73372660Y-89245336D01*
X73130198Y-89265997D01*
X72808211Y-89318130D01*
X72765877Y-90368399D01*
X72723544Y-91418668D01*
X72469544Y-91494481D01*
X72055896Y-91622708D01*
X71757700Y-91740488D01*
X71558869Y-91874089D01*
X71427001Y-92054646D01*
X71329694Y-92313293D01*
X71234543Y-92681167D01*
X71137108Y-93083333D01*
X70148093Y-93083333D01*
X69992877Y-93084018D01*
X69515622Y-93098702D01*
X69203254Y-93132393D01*
X69057477Y-93184933D01*
X69011735Y-93266361D01*
X68967551Y-93488862D01*
X68960447Y-93760863D01*
X68990423Y-94010789D01*
X69057477Y-94167067D01*
X69091342Y-94188332D01*
X69295074Y-94233049D01*
X69664301Y-94259784D01*
X70200477Y-94268667D01*
X71241877Y-94268667D01*
X71241877Y-95877333D01*
X70289377Y-95878489D01*
X69786607Y-95880464D01*
X69427354Y-95892540D01*
X69189552Y-95926076D01*
X69049223Y-95992432D01*
X68982387Y-96102968D01*
X68965068Y-96269046D01*
X68973286Y-96502024D01*
X68998211Y-97020333D01*
X71241877Y-97067581D01*
X71241877Y-97860399D01*
X71241766Y-97931785D01*
X71234789Y-98293790D01*
X71213440Y-98522589D01*
X71172802Y-98649192D01*
X71107953Y-98704608D01*
X70982105Y-98724001D01*
X70722069Y-98740619D01*
X70368740Y-98751865D01*
X69960913Y-98756000D01*
X68947797Y-98756000D01*
X68637067Y-98756000D01*
X68688763Y-98563516D01*
X68798227Y-98408321D01*
X68896451Y-98383087D01*
X69136280Y-98357999D01*
X69472632Y-98340708D01*
X69866044Y-98333963D01*
X70818544Y-98332667D01*
X70818544Y-97507308D01*
X69832605Y-97469569D01*
X69670638Y-97463140D01*
X69292632Y-97443671D01*
X69039056Y-97418207D01*
X68876380Y-97379949D01*
X68771073Y-97322102D01*
X68689605Y-97237869D01*
X68610063Y-97097529D01*
X68537325Y-96794476D01*
X68526290Y-96439789D01*
X68572656Y-96087222D01*
X68672121Y-95790528D01*
X68820386Y-95603463D01*
X68912324Y-95581779D01*
X69144799Y-95560470D01*
X69475485Y-95545755D01*
X69866044Y-95539963D01*
X70818544Y-95538667D01*
X70818292Y-94649667D01*
X69895816Y-94649667D01*
X69568231Y-94646042D01*
X69178959Y-94620036D01*
X68913442Y-94557666D01*
X68744309Y-94445798D01*
X68644191Y-94271299D01*
X68585716Y-94021035D01*
X68569494Y-93843444D01*
X68580642Y-93524806D01*
X68629021Y-93211649D01*
X68704956Y-92958526D01*
X68798768Y-92819987D01*
X68892018Y-92795499D01*
X69128321Y-92770218D01*
X69461639Y-92752773D01*
X69852163Y-92745963D01*
X70790782Y-92744666D01*
X70929395Y-92246101D01*
X70978076Y-92091715D01*
X71196153Y-91677286D01*
X71516698Y-91389961D01*
X71956164Y-91213189D01*
X72317378Y-91122234D01*
X72369672Y-90134284D01*
X72381637Y-89921886D01*
X72418672Y-89490270D01*
X72480753Y-89193151D01*
X72587300Y-89005548D01*
X72757732Y-88902477D01*
X73011467Y-88858955D01*
X73367924Y-88850000D01*
X73521548Y-88851192D01*
X73828397Y-88872593D01*
X74040663Y-88940010D01*
X74175644Y-89078067D01*
X74250640Y-89311390D01*
X74282951Y-89664604D01*
X74289877Y-90162333D01*
X74289877Y-91136000D01*
X75206639Y-91136000D01*
X75235092Y-90165132D01*
X75243213Y-89916601D01*
X75269396Y-89498800D01*
X75323255Y-89213381D01*
X75423760Y-89035184D01*
X75589885Y-88939050D01*
X75840600Y-88899819D01*
X76194877Y-88892333D01*
X76421908Y-88894326D01*
X76707602Y-88916876D01*
X76903761Y-88984926D01*
X77028457Y-89123243D01*
X77099759Y-89356594D01*
X77135739Y-89709743D01*
X77154468Y-90207457D01*
X77182726Y-91220667D01*
X78015211Y-91220667D01*
X78015211Y-90371280D01*
X78015996Y-90224592D01*
X78037683Y-89721294D01*
X78095164Y-89357941D01*
X78196589Y-89112483D01*
X78350109Y-88962873D01*
X78563874Y-88887060D01*
X78685138Y-88869081D01*
X79032519Y-88855590D01*
X79380676Y-88884861D01*
X79673394Y-88950046D01*
X79854458Y-89044294D01*
X79910223Y-89133325D01*
X79964626Y-89333255D01*
X80006058Y-89654322D01*
X80038636Y-90120592D01*
X80089544Y-91063621D01*
X80553449Y-91220369D01*
X80749188Y-91294129D01*
X81066185Y-91479287D01*
X81271667Y-91733263D01*
X81404952Y-92096515D01*
X81425869Y-92177495D01*
X81488158Y-92409631D01*
X81530400Y-92554167D01*
X81578078Y-92595086D01*
X81745084Y-92632398D01*
X82046633Y-92653412D01*
X82499887Y-92660000D01*
X82526066Y-92660006D01*
X82935952Y-92663531D01*
X83213971Y-92677417D01*
X83395642Y-92707355D01*
X83516485Y-92759033D01*
X83612020Y-92838142D01*
X83616632Y-92842779D01*
X83706827Y-92956379D01*
X83754854Y-93097800D01*
X83769132Y-93313933D01*
X83758077Y-93651664D01*
X83750564Y-93784007D01*
X83713971Y-94111414D01*
X83636814Y-94338479D01*
X83493390Y-94483403D01*
X83257998Y-94564387D01*
X82904934Y-94599630D01*
X82408498Y-94607333D01*
X81486544Y-94607333D01*
X81486544Y-95439428D01*
X82467867Y-95467881D01*
X82657268Y-95474059D01*
X83100945Y-95502209D01*
X83408576Y-95560592D01*
X83604855Y-95668355D01*
X83714479Y-95844643D01*
X83762144Y-96108602D01*
X83772544Y-96479380D01*
X83771352Y-96633003D01*
X83749951Y-96939853D01*
X83682534Y-97152118D01*
X83544477Y-97287099D01*
X83311154Y-97362096D01*
X82957940Y-97394407D01*
X82460211Y-97401333D01*
X81486544Y-97401333D01*
X81486544Y-98248000D01*
X82320577Y-98248000D01*
X82576040Y-98250837D01*
X83066033Y-98281308D01*
X83412273Y-98348466D01*
X83630720Y-98456378D01*
X83737335Y-98609112D01*
X83762714Y-98747531D01*
X83785094Y-99014727D01*
X83789905Y-99190346D01*
X83793711Y-99329261D01*
X83792703Y-99471865D01*
G37*
D12*
%TO.C,J5*%
X41710000Y-110602385D02*
X50340000Y-110602385D01*
X50340000Y-104140000D02*
X50750000Y-104140000D01*
X50340000Y-103420000D02*
X50750000Y-103420000D01*
X41710000Y-112137620D02*
X50340000Y-112137620D01*
X41710000Y-112255715D02*
X50340000Y-112255715D01*
X41710000Y-105050000D02*
X50340000Y-105050000D01*
X50340000Y-112730000D02*
X50340000Y-102450000D01*
X50340000Y-106680000D02*
X50750000Y-106680000D01*
X41710000Y-107590000D02*
X50340000Y-107590000D01*
X41710000Y-111310955D02*
X50340000Y-111310955D01*
X50340000Y-108500000D02*
X50750000Y-108500000D01*
X41710000Y-112730000D02*
X41710000Y-102450000D01*
X41710000Y-110248100D02*
X50340000Y-110248100D01*
X41710000Y-111665240D02*
X50340000Y-111665240D01*
X41710000Y-111901430D02*
X50340000Y-111901430D01*
X50340000Y-111040000D02*
X50690000Y-111040000D01*
X41710000Y-110484290D02*
X50340000Y-110484290D01*
X41710000Y-112730000D02*
X50340000Y-112730000D01*
X41710000Y-102450000D02*
X50340000Y-102450000D01*
X41710000Y-111547145D02*
X50340000Y-111547145D01*
X50340000Y-105960000D02*
X50750000Y-105960000D01*
X41710000Y-111074765D02*
X50340000Y-111074765D01*
X41710000Y-110720480D02*
X50340000Y-110720480D01*
X41710000Y-111429050D02*
X50340000Y-111429050D01*
X41710000Y-111783335D02*
X50340000Y-111783335D01*
X41710000Y-112019525D02*
X50340000Y-112019525D01*
X50340000Y-111760000D02*
X50690000Y-111760000D01*
X41710000Y-110366195D02*
X50340000Y-110366195D01*
X50340000Y-109220000D02*
X50750000Y-109220000D01*
X41710000Y-112610000D02*
X50340000Y-112610000D01*
X41710000Y-110838575D02*
X50340000Y-110838575D01*
X51800000Y-112730000D02*
X52910000Y-112730000D01*
X41710000Y-110956670D02*
X50340000Y-110956670D01*
X41710000Y-111192860D02*
X50340000Y-111192860D01*
X41710000Y-110130000D02*
X50340000Y-110130000D01*
X41710000Y-112491905D02*
X50340000Y-112491905D01*
X52910000Y-112730000D02*
X52910000Y-111400000D01*
X41710000Y-112373810D02*
X50340000Y-112373810D01*
%TO.C,J3*%
X100000000Y-85640000D02*
X94000000Y-85640000D01*
X102660000Y-94490000D02*
X100000000Y-94490000D01*
X100000000Y-87760000D02*
X94000000Y-87760000D01*
X105370000Y-85600000D02*
X105370000Y-84330000D01*
X103057071Y-98680000D02*
X102660000Y-98680000D01*
X94000000Y-91060000D02*
X100000000Y-91060000D01*
X103057071Y-100460000D02*
X102660000Y-100460000D01*
X94000000Y-85980000D02*
X100000000Y-85980000D01*
X94000000Y-88520000D02*
X100000000Y-88520000D01*
X103057071Y-101220000D02*
X102660000Y-101220000D01*
X103057071Y-95380000D02*
X102660000Y-95380000D01*
X100000000Y-85220000D02*
X94000000Y-85220000D01*
X100000000Y-90300000D02*
X94000000Y-90300000D01*
X102990000Y-85220000D02*
X102660000Y-85220000D01*
X103057071Y-91060000D02*
X102660000Y-91060000D01*
X100000000Y-97920000D02*
X94000000Y-97920000D01*
X103057071Y-103000000D02*
X102660000Y-103000000D01*
X94000000Y-96140000D02*
X100000000Y-96140000D01*
X103057071Y-103760000D02*
X102660000Y-103760000D01*
X100000000Y-84270000D02*
X102660000Y-84270000D01*
X94000000Y-103760000D02*
X100000000Y-103760000D01*
X94000000Y-87760000D02*
X94000000Y-88520000D01*
X100000000Y-85280000D02*
X94000000Y-85280000D01*
X100000000Y-85520000D02*
X94000000Y-85520000D01*
X100000000Y-103000000D02*
X94000000Y-103000000D01*
X103057071Y-88520000D02*
X102660000Y-88520000D01*
X103057071Y-92840000D02*
X102660000Y-92840000D01*
X94000000Y-93600000D02*
X100000000Y-93600000D01*
X100000000Y-95380000D02*
X94000000Y-95380000D01*
X94000000Y-101220000D02*
X100000000Y-101220000D01*
X102660000Y-99570000D02*
X100000000Y-99570000D01*
X100000000Y-85400000D02*
X94000000Y-85400000D01*
X94000000Y-98680000D02*
X100000000Y-98680000D01*
X102660000Y-104710000D02*
X100000000Y-104710000D01*
X100000000Y-104710000D02*
X100000000Y-84270000D01*
X102660000Y-97030000D02*
X100000000Y-97030000D01*
X94000000Y-97920000D02*
X94000000Y-98680000D01*
X102660000Y-89410000D02*
X100000000Y-89410000D01*
X102660000Y-86870000D02*
X100000000Y-86870000D01*
X105370000Y-84330000D02*
X104100000Y-84330000D01*
X100000000Y-100460000D02*
X94000000Y-100460000D01*
X102660000Y-91950000D02*
X100000000Y-91950000D01*
X103057071Y-87760000D02*
X102660000Y-87760000D01*
X100000000Y-85760000D02*
X94000000Y-85760000D01*
X94000000Y-85220000D02*
X94000000Y-85980000D01*
X94000000Y-100460000D02*
X94000000Y-101220000D01*
X103057071Y-90300000D02*
X102660000Y-90300000D01*
X100000000Y-85880000D02*
X94000000Y-85880000D01*
X94000000Y-92840000D02*
X94000000Y-93600000D01*
X94000000Y-90300000D02*
X94000000Y-91060000D01*
X103057071Y-97920000D02*
X102660000Y-97920000D01*
X94000000Y-103000000D02*
X94000000Y-103760000D01*
X102660000Y-102110000D02*
X100000000Y-102110000D01*
X103057071Y-93600000D02*
X102660000Y-93600000D01*
X94000000Y-95380000D02*
X94000000Y-96140000D01*
X100000000Y-92840000D02*
X94000000Y-92840000D01*
X103057071Y-96140000D02*
X102660000Y-96140000D01*
X102660000Y-84270000D02*
X102660000Y-104710000D01*
X102990000Y-85980000D02*
X102660000Y-85980000D01*
%TD*%
M02*
