%TF.GenerationSoftware,KiCad,Pcbnew,(6.0.1)*%
%TF.CreationDate,2022-10-14T11:39:46-05:00*%
%TF.ProjectId,PCBFiles_Node,50434246-696c-4657-935f-4e6f64652e6b,rev?*%
%TF.SameCoordinates,Original*%
%TF.FileFunction,Copper,L1,Top*%
%TF.FilePolarity,Positive*%
%FSLAX46Y46*%
G04 Gerber Fmt 4.6, Leading zero omitted, Abs format (unit mm)*
G04 Created by KiCad (PCBNEW (6.0.1)) date 2022-10-14 11:39:46*
%MOMM*%
%LPD*%
G01*
G04 APERTURE LIST*
G04 Aperture macros list*
%AMRoundRect*
0 Rectangle with rounded corners*
0 $1 Rounding radius*
0 $2 $3 $4 $5 $6 $7 $8 $9 X,Y pos of 4 corners*
0 Add a 4 corners polygon primitive as box body*
4,1,4,$2,$3,$4,$5,$6,$7,$8,$9,$2,$3,0*
0 Add four circle primitives for the rounded corners*
1,1,$1+$1,$2,$3*
1,1,$1+$1,$4,$5*
1,1,$1+$1,$6,$7*
1,1,$1+$1,$8,$9*
0 Add four rect primitives between the rounded corners*
20,1,$1+$1,$2,$3,$4,$5,0*
20,1,$1+$1,$4,$5,$6,$7,0*
20,1,$1+$1,$6,$7,$8,$9,0*
20,1,$1+$1,$8,$9,$2,$3,0*%
G04 Aperture macros list end*
%TA.AperFunction,ComponentPad*%
%ADD10R,3.000000X3.000000*%
%TD*%
%TA.AperFunction,ComponentPad*%
%ADD11C,3.000000*%
%TD*%
%TA.AperFunction,SMDPad,CuDef*%
%ADD12RoundRect,0.140000X0.140000X0.170000X-0.140000X0.170000X-0.140000X-0.170000X0.140000X-0.170000X0*%
%TD*%
%TA.AperFunction,SMDPad,CuDef*%
%ADD13R,0.450000X0.600000*%
%TD*%
%TA.AperFunction,SMDPad,CuDef*%
%ADD14RoundRect,0.075000X-0.075000X0.700000X-0.075000X-0.700000X0.075000X-0.700000X0.075000X0.700000X0*%
%TD*%
%TA.AperFunction,SMDPad,CuDef*%
%ADD15RoundRect,0.075000X-0.700000X0.075000X-0.700000X-0.075000X0.700000X-0.075000X0.700000X0.075000X0*%
%TD*%
%TA.AperFunction,SMDPad,CuDef*%
%ADD16RoundRect,0.140000X0.170000X-0.140000X0.170000X0.140000X-0.170000X0.140000X-0.170000X-0.140000X0*%
%TD*%
%TA.AperFunction,SMDPad,CuDef*%
%ADD17RoundRect,0.140000X-0.140000X-0.170000X0.140000X-0.170000X0.140000X0.170000X-0.140000X0.170000X0*%
%TD*%
%TA.AperFunction,SMDPad,CuDef*%
%ADD18RoundRect,0.250000X0.650000X-0.325000X0.650000X0.325000X-0.650000X0.325000X-0.650000X-0.325000X0*%
%TD*%
%TA.AperFunction,ComponentPad*%
%ADD19C,0.700000*%
%TD*%
%TA.AperFunction,ComponentPad*%
%ADD20C,4.400000*%
%TD*%
%TA.AperFunction,SMDPad,CuDef*%
%ADD21RoundRect,0.140000X-0.170000X0.140000X-0.170000X-0.140000X0.170000X-0.140000X0.170000X0.140000X0*%
%TD*%
%TA.AperFunction,SMDPad,CuDef*%
%ADD22RoundRect,0.147500X-0.147500X-0.172500X0.147500X-0.172500X0.147500X0.172500X-0.147500X0.172500X0*%
%TD*%
%TA.AperFunction,SMDPad,CuDef*%
%ADD23R,0.900000X1.700000*%
%TD*%
%TA.AperFunction,SMDPad,CuDef*%
%ADD24RoundRect,0.135000X-0.135000X-0.185000X0.135000X-0.185000X0.135000X0.185000X-0.135000X0.185000X0*%
%TD*%
%TA.AperFunction,SMDPad,CuDef*%
%ADD25RoundRect,0.200000X-0.200000X-0.275000X0.200000X-0.275000X0.200000X0.275000X-0.200000X0.275000X0*%
%TD*%
%TA.AperFunction,SMDPad,CuDef*%
%ADD26R,1.000000X1.800000*%
%TD*%
%TA.AperFunction,SMDPad,CuDef*%
%ADD27RoundRect,0.200000X0.200000X0.275000X-0.200000X0.275000X-0.200000X-0.275000X0.200000X-0.275000X0*%
%TD*%
%TA.AperFunction,SMDPad,CuDef*%
%ADD28R,1.150000X0.600000*%
%TD*%
%TA.AperFunction,ComponentPad*%
%ADD29R,1.700000X1.700000*%
%TD*%
%TA.AperFunction,ComponentPad*%
%ADD30O,1.700000X1.700000*%
%TD*%
%TA.AperFunction,SMDPad,CuDef*%
%ADD31R,3.000000X1.300000*%
%TD*%
%TA.AperFunction,SMDPad,CuDef*%
%ADD32RoundRect,0.218750X-0.218750X-0.256250X0.218750X-0.256250X0.218750X0.256250X-0.218750X0.256250X0*%
%TD*%
%TA.AperFunction,SMDPad,CuDef*%
%ADD33RoundRect,0.218750X0.218750X0.256250X-0.218750X0.256250X-0.218750X-0.256250X0.218750X-0.256250X0*%
%TD*%
%TA.AperFunction,SMDPad,CuDef*%
%ADD34R,3.600000X1.270000*%
%TD*%
%TA.AperFunction,SMDPad,CuDef*%
%ADD35R,4.200000X1.350000*%
%TD*%
%TA.AperFunction,ViaPad*%
%ADD36C,0.500000*%
%TD*%
%TA.AperFunction,Conductor*%
%ADD37C,0.500000*%
%TD*%
%TA.AperFunction,Conductor*%
%ADD38C,0.250000*%
%TD*%
%TA.AperFunction,Conductor*%
%ADD39C,1.000000*%
%TD*%
%TA.AperFunction,Conductor*%
%ADD40C,1.200000*%
%TD*%
%TA.AperFunction,Conductor*%
%ADD41C,0.900000*%
%TD*%
%TA.AperFunction,Conductor*%
%ADD42C,0.850000*%
%TD*%
%TA.AperFunction,Conductor*%
%ADD43C,0.600000*%
%TD*%
%TA.AperFunction,Conductor*%
%ADD44C,0.950000*%
%TD*%
%TA.AperFunction,Conductor*%
%ADD45C,0.700000*%
%TD*%
G04 APERTURE END LIST*
D10*
%TO.P,J1,1,Pin_1*%
%TO.N,+5V*%
X48200000Y-92140000D03*
D11*
%TO.P,J1,2,Pin_2*%
%TO.N,GND*%
X48200000Y-87060000D03*
%TD*%
D12*
%TO.P,C13,1*%
%TO.N,LSE_OUT*%
X68730000Y-85855000D03*
%TO.P,C13,2*%
%TO.N,GND*%
X67770000Y-85855000D03*
%TD*%
D13*
%TO.P,D1,1,K*%
%TO.N,Net-(D1-Pad1)*%
X78500000Y-105000000D03*
%TO.P,D1,2,A*%
%TO.N,+3V3*%
X78500000Y-107100000D03*
%TD*%
D14*
%TO.P,U1,1,VBAT*%
%TO.N,+3V3*%
X72950000Y-90625000D03*
%TO.P,U1,2,PC13*%
%TO.N,unconnected-(U1-Pad2)*%
X72450000Y-90625000D03*
%TO.P,U1,3,PC14*%
%TO.N,LSE_IN*%
X71950000Y-90625000D03*
%TO.P,U1,4,PC15*%
%TO.N,LSE_OUT*%
X71450000Y-90625000D03*
%TO.P,U1,5,PH0*%
%TO.N,unconnected-(U1-Pad5)*%
X70950000Y-90625000D03*
%TO.P,U1,6,PH1*%
%TO.N,unconnected-(U1-Pad6)*%
X70450000Y-90625000D03*
%TO.P,U1,7,NRST*%
%TO.N,NRST*%
X69950000Y-90625000D03*
%TO.P,U1,8,PC0*%
%TO.N,LPUART1_RX*%
X69450000Y-90625000D03*
%TO.P,U1,9,PC1*%
%TO.N,LPUART1_TX*%
X68950000Y-90625000D03*
%TO.P,U1,10,PC2*%
%TO.N,unconnected-(U1-Pad10)*%
X68450000Y-90625000D03*
%TO.P,U1,11,PC3*%
%TO.N,unconnected-(U1-Pad11)*%
X67950000Y-90625000D03*
%TO.P,U1,12,VSSA*%
%TO.N,GND*%
X67450000Y-90625000D03*
%TO.P,U1,13,VDDA*%
%TO.N,+3.3VA*%
X66950000Y-90625000D03*
%TO.P,U1,14,PA0*%
%TO.N,V_REF_IN*%
X66450000Y-90625000D03*
%TO.P,U1,15,PA1*%
%TO.N,unconnected-(U1-Pad15)*%
X65950000Y-90625000D03*
%TO.P,U1,16,PA2*%
%TO.N,unconnected-(U1-Pad16)*%
X65450000Y-90625000D03*
D15*
%TO.P,U1,17,PA3*%
%TO.N,V_REF_OUT*%
X63525000Y-92550000D03*
%TO.P,U1,18,VSS*%
%TO.N,GND*%
X63525000Y-93050000D03*
%TO.P,U1,19,VDD*%
%TO.N,+3V3*%
X63525000Y-93550000D03*
%TO.P,U1,20,PA4*%
%TO.N,unconnected-(U1-Pad20)*%
X63525000Y-94050000D03*
%TO.P,U1,21,PA5*%
%TO.N,unconnected-(U1-Pad21)*%
X63525000Y-94550000D03*
%TO.P,U1,22,PA6*%
%TO.N,V_GAS*%
X63525000Y-95050000D03*
%TO.P,U1,23,PA7*%
%TO.N,V_REF_OUT*%
X63525000Y-95550000D03*
%TO.P,U1,24,PC4*%
%TO.N,unconnected-(U1-Pad24)*%
X63525000Y-96050000D03*
%TO.P,U1,25,PC5*%
%TO.N,unconnected-(U1-Pad25)*%
X63525000Y-96550000D03*
%TO.P,U1,26,PB0*%
%TO.N,unconnected-(U1-Pad26)*%
X63525000Y-97050000D03*
%TO.P,U1,27,PB1*%
%TO.N,unconnected-(U1-Pad27)*%
X63525000Y-97550000D03*
%TO.P,U1,28,PB2*%
%TO.N,unconnected-(U1-Pad28)*%
X63525000Y-98050000D03*
%TO.P,U1,29,PB10*%
%TO.N,unconnected-(U1-Pad29)*%
X63525000Y-98550000D03*
%TO.P,U1,30,PB11*%
%TO.N,unconnected-(U1-Pad30)*%
X63525000Y-99050000D03*
%TO.P,U1,31,VSS*%
%TO.N,GND*%
X63525000Y-99550000D03*
%TO.P,U1,32,VDD*%
%TO.N,+3V3*%
X63525000Y-100050000D03*
D14*
%TO.P,U1,33,PB12*%
%TO.N,unconnected-(U1-Pad33)*%
X65450000Y-101975000D03*
%TO.P,U1,34,PB13*%
%TO.N,unconnected-(U1-Pad34)*%
X65950000Y-101975000D03*
%TO.P,U1,35,PB14*%
%TO.N,unconnected-(U1-Pad35)*%
X66450000Y-101975000D03*
%TO.P,U1,36,PB15*%
%TO.N,unconnected-(U1-Pad36)*%
X66950000Y-101975000D03*
%TO.P,U1,37,PC6*%
%TO.N,RED_LED*%
X67450000Y-101975000D03*
%TO.P,U1,38,PC7*%
%TO.N,GREEN_LED*%
X67950000Y-101975000D03*
%TO.P,U1,39,PC8*%
%TO.N,unconnected-(U1-Pad39)*%
X68450000Y-101975000D03*
%TO.P,U1,40,PC9*%
%TO.N,unconnected-(U1-Pad40)*%
X68950000Y-101975000D03*
%TO.P,U1,41,PA8*%
%TO.N,unconnected-(U1-Pad41)*%
X69450000Y-101975000D03*
%TO.P,U1,42,PA9*%
%TO.N,unconnected-(U1-Pad42)*%
X69950000Y-101975000D03*
%TO.P,U1,43,PA10*%
%TO.N,unconnected-(U1-Pad43)*%
X70450000Y-101975000D03*
%TO.P,U1,44,PA11*%
%TO.N,unconnected-(U1-Pad44)*%
X70950000Y-101975000D03*
%TO.P,U1,45,PA12*%
%TO.N,unconnected-(U1-Pad45)*%
X71450000Y-101975000D03*
%TO.P,U1,46,PA13*%
%TO.N,SWDIO*%
X71950000Y-101975000D03*
%TO.P,U1,47,VSS*%
%TO.N,GND*%
X72450000Y-101975000D03*
%TO.P,U1,48,VDD*%
%TO.N,+3V3*%
X72950000Y-101975000D03*
D15*
%TO.P,U1,49,PA14*%
%TO.N,SWCLK*%
X74875000Y-100050000D03*
%TO.P,U1,50,PA15*%
%TO.N,RESET_RFM9X*%
X74875000Y-99550000D03*
%TO.P,U1,51,PC10*%
%TO.N,SPI3_SCK*%
X74875000Y-99050000D03*
%TO.P,U1,52,PC11*%
%TO.N,SPI3_MISO*%
X74875000Y-98550000D03*
%TO.P,U1,53,PC12*%
%TO.N,SPI3_MOSI*%
X74875000Y-98050000D03*
%TO.P,U1,54,PD2*%
%TO.N,SPI3_NSS*%
X74875000Y-97550000D03*
%TO.P,U1,55,PB3*%
%TO.N,unconnected-(U1-Pad55)*%
X74875000Y-97050000D03*
%TO.P,U1,56,PB4*%
%TO.N,unconnected-(U1-Pad56)*%
X74875000Y-96550000D03*
%TO.P,U1,57,PB5*%
%TO.N,unconnected-(U1-Pad57)*%
X74875000Y-96050000D03*
%TO.P,U1,58,PB6*%
%TO.N,I2C1_SCL*%
X74875000Y-95550000D03*
%TO.P,U1,59,PB7*%
%TO.N,I2C1_SDA*%
X74875000Y-95050000D03*
%TO.P,U1,60,PH3*%
%TO.N,BOOT0*%
X74875000Y-94550000D03*
%TO.P,U1,61,PB8*%
%TO.N,unconnected-(U1-Pad61)*%
X74875000Y-94050000D03*
%TO.P,U1,62,PB9*%
%TO.N,unconnected-(U1-Pad62)*%
X74875000Y-93550000D03*
%TO.P,U1,63,VSS*%
%TO.N,GND*%
X74875000Y-93050000D03*
%TO.P,U1,64,VDD*%
%TO.N,+3V3*%
X74875000Y-92550000D03*
%TD*%
D16*
%TO.P,C10,1*%
%TO.N,+3.3VA*%
X66500000Y-87480000D03*
%TO.P,C10,2*%
%TO.N,GND*%
X66500000Y-86520000D03*
%TD*%
D17*
%TO.P,C11,1*%
%TO.N,+3.3VA*%
X66620000Y-88650000D03*
%TO.P,C11,2*%
%TO.N,GND*%
X67580000Y-88650000D03*
%TD*%
D18*
%TO.P,C1,1*%
%TO.N,+5V*%
X55300000Y-93875000D03*
%TO.P,C1,2*%
%TO.N,GND*%
X55300000Y-90925000D03*
%TD*%
D19*
%TO.P,H1,1*%
%TO.N,N/C*%
X108433274Y-97133274D03*
X109600000Y-99950000D03*
X111250000Y-98300000D03*
D20*
X109600000Y-98300000D03*
D19*
X109600000Y-96650000D03*
X110766726Y-97133274D03*
X108433274Y-99466726D03*
X110766726Y-99466726D03*
X107950000Y-98300000D03*
%TD*%
D21*
%TO.P,C8,1*%
%TO.N,+3V3*%
X76900000Y-92070000D03*
%TO.P,C8,2*%
%TO.N,GND*%
X76900000Y-93030000D03*
%TD*%
D16*
%TO.P,C3,1*%
%TO.N,+3V3*%
X75400000Y-88680000D03*
%TO.P,C3,2*%
%TO.N,GND*%
X75400000Y-87720000D03*
%TD*%
%TO.P,C6,1*%
%TO.N,+3V3*%
X61500000Y-100280000D03*
%TO.P,C6,2*%
%TO.N,GND*%
X61500000Y-99320000D03*
%TD*%
D22*
%TO.P,L1,1*%
%TO.N,+3V3*%
X64265000Y-87550000D03*
%TO.P,L1,2*%
%TO.N,+3.3VA*%
X65235000Y-87550000D03*
%TD*%
D18*
%TO.P,C2,1*%
%TO.N,+3V3*%
X58000000Y-93875000D03*
%TO.P,C2,2*%
%TO.N,GND*%
X58000000Y-90925000D03*
%TD*%
D23*
%TO.P,SW1,1,1*%
%TO.N,NRST*%
X85100000Y-88800000D03*
%TO.P,SW1,2,2*%
%TO.N,GND*%
X88500000Y-88800000D03*
%TD*%
D24*
%TO.P,R1,1*%
%TO.N,BOOT0*%
X77790000Y-94550000D03*
%TO.P,R1,2*%
%TO.N,GND*%
X78810000Y-94550000D03*
%TD*%
D25*
%TO.P,R2,1*%
%TO.N,Net-(D2-Pad1)*%
X62525000Y-111250000D03*
%TO.P,R2,2*%
%TO.N,GND*%
X64175000Y-111250000D03*
%TD*%
D26*
%TO.P,Y1,1,1*%
%TO.N,LSE_OUT*%
X68850000Y-87600000D03*
%TO.P,Y1,2,2*%
%TO.N,LSE_IN*%
X71350000Y-87600000D03*
%TD*%
D27*
%TO.P,R3,1*%
%TO.N,Net-(D3-Pad1)*%
X60625000Y-111250000D03*
%TO.P,R3,2*%
%TO.N,GND*%
X58975000Y-111250000D03*
%TD*%
D12*
%TO.P,C4,1*%
%TO.N,+3V3*%
X73780000Y-88700000D03*
%TO.P,C4,2*%
%TO.N,GND*%
X72820000Y-88700000D03*
%TD*%
D28*
%TO.P,U3,1,IN*%
%TO.N,+5V*%
X55450000Y-97550000D03*
%TO.P,U3,2,GND*%
%TO.N,GND*%
X55450000Y-98500000D03*
%TO.P,U3,3,EN*%
%TO.N,+5V*%
X55450000Y-99450000D03*
%TO.P,U3,4,NC*%
%TO.N,unconnected-(U3-Pad4)*%
X57950000Y-99450000D03*
%TO.P,U3,5,OUT*%
%TO.N,+3V3*%
X57950000Y-97550000D03*
%TD*%
D29*
%TO.P,J4,1,Pin_1*%
%TO.N,+3V3*%
X84100000Y-112075000D03*
D30*
%TO.P,J4,2,Pin_2*%
%TO.N,GND*%
X86640000Y-112075000D03*
%TO.P,J4,3,Pin_3*%
%TO.N,I2C1_SCL*%
X89180000Y-112075000D03*
%TO.P,J4,4,Pin_4*%
%TO.N,I2C1_SDA*%
X91720000Y-112075000D03*
%TO.P,J4,5,Pin_5*%
%TO.N,unconnected-(J4-Pad5)*%
X94260000Y-112075000D03*
%TO.P,J4,6,Pin_6*%
%TO.N,unconnected-(J4-Pad6)*%
X96800000Y-112075000D03*
%TO.P,J4,7,Pin_7*%
%TO.N,unconnected-(J4-Pad7)*%
X99340000Y-112075000D03*
%TD*%
D17*
%TO.P,C9,1*%
%TO.N,NRST*%
X86320000Y-86550000D03*
%TO.P,C9,2*%
%TO.N,GND*%
X87280000Y-86550000D03*
%TD*%
%TO.P,C12,1*%
%TO.N,LSE_IN*%
X71470000Y-85855000D03*
%TO.P,C12,2*%
%TO.N,GND*%
X72430000Y-85855000D03*
%TD*%
D12*
%TO.P,C7,1*%
%TO.N,+3V3*%
X73530000Y-104100000D03*
%TO.P,C7,2*%
%TO.N,GND*%
X72570000Y-104100000D03*
%TD*%
D31*
%TO.P,U2,1,GND*%
%TO.N,GND*%
X83787500Y-92300000D03*
%TO.P,U2,2,MISO*%
%TO.N,SPI3_MISO*%
X83787500Y-94300000D03*
%TO.P,U2,3,MOSI*%
%TO.N,SPI3_MOSI*%
X83787500Y-96300000D03*
%TO.P,U2,4,SCK*%
%TO.N,SPI3_SCK*%
X83787500Y-98300000D03*
%TO.P,U2,5,NSS*%
%TO.N,SPI3_NSS*%
X83787500Y-100300000D03*
%TO.P,U2,6,~{RESET}*%
%TO.N,RESET_RFM9X*%
X83787500Y-102300000D03*
%TO.P,U2,7,DIO5*%
%TO.N,unconnected-(U2-Pad7)*%
X83787500Y-104300000D03*
%TO.P,U2,8,GND*%
%TO.N,GND*%
X83787500Y-106300000D03*
%TO.P,U2,9,DIO2*%
%TO.N,unconnected-(U2-Pad9)*%
X98787500Y-92300000D03*
%TO.P,U2,10,DIO1*%
%TO.N,unconnected-(U2-Pad10)*%
X98787500Y-94300000D03*
%TO.P,U2,11,DIO0*%
%TO.N,unconnected-(U2-Pad11)*%
X98787500Y-96300000D03*
%TO.P,U2,12,VDD*%
%TO.N,+3V3*%
X98787500Y-98300000D03*
%TO.P,U2,13,DIO4*%
%TO.N,unconnected-(U2-Pad13)*%
X98787500Y-100300000D03*
%TO.P,U2,14,DIO3*%
%TO.N,unconnected-(U2-Pad14)*%
X98787500Y-102300000D03*
%TO.P,U2,15,GND*%
%TO.N,GND*%
X98787500Y-104300000D03*
%TO.P,U2,16,ANT*%
%TO.N,/ANT*%
X98787500Y-106300000D03*
%TD*%
D16*
%TO.P,C5,1*%
%TO.N,+3V3*%
X61500000Y-93730000D03*
%TO.P,C5,2*%
%TO.N,GND*%
X61500000Y-92770000D03*
%TD*%
D19*
%TO.P,H2,1*%
%TO.N,N/C*%
X49150000Y-98300000D03*
X47500000Y-99950000D03*
D20*
X47500000Y-98300000D03*
D19*
X46333274Y-97133274D03*
X48666726Y-99466726D03*
X46333274Y-99466726D03*
X48666726Y-97133274D03*
X47500000Y-96650000D03*
X45850000Y-98300000D03*
%TD*%
D32*
%TO.P,D2,1,K*%
%TO.N,Net-(D2-Pad1)*%
X62512500Y-108600000D03*
%TO.P,D2,2,A*%
%TO.N,GREEN_LED*%
X64087500Y-108600000D03*
%TD*%
D33*
%TO.P,D3,1,K*%
%TO.N,Net-(D3-Pad1)*%
X64037500Y-106050000D03*
%TO.P,D3,2,A*%
%TO.N,RED_LED*%
X62462500Y-106050000D03*
%TD*%
D29*
%TO.P,J2,1,Pin_1*%
%TO.N,SWDIO*%
X69600000Y-111575000D03*
D30*
%TO.P,J2,2,Pin_2*%
%TO.N,GND*%
X72140000Y-111575000D03*
%TO.P,J2,3,Pin_3*%
%TO.N,SWCLK*%
X74680000Y-111575000D03*
%TO.P,J2,4,Pin_4*%
%TO.N,+3V3*%
X77220000Y-111575000D03*
%TD*%
D34*
%TO.P,J7,1,In*%
%TO.N,/ANT*%
X104837500Y-109700000D03*
D35*
%TO.P,J7,2,Ext*%
%TO.N,GND*%
X104637500Y-112525000D03*
X104637500Y-106875000D03*
%TD*%
D29*
%TO.P,J5,1,Pin_1*%
%TO.N,GND*%
X51800000Y-111400000D03*
D30*
%TO.P,J5,2,Pin_2*%
%TO.N,LPUART1_TX*%
X51800000Y-108860000D03*
%TO.P,J5,3,Pin_3*%
%TO.N,LPUART1_RX*%
X51800000Y-106320000D03*
%TO.P,J5,4,Pin_4*%
%TO.N,+5V*%
X51800000Y-103780000D03*
%TD*%
D29*
%TO.P,J3,1,Pin_1*%
%TO.N,V_GAS*%
X104100000Y-85600000D03*
D30*
%TO.P,J3,2,Pin_2*%
%TO.N,V_REF_IN*%
X104100000Y-88140000D03*
%TO.P,J3,3,Pin_3*%
%TO.N,unconnected-(J3-Pad3)*%
X104100000Y-90680000D03*
%TO.P,J3,4,Pin_4*%
%TO.N,unconnected-(J3-Pad4)*%
X104100000Y-93220000D03*
%TO.P,J3,5,Pin_5*%
%TO.N,unconnected-(J3-Pad5)*%
X104100000Y-95760000D03*
%TO.P,J3,6,Pin_6*%
%TO.N,GND*%
X104100000Y-98300000D03*
%TO.P,J3,7,Pin_7*%
%TO.N,unconnected-(J3-Pad7)*%
X104100000Y-100840000D03*
%TO.P,J3,8,Pin_8*%
%TO.N,Net-(D1-Pad1)*%
X104100000Y-103380000D03*
%TD*%
D36*
%TO.N,+3V3*%
X92250000Y-99800000D03*
X84550000Y-108000000D03*
%TO.N,I2C1_SCL*%
X86700000Y-100200000D03*
X77090000Y-95780000D03*
%TO.N,GND*%
X61500000Y-98500000D03*
X65350000Y-111250000D03*
X53400000Y-90950000D03*
X52050000Y-90100000D03*
X65650000Y-86550000D03*
X66900000Y-85800000D03*
X72700000Y-105200000D03*
X56600000Y-98450000D03*
X101650000Y-105650000D03*
X61500000Y-92000000D03*
X72800000Y-87800000D03*
X101830000Y-106430000D03*
X101500000Y-111300000D03*
X101200000Y-104500000D03*
X101790000Y-112170000D03*
X51900000Y-88400000D03*
X65150000Y-93600000D03*
X57850000Y-111250000D03*
X75600000Y-86800000D03*
X67600000Y-87900000D03*
X50600000Y-87100000D03*
X73300000Y-85900000D03*
X86300000Y-106300000D03*
X78800000Y-93750000D03*
X77700000Y-93050000D03*
%TO.N,I2C1_SDA*%
X72350000Y-95050000D03*
%TO.N,NRST*%
X82200000Y-88800000D03*
X70600000Y-93400000D03*
%TO.N,Net-(D1-Pad1)*%
X80800000Y-103600000D03*
%TO.N,V_REF_IN*%
X66450000Y-92150000D03*
%TO.N,V_GAS*%
X60450000Y-94700000D03*
%TO.N,SPI3_NSS*%
X80650000Y-100300000D03*
X77990000Y-97120000D03*
%TO.N,SPI3_MISO*%
X81000000Y-97100000D03*
X81250000Y-94850000D03*
%TO.N,LPUART1_TX*%
X68550000Y-96900000D03*
%TO.N,LPUART1_RX*%
X69450000Y-94450000D03*
%TD*%
D37*
%TO.N,+3V3*%
X60480000Y-100280000D02*
X61500000Y-100280000D01*
X59875000Y-93875000D02*
X60020000Y-93730000D01*
X76900000Y-88000000D02*
X76220000Y-88680000D01*
X75030000Y-84850000D02*
X72900000Y-84850000D01*
X75710000Y-91600000D02*
X73920000Y-91600000D01*
X75400000Y-88680000D02*
X73800000Y-88680000D01*
D38*
X73550000Y-105850000D02*
X73550000Y-104120000D01*
X63525000Y-100050000D02*
X62400000Y-100050000D01*
X72950000Y-103130000D02*
X73530000Y-103710000D01*
X77220000Y-112880000D02*
X77100000Y-113000000D01*
D37*
X73920000Y-91600000D02*
X71240000Y-94280000D01*
D38*
X74875000Y-92550000D02*
X75740000Y-92550000D01*
D37*
X59250000Y-97550000D02*
X59850000Y-98150000D01*
X59850000Y-99650000D02*
X60480000Y-100280000D01*
D38*
X62170000Y-100280000D02*
X61500000Y-100280000D01*
X75740000Y-92550000D02*
X76220000Y-92070000D01*
D37*
X58000000Y-93875000D02*
X59875000Y-93875000D01*
D38*
X62400000Y-100050000D02*
X62170000Y-100280000D01*
X80675000Y-112075000D02*
X84100000Y-112075000D01*
D37*
X76900000Y-88000000D02*
X76900000Y-86720000D01*
D38*
X72950000Y-90625000D02*
X73075000Y-90625000D01*
D37*
X76900000Y-86720000D02*
X75030000Y-84850000D01*
X60020000Y-93730000D02*
X61500000Y-93730000D01*
X71240000Y-98550000D02*
X73560000Y-100870000D01*
D38*
X78500000Y-107100000D02*
X78500000Y-108500000D01*
X73780000Y-89920000D02*
X73780000Y-88700000D01*
X62170000Y-93730000D02*
X61500000Y-93730000D01*
X78500000Y-108500000D02*
X77220000Y-109780000D01*
D37*
X72900000Y-84850000D02*
X65600000Y-84850000D01*
X76900000Y-90410000D02*
X75710000Y-91600000D01*
X76220000Y-88680000D02*
X75400000Y-88680000D01*
D38*
X63525000Y-93550000D02*
X62350000Y-93550000D01*
X73400000Y-112700000D02*
X73400000Y-106000000D01*
D37*
X73560000Y-100870000D02*
X73560000Y-104070000D01*
D38*
X76220000Y-92070000D02*
X76900000Y-92070000D01*
X73530000Y-103710000D02*
X73530000Y-104100000D01*
D37*
X64265000Y-87550000D02*
X62400000Y-87550000D01*
X62400000Y-87550000D02*
X60020000Y-89930000D01*
X73800000Y-88680000D02*
X73780000Y-88700000D01*
X64265000Y-86185000D02*
X64265000Y-87550000D01*
X60020000Y-89930000D02*
X60020000Y-93730000D01*
X59850000Y-98150000D02*
X59850000Y-99650000D01*
X65600000Y-84850000D02*
X64265000Y-86185000D01*
D38*
X73700000Y-113000000D02*
X73400000Y-112700000D01*
X80175000Y-111575000D02*
X80675000Y-112075000D01*
D37*
X57950000Y-97550000D02*
X59250000Y-97550000D01*
D38*
X72950000Y-101975000D02*
X72950000Y-103130000D01*
X77220000Y-109780000D02*
X77220000Y-111575000D01*
X73075000Y-90625000D02*
X73780000Y-89920000D01*
X93750000Y-98300000D02*
X92250000Y-99800000D01*
D37*
X73560000Y-104070000D02*
X73530000Y-104100000D01*
D38*
X77100000Y-113000000D02*
X73700000Y-113000000D01*
X73550000Y-104120000D02*
X73530000Y-104100000D01*
X84100000Y-112075000D02*
X84100000Y-108450000D01*
D37*
X76900000Y-92070000D02*
X76900000Y-90410000D01*
D38*
X62350000Y-93550000D02*
X62170000Y-93730000D01*
D37*
X76900000Y-90410000D02*
X76900000Y-88000000D01*
X58000000Y-93875000D02*
X58000000Y-97500000D01*
D38*
X77220000Y-111575000D02*
X80175000Y-111575000D01*
X98287500Y-98300000D02*
X93750000Y-98300000D01*
D37*
X58000000Y-97500000D02*
X57950000Y-97550000D01*
D38*
X77220000Y-111575000D02*
X77220000Y-112880000D01*
D37*
X71240000Y-94280000D02*
X71240000Y-98550000D01*
D38*
X84100000Y-108450000D02*
X84550000Y-108000000D01*
X73400000Y-106000000D02*
X73550000Y-105850000D01*
%TO.N,I2C1_SCL*%
X74875000Y-95550000D02*
X76860000Y-95550000D01*
X89180000Y-112075000D02*
X89180000Y-102680000D01*
X89180000Y-102680000D02*
X86700000Y-100200000D01*
X76860000Y-95550000D02*
X77090000Y-95780000D01*
%TO.N,GND*%
X102175000Y-112525000D02*
X101500000Y-111850000D01*
X102325000Y-106875000D02*
X101650000Y-106200000D01*
X67450000Y-89400000D02*
X67580000Y-89270000D01*
X72570000Y-105070000D02*
X72700000Y-105200000D01*
X104637500Y-106875000D02*
X102325000Y-106875000D01*
X86640000Y-112075000D02*
X86640000Y-106640000D01*
X64600000Y-93050000D02*
X65150000Y-93600000D01*
X98287500Y-104300000D02*
X101000000Y-104300000D01*
X62350000Y-99550000D02*
X62120000Y-99320000D01*
X72430000Y-85855000D02*
X73255000Y-85855000D01*
X72450000Y-103265704D02*
X72570000Y-103385704D01*
X66955000Y-85855000D02*
X66900000Y-85800000D01*
X78810000Y-94550000D02*
X78810000Y-93760000D01*
X55450000Y-98500000D02*
X56550000Y-98500000D01*
D39*
X55300000Y-90925000D02*
X58000000Y-90925000D01*
X50660000Y-87060000D02*
X51950000Y-88350000D01*
D38*
X65680000Y-86520000D02*
X65650000Y-86550000D01*
X101000000Y-104300000D02*
X101200000Y-104500000D01*
X101650000Y-106200000D02*
X101650000Y-105650000D01*
X62400000Y-93050000D02*
X62120000Y-92770000D01*
X101500000Y-111850000D02*
X101500000Y-111300000D01*
X88500000Y-86900000D02*
X88500000Y-88800000D01*
X77680000Y-93030000D02*
X77700000Y-93050000D01*
X78810000Y-93760000D02*
X78800000Y-93750000D01*
X88500000Y-91500000D02*
X88500000Y-88800000D01*
D39*
X48200000Y-87060000D02*
X50660000Y-87060000D01*
D38*
X76880000Y-93050000D02*
X76900000Y-93030000D01*
X82200000Y-92300000D02*
X84287500Y-92300000D01*
X56550000Y-98500000D02*
X56600000Y-98450000D01*
X87700000Y-92300000D02*
X88500000Y-91500000D01*
X75400000Y-87720000D02*
X75400000Y-87000000D01*
X63525000Y-93050000D02*
X62400000Y-93050000D01*
X74875000Y-93050000D02*
X76880000Y-93050000D01*
D39*
X51950000Y-88350000D02*
X51950000Y-90050000D01*
D38*
X62120000Y-99320000D02*
X61500000Y-99320000D01*
X86640000Y-106640000D02*
X86300000Y-106300000D01*
X67580000Y-87920000D02*
X67600000Y-87900000D01*
X72820000Y-87820000D02*
X72800000Y-87800000D01*
X72570000Y-103385704D02*
X72570000Y-104100000D01*
X67580000Y-88650000D02*
X67580000Y-87920000D01*
X67450000Y-90625000D02*
X67450000Y-89400000D01*
D39*
X51950000Y-90050000D02*
X52825000Y-90925000D01*
D38*
X67580000Y-89270000D02*
X67580000Y-88650000D01*
X88150000Y-86550000D02*
X88500000Y-86900000D01*
X84287500Y-106300000D02*
X86300000Y-106300000D01*
X66500000Y-86520000D02*
X65680000Y-86520000D01*
X87280000Y-86550000D02*
X88150000Y-86550000D01*
X64175000Y-111250000D02*
X65350000Y-111250000D01*
X63525000Y-99550000D02*
X62350000Y-99550000D01*
X72570000Y-104100000D02*
X72570000Y-105070000D01*
X72820000Y-88700000D02*
X72820000Y-87820000D01*
X73255000Y-85855000D02*
X73300000Y-85900000D01*
X58975000Y-111250000D02*
X57850000Y-111250000D01*
D39*
X52825000Y-90925000D02*
X55300000Y-90925000D01*
D38*
X78810000Y-94550000D02*
X79950000Y-94550000D01*
X84287500Y-92300000D02*
X87700000Y-92300000D01*
X76900000Y-93030000D02*
X77680000Y-93030000D01*
X79950000Y-94550000D02*
X82200000Y-92300000D01*
X67770000Y-85855000D02*
X66955000Y-85855000D01*
X104637500Y-112525000D02*
X102175000Y-112525000D01*
X62120000Y-92770000D02*
X61500000Y-92770000D01*
X75400000Y-87000000D02*
X75600000Y-86800000D01*
X72450000Y-101975000D02*
X72450000Y-103265704D01*
X61500000Y-92770000D02*
X61500000Y-92000000D01*
X63525000Y-93050000D02*
X64600000Y-93050000D01*
X61500000Y-99320000D02*
X61500000Y-98500000D01*
%TO.N,I2C1_SDA*%
X72350000Y-95050000D02*
X74875000Y-95050000D01*
%TO.N,NRST*%
X85450000Y-86550000D02*
X85100000Y-86900000D01*
X82200000Y-88800000D02*
X85100000Y-88800000D01*
X69950000Y-90625000D02*
X69950000Y-92750000D01*
X86320000Y-86550000D02*
X85450000Y-86550000D01*
X85100000Y-86900000D02*
X85100000Y-88800000D01*
X69950000Y-92750000D02*
X70600000Y-93400000D01*
%TO.N,+3.3VA*%
X66500000Y-88000000D02*
X66500000Y-87480000D01*
X65920000Y-87480000D02*
X65850000Y-87550000D01*
X66620000Y-88120000D02*
X66500000Y-88000000D01*
X66950000Y-90625000D02*
X66950000Y-89600000D01*
X65850000Y-87550000D02*
X65235000Y-87550000D01*
X66950000Y-89600000D02*
X66620000Y-89270000D01*
X66620000Y-88650000D02*
X66620000Y-88120000D01*
X66500000Y-87480000D02*
X65920000Y-87480000D01*
X66620000Y-89270000D02*
X66620000Y-88650000D01*
%TO.N,Net-(D1-Pad1)*%
X78500000Y-105000000D02*
X78500000Y-104200000D01*
X78500000Y-104200000D02*
X79250000Y-103450000D01*
X80650000Y-103450000D02*
X80800000Y-103600000D01*
X79250000Y-103450000D02*
X80650000Y-103450000D01*
%TO.N,Net-(D2-Pad1)*%
X62512500Y-108600000D02*
X62512500Y-111237500D01*
X62512500Y-111237500D02*
X62525000Y-111250000D01*
%TO.N,RESET_RFM9X*%
X79250000Y-102300000D02*
X84287500Y-102300000D01*
X76500000Y-99550000D02*
X79250000Y-102300000D01*
X74875000Y-99550000D02*
X76500000Y-99550000D01*
D40*
%TO.N,/ANT*%
X100250000Y-109700000D02*
X98287500Y-107737500D01*
X98287500Y-107737500D02*
X98287500Y-106300000D01*
X104837500Y-109700000D02*
X100250000Y-109700000D01*
D38*
%TO.N,V_REF_IN*%
X66450000Y-92150000D02*
X66450000Y-90625000D01*
%TO.N,GREEN_LED*%
X67950000Y-101975000D02*
X67950000Y-106050000D01*
X64800000Y-107300000D02*
X64087500Y-108012500D01*
X67950000Y-106050000D02*
X66700000Y-107300000D01*
X64087500Y-108012500D02*
X64087500Y-108600000D01*
X66700000Y-107300000D02*
X64800000Y-107300000D01*
%TO.N,V_REF_OUT*%
X65950000Y-93150000D02*
X65950000Y-95200000D01*
X65350000Y-92550000D02*
X65950000Y-93150000D01*
X65600000Y-95550000D02*
X63525000Y-95550000D01*
X65950000Y-95200000D02*
X65600000Y-95550000D01*
X63525000Y-92550000D02*
X65350000Y-92550000D01*
%TO.N,V_GAS*%
X60800000Y-95050000D02*
X63525000Y-95050000D01*
X60450000Y-94700000D02*
X60800000Y-95050000D01*
%TO.N,RED_LED*%
X62462500Y-104337500D02*
X62462500Y-106050000D01*
X67450000Y-103400000D02*
X66950000Y-103900000D01*
X62900000Y-103900000D02*
X62462500Y-104337500D01*
X67450000Y-101975000D02*
X67450000Y-103400000D01*
X66950000Y-103900000D02*
X62900000Y-103900000D01*
%TO.N,SWDIO*%
X69600000Y-107700000D02*
X69600000Y-111575000D01*
X71950000Y-105350000D02*
X69600000Y-107700000D01*
X71950000Y-101975000D02*
X71950000Y-105350000D01*
%TO.N,SWCLK*%
X74680000Y-102470000D02*
X74875000Y-102275000D01*
X74875000Y-102275000D02*
X74875000Y-100050000D01*
X74680000Y-111575000D02*
X74680000Y-102470000D01*
D39*
%TO.N,+5V*%
X50440000Y-92140000D02*
X52175000Y-93875000D01*
D41*
X51800000Y-100600000D02*
X52950000Y-99450000D01*
D42*
X55300000Y-95300000D02*
X55450000Y-95450000D01*
D43*
X52950000Y-97900000D02*
X53300000Y-97550000D01*
X52950000Y-99450000D02*
X55450000Y-99450000D01*
D44*
X55300000Y-93875000D02*
X55300000Y-95300000D01*
D45*
X52950000Y-99450000D02*
X52950000Y-97900000D01*
D43*
X53300000Y-97550000D02*
X55450000Y-97550000D01*
D45*
X55450000Y-95450000D02*
X55450000Y-97500489D01*
D39*
X48200000Y-92140000D02*
X50440000Y-92140000D01*
X51800000Y-103780000D02*
X51800000Y-100600000D01*
X52175000Y-93875000D02*
X55300000Y-93875000D01*
D38*
%TO.N,SPI3_NSS*%
X77560000Y-97550000D02*
X77990000Y-97120000D01*
X74875000Y-97550000D02*
X77560000Y-97550000D01*
X84287500Y-100300000D02*
X80650000Y-100300000D01*
%TO.N,SPI3_SCK*%
X81450000Y-98300000D02*
X84287500Y-98300000D01*
X80700000Y-99050000D02*
X81450000Y-98300000D01*
X74875000Y-99050000D02*
X80700000Y-99050000D01*
%TO.N,SPI3_MISO*%
X79550000Y-98550000D02*
X81000000Y-97100000D01*
X74875000Y-98550000D02*
X79550000Y-98550000D01*
X81800000Y-94300000D02*
X84287500Y-94300000D01*
X81250000Y-94850000D02*
X81800000Y-94300000D01*
%TO.N,SPI3_MOSI*%
X78500000Y-98050000D02*
X80250000Y-96300000D01*
X74875000Y-98050000D02*
X78500000Y-98050000D01*
X80250000Y-96300000D02*
X84287500Y-96300000D01*
%TO.N,LSE_IN*%
X71950000Y-89350000D02*
X71350000Y-88750000D01*
X71350000Y-88750000D02*
X71350000Y-87600000D01*
X71950000Y-90625000D02*
X71950000Y-89350000D01*
X71350000Y-87600000D02*
X71350000Y-86450000D01*
X71470000Y-86330000D02*
X71470000Y-85855000D01*
X71350000Y-86450000D02*
X71470000Y-86330000D01*
%TO.N,LSE_OUT*%
X71450000Y-89784994D02*
X70815006Y-89150000D01*
X68850000Y-88850000D02*
X68850000Y-87600000D01*
X68850000Y-87600000D02*
X68850000Y-86450000D01*
X71450000Y-90625000D02*
X71450000Y-89784994D01*
X68850000Y-86450000D02*
X68730000Y-86330000D01*
X69150000Y-89150000D02*
X68850000Y-88850000D01*
X68730000Y-86330000D02*
X68730000Y-85855000D01*
X70815006Y-89150000D02*
X69150000Y-89150000D01*
%TO.N,Net-(D3-Pad1)*%
X61600000Y-107300000D02*
X60625000Y-108275000D01*
X63650000Y-107300000D02*
X61600000Y-107300000D01*
X64037500Y-106912500D02*
X63650000Y-107300000D01*
X64037500Y-106050000D02*
X64037500Y-106912500D01*
X60625000Y-108275000D02*
X60625000Y-111250000D01*
%TO.N,LPUART1_TX*%
X68950000Y-93350000D02*
X68950000Y-90625000D01*
X68550000Y-96900000D02*
X68550000Y-93750000D01*
X68550000Y-93750000D02*
X68950000Y-93350000D01*
%TO.N,LPUART1_RX*%
X69450000Y-94450000D02*
X69450000Y-90625000D01*
%TO.N,BOOT0*%
X74875000Y-94550000D02*
X77790000Y-94550000D01*
%TD*%
M02*
