%TF.GenerationSoftware,KiCad,Pcbnew,(6.0.1)*%
%TF.CreationDate,2022-10-02T00:08:38-05:00*%
%TF.ProjectId,PCBFiles_Node,50434246-696c-4657-935f-4e6f64652e6b,rev?*%
%TF.SameCoordinates,Original*%
%TF.FileFunction,Soldermask,Bot*%
%TF.FilePolarity,Negative*%
%FSLAX46Y46*%
G04 Gerber Fmt 4.6, Leading zero omitted, Abs format (unit mm)*
G04 Created by KiCad (PCBNEW (6.0.1)) date 2022-10-02 00:08:38*
%MOMM*%
%LPD*%
G01*
G04 APERTURE LIST*
%ADD10R,3.000000X3.000000*%
%ADD11C,3.000000*%
%ADD12C,0.700000*%
%ADD13C,4.400000*%
%ADD14R,1.700000X1.700000*%
%ADD15O,1.700000X1.700000*%
%ADD16R,4.200000X1.350000*%
%ADD17R,0.600000X0.450000*%
G04 APERTURE END LIST*
D10*
%TO.C,J1*%
X105900000Y-82840000D03*
D11*
X105900000Y-77760000D03*
%TD*%
D12*
%TO.C,H1*%
X166133274Y-87833274D03*
X167300000Y-90650000D03*
X168950000Y-89000000D03*
D13*
X167300000Y-89000000D03*
D12*
X167300000Y-87350000D03*
X168466726Y-87833274D03*
X166133274Y-90166726D03*
X168466726Y-90166726D03*
X165650000Y-89000000D03*
%TD*%
D14*
%TO.C,J4*%
X141800000Y-102775000D03*
D15*
X144340000Y-102775000D03*
X146880000Y-102775000D03*
X149420000Y-102775000D03*
X151960000Y-102775000D03*
X154500000Y-102775000D03*
X157040000Y-102775000D03*
%TD*%
D12*
%TO.C,H2*%
X106850000Y-89000000D03*
X105200000Y-90650000D03*
D13*
X105200000Y-89000000D03*
D12*
X104033274Y-87833274D03*
X106366726Y-90166726D03*
X104033274Y-90166726D03*
X106366726Y-87833274D03*
X105200000Y-87350000D03*
X103550000Y-89000000D03*
%TD*%
D14*
%TO.C,J2*%
X127300000Y-102275000D03*
D15*
X129840000Y-102275000D03*
X132380000Y-102275000D03*
X134920000Y-102275000D03*
%TD*%
D16*
%TO.C,J7*%
X162337500Y-97575000D03*
X162337500Y-103225000D03*
%TD*%
D14*
%TO.C,J5*%
X109500000Y-102100000D03*
D15*
X109500000Y-99560000D03*
X109500000Y-97020000D03*
X109500000Y-94480000D03*
%TD*%
D17*
%TO.C,D1*%
X152350000Y-98700000D03*
X150250000Y-98700000D03*
%TD*%
D14*
%TO.C,J3*%
X161800000Y-76300000D03*
D15*
X161800000Y-78840000D03*
X161800000Y-81380000D03*
X161800000Y-83920000D03*
X161800000Y-86460000D03*
X161800000Y-89000000D03*
X161800000Y-91540000D03*
X161800000Y-94080000D03*
%TD*%
M02*
