%TF.GenerationSoftware,KiCad,Pcbnew,(6.0.1)*%
%TF.CreationDate,2022-10-14T11:39:46-05:00*%
%TF.ProjectId,PCBFiles_Node,50434246-696c-4657-935f-4e6f64652e6b,rev?*%
%TF.SameCoordinates,Original*%
%TF.FileFunction,Legend,Top*%
%TF.FilePolarity,Positive*%
%FSLAX46Y46*%
G04 Gerber Fmt 4.6, Leading zero omitted, Abs format (unit mm)*
G04 Created by KiCad (PCBNEW (6.0.1)) date 2022-10-14 11:39:46*
%MOMM*%
%LPD*%
G01*
G04 APERTURE LIST*
%ADD10C,0.125000*%
%ADD11C,0.100000*%
%ADD12C,0.300000*%
%ADD13C,0.150000*%
%ADD14C,0.120000*%
%ADD15C,0.200000*%
G04 APERTURE END LIST*
D10*
X91457142Y-109071428D02*
X91428571Y-109157142D01*
X91428571Y-109300000D01*
X91457142Y-109357142D01*
X91485714Y-109385714D01*
X91542857Y-109414285D01*
X91600000Y-109414285D01*
X91657142Y-109385714D01*
X91685714Y-109357142D01*
X91714285Y-109300000D01*
X91742857Y-109185714D01*
X91771428Y-109128571D01*
X91800000Y-109100000D01*
X91857142Y-109071428D01*
X91914285Y-109071428D01*
X91971428Y-109100000D01*
X92000000Y-109128571D01*
X92028571Y-109185714D01*
X92028571Y-109328571D01*
X92000000Y-109414285D01*
X91428571Y-109671428D02*
X92028571Y-109671428D01*
X92028571Y-109814285D01*
X92000000Y-109900000D01*
X91942857Y-109957142D01*
X91885714Y-109985714D01*
X91771428Y-110014285D01*
X91685714Y-110014285D01*
X91571428Y-109985714D01*
X91514285Y-109957142D01*
X91457142Y-109900000D01*
X91428571Y-109814285D01*
X91428571Y-109671428D01*
X91600000Y-110242857D02*
X91600000Y-110528571D01*
X91428571Y-110185714D02*
X92028571Y-110385714D01*
X91428571Y-110585714D01*
D11*
X52328571Y-92242857D02*
X52785714Y-92242857D01*
X52557142Y-92471428D02*
X52557142Y-92014285D01*
X53357142Y-91871428D02*
X53071428Y-91871428D01*
X53042857Y-92157142D01*
X53071428Y-92128571D01*
X53128571Y-92100000D01*
X53271428Y-92100000D01*
X53328571Y-92128571D01*
X53357142Y-92157142D01*
X53385714Y-92214285D01*
X53385714Y-92357142D01*
X53357142Y-92414285D01*
X53328571Y-92442857D01*
X53271428Y-92471428D01*
X53128571Y-92471428D01*
X53071428Y-92442857D01*
X53042857Y-92414285D01*
X53557142Y-91871428D02*
X53757142Y-92471428D01*
X53957142Y-91871428D01*
D10*
X84057142Y-108442857D02*
X84057142Y-108900000D01*
X83828571Y-108671428D02*
X84285714Y-108671428D01*
X84428571Y-109128571D02*
X84428571Y-109500000D01*
X84200000Y-109300000D01*
X84200000Y-109385714D01*
X84171428Y-109442857D01*
X84142857Y-109471428D01*
X84085714Y-109500000D01*
X83942857Y-109500000D01*
X83885714Y-109471428D01*
X83857142Y-109442857D01*
X83828571Y-109385714D01*
X83828571Y-109214285D01*
X83857142Y-109157142D01*
X83885714Y-109128571D01*
X84428571Y-109671428D02*
X83828571Y-109871428D01*
X84428571Y-110071428D01*
X84428571Y-110214285D02*
X84428571Y-110585714D01*
X84200000Y-110385714D01*
X84200000Y-110471428D01*
X84171428Y-110528571D01*
X84142857Y-110557142D01*
X84085714Y-110585714D01*
X83942857Y-110585714D01*
X83885714Y-110557142D01*
X83857142Y-110528571D01*
X83828571Y-110471428D01*
X83828571Y-110300000D01*
X83857142Y-110242857D01*
X83885714Y-110214285D01*
D12*
X73700000Y-89435714D02*
X73771428Y-89507142D01*
X73700000Y-89578571D01*
X73628571Y-89507142D01*
X73700000Y-89435714D01*
X73700000Y-89578571D01*
D11*
X52642857Y-86900000D02*
X52585714Y-86871428D01*
X52500000Y-86871428D01*
X52414285Y-86900000D01*
X52357142Y-86957142D01*
X52328571Y-87014285D01*
X52300000Y-87128571D01*
X52300000Y-87214285D01*
X52328571Y-87328571D01*
X52357142Y-87385714D01*
X52414285Y-87442857D01*
X52500000Y-87471428D01*
X52557142Y-87471428D01*
X52642857Y-87442857D01*
X52671428Y-87414285D01*
X52671428Y-87214285D01*
X52557142Y-87214285D01*
X52928571Y-87471428D02*
X52928571Y-86871428D01*
X53271428Y-87471428D01*
X53271428Y-86871428D01*
X53557142Y-87471428D02*
X53557142Y-86871428D01*
X53700000Y-86871428D01*
X53785714Y-86900000D01*
X53842857Y-86957142D01*
X53871428Y-87014285D01*
X53900000Y-87128571D01*
X53900000Y-87214285D01*
X53871428Y-87328571D01*
X53842857Y-87385714D01*
X53785714Y-87442857D01*
X53700000Y-87471428D01*
X53557142Y-87471428D01*
D10*
X86900000Y-109342857D02*
X86928571Y-109285714D01*
X86928571Y-109200000D01*
X86900000Y-109114285D01*
X86842857Y-109057142D01*
X86785714Y-109028571D01*
X86671428Y-109000000D01*
X86585714Y-109000000D01*
X86471428Y-109028571D01*
X86414285Y-109057142D01*
X86357142Y-109114285D01*
X86328571Y-109200000D01*
X86328571Y-109257142D01*
X86357142Y-109342857D01*
X86385714Y-109371428D01*
X86585714Y-109371428D01*
X86585714Y-109257142D01*
X86328571Y-109628571D02*
X86928571Y-109628571D01*
X86328571Y-109971428D01*
X86928571Y-109971428D01*
X86328571Y-110257142D02*
X86928571Y-110257142D01*
X86928571Y-110400000D01*
X86900000Y-110485714D01*
X86842857Y-110542857D01*
X86785714Y-110571428D01*
X86671428Y-110600000D01*
X86585714Y-110600000D01*
X86471428Y-110571428D01*
X86414285Y-110542857D01*
X86357142Y-110485714D01*
X86328571Y-110400000D01*
X86328571Y-110257142D01*
D13*
X47832380Y-109382857D02*
X47832380Y-109859047D01*
X46832380Y-109859047D01*
X47737142Y-109049523D02*
X47784761Y-109001904D01*
X47832380Y-109049523D01*
X47784761Y-109097142D01*
X47737142Y-109049523D01*
X47832380Y-109049523D01*
X46832380Y-107906666D02*
X46832380Y-107240000D01*
X47832380Y-107906666D01*
X47832380Y-107240000D01*
X47737142Y-106859047D02*
X47784761Y-106811428D01*
X47832380Y-106859047D01*
X47784761Y-106906666D01*
X47737142Y-106859047D01*
X47832380Y-106859047D01*
X46880000Y-105097142D02*
X46832380Y-105192380D01*
X46832380Y-105335238D01*
X46880000Y-105478095D01*
X46975238Y-105573333D01*
X47070476Y-105620952D01*
X47260952Y-105668571D01*
X47403809Y-105668571D01*
X47594285Y-105620952D01*
X47689523Y-105573333D01*
X47784761Y-105478095D01*
X47832380Y-105335238D01*
X47832380Y-105240000D01*
X47784761Y-105097142D01*
X47737142Y-105049523D01*
X47403809Y-105049523D01*
X47403809Y-105240000D01*
X47737142Y-104620952D02*
X47784761Y-104573333D01*
X47832380Y-104620952D01*
X47784761Y-104668571D01*
X47737142Y-104620952D01*
X47832380Y-104620952D01*
D11*
X89971428Y-89671428D02*
X89685714Y-89871428D01*
X89971428Y-90014285D02*
X89371428Y-90014285D01*
X89371428Y-89785714D01*
X89400000Y-89728571D01*
X89428571Y-89700000D01*
X89485714Y-89671428D01*
X89571428Y-89671428D01*
X89628571Y-89700000D01*
X89657142Y-89728571D01*
X89685714Y-89785714D01*
X89685714Y-90014285D01*
X89657142Y-89414285D02*
X89657142Y-89214285D01*
X89971428Y-89128571D02*
X89971428Y-89414285D01*
X89371428Y-89414285D01*
X89371428Y-89128571D01*
X89942857Y-88900000D02*
X89971428Y-88814285D01*
X89971428Y-88671428D01*
X89942857Y-88614285D01*
X89914285Y-88585714D01*
X89857142Y-88557142D01*
X89800000Y-88557142D01*
X89742857Y-88585714D01*
X89714285Y-88614285D01*
X89685714Y-88671428D01*
X89657142Y-88785714D01*
X89628571Y-88842857D01*
X89600000Y-88871428D01*
X89542857Y-88900000D01*
X89485714Y-88900000D01*
X89428571Y-88871428D01*
X89400000Y-88842857D01*
X89371428Y-88785714D01*
X89371428Y-88642857D01*
X89400000Y-88557142D01*
X89657142Y-88300000D02*
X89657142Y-88100000D01*
X89971428Y-88014285D02*
X89971428Y-88300000D01*
X89371428Y-88300000D01*
X89371428Y-88014285D01*
X89371428Y-87842857D02*
X89371428Y-87500000D01*
X89971428Y-87671428D02*
X89371428Y-87671428D01*
X58557142Y-106007142D02*
X58757142Y-106007142D01*
X58842857Y-106321428D02*
X58557142Y-106321428D01*
X58557142Y-105721428D01*
X58842857Y-105721428D01*
X59442857Y-106321428D02*
X59242857Y-106035714D01*
X59100000Y-106321428D02*
X59100000Y-105721428D01*
X59328571Y-105721428D01*
X59385714Y-105750000D01*
X59414285Y-105778571D01*
X59442857Y-105835714D01*
X59442857Y-105921428D01*
X59414285Y-105978571D01*
X59385714Y-106007142D01*
X59328571Y-106035714D01*
X59100000Y-106035714D01*
X60042857Y-106321428D02*
X59842857Y-106035714D01*
X59700000Y-106321428D02*
X59700000Y-105721428D01*
X59928571Y-105721428D01*
X59985714Y-105750000D01*
X60014285Y-105778571D01*
X60042857Y-105835714D01*
X60042857Y-105921428D01*
X60014285Y-105978571D01*
X59985714Y-106007142D01*
X59928571Y-106035714D01*
X59700000Y-106035714D01*
X60414285Y-105721428D02*
X60528571Y-105721428D01*
X60585714Y-105750000D01*
X60642857Y-105807142D01*
X60671428Y-105921428D01*
X60671428Y-106121428D01*
X60642857Y-106235714D01*
X60585714Y-106292857D01*
X60528571Y-106321428D01*
X60414285Y-106321428D01*
X60357142Y-106292857D01*
X60300000Y-106235714D01*
X60271428Y-106121428D01*
X60271428Y-105921428D01*
X60300000Y-105807142D01*
X60357142Y-105750000D01*
X60414285Y-105721428D01*
X61271428Y-106321428D02*
X61071428Y-106035714D01*
X60928571Y-106321428D02*
X60928571Y-105721428D01*
X61157142Y-105721428D01*
X61214285Y-105750000D01*
X61242857Y-105778571D01*
X61271428Y-105835714D01*
X61271428Y-105921428D01*
X61242857Y-105978571D01*
X61214285Y-106007142D01*
X61157142Y-106035714D01*
X60928571Y-106035714D01*
D13*
X65042857Y-95717142D02*
X65042857Y-96360000D01*
X65000000Y-96488571D01*
X64914285Y-96574285D01*
X64785714Y-96617142D01*
X64700000Y-96617142D01*
X65900000Y-96617142D02*
X65471428Y-96617142D01*
X65471428Y-95717142D01*
X66714285Y-96531428D02*
X66671428Y-96574285D01*
X66542857Y-96617142D01*
X66457142Y-96617142D01*
X66328571Y-96574285D01*
X66242857Y-96488571D01*
X66200000Y-96402857D01*
X66157142Y-96231428D01*
X66157142Y-96102857D01*
X66200000Y-95931428D01*
X66242857Y-95845714D01*
X66328571Y-95760000D01*
X66457142Y-95717142D01*
X66542857Y-95717142D01*
X66671428Y-95760000D01*
X66714285Y-95802857D01*
X67357142Y-95717142D02*
X67357142Y-96360000D01*
X67314285Y-96488571D01*
X67228571Y-96574285D01*
X67100000Y-96617142D01*
X67014285Y-96617142D01*
X68214285Y-96617142D02*
X67785714Y-96617142D01*
X67785714Y-95717142D01*
X69028571Y-96531428D02*
X68985714Y-96574285D01*
X68857142Y-96617142D01*
X68771428Y-96617142D01*
X68642857Y-96574285D01*
X68557142Y-96488571D01*
X68514285Y-96402857D01*
X68471428Y-96231428D01*
X68471428Y-96102857D01*
X68514285Y-95931428D01*
X68557142Y-95845714D01*
X68642857Y-95760000D01*
X68771428Y-95717142D01*
X68857142Y-95717142D01*
X68985714Y-95760000D01*
X69028571Y-95802857D01*
X69671428Y-95717142D02*
X69671428Y-96360000D01*
X69628571Y-96488571D01*
X69542857Y-96574285D01*
X69414285Y-96617142D01*
X69328571Y-96617142D01*
X70528571Y-96617142D02*
X70100000Y-96617142D01*
X70100000Y-95717142D01*
X71342857Y-96531428D02*
X71300000Y-96574285D01*
X71171428Y-96617142D01*
X71085714Y-96617142D01*
X70957142Y-96574285D01*
X70871428Y-96488571D01*
X70828571Y-96402857D01*
X70785714Y-96231428D01*
X70785714Y-96102857D01*
X70828571Y-95931428D01*
X70871428Y-95845714D01*
X70957142Y-95760000D01*
X71085714Y-95717142D01*
X71171428Y-95717142D01*
X71300000Y-95760000D01*
X71342857Y-95802857D01*
X71985714Y-95717142D02*
X71985714Y-96360000D01*
X71942857Y-96488571D01*
X71857142Y-96574285D01*
X71728571Y-96617142D01*
X71642857Y-96617142D01*
X72842857Y-96617142D02*
X72414285Y-96617142D01*
X72414285Y-95717142D01*
X73657142Y-96531428D02*
X73614285Y-96574285D01*
X73485714Y-96617142D01*
X73400000Y-96617142D01*
X73271428Y-96574285D01*
X73185714Y-96488571D01*
X73142857Y-96402857D01*
X73100000Y-96231428D01*
X73100000Y-96102857D01*
X73142857Y-95931428D01*
X73185714Y-95845714D01*
X73271428Y-95760000D01*
X73400000Y-95717142D01*
X73485714Y-95717142D01*
X73614285Y-95760000D01*
X73657142Y-95802857D01*
D10*
X77157142Y-107617857D02*
X77157142Y-108075000D01*
X76928571Y-107846428D02*
X77385714Y-107846428D01*
X77528571Y-108303571D02*
X77528571Y-108675000D01*
X77300000Y-108475000D01*
X77300000Y-108560714D01*
X77271428Y-108617857D01*
X77242857Y-108646428D01*
X77185714Y-108675000D01*
X77042857Y-108675000D01*
X76985714Y-108646428D01*
X76957142Y-108617857D01*
X76928571Y-108560714D01*
X76928571Y-108389285D01*
X76957142Y-108332142D01*
X76985714Y-108303571D01*
X77528571Y-108846428D02*
X76928571Y-109046428D01*
X77528571Y-109246428D01*
X77528571Y-109389285D02*
X77528571Y-109760714D01*
X77300000Y-109560714D01*
X77300000Y-109646428D01*
X77271428Y-109703571D01*
X77242857Y-109732142D01*
X77185714Y-109760714D01*
X77042857Y-109760714D01*
X76985714Y-109732142D01*
X76957142Y-109703571D01*
X76928571Y-109646428D01*
X76928571Y-109475000D01*
X76957142Y-109417857D01*
X76985714Y-109389285D01*
X74457142Y-108010714D02*
X74428571Y-108096428D01*
X74428571Y-108239285D01*
X74457142Y-108296428D01*
X74485714Y-108325000D01*
X74542857Y-108353571D01*
X74600000Y-108353571D01*
X74657142Y-108325000D01*
X74685714Y-108296428D01*
X74714285Y-108239285D01*
X74742857Y-108125000D01*
X74771428Y-108067857D01*
X74800000Y-108039285D01*
X74857142Y-108010714D01*
X74914285Y-108010714D01*
X74971428Y-108039285D01*
X75000000Y-108067857D01*
X75028571Y-108125000D01*
X75028571Y-108267857D01*
X75000000Y-108353571D01*
X74485714Y-108953571D02*
X74457142Y-108925000D01*
X74428571Y-108839285D01*
X74428571Y-108782142D01*
X74457142Y-108696428D01*
X74514285Y-108639285D01*
X74571428Y-108610714D01*
X74685714Y-108582142D01*
X74771428Y-108582142D01*
X74885714Y-108610714D01*
X74942857Y-108639285D01*
X75000000Y-108696428D01*
X75028571Y-108782142D01*
X75028571Y-108839285D01*
X75000000Y-108925000D01*
X74971428Y-108953571D01*
X74428571Y-109496428D02*
X74428571Y-109210714D01*
X75028571Y-109210714D01*
X74428571Y-109696428D02*
X75028571Y-109696428D01*
X74428571Y-110039285D02*
X74771428Y-109782142D01*
X75028571Y-110039285D02*
X74685714Y-109696428D01*
X88957142Y-109085714D02*
X88928571Y-109171428D01*
X88928571Y-109314285D01*
X88957142Y-109371428D01*
X88985714Y-109400000D01*
X89042857Y-109428571D01*
X89100000Y-109428571D01*
X89157142Y-109400000D01*
X89185714Y-109371428D01*
X89214285Y-109314285D01*
X89242857Y-109200000D01*
X89271428Y-109142857D01*
X89300000Y-109114285D01*
X89357142Y-109085714D01*
X89414285Y-109085714D01*
X89471428Y-109114285D01*
X89500000Y-109142857D01*
X89528571Y-109200000D01*
X89528571Y-109342857D01*
X89500000Y-109428571D01*
X88985714Y-110028571D02*
X88957142Y-110000000D01*
X88928571Y-109914285D01*
X88928571Y-109857142D01*
X88957142Y-109771428D01*
X89014285Y-109714285D01*
X89071428Y-109685714D01*
X89185714Y-109657142D01*
X89271428Y-109657142D01*
X89385714Y-109685714D01*
X89442857Y-109714285D01*
X89500000Y-109771428D01*
X89528571Y-109857142D01*
X89528571Y-109914285D01*
X89500000Y-110000000D01*
X89471428Y-110028571D01*
X88928571Y-110571428D02*
X88928571Y-110285714D01*
X89528571Y-110285714D01*
X72450000Y-108567857D02*
X72478571Y-108510714D01*
X72478571Y-108425000D01*
X72450000Y-108339285D01*
X72392857Y-108282142D01*
X72335714Y-108253571D01*
X72221428Y-108225000D01*
X72135714Y-108225000D01*
X72021428Y-108253571D01*
X71964285Y-108282142D01*
X71907142Y-108339285D01*
X71878571Y-108425000D01*
X71878571Y-108482142D01*
X71907142Y-108567857D01*
X71935714Y-108596428D01*
X72135714Y-108596428D01*
X72135714Y-108482142D01*
X71878571Y-108853571D02*
X72478571Y-108853571D01*
X71878571Y-109196428D01*
X72478571Y-109196428D01*
X71878571Y-109482142D02*
X72478571Y-109482142D01*
X72478571Y-109625000D01*
X72450000Y-109710714D01*
X72392857Y-109767857D01*
X72335714Y-109796428D01*
X72221428Y-109825000D01*
X72135714Y-109825000D01*
X72021428Y-109796428D01*
X71964285Y-109767857D01*
X71907142Y-109710714D01*
X71878571Y-109625000D01*
X71878571Y-109482142D01*
D11*
X58507142Y-108700000D02*
X58792857Y-108700000D01*
X58450000Y-108871428D02*
X58650000Y-108271428D01*
X58850000Y-108871428D01*
X59392857Y-108814285D02*
X59364285Y-108842857D01*
X59278571Y-108871428D01*
X59221428Y-108871428D01*
X59135714Y-108842857D01*
X59078571Y-108785714D01*
X59050000Y-108728571D01*
X59021428Y-108614285D01*
X59021428Y-108528571D01*
X59050000Y-108414285D01*
X59078571Y-108357142D01*
X59135714Y-108300000D01*
X59221428Y-108271428D01*
X59278571Y-108271428D01*
X59364285Y-108300000D01*
X59392857Y-108328571D01*
X59564285Y-108271428D02*
X59907142Y-108271428D01*
X59735714Y-108871428D02*
X59735714Y-108271428D01*
X60107142Y-108871428D02*
X60107142Y-108271428D01*
X60307142Y-108271428D02*
X60507142Y-108871428D01*
X60707142Y-108271428D01*
X60907142Y-108557142D02*
X61107142Y-108557142D01*
X61192857Y-108871428D02*
X60907142Y-108871428D01*
X60907142Y-108271428D01*
X61192857Y-108271428D01*
D10*
X69357142Y-108096428D02*
X69328571Y-108182142D01*
X69328571Y-108325000D01*
X69357142Y-108382142D01*
X69385714Y-108410714D01*
X69442857Y-108439285D01*
X69500000Y-108439285D01*
X69557142Y-108410714D01*
X69585714Y-108382142D01*
X69614285Y-108325000D01*
X69642857Y-108210714D01*
X69671428Y-108153571D01*
X69700000Y-108125000D01*
X69757142Y-108096428D01*
X69814285Y-108096428D01*
X69871428Y-108125000D01*
X69900000Y-108153571D01*
X69928571Y-108210714D01*
X69928571Y-108353571D01*
X69900000Y-108439285D01*
X69328571Y-108696428D02*
X69928571Y-108696428D01*
X69928571Y-108839285D01*
X69900000Y-108925000D01*
X69842857Y-108982142D01*
X69785714Y-109010714D01*
X69671428Y-109039285D01*
X69585714Y-109039285D01*
X69471428Y-109010714D01*
X69414285Y-108982142D01*
X69357142Y-108925000D01*
X69328571Y-108839285D01*
X69328571Y-108696428D01*
X69328571Y-109296428D02*
X69928571Y-109296428D01*
X69928571Y-109696428D02*
X69928571Y-109810714D01*
X69900000Y-109867857D01*
X69842857Y-109925000D01*
X69728571Y-109953571D01*
X69528571Y-109953571D01*
X69414285Y-109925000D01*
X69357142Y-109867857D01*
X69328571Y-109810714D01*
X69328571Y-109696428D01*
X69357142Y-109639285D01*
X69414285Y-109582142D01*
X69528571Y-109553571D01*
X69728571Y-109553571D01*
X69842857Y-109582142D01*
X69900000Y-109639285D01*
X69928571Y-109696428D01*
D13*
%TO.C,J1*%
X47652380Y-89933333D02*
X48366666Y-89933333D01*
X48509523Y-89980952D01*
X48604761Y-90076190D01*
X48652380Y-90219047D01*
X48652380Y-90314285D01*
X48652380Y-88933333D02*
X48652380Y-89504761D01*
X48652380Y-89219047D02*
X47652380Y-89219047D01*
X47795238Y-89314285D01*
X47890476Y-89409523D01*
X47938095Y-89504761D01*
%TO.C,C13*%
X67647142Y-85157142D02*
X67599523Y-85204761D01*
X67456666Y-85252380D01*
X67361428Y-85252380D01*
X67218571Y-85204761D01*
X67123333Y-85109523D01*
X67075714Y-85014285D01*
X67028095Y-84823809D01*
X67028095Y-84680952D01*
X67075714Y-84490476D01*
X67123333Y-84395238D01*
X67218571Y-84300000D01*
X67361428Y-84252380D01*
X67456666Y-84252380D01*
X67599523Y-84300000D01*
X67647142Y-84347619D01*
X68599523Y-85252380D02*
X68028095Y-85252380D01*
X68313809Y-85252380D02*
X68313809Y-84252380D01*
X68218571Y-84395238D01*
X68123333Y-84490476D01*
X68028095Y-84538095D01*
X68932857Y-84252380D02*
X69551904Y-84252380D01*
X69218571Y-84633333D01*
X69361428Y-84633333D01*
X69456666Y-84680952D01*
X69504285Y-84728571D01*
X69551904Y-84823809D01*
X69551904Y-85061904D01*
X69504285Y-85157142D01*
X69456666Y-85204761D01*
X69361428Y-85252380D01*
X69075714Y-85252380D01*
X68980476Y-85204761D01*
X68932857Y-85157142D01*
%TO.C,D1*%
X80552380Y-106788095D02*
X79552380Y-106788095D01*
X79552380Y-106550000D01*
X79600000Y-106407142D01*
X79695238Y-106311904D01*
X79790476Y-106264285D01*
X79980952Y-106216666D01*
X80123809Y-106216666D01*
X80314285Y-106264285D01*
X80409523Y-106311904D01*
X80504761Y-106407142D01*
X80552380Y-106550000D01*
X80552380Y-106788095D01*
X80552380Y-105264285D02*
X80552380Y-105835714D01*
X80552380Y-105550000D02*
X79552380Y-105550000D01*
X79695238Y-105645238D01*
X79790476Y-105740476D01*
X79838095Y-105835714D01*
%TO.C,U1*%
X62513095Y-101702380D02*
X62513095Y-102511904D01*
X62560714Y-102607142D01*
X62608333Y-102654761D01*
X62703571Y-102702380D01*
X62894047Y-102702380D01*
X62989285Y-102654761D01*
X63036904Y-102607142D01*
X63084523Y-102511904D01*
X63084523Y-101702380D01*
X64084523Y-102702380D02*
X63513095Y-102702380D01*
X63798809Y-102702380D02*
X63798809Y-101702380D01*
X63703571Y-101845238D01*
X63608333Y-101940476D01*
X63513095Y-101988095D01*
%TO.C,C10*%
X65847142Y-86342857D02*
X65894761Y-86390476D01*
X65942380Y-86533333D01*
X65942380Y-86628571D01*
X65894761Y-86771428D01*
X65799523Y-86866666D01*
X65704285Y-86914285D01*
X65513809Y-86961904D01*
X65370952Y-86961904D01*
X65180476Y-86914285D01*
X65085238Y-86866666D01*
X64990000Y-86771428D01*
X64942380Y-86628571D01*
X64942380Y-86533333D01*
X64990000Y-86390476D01*
X65037619Y-86342857D01*
X65942380Y-85390476D02*
X65942380Y-85961904D01*
X65942380Y-85676190D02*
X64942380Y-85676190D01*
X65085238Y-85771428D01*
X65180476Y-85866666D01*
X65228095Y-85961904D01*
X64942380Y-84771428D02*
X64942380Y-84676190D01*
X64990000Y-84580952D01*
X65037619Y-84533333D01*
X65132857Y-84485714D01*
X65323333Y-84438095D01*
X65561428Y-84438095D01*
X65751904Y-84485714D01*
X65847142Y-84533333D01*
X65894761Y-84580952D01*
X65942380Y-84676190D01*
X65942380Y-84771428D01*
X65894761Y-84866666D01*
X65847142Y-84914285D01*
X65751904Y-84961904D01*
X65561428Y-85009523D01*
X65323333Y-85009523D01*
X65132857Y-84961904D01*
X65037619Y-84914285D01*
X64990000Y-84866666D01*
X64942380Y-84771428D01*
%TO.C,C11*%
X64407142Y-89197142D02*
X64359523Y-89244761D01*
X64216666Y-89292380D01*
X64121428Y-89292380D01*
X63978571Y-89244761D01*
X63883333Y-89149523D01*
X63835714Y-89054285D01*
X63788095Y-88863809D01*
X63788095Y-88720952D01*
X63835714Y-88530476D01*
X63883333Y-88435238D01*
X63978571Y-88340000D01*
X64121428Y-88292380D01*
X64216666Y-88292380D01*
X64359523Y-88340000D01*
X64407142Y-88387619D01*
X65359523Y-89292380D02*
X64788095Y-89292380D01*
X65073809Y-89292380D02*
X65073809Y-88292380D01*
X64978571Y-88435238D01*
X64883333Y-88530476D01*
X64788095Y-88578095D01*
X66311904Y-89292380D02*
X65740476Y-89292380D01*
X66026190Y-89292380D02*
X66026190Y-88292380D01*
X65930952Y-88435238D01*
X65835714Y-88530476D01*
X65740476Y-88578095D01*
%TO.C,C1*%
X55757142Y-89316666D02*
X55804761Y-89364285D01*
X55852380Y-89507142D01*
X55852380Y-89602380D01*
X55804761Y-89745238D01*
X55709523Y-89840476D01*
X55614285Y-89888095D01*
X55423809Y-89935714D01*
X55280952Y-89935714D01*
X55090476Y-89888095D01*
X54995238Y-89840476D01*
X54900000Y-89745238D01*
X54852380Y-89602380D01*
X54852380Y-89507142D01*
X54900000Y-89364285D01*
X54947619Y-89316666D01*
X55852380Y-88364285D02*
X55852380Y-88935714D01*
X55852380Y-88650000D02*
X54852380Y-88650000D01*
X54995238Y-88745238D01*
X55090476Y-88840476D01*
X55138095Y-88935714D01*
%TO.C,C8*%
X77307142Y-90866666D02*
X77354761Y-90914285D01*
X77402380Y-91057142D01*
X77402380Y-91152380D01*
X77354761Y-91295238D01*
X77259523Y-91390476D01*
X77164285Y-91438095D01*
X76973809Y-91485714D01*
X76830952Y-91485714D01*
X76640476Y-91438095D01*
X76545238Y-91390476D01*
X76450000Y-91295238D01*
X76402380Y-91152380D01*
X76402380Y-91057142D01*
X76450000Y-90914285D01*
X76497619Y-90866666D01*
X76830952Y-90295238D02*
X76783333Y-90390476D01*
X76735714Y-90438095D01*
X76640476Y-90485714D01*
X76592857Y-90485714D01*
X76497619Y-90438095D01*
X76450000Y-90390476D01*
X76402380Y-90295238D01*
X76402380Y-90104761D01*
X76450000Y-90009523D01*
X76497619Y-89961904D01*
X76592857Y-89914285D01*
X76640476Y-89914285D01*
X76735714Y-89961904D01*
X76783333Y-90009523D01*
X76830952Y-90104761D01*
X76830952Y-90295238D01*
X76878571Y-90390476D01*
X76926190Y-90438095D01*
X77021428Y-90485714D01*
X77211904Y-90485714D01*
X77307142Y-90438095D01*
X77354761Y-90390476D01*
X77402380Y-90295238D01*
X77402380Y-90104761D01*
X77354761Y-90009523D01*
X77307142Y-89961904D01*
X77211904Y-89914285D01*
X77021428Y-89914285D01*
X76926190Y-89961904D01*
X76878571Y-90009523D01*
X76830952Y-90104761D01*
%TO.C,C3*%
X76957142Y-88266666D02*
X77004761Y-88314285D01*
X77052380Y-88457142D01*
X77052380Y-88552380D01*
X77004761Y-88695238D01*
X76909523Y-88790476D01*
X76814285Y-88838095D01*
X76623809Y-88885714D01*
X76480952Y-88885714D01*
X76290476Y-88838095D01*
X76195238Y-88790476D01*
X76100000Y-88695238D01*
X76052380Y-88552380D01*
X76052380Y-88457142D01*
X76100000Y-88314285D01*
X76147619Y-88266666D01*
X76052380Y-87933333D02*
X76052380Y-87314285D01*
X76433333Y-87647619D01*
X76433333Y-87504761D01*
X76480952Y-87409523D01*
X76528571Y-87361904D01*
X76623809Y-87314285D01*
X76861904Y-87314285D01*
X76957142Y-87361904D01*
X77004761Y-87409523D01*
X77052380Y-87504761D01*
X77052380Y-87790476D01*
X77004761Y-87885714D01*
X76957142Y-87933333D01*
%TO.C,C6*%
X60707142Y-99941666D02*
X60754761Y-99989285D01*
X60802380Y-100132142D01*
X60802380Y-100227380D01*
X60754761Y-100370238D01*
X60659523Y-100465476D01*
X60564285Y-100513095D01*
X60373809Y-100560714D01*
X60230952Y-100560714D01*
X60040476Y-100513095D01*
X59945238Y-100465476D01*
X59850000Y-100370238D01*
X59802380Y-100227380D01*
X59802380Y-100132142D01*
X59850000Y-99989285D01*
X59897619Y-99941666D01*
X59802380Y-99084523D02*
X59802380Y-99275000D01*
X59850000Y-99370238D01*
X59897619Y-99417857D01*
X60040476Y-99513095D01*
X60230952Y-99560714D01*
X60611904Y-99560714D01*
X60707142Y-99513095D01*
X60754761Y-99465476D01*
X60802380Y-99370238D01*
X60802380Y-99179761D01*
X60754761Y-99084523D01*
X60707142Y-99036904D01*
X60611904Y-98989285D01*
X60373809Y-98989285D01*
X60278571Y-99036904D01*
X60230952Y-99084523D01*
X60183333Y-99179761D01*
X60183333Y-99370238D01*
X60230952Y-99465476D01*
X60278571Y-99513095D01*
X60373809Y-99560714D01*
%TO.C,L1*%
X63023333Y-88092380D02*
X62547142Y-88092380D01*
X62547142Y-87092380D01*
X63880476Y-88092380D02*
X63309047Y-88092380D01*
X63594761Y-88092380D02*
X63594761Y-87092380D01*
X63499523Y-87235238D01*
X63404285Y-87330476D01*
X63309047Y-87378095D01*
%TO.C,C2*%
X58457142Y-89316666D02*
X58504761Y-89364285D01*
X58552380Y-89507142D01*
X58552380Y-89602380D01*
X58504761Y-89745238D01*
X58409523Y-89840476D01*
X58314285Y-89888095D01*
X58123809Y-89935714D01*
X57980952Y-89935714D01*
X57790476Y-89888095D01*
X57695238Y-89840476D01*
X57600000Y-89745238D01*
X57552380Y-89602380D01*
X57552380Y-89507142D01*
X57600000Y-89364285D01*
X57647619Y-89316666D01*
X57647619Y-88935714D02*
X57600000Y-88888095D01*
X57552380Y-88792857D01*
X57552380Y-88554761D01*
X57600000Y-88459523D01*
X57647619Y-88411904D01*
X57742857Y-88364285D01*
X57838095Y-88364285D01*
X57980952Y-88411904D01*
X58552380Y-88983333D01*
X58552380Y-88364285D01*
%TO.C,SW1*%
X85566666Y-89304761D02*
X85709523Y-89352380D01*
X85947619Y-89352380D01*
X86042857Y-89304761D01*
X86090476Y-89257142D01*
X86138095Y-89161904D01*
X86138095Y-89066666D01*
X86090476Y-88971428D01*
X86042857Y-88923809D01*
X85947619Y-88876190D01*
X85757142Y-88828571D01*
X85661904Y-88780952D01*
X85614285Y-88733333D01*
X85566666Y-88638095D01*
X85566666Y-88542857D01*
X85614285Y-88447619D01*
X85661904Y-88400000D01*
X85757142Y-88352380D01*
X85995238Y-88352380D01*
X86138095Y-88400000D01*
X86471428Y-88352380D02*
X86709523Y-89352380D01*
X86900000Y-88638095D01*
X87090476Y-89352380D01*
X87328571Y-88352380D01*
X88233333Y-89352380D02*
X87661904Y-89352380D01*
X87947619Y-89352380D02*
X87947619Y-88352380D01*
X87852380Y-88495238D01*
X87757142Y-88590476D01*
X87661904Y-88638095D01*
%TO.C,R1*%
X78133333Y-93832380D02*
X77800000Y-93356190D01*
X77561904Y-93832380D02*
X77561904Y-92832380D01*
X77942857Y-92832380D01*
X78038095Y-92880000D01*
X78085714Y-92927619D01*
X78133333Y-93022857D01*
X78133333Y-93165714D01*
X78085714Y-93260952D01*
X78038095Y-93308571D01*
X77942857Y-93356190D01*
X77561904Y-93356190D01*
X79085714Y-93832380D02*
X78514285Y-93832380D01*
X78800000Y-93832380D02*
X78800000Y-92832380D01*
X78704761Y-92975238D01*
X78609523Y-93070476D01*
X78514285Y-93118095D01*
%TO.C,R2*%
X65533333Y-111702380D02*
X65200000Y-111226190D01*
X64961904Y-111702380D02*
X64961904Y-110702380D01*
X65342857Y-110702380D01*
X65438095Y-110750000D01*
X65485714Y-110797619D01*
X65533333Y-110892857D01*
X65533333Y-111035714D01*
X65485714Y-111130952D01*
X65438095Y-111178571D01*
X65342857Y-111226190D01*
X64961904Y-111226190D01*
X65914285Y-110797619D02*
X65961904Y-110750000D01*
X66057142Y-110702380D01*
X66295238Y-110702380D01*
X66390476Y-110750000D01*
X66438095Y-110797619D01*
X66485714Y-110892857D01*
X66485714Y-110988095D01*
X66438095Y-111130952D01*
X65866666Y-111702380D01*
X66485714Y-111702380D01*
%TO.C,Y1*%
X70076190Y-88026190D02*
X70552380Y-88026190D01*
X69552380Y-88359523D02*
X70076190Y-88026190D01*
X69552380Y-87692857D01*
X70552380Y-86835714D02*
X70552380Y-87407142D01*
X70552380Y-87121428D02*
X69552380Y-87121428D01*
X69695238Y-87216666D01*
X69790476Y-87311904D01*
X69838095Y-87407142D01*
%TO.C,R3*%
X57233333Y-111702380D02*
X56900000Y-111226190D01*
X56661904Y-111702380D02*
X56661904Y-110702380D01*
X57042857Y-110702380D01*
X57138095Y-110750000D01*
X57185714Y-110797619D01*
X57233333Y-110892857D01*
X57233333Y-111035714D01*
X57185714Y-111130952D01*
X57138095Y-111178571D01*
X57042857Y-111226190D01*
X56661904Y-111226190D01*
X57566666Y-110702380D02*
X58185714Y-110702380D01*
X57852380Y-111083333D01*
X57995238Y-111083333D01*
X58090476Y-111130952D01*
X58138095Y-111178571D01*
X58185714Y-111273809D01*
X58185714Y-111511904D01*
X58138095Y-111607142D01*
X58090476Y-111654761D01*
X57995238Y-111702380D01*
X57709523Y-111702380D01*
X57614285Y-111654761D01*
X57566666Y-111607142D01*
%TO.C,C4*%
X73033333Y-88057142D02*
X72985714Y-88104761D01*
X72842857Y-88152380D01*
X72747619Y-88152380D01*
X72604761Y-88104761D01*
X72509523Y-88009523D01*
X72461904Y-87914285D01*
X72414285Y-87723809D01*
X72414285Y-87580952D01*
X72461904Y-87390476D01*
X72509523Y-87295238D01*
X72604761Y-87200000D01*
X72747619Y-87152380D01*
X72842857Y-87152380D01*
X72985714Y-87200000D01*
X73033333Y-87247619D01*
X73890476Y-87485714D02*
X73890476Y-88152380D01*
X73652380Y-87104761D02*
X73414285Y-87819047D01*
X74033333Y-87819047D01*
%TO.C,U3*%
X55913095Y-100402380D02*
X55913095Y-101211904D01*
X55960714Y-101307142D01*
X56008333Y-101354761D01*
X56103571Y-101402380D01*
X56294047Y-101402380D01*
X56389285Y-101354761D01*
X56436904Y-101307142D01*
X56484523Y-101211904D01*
X56484523Y-100402380D01*
X56865476Y-100402380D02*
X57484523Y-100402380D01*
X57151190Y-100783333D01*
X57294047Y-100783333D01*
X57389285Y-100830952D01*
X57436904Y-100878571D01*
X57484523Y-100973809D01*
X57484523Y-101211904D01*
X57436904Y-101307142D01*
X57389285Y-101354761D01*
X57294047Y-101402380D01*
X57008333Y-101402380D01*
X56913095Y-101354761D01*
X56865476Y-101307142D01*
%TO.C,J4*%
X99666666Y-109452380D02*
X99666666Y-110166666D01*
X99619047Y-110309523D01*
X99523809Y-110404761D01*
X99380952Y-110452380D01*
X99285714Y-110452380D01*
X100571428Y-109785714D02*
X100571428Y-110452380D01*
X100333333Y-109404761D02*
X100095238Y-110119047D01*
X100714285Y-110119047D01*
%TO.C,C9*%
X86633333Y-85857142D02*
X86585714Y-85904761D01*
X86442857Y-85952380D01*
X86347619Y-85952380D01*
X86204761Y-85904761D01*
X86109523Y-85809523D01*
X86061904Y-85714285D01*
X86014285Y-85523809D01*
X86014285Y-85380952D01*
X86061904Y-85190476D01*
X86109523Y-85095238D01*
X86204761Y-85000000D01*
X86347619Y-84952380D01*
X86442857Y-84952380D01*
X86585714Y-85000000D01*
X86633333Y-85047619D01*
X87109523Y-85952380D02*
X87300000Y-85952380D01*
X87395238Y-85904761D01*
X87442857Y-85857142D01*
X87538095Y-85714285D01*
X87585714Y-85523809D01*
X87585714Y-85142857D01*
X87538095Y-85047619D01*
X87490476Y-85000000D01*
X87395238Y-84952380D01*
X87204761Y-84952380D01*
X87109523Y-85000000D01*
X87061904Y-85047619D01*
X87014285Y-85142857D01*
X87014285Y-85380952D01*
X87061904Y-85476190D01*
X87109523Y-85523809D01*
X87204761Y-85571428D01*
X87395238Y-85571428D01*
X87490476Y-85523809D01*
X87538095Y-85476190D01*
X87585714Y-85380952D01*
%TO.C,C12*%
X71307142Y-85157142D02*
X71259523Y-85204761D01*
X71116666Y-85252380D01*
X71021428Y-85252380D01*
X70878571Y-85204761D01*
X70783333Y-85109523D01*
X70735714Y-85014285D01*
X70688095Y-84823809D01*
X70688095Y-84680952D01*
X70735714Y-84490476D01*
X70783333Y-84395238D01*
X70878571Y-84300000D01*
X71021428Y-84252380D01*
X71116666Y-84252380D01*
X71259523Y-84300000D01*
X71307142Y-84347619D01*
X72259523Y-85252380D02*
X71688095Y-85252380D01*
X71973809Y-85252380D02*
X71973809Y-84252380D01*
X71878571Y-84395238D01*
X71783333Y-84490476D01*
X71688095Y-84538095D01*
X72640476Y-84347619D02*
X72688095Y-84300000D01*
X72783333Y-84252380D01*
X73021428Y-84252380D01*
X73116666Y-84300000D01*
X73164285Y-84347619D01*
X73211904Y-84442857D01*
X73211904Y-84538095D01*
X73164285Y-84680952D01*
X72592857Y-85252380D01*
X73211904Y-85252380D01*
%TO.C,C7*%
X74733333Y-104457142D02*
X74685714Y-104504761D01*
X74542857Y-104552380D01*
X74447619Y-104552380D01*
X74304761Y-104504761D01*
X74209523Y-104409523D01*
X74161904Y-104314285D01*
X74114285Y-104123809D01*
X74114285Y-103980952D01*
X74161904Y-103790476D01*
X74209523Y-103695238D01*
X74304761Y-103600000D01*
X74447619Y-103552380D01*
X74542857Y-103552380D01*
X74685714Y-103600000D01*
X74733333Y-103647619D01*
X75066666Y-103552380D02*
X75733333Y-103552380D01*
X75304761Y-104552380D01*
%TO.C,U2*%
X99838095Y-90252380D02*
X99838095Y-91061904D01*
X99885714Y-91157142D01*
X99933333Y-91204761D01*
X100028571Y-91252380D01*
X100219047Y-91252380D01*
X100314285Y-91204761D01*
X100361904Y-91157142D01*
X100409523Y-91061904D01*
X100409523Y-90252380D01*
X100838095Y-90347619D02*
X100885714Y-90300000D01*
X100980952Y-90252380D01*
X101219047Y-90252380D01*
X101314285Y-90300000D01*
X101361904Y-90347619D01*
X101409523Y-90442857D01*
X101409523Y-90538095D01*
X101361904Y-90680952D01*
X100790476Y-91252380D01*
X101409523Y-91252380D01*
%TO.C,C5*%
X60807142Y-93366666D02*
X60854761Y-93414285D01*
X60902380Y-93557142D01*
X60902380Y-93652380D01*
X60854761Y-93795238D01*
X60759523Y-93890476D01*
X60664285Y-93938095D01*
X60473809Y-93985714D01*
X60330952Y-93985714D01*
X60140476Y-93938095D01*
X60045238Y-93890476D01*
X59950000Y-93795238D01*
X59902380Y-93652380D01*
X59902380Y-93557142D01*
X59950000Y-93414285D01*
X59997619Y-93366666D01*
X59902380Y-92461904D02*
X59902380Y-92938095D01*
X60378571Y-92985714D01*
X60330952Y-92938095D01*
X60283333Y-92842857D01*
X60283333Y-92604761D01*
X60330952Y-92509523D01*
X60378571Y-92461904D01*
X60473809Y-92414285D01*
X60711904Y-92414285D01*
X60807142Y-92461904D01*
X60854761Y-92509523D01*
X60902380Y-92604761D01*
X60902380Y-92842857D01*
X60854761Y-92938095D01*
X60807142Y-92985714D01*
%TO.C,D2*%
X65011904Y-109102380D02*
X65011904Y-108102380D01*
X65250000Y-108102380D01*
X65392857Y-108150000D01*
X65488095Y-108245238D01*
X65535714Y-108340476D01*
X65583333Y-108530952D01*
X65583333Y-108673809D01*
X65535714Y-108864285D01*
X65488095Y-108959523D01*
X65392857Y-109054761D01*
X65250000Y-109102380D01*
X65011904Y-109102380D01*
X65964285Y-108197619D02*
X66011904Y-108150000D01*
X66107142Y-108102380D01*
X66345238Y-108102380D01*
X66440476Y-108150000D01*
X66488095Y-108197619D01*
X66535714Y-108292857D01*
X66535714Y-108388095D01*
X66488095Y-108530952D01*
X65916666Y-109102380D01*
X66535714Y-109102380D01*
%TO.C,D3*%
X65011904Y-106502380D02*
X65011904Y-105502380D01*
X65250000Y-105502380D01*
X65392857Y-105550000D01*
X65488095Y-105645238D01*
X65535714Y-105740476D01*
X65583333Y-105930952D01*
X65583333Y-106073809D01*
X65535714Y-106264285D01*
X65488095Y-106359523D01*
X65392857Y-106454761D01*
X65250000Y-106502380D01*
X65011904Y-106502380D01*
X65916666Y-105502380D02*
X66535714Y-105502380D01*
X66202380Y-105883333D01*
X66345238Y-105883333D01*
X66440476Y-105930952D01*
X66488095Y-105978571D01*
X66535714Y-106073809D01*
X66535714Y-106311904D01*
X66488095Y-106407142D01*
X66440476Y-106454761D01*
X66345238Y-106502380D01*
X66059523Y-106502380D01*
X65964285Y-106454761D01*
X65916666Y-106407142D01*
%TO.C,J2*%
X79216666Y-111102380D02*
X79216666Y-111816666D01*
X79169047Y-111959523D01*
X79073809Y-112054761D01*
X78930952Y-112102380D01*
X78835714Y-112102380D01*
X79645238Y-111197619D02*
X79692857Y-111150000D01*
X79788095Y-111102380D01*
X80026190Y-111102380D01*
X80121428Y-111150000D01*
X80169047Y-111197619D01*
X80216666Y-111292857D01*
X80216666Y-111388095D01*
X80169047Y-111530952D01*
X79597619Y-112102380D01*
X80216666Y-112102380D01*
D14*
%TO.C,J1*%
X52010000Y-84520000D02*
X44390000Y-84520000D01*
X44390000Y-94680000D02*
X52010000Y-94680000D01*
X44390000Y-84520000D02*
X44390000Y-94680000D01*
X52010000Y-94680000D02*
X52010000Y-84520000D01*
X50740000Y-84520000D02*
X50740000Y-94680000D01*
%TO.C,C13*%
X68357836Y-85495000D02*
X68142164Y-85495000D01*
X68357836Y-86215000D02*
X68142164Y-86215000D01*
%TO.C,D1*%
X79350000Y-104550000D02*
X79350000Y-107100000D01*
X77650000Y-104550000D02*
X77650000Y-107100000D01*
X79350000Y-104550000D02*
X77650000Y-104550000D01*
%TO.C,U1*%
X74310000Y-92140000D02*
X74310000Y-91190000D01*
X74310000Y-91190000D02*
X73360000Y-91190000D01*
X74310000Y-101410000D02*
X73360000Y-101410000D01*
X64090000Y-92140000D02*
X64090000Y-91190000D01*
X64090000Y-100460000D02*
X64090000Y-101410000D01*
X64090000Y-91190000D02*
X65040000Y-91190000D01*
X73360000Y-91190000D02*
X73360000Y-89850000D01*
X74310000Y-100460000D02*
X74310000Y-101410000D01*
X64090000Y-101410000D02*
X65040000Y-101410000D01*
%TO.C,C10*%
X66140000Y-87107836D02*
X66140000Y-86892164D01*
X66860000Y-87107836D02*
X66860000Y-86892164D01*
%TO.C,C11*%
X66992164Y-89010000D02*
X67207836Y-89010000D01*
X66992164Y-88290000D02*
X67207836Y-88290000D01*
%TO.C,C1*%
X54390000Y-93111252D02*
X54390000Y-91688748D01*
X56210000Y-93111252D02*
X56210000Y-91688748D01*
%TO.C,C8*%
X77260000Y-92442164D02*
X77260000Y-92657836D01*
X76540000Y-92442164D02*
X76540000Y-92657836D01*
%TO.C,C3*%
X75040000Y-88307836D02*
X75040000Y-88092164D01*
X75760000Y-88307836D02*
X75760000Y-88092164D01*
%TO.C,C6*%
X61860000Y-99907836D02*
X61860000Y-99692164D01*
X61140000Y-99907836D02*
X61140000Y-99692164D01*
%TO.C,C2*%
X58910000Y-93111252D02*
X58910000Y-91688748D01*
X57090000Y-93111252D02*
X57090000Y-91688748D01*
%TO.C,SW1*%
X85150000Y-90200000D02*
X88450000Y-90200000D01*
X88450000Y-90200000D02*
X88450000Y-89900000D01*
X88450000Y-87400000D02*
X88450000Y-87700000D01*
X85150000Y-89900000D02*
X85150000Y-90200000D01*
X85150000Y-87700000D02*
X85150000Y-87400000D01*
X85150000Y-87400000D02*
X88450000Y-87400000D01*
%TO.C,R1*%
X78146359Y-94170000D02*
X78453641Y-94170000D01*
X78146359Y-94930000D02*
X78453641Y-94930000D01*
%TO.C,R2*%
X63112742Y-111772500D02*
X63587258Y-111772500D01*
X63112742Y-110727500D02*
X63587258Y-110727500D01*
%TO.C,Y1*%
X68250000Y-86600000D02*
X71850000Y-86600000D01*
X68250000Y-88600000D02*
X71850000Y-88600000D01*
X68250000Y-86600000D02*
X68250000Y-88600000D01*
%TO.C,R3*%
X60037258Y-111772500D02*
X59562742Y-111772500D01*
X60037258Y-110727500D02*
X59562742Y-110727500D01*
%TO.C,C4*%
X73407836Y-88340000D02*
X73192164Y-88340000D01*
X73407836Y-89060000D02*
X73192164Y-89060000D01*
D15*
%TO.C,U3*%
X57025000Y-97025000D02*
X57025000Y-99975000D01*
X56375000Y-97025000D02*
X57025000Y-97025000D01*
X54875000Y-97000000D02*
X56025000Y-97000000D01*
X56375000Y-99975000D02*
X56375000Y-97025000D01*
X57025000Y-99975000D02*
X56375000Y-99975000D01*
D14*
%TO.C,J4*%
X82770000Y-110745000D02*
X84100000Y-110745000D01*
X85370000Y-113405000D02*
X85370000Y-110745000D01*
X82770000Y-112075000D02*
X82770000Y-110745000D01*
X85370000Y-113405000D02*
X100670000Y-113405000D01*
X85370000Y-110745000D02*
X100670000Y-110745000D01*
X100670000Y-113405000D02*
X100670000Y-110745000D01*
%TO.C,C9*%
X86692164Y-86190000D02*
X86907836Y-86190000D01*
X86692164Y-86910000D02*
X86907836Y-86910000D01*
%TO.C,C12*%
X71842164Y-86215000D02*
X72057836Y-86215000D01*
X71842164Y-85495000D02*
X72057836Y-85495000D01*
%TO.C,C7*%
X73157836Y-104460000D02*
X72942164Y-104460000D01*
X73157836Y-103740000D02*
X72942164Y-103740000D01*
D13*
%TO.C,U2*%
X83287500Y-107800000D02*
X99287500Y-107800000D01*
X83287500Y-90800000D02*
X99287500Y-90800000D01*
X82787500Y-90300000D02*
G75*
G03*
X82787500Y-90300000I-500000J0D01*
G01*
D14*
%TO.C,C5*%
X61860000Y-93357836D02*
X61860000Y-93142164D01*
X61140000Y-93357836D02*
X61140000Y-93142164D01*
%TO.C,D2*%
X61815000Y-107865000D02*
X61815000Y-109335000D01*
X64100000Y-107865000D02*
X61815000Y-107865000D01*
X61815000Y-109335000D02*
X64100000Y-109335000D01*
%TO.C,D3*%
X64735000Y-106785000D02*
X64735000Y-105315000D01*
X64735000Y-105315000D02*
X62450000Y-105315000D01*
X62450000Y-106785000D02*
X64735000Y-106785000D01*
%TO.C,J2*%
X70870000Y-112905000D02*
X70870000Y-110245000D01*
X68270000Y-110245000D02*
X69600000Y-110245000D01*
X70870000Y-110245000D02*
X78550000Y-110245000D01*
X70870000Y-112905000D02*
X78550000Y-112905000D01*
X78550000Y-112905000D02*
X78550000Y-110245000D01*
X68270000Y-111575000D02*
X68270000Y-110245000D01*
%TO.C,J7*%
X106637500Y-111650000D02*
X106637500Y-110540000D01*
X102377500Y-109700000D02*
X101877500Y-109450000D01*
X106637500Y-108860000D02*
X106637500Y-107750000D01*
X101877500Y-109450000D02*
X101877500Y-109950000D01*
X102927500Y-111650000D02*
X102927500Y-110540000D01*
X102927500Y-108860000D02*
X102927500Y-107750000D01*
X101877500Y-109950000D02*
X102377500Y-109700000D01*
%TD*%
M02*
