M48
; DRILL file {KiCad (6.0.1)} date Wed Nov 30 22:24:41 2022
; FORMAT={-:-/ absolute / inch / decimal}
; #@! TF.CreationDate,2022-11-30T22:24:41-05:00
; #@! TF.GenerationSoftware,Kicad,Pcbnew,(6.0.1)
; #@! TF.FileFunction,Plated,1,2,PTH
FMAT,2
INCH
; #@! TA.AperFunction,Plated,PTH,ViaDrill
T1C0.0118
; #@! TA.AperFunction,Plated,PTH,ViaDrill
T2C0.0157
; #@! TA.AperFunction,Plated,PTH,ComponentDrill
T3C0.0394
; #@! TA.AperFunction,Plated,PTH,ComponentDrill
T4C0.0598
; #@! TA.AperFunction,Plated,PTH,ComponentDrill
T5C0.0866
%
G90
G05
T1
X1.9902Y-3.4303
X2.0441Y-3.4819
X2.0512Y-3.5496
X2.1024Y-3.5807
X2.2295Y-3.8756
X2.2787Y-4.3807
X2.3799Y-3.7283
X2.4217Y-3.6217
X2.4217Y-3.8783
X2.5642Y-3.6843
X2.5744Y-4.3799
X2.585Y-3.4083
X2.6161Y-3.628
X2.6346Y-3.3783
X2.6614Y-3.4606
X2.6988Y-3.815
X2.7343Y-3.7185
X2.7795Y-3.6772
X2.8622Y-4.1417
X2.8661Y-3.4563
X2.8858Y-3.3823
X2.9764Y-3.4173
X3.0067Y-3.9602
X3.0591Y-3.6634
X3.1024Y-3.6909
X3.1949Y-4.2193
X3.2362Y-3.4961
X3.511Y-4.272
X3.6114Y-4.1685
T2
X3.2445Y-4.2898
X3.2547Y-3.7602
X3.5276Y-3.4961
T3
X2.0394Y-4.0858
X2.0394Y-4.1858
X2.0394Y-4.2858
X2.0394Y-4.3858
X2.7402Y-4.3927
X2.8402Y-4.3927
X2.9402Y-4.3927
X3.0402Y-4.3927
X3.311Y-4.4124
X3.411Y-4.4124
X3.511Y-4.4124
X3.611Y-4.4124
X3.711Y-4.4124
X3.811Y-4.4124
X3.911Y-4.4124
X4.0984Y-3.3701
X4.0984Y-3.4701
X4.0984Y-3.5701
X4.0984Y-3.6701
X4.0984Y-3.7701
X4.0984Y-3.8701
X4.0984Y-3.9701
X4.0984Y-4.0701
T4
X1.8976Y-3.4276
X1.8976Y-3.6276
T5
X1.8701Y-3.8701
X4.315Y-3.8701
T0
M30
