%TF.GenerationSoftware,KiCad,Pcbnew,(6.0.1)*%
%TF.CreationDate,2022-10-05T00:35:00-05:00*%
%TF.ProjectId,PCBFiles_Node,50434246-696c-4657-935f-4e6f64652e6b,rev?*%
%TF.SameCoordinates,Original*%
%TF.FileFunction,Legend,Bot*%
%TF.FilePolarity,Positive*%
%FSLAX46Y46*%
G04 Gerber Fmt 4.6, Leading zero omitted, Abs format (unit mm)*
G04 Created by KiCad (PCBNEW (6.0.1)) date 2022-10-05 00:35:00*
%MOMM*%
%LPD*%
G01*
G04 APERTURE LIST*
%ADD10C,0.150000*%
%ADD11C,0.120000*%
G04 APERTURE END LIST*
D10*
X55061904Y-108352380D02*
X54490476Y-108352380D01*
X54776190Y-109352380D02*
X54776190Y-108352380D01*
X54252380Y-108352380D02*
X53585714Y-109352380D01*
X53585714Y-108352380D02*
X54252380Y-109352380D01*
X54516666Y-106802380D02*
X54850000Y-106326190D01*
X55088095Y-106802380D02*
X55088095Y-105802380D01*
X54707142Y-105802380D01*
X54611904Y-105850000D01*
X54564285Y-105897619D01*
X54516666Y-105992857D01*
X54516666Y-106135714D01*
X54564285Y-106230952D01*
X54611904Y-106278571D01*
X54707142Y-106326190D01*
X55088095Y-106326190D01*
X54183333Y-105802380D02*
X53516666Y-106802380D01*
X53516666Y-105802380D02*
X54183333Y-106802380D01*
X55311904Y-111050000D02*
X55407142Y-111002380D01*
X55550000Y-111002380D01*
X55692857Y-111050000D01*
X55788095Y-111145238D01*
X55835714Y-111240476D01*
X55883333Y-111430952D01*
X55883333Y-111573809D01*
X55835714Y-111764285D01*
X55788095Y-111859523D01*
X55692857Y-111954761D01*
X55550000Y-112002380D01*
X55454761Y-112002380D01*
X55311904Y-111954761D01*
X55264285Y-111907142D01*
X55264285Y-111573809D01*
X55454761Y-111573809D01*
X54835714Y-112002380D02*
X54835714Y-111002380D01*
X54264285Y-112002380D01*
X54264285Y-111002380D01*
X53788095Y-112002380D02*
X53788095Y-111002380D01*
X53550000Y-111002380D01*
X53407142Y-111050000D01*
X53311904Y-111145238D01*
X53264285Y-111240476D01*
X53216666Y-111430952D01*
X53216666Y-111573809D01*
X53264285Y-111764285D01*
X53311904Y-111859523D01*
X53407142Y-111954761D01*
X53550000Y-112002380D01*
X53788095Y-112002380D01*
X55935714Y-103921428D02*
X55173809Y-103921428D01*
X55554761Y-104302380D02*
X55554761Y-103540476D01*
X54221428Y-103302380D02*
X54697619Y-103302380D01*
X54745238Y-103778571D01*
X54697619Y-103730952D01*
X54602380Y-103683333D01*
X54364285Y-103683333D01*
X54269047Y-103730952D01*
X54221428Y-103778571D01*
X54173809Y-103873809D01*
X54173809Y-104111904D01*
X54221428Y-104207142D01*
X54269047Y-104254761D01*
X54364285Y-104302380D01*
X54602380Y-104302380D01*
X54697619Y-104254761D01*
X54745238Y-104207142D01*
X53888095Y-103302380D02*
X53554761Y-104302380D01*
X53221428Y-103302380D01*
%TO.C,J5*%
X45477380Y-107366666D02*
X46191666Y-107366666D01*
X46334523Y-107319047D01*
X46429761Y-107223809D01*
X46477380Y-107080952D01*
X46477380Y-106985714D01*
X45477380Y-108319047D02*
X45477380Y-107842857D01*
X45953571Y-107795238D01*
X45905952Y-107842857D01*
X45858333Y-107938095D01*
X45858333Y-108176190D01*
X45905952Y-108271428D01*
X45953571Y-108319047D01*
X46048809Y-108366666D01*
X46286904Y-108366666D01*
X46382142Y-108319047D01*
X46429761Y-108271428D01*
X46477380Y-108176190D01*
X46477380Y-107938095D01*
X46429761Y-107842857D01*
X46382142Y-107795238D01*
%TO.C,J3*%
X100782380Y-94316666D02*
X101496666Y-94316666D01*
X101639523Y-94269047D01*
X101734761Y-94173809D01*
X101782380Y-94030952D01*
X101782380Y-93935714D01*
X100782380Y-94697619D02*
X100782380Y-95316666D01*
X101163333Y-94983333D01*
X101163333Y-95126190D01*
X101210952Y-95221428D01*
X101258571Y-95269047D01*
X101353809Y-95316666D01*
X101591904Y-95316666D01*
X101687142Y-95269047D01*
X101734761Y-95221428D01*
X101782380Y-95126190D01*
X101782380Y-94840476D01*
X101734761Y-94745238D01*
X101687142Y-94697619D01*
D11*
%TO.C,J5*%
X41710000Y-110602385D02*
X50340000Y-110602385D01*
X50340000Y-104140000D02*
X50750000Y-104140000D01*
X50340000Y-103420000D02*
X50750000Y-103420000D01*
X41710000Y-112137620D02*
X50340000Y-112137620D01*
X41710000Y-112255715D02*
X50340000Y-112255715D01*
X41710000Y-105050000D02*
X50340000Y-105050000D01*
X50340000Y-112730000D02*
X50340000Y-102450000D01*
X50340000Y-106680000D02*
X50750000Y-106680000D01*
X41710000Y-107590000D02*
X50340000Y-107590000D01*
X41710000Y-111310955D02*
X50340000Y-111310955D01*
X50340000Y-108500000D02*
X50750000Y-108500000D01*
X41710000Y-112730000D02*
X41710000Y-102450000D01*
X41710000Y-110248100D02*
X50340000Y-110248100D01*
X41710000Y-111665240D02*
X50340000Y-111665240D01*
X41710000Y-111901430D02*
X50340000Y-111901430D01*
X50340000Y-111040000D02*
X50690000Y-111040000D01*
X41710000Y-110484290D02*
X50340000Y-110484290D01*
X41710000Y-112730000D02*
X50340000Y-112730000D01*
X41710000Y-102450000D02*
X50340000Y-102450000D01*
X41710000Y-111547145D02*
X50340000Y-111547145D01*
X50340000Y-105960000D02*
X50750000Y-105960000D01*
X41710000Y-111074765D02*
X50340000Y-111074765D01*
X41710000Y-110720480D02*
X50340000Y-110720480D01*
X41710000Y-111429050D02*
X50340000Y-111429050D01*
X41710000Y-111783335D02*
X50340000Y-111783335D01*
X41710000Y-112019525D02*
X50340000Y-112019525D01*
X50340000Y-111760000D02*
X50690000Y-111760000D01*
X41710000Y-110366195D02*
X50340000Y-110366195D01*
X50340000Y-109220000D02*
X50750000Y-109220000D01*
X41710000Y-112610000D02*
X50340000Y-112610000D01*
X41710000Y-110838575D02*
X50340000Y-110838575D01*
X51800000Y-112730000D02*
X52910000Y-112730000D01*
X41710000Y-110956670D02*
X50340000Y-110956670D01*
X41710000Y-111192860D02*
X50340000Y-111192860D01*
X41710000Y-110130000D02*
X50340000Y-110130000D01*
X41710000Y-112491905D02*
X50340000Y-112491905D01*
X52910000Y-112730000D02*
X52910000Y-111400000D01*
X41710000Y-112373810D02*
X50340000Y-112373810D01*
%TO.C,J3*%
X100000000Y-85640000D02*
X94000000Y-85640000D01*
X102660000Y-94490000D02*
X100000000Y-94490000D01*
X100000000Y-87760000D02*
X94000000Y-87760000D01*
X105370000Y-85600000D02*
X105370000Y-84330000D01*
X103057071Y-98680000D02*
X102660000Y-98680000D01*
X94000000Y-91060000D02*
X100000000Y-91060000D01*
X103057071Y-100460000D02*
X102660000Y-100460000D01*
X94000000Y-85980000D02*
X100000000Y-85980000D01*
X94000000Y-88520000D02*
X100000000Y-88520000D01*
X103057071Y-101220000D02*
X102660000Y-101220000D01*
X103057071Y-95380000D02*
X102660000Y-95380000D01*
X100000000Y-85220000D02*
X94000000Y-85220000D01*
X100000000Y-90300000D02*
X94000000Y-90300000D01*
X102990000Y-85220000D02*
X102660000Y-85220000D01*
X103057071Y-91060000D02*
X102660000Y-91060000D01*
X100000000Y-97920000D02*
X94000000Y-97920000D01*
X103057071Y-103000000D02*
X102660000Y-103000000D01*
X94000000Y-96140000D02*
X100000000Y-96140000D01*
X103057071Y-103760000D02*
X102660000Y-103760000D01*
X100000000Y-84270000D02*
X102660000Y-84270000D01*
X94000000Y-103760000D02*
X100000000Y-103760000D01*
X94000000Y-87760000D02*
X94000000Y-88520000D01*
X100000000Y-85280000D02*
X94000000Y-85280000D01*
X100000000Y-85520000D02*
X94000000Y-85520000D01*
X100000000Y-103000000D02*
X94000000Y-103000000D01*
X103057071Y-88520000D02*
X102660000Y-88520000D01*
X103057071Y-92840000D02*
X102660000Y-92840000D01*
X94000000Y-93600000D02*
X100000000Y-93600000D01*
X100000000Y-95380000D02*
X94000000Y-95380000D01*
X94000000Y-101220000D02*
X100000000Y-101220000D01*
X102660000Y-99570000D02*
X100000000Y-99570000D01*
X100000000Y-85400000D02*
X94000000Y-85400000D01*
X94000000Y-98680000D02*
X100000000Y-98680000D01*
X102660000Y-104710000D02*
X100000000Y-104710000D01*
X100000000Y-104710000D02*
X100000000Y-84270000D01*
X102660000Y-97030000D02*
X100000000Y-97030000D01*
X94000000Y-97920000D02*
X94000000Y-98680000D01*
X102660000Y-89410000D02*
X100000000Y-89410000D01*
X102660000Y-86870000D02*
X100000000Y-86870000D01*
X105370000Y-84330000D02*
X104100000Y-84330000D01*
X100000000Y-100460000D02*
X94000000Y-100460000D01*
X102660000Y-91950000D02*
X100000000Y-91950000D01*
X103057071Y-87760000D02*
X102660000Y-87760000D01*
X100000000Y-85760000D02*
X94000000Y-85760000D01*
X94000000Y-85220000D02*
X94000000Y-85980000D01*
X94000000Y-100460000D02*
X94000000Y-101220000D01*
X103057071Y-90300000D02*
X102660000Y-90300000D01*
X100000000Y-85880000D02*
X94000000Y-85880000D01*
X94000000Y-92840000D02*
X94000000Y-93600000D01*
X94000000Y-90300000D02*
X94000000Y-91060000D01*
X103057071Y-97920000D02*
X102660000Y-97920000D01*
X94000000Y-103000000D02*
X94000000Y-103760000D01*
X102660000Y-102110000D02*
X100000000Y-102110000D01*
X103057071Y-93600000D02*
X102660000Y-93600000D01*
X94000000Y-95380000D02*
X94000000Y-96140000D01*
X100000000Y-92840000D02*
X94000000Y-92840000D01*
X103057071Y-96140000D02*
X102660000Y-96140000D01*
X102660000Y-84270000D02*
X102660000Y-104710000D01*
X102990000Y-85980000D02*
X102660000Y-85980000D01*
%TD*%
M02*
